<?xml version="1.0" standalone="no"?>
<svg width="110" height="108" viewBox="0 0 110 108" xmlns="http://www.w3.org/2000/svg" xmlns:xlink="http://www.w3.org/1999/xlink" version="1.1"><!--?xml version="1.0" encoding="utf-8"?-->
<!-- Generator: Adobe Illustrator 15.0.2, SVG Export Plug-In . SVG Version: 6.00 Build 0)  -->

<svg version="1.1" id="Ebene_1" xmlns="http://www.w3.org/2000/svg" xmlns:xlink="http://www.w3.org/1999/xlink" x="0px" y="0px" width="100px" height="100px" viewBox="0 0 100 100" enable-background="new 0 0 100 100" xml:space="preserve">
<circle fill="#B2B2B2" cx="50" cy="50" r="50"></circle></svg><path d="M 53.25 18.99932451885001 L 43 19 L 43 27.5 L 43 36 L 26.5 36 L 10 36 L 10 57 L 10 78 L 28.75 78.07471430307953 C 39.0625 78.11580716977329 58.41184981577834 78.22830716977329 71.74855514617408 78.32471430307953 L 95.99711029234817 78.5 L 95.99855514617408 57.25 L 96 36 L 79.5 36 L 63 36 L 63.25 27.49932451885001 L 63.5 18.998649037700023 L 53.25 18.99932451885001 Z M 52.75 21.97222222222222 C 53.4375 21.9875 55.346608264275666 22.7875 56.99246280950149 23.75 C 58.638317354727306 24.7125 60.12411605568312 26.175 60.29423770051441 27 C 60.4643593453457 27.825 60.45535350375919 29.175 60.27422471921106 30 C 60.09309593466293 30.825 58.607297233707115 32.2875 56.97244982819814 33.25 C 55.13385213061091 34.332455939291016 52.855638753070316 34.80927312551172 51 34.5 C 49.074374032152335 34.179062338692056 47.552344153269864 33.08444814553386 46.75 31.443482920100045 C 45.84579188437664 29.594184126999828 45.7832952742363 28.141858212617937 46.524081561178775 26.193482920100045 C 47.0873264198271 24.712067314045022 48.0623264198271 23.5 48.69074822784545 23.5 C 49.319170035863785 23.5 50.208333333333336 23.15 50.66666666666667 22.72222222222222 C 51.125 22.294444444444444 52.0625 21.956944444444442 52.75 21.97222222222222 Z M 56.5 24.988944098635884 C 55.95 24.993048538070802 55.00302819638381 25.78471520473747 54.39561821418624 26.748203357895143 L 53.29123642837248 28.5 L 51.39561821418624 27.054768372730706 L 49.5 25.60953674546141 L 51.25396825396825 27.554768372730706 L 53.007936507936506 29.5 L 55.25396825396825 27.24074074074074 C 56.489285714285714 25.998148148148147 57.05 24.98483965920096 56.5 24.988944098635884 Z M 19.5 40 L 25 40 L 25 42.5 L 25 45 L 19.498636647298856 45.25 L 13.99727329459771 45.5 L 13.998636647298856 42.75 L 14 40 L 19.5 40 Z M 36.5 40 L 42 40 L 42 42.5 L 42 45 L 36.5 45 L 31 45 L 31 42.5 L 31 40 L 36.5 40 Z M 52.5 40 L 58 40 L 58.00136335270115 42.75 L 58.002726705402296 45.5 L 52.50136335270115 45.25 L 47 45 L 47 42.5 L 47 40 L 52.5 40 Z M 69.5 40 L 75 40 L 75.00136335270115 42.75 L 75.0027267054023 45.5 L 69.50136335270115 45.25 L 64 45 L 64 42.5 L 64 40 L 69.5 40 Z M 86.5 40 L 92 40 L 92.00136335270115 42.75 L 92.0027267054023 45.5 L 86.50136335270115 45.25 L 81 45 L 81 42.5 L 81 40 L 86.5 40 Z M 19.5 49 L 25 49 L 25 52 L 25 55 L 19.496819415698585 54.75 L 13.993638831397169 54.5 L 13.996819415698585 51.75 L 14 49 L 19.5 49 Z M 36.5 49 L 42 49 L 42 52 L 42 55 L 36.5 55 L 31 55 L 31 52 L 31 49 L 36.5 49 Z M 52.5 49 L 58 49 L 58.00318058430142 51.75 L 58.00636116860283 54.5 L 52.50318058430142 54.75 L 47 55 L 47 52 L 47 49 L 52.5 49 Z M 69.5 49 L 75 49 L 75.00318058430142 51.75 L 75.00636116860284 54.5 L 69.50318058430142 54.75 L 64 55 L 64 52 L 64 49 L 69.5 49 Z M 86.5 49 L 92 49 L 92.00318058430142 51.75 L 92.00636116860284 54.5 L 86.50318058430142 54.75 L 81 55 L 81 52 L 81 49 L 86.5 49 Z M 19.5 58 L 25 58 L 25 61 L 25 64 L 19.5 64 L 14 64 L 14 61 L 14 58 L 19.5 58 Z M 36.5 58 L 42 58 L 42 61 L 42 64 L 36.5 64 L 31 64 L 31 61 L 31 58 L 36.5 58 Z M 52.5 58 L 58 58 L 58 61 L 58 64 L 52.5 64 L 47 64 L 47 61 L 47 58 L 52.5 58 Z M 69.5 58 L 75 58 L 75 61 L 75 64 L 69.5 64 L 64 64 L 64 61 L 64 58 L 69.5 58 Z M 86.5 58 L 92 58 L 92 61 L 92 64 L 86.5 64 L 81 64 L 81 61 L 81 58 L 86.5 58 Z M 19.5 67 L 25 67 L 25 70 L 25 73 L 19.5 73 L 14 73 L 14 70 L 14 67 L 19.5 67 Z M 36.5 67 L 42 67 L 42 70 L 42 73 L 36.5 73 L 31 73 L 31 70 L 31 67 L 36.5 67 Z M 49 67 L 52 67 L 52 72 L 52 77 L 49 77 L 46 77 L 46 72 L 46 67 L 49 67 Z M 57 67 L 60 67 L 60 72 L 60 77 L 57 77 L 54 77 L 54 72 L 54 67 L 57 67 Z M 69.5 67 L 75 67 L 75 70 L 75 73 L 69.5 73 L 64 73 L 64 70 L 64 67 L 69.5 67 Z M 86.5 67 L 92 67 L 92 70 L 92 73 L 86.5 73 L 81 73 L 81 70 L 81 67 L 86.5 67 Z M 58.70573300690911 69.5 C 58.46738011232569 68.4 58.27236410766653 69.525 58.27236410766653 72 C 58.27236410766653 74.475 58.46738011232569 75.375 58.70573300690911 74 L 59.13910190615168 71.5 L 58.70573300690911 69.5 Z " fill="#000000" transform="matrix(1 0 0 1 -3.025 -5.225)"></path></svg>
