<?xml version="1.0" standalone="no"?>
<svg width="105" height="108" viewBox="0 0 105 108" xmlns="http://www.w3.org/2000/svg" xmlns:xlink="http://www.w3.org/1999/xlink" version="1.1"><!--?xml version="1.0" encoding="utf-8"?-->
<!-- Generator: Adobe Illustrator 15.0.2, SVG Export Plug-In . SVG Version: 6.00 Build 0)  -->

<svg version="1.1" id="Ebene_1" xmlns="http://www.w3.org/2000/svg" xmlns:xlink="http://www.w3.org/1999/xlink" x="0px" y="0px" width="100px" height="100px" viewBox="0 0 100 100" enable-background="new 0 0 100 100" xml:space="preserve">
<circle fill="#B2B2B2" cx="50" cy="50" r="50"></circle></svg><path d="M 37.5 22.473672179943666 C 33.677240766270586 22.180652068477762 29.86706942529706 22.556695750495305 27 23.50996643231063 C 24.525 24.332878119302123 21.4875 25.679781362165116 20.25 26.503084749783945 L 18 28 L 18.02018008576509 49.75 L 18.040360171530182 71.5 L 25.27018008576509 69.13775427782858 C 30.70851137076629 67.36085319783747 33.86285378856883 66.90333138271279 38 67.29135666401828 C 41.025 67.57507312361692 45.6375 68.75058369859406 48.25 69.90360238618972 L 53 72 L 52.75 49.75 L 52.5 27.5 L 48 25.21679049741698 C 45.416207339548045 23.905826062961832 40.94505688060261 22.7377408511416 37.5 22.473672179943666 Z M 73.5 22.423611897214897 C 70.75 22.255349761267038 67.6 22.362101885808613 66.5 22.660838840640622 C 65.4 22.959575795472634 62.34457652564908 24.170597628759772 59.71017005699795 25.351998470167594 L 54.920340113995906 27.5 L 54.96017005699795 49.75 L 55 72 L 59.75 69.77068668736904 C 63.3650975402837 68.0740161456819 66.29195125218362 67.54735705701094 72 67.56641736909441 C 76.95290889134749 67.58295611873739 80.68864251737118 68.16587869708319 83 69.28285355103623 L 86.5 70.97424573862172 L 83 70.23712286931087 C 81.075 69.83170529118989 75.86121421200183 69.5 71.41380936000407 69.5 C 64.9867081537238 69.5 62.31942468261403 69.98217894336655 58.413809360004066 71.85007877177642 L 53.5 74.20015754355283 L 49 71.85724982359463 C 45.23080284740768 69.8948317998495 43.03839430518464 69.52044069993295 35.5 69.55189489018038 C 28.378562124145024 69.58160931645128 25.50853665670124 70.04975304011687 21.75 71.79472383836217 L 17 74 L 17 51.5 L 17 29 L 15.25 29 L 13.5 29 L 13.5 54.011054802876664 C 13.5 75.86413978853318 13.689394440305069 78.94037560019228 15 78.3747779937795 C 15.825 78.0187456071939 19.424999999999997 76.88747065824967 23 75.86083366279232 C 26.575000000000003 74.83419666733496 32.5375 73.99552123142868 36.25 73.99711047188947 C 40.25621389226793 73.99882544487592 44.930812446181825 74.72133660120451 47.75 75.77456327386797 C 50.3625 76.75057307449535 53.4 77.4824791614218 54.5 77.40102124481562 C 55.6 77.31956332820945 58.975 76.44919255007918 62 75.46686396008167 C 66.16420871638205 74.11459246361261 69.32153356856992 73.81623991420214 75 74.23842427651587 C 79.125 74.54511104055219 84.975 75.74170144462076 88 76.89751406333494 C 91.025 78.0533266820491 93.6125 78.99921845272726 93.75 78.99949577595308 C 93.8875 78.99977309917888 94 67.75 94 54 C 94 32.444444444444436 93.79333333333334 29 92.5 29 C 91.21111111111111 29 91 32.16666666666667 91 51.5 L 91 74 L 89.25 73.31549538029556 C 88.2875 72.93901783945812 87.95 72.48903895962944 88.5 72.3155423140096 C 89.13526974535732 72.1151474596764 89.42663911126171 63.884828583483014 89.2988626174975 49.75004693371404 L 89.09772523499501 27.5 L 83.7988626174975 25.11477152674187 C 80.88448817787388 23.802895866449894 76.25 22.591874033162757 73.5 22.423611897214897 Z " fill="#000000" transform="matrix(1 0 0 1 -2.97 -6.48)"></path></svg>
