<?xml version="1.0" standalone="no"?>
<svg width="105" height="108" viewBox="0 0 105 108" xmlns="http://www.w3.org/2000/svg" xmlns:xlink="http://www.w3.org/1999/xlink" version="1.1"><!--?xml version="1.0" encoding="utf-8"?-->
<!-- Generator: Adobe Illustrator 15.0.2, SVG Export Plug-In . SVG Version: 6.00 Build 0)  -->

<svg version="1.1" id="Ebene_1" xmlns="http://www.w3.org/2000/svg" xmlns:xlink="http://www.w3.org/1999/xlink" x="0px" y="0px" width="100px" height="100px" viewBox="0 0 100 100" enable-background="new 0 0 100 100" xml:space="preserve">
<circle fill="#B2B2B2" cx="50" cy="50" r="50"></circle></svg><g><path d="M 41.39967 16.16541 C 40.35485 15.98139 38.66127 16.65639 37.63615 17.66541 C 36.30099 18.97961 35.87551 20.56301 36.13615 23.24752 C 36.38126 25.77209 36.09208 26.99586 35.25 26.99752 C 34.5625 26.99889 33.55 27.9 33 29 C 32.45 30.1 32 33.925 32 37.5 C 32 41.075 31.2125 46.48015 30.25 49.51144 C 29.2875 52.54274 28.05 55.01009 27.5 54.99446 C 26.95 54.97883 27.4 55.63436 28.5 56.45121 C 29.6 57.26806 31.2875 57.9507 32.25 57.9682 C 33.2125 57.98569 34.07697 58.7875 34.17105 59.75 C 34.26513 60.7125 34.42547 62.175 34.52737 63 C 34.62927 63.825 34.97978 65.175 35.30627 66 C 35.63277 66.825 36.81623 72 37.93618 77.5 C 39.12968 83.36123 39.66775 88.48388 39.23623 89.87723 C 38.58067 91.994 38.77392 92.21313 41 91.87723 C 42.93432 91.58536 43.57189 90.82118 43.81772 88.5 C 44.06188 86.19463 44.34776 85.84731 45.05241 87 L 45.96937 88.5 L 45.97853 87 C 45.98356 86.175 45.30065 84.15 44.46095 82.5 C 43.62125 80.85 42.86907 78.375 42.78943 77 C 42.7098 75.625 43.14314 72.925 43.75242 71 C 44.3617 69.075 45.11666 65.5875 45.4301 63.25 C 45.81332 60.39218 46.49136 59 47.5 59 C 48.35609 59 49.04752 58.03414 49.11069 56.75 C 49.17157 55.5125 49.14357 53.6 49.04847 52.5 C 48.91332 50.93675 49.70805 50.32916 52.68778 49.71766 C 54.7845 49.28737 56.64178 49.06237 56.81506 49.21766 C 56.98835 49.37295 56.87585 50.5125 56.56506 51.75 C 56.25428 52.9875 55.4375 53.98704 54.75 53.97119 C 54.0625 53.95534 52.9375 55.08034 52.25 56.47119 L 51 59 L 52.25 61.4922 C 52.9375 62.86291 54.175 64.0412 55 64.11062 C 55.825 64.18004 56.8375 64.18355 57.25 64.11842 C 57.6625 64.05329 57.8875 68.04876 57.75 72.99724 L 57.5 81.99448 L 60 82.04177 C 61.375 82.06777 62.99755 81.50651 63.60567 80.79453 C 64.21379 80.08254 65.22629 77.3625 65.85567 74.75 C 66.48505 72.1375 67 68.425 67 66.5 C 67 64.05556 67.45238 63 68.5 63 C 69.61149 63 69.84851 62.28774 69.41509 60.25 C 69.09339 58.7375 68.30589 57.19598 67.66509 56.8244 C 66.98906 56.43239 67.54939 56.01263 69 55.8244 L 71.5 55.5 L 71.55623 47.5 C 71.58715 43.1 71.30811 38.825 70.93614 38 C 70.56416 37.175 69.18886 36.19276 67.87991 35.81724 C 66.00117 35.27826 64.86825 35.81115 62.5 38.34777 C 60.85 40.11508 58.375 42.10054 57 42.7599 C 55.625 43.41925 53.2625 44.41801 51.75 44.97936 L 49 46 L 49.4454 43.75 C 49.69038 42.5125 50.14038 39.3625 50.4454 36.75 C 50.88523 32.98298 50.62534 31.63785 49.18954 30.25 C 48.19379 29.2875 47.31168 26.925 47.2293 25 C 47.14691 23.075 46.22897 20.375 45.18943 19 C 44.14988 17.625 42.44449 16.34944 41.39967 16.16541 Z " class="odd" fill="#000000"></path><path d="M 63.05331 66.5 C 63.47945 67.6 63.58425 70.3 63.2862 72.5 C 62.98814 74.7 62.34432 76.95 61.85547 77.5 C 61.28579 78.14096 60.92777 77.96143 60.85833 77 C 60.79875 76.175 60.72034 75.05 60.68409 74.5 C 60.64784 73.95 60.99175 71.475 61.44835 69 C 62.11383 65.39267 62.43221 64.89674 63.05331 66.5 Z " class="even" fill="#ffffff"></path></g></svg>
