<?xml version="1.0" standalone="no"?>
<svg width="105" height="108" viewBox="0 0 105 108" xmlns="http://www.w3.org/2000/svg" xmlns:xlink="http://www.w3.org/1999/xlink" version="1.1"><!--?xml version="1.0" encoding="utf-8"?-->
<!-- Generator: Adobe Illustrator 15.0.2, SVG Export Plug-In . SVG Version: 6.00 Build 0)  -->

<svg version="1.1" id="Ebene_1" xmlns="http://www.w3.org/2000/svg" xmlns:xlink="http://www.w3.org/1999/xlink" x="0px" y="0px" width="100px" height="100px" viewBox="0 0 100 100" enable-background="new 0 0 100 100" xml:space="preserve">
<circle fill="#B2B2B2" cx="50" cy="50" r="50"></circle></svg><g><path d="M 57.5 17.02581 C 56.95 17.0683 54.8125 17.75487 52.75 18.55153 L 49 20 L 48.99227 24.25 C 48.98802 26.5875 49.66302 29.5125 50.49227 30.75 L 52 33 L 48.86398 34.25 C 47.13918 34.9375 45.11418 36.7375 44.36398 38.25 C 43.61379 39.7625 42.4375 41.01368 41.75 41.03041 C 41.0625 41.04713 41.2875 41.49713 42.25 42.03041 C 43.2125 42.56368 44 43.45 44 44 C 44 44.55 43.40865 45.5625 42.68588 46.25 C 41.96311 46.9375 40.77532 50.2 40.04634 53.5 C 39.31736 56.8 39.00872 60.0625 39.36046 60.75 C 39.71221 61.4375 40.9 62 42 62 C 43.43011 62 43.85638 61.50135 43.49596 60.25 C 43.21874 59.2875 43.38169 58.05 43.85808 57.5 C 44.33446 56.95 45.0223 55.15 45.3866 53.5 C 45.75091 51.85 46.37546 50.87251 46.77449 51.32779 C 47.17352 51.78308 47.39645 54.70808 47.26988 57.82779 C 47.14332 60.94751 47.39961 63.725 47.83941 64 C 48.27922 64.275 49.39527 67.5375 50.31953 71.25 C 51.24379 74.9625 51.7066 78.7875 51.348 79.75 C 50.9894 80.7125 50.0894 82.2875 49.348 83.25 C 48.6066 84.2125 48.225 85.45 48.5 86 C 48.775 86.55 50.0125 87.01157 51.25 87.02571 C 52.4875 87.03986 54.625 85.90613 56 84.50631 L 58.5 81.9612 L 57.16565 78.2306 C 56.43175 76.17877 56.00858 73.15 56.22528 71.5 C 56.5665 68.90175 56.72149 68.76784 57.38263 70.5 C 57.80249 71.6 58.8561 74.075 59.72399 76 C 60.59188 77.925 61.47226 80.85 61.68037 82.5 C 61.88849 84.15 62.38304 85.80623 62.77938 86.18051 C 63.17572 86.55479 66.2 87.00479 69.5 87.18051 C 74.91145 87.46866 75.5 87.30671 75.5 85.52953 C 75.5 84.44578 74.59625 83.09578 73.49167 82.52953 C 72.38709 81.96329 70.56779 80.825 69.44878 80 C 68.32978 79.175 66.87103 76.5875 66.20712 74.25 C 65.5432 71.9125 64.55 70 64 70 C 63.45 70 63 68.425 63 66.5 C 63 64.575 63.45 63 64 63 C 64.55 63 65 61.875 65 60.5 C 65 59.125 64.4375 57.99311 63.75 57.98469 C 62.89845 57.97426 62.846 57.73519 63.58546 57.23469 C 64.18247 56.83061 65.12656 55.6 65.68345 54.5 L 66.69598 52.5 L 68.09799 55.78968 C 68.93788 57.76041 70.20164 59.06346 71.25 59.03968 C 72.2125 59.01786 73.15802 58.4375 73.35115 57.75 C 73.54428 57.0625 72.64428 55.2625 71.35115 53.75 C 70.05802 52.2375 69 50.325 69 49.5 C 69 48.675 68.4375 47.08627 67.75 45.96949 C 66.7188 44.29439 66.76256 43.78166 68 43.04025 C 69.30812 42.25649 69.24417 41.61679 67.5 38.03931 C 66.02718 35.0184 64.90692 33.94538 63.25 33.96854 C 61.53553 33.99251 61.1453 33.58347 61.61048 32.25 C 61.94624 31.2875 62.50874 28.61033 62.86048 26.30073 C 63.41002 22.69227 63.14827 21.73897 61 19.52502 C 59.625 18.10797 58.05 16.98333 57.5 17.02581 Z " class="odd" fill="#000000" transform="matrix(1 0 0 1 -9.99 -1.35)"></path></g></svg>
