<?xml version="1.0" standalone="no"?>
<svg width="400" height="400" viewBox="0 0 400 400" xmlns="http://www.w3.org/2000/svg" xmlns:xlink="http://www.w3.org/1999/xlink" version="1.1"><!--?xml version="1.0" encoding="utf-8"?-->
<!-- Generator: Adobe Illustrator 15.0.2, SVG Export Plug-In . SVG Version: 6.00 Build 0)  -->

<svg version="1.1" id="Ebene_1" xmlns="http://www.w3.org/2000/svg" xmlns:xlink="http://www.w3.org/1999/xlink" x="0px" y="0px" width="100px" height="100px" viewBox="0 0 100 100" enable-background="new 0 0 100 100" xml:space="preserve">
<circle fill="#B2B2B2" cx="50" cy="50" r="50"></circle></svg><path d="M 32 19 C 31.450000000000003 19 30.74132929538591 22.9375 30.42517621196869 27.75 C 30.109023128551474 32.5625 29.22194024806704 41 28.453880922003282 46.5 C 27.65341420109914 52.232066281306174 26.511666725248258 56.81355963823322 25.77870471003459 57.23468722548294 C 24.871383108180236 57.755994126955976 25.00826467926112 57.97382184663932 26.25 57.98468722548294 C 27.736269040420883 57.99769231273303 27.962324148631556 58.84237589739678 27.75 63.58962748551376 L 27.5 69.17925497102752 L 34.75048946000546 69.33962748551376 L 42.00097892001092 69.5 L 42.00048946000546 66.75 C 42.00014186600418 64.79706514758395 42.50722327573524 64.00027968844674 43.75 64.00096496908802 C 44.7125 64.00149570208642 50.45 65.82388233368758 56.5 68.05071303931281 C 62.55 70.27754374493804 71.22982686195904 73.76460950884844 75.78850413768677 75.79974807022481 C 80.34718141341449 77.83488663160117 84.05968141341448 79.8375 84.03850413768677 80.25 C 84.01732686195905 80.6625 84.9 81 86 81 L 88 81 L 87.75 68.61473321126564 L 87.5 56.22946642253129 L 81.5 55.609363586792796 C 78.2 55.26830702713662 73.925 54.98526917444567 72 54.98039058081291 C 70.075 54.97551198718014 66.475 53.970029703127665 64 52.74598550514074 C 61.525 51.52194130715381 56.9125 48.15334921477522 53.75 45.26022529985498 C 50.5875 42.36710138493474 47.99222554995407 39.4375 47.98272344434238 38.75 C 47.9732213387307 38.0625 46.769678284227865 36.375 45.30818332322498 35 C 43.846688362222096 33.625 43.066962812268024 33.25124857740172 43.5754598788826 34.16944128311493 C 44.08395694549717 35.08763398882814 44.3875 39.475133988828134 44.25 43.91944128311493 C 44.09602797976275 48.896161084253016 43.615888080949006 51.8079440404745 43 51.5 C 42.43608369848507 51.21804184924254 41.97793762467102 46.53014209052802 41.949407933831 40.75 C 41.92158229743805 35.1125 41.537741847386094 27.8 41.096429155937756 24.5 C 40.593620189464154 20.740149849492468 40.23915084945107 19.71341450180842 40.14702122210676 21.75 C 40.049686563578916 23.901646107157163 39.32408991209672 25.33795504395164 38 26 C 36.584250732929185 26.707874633535408 35.548804965804855 26.63484329191926 34.45547464893012 25.75 C 33.60598570584168 25.0625 32.930985705841685 23.2625 32.95547464893012 21.75 C 32.97996359201855 20.2375 32.55 19 32 19 Z M 33.5 26.5 C 34.72574872654965 26.908582908849883 34.77145727212471 27.301473659550354 33.75 28.648891119579055 C 32.67139952098 30.071686920722893 32.774239233568 30.214378147570528 34.5 29.689524328701943 C 35.6 29.354982477951047 37.27234580267605 29.62548147414047 38.216324005946774 30.290633209122884 C 39.685862238119775 31.32610828827843 39.91834243712378 33.22544885174613 39.83315685800431 43.5 C 39.774568330794715 50.566581289205544 39.406190472297006 54.67776354820092 38.93711811466791 53.5 C 38.26154051675524 51.80373575449131 38.12989645158646 51.765768785179894 38.070285262610376 53.25 C 38.03162836817467 54.2125 37.55 55 37 55 C 36.45 55 36 53.875 36 52.5 C 36 51.125 36.45 50 37 50 C 37.55 50 38.15559674735311 49.2125 38.34577054967358 48.25 C 38.535944351994054 47.2875 38.34257272016872 45.6 37.91605581228396 44.5 C 37.299082294285164 42.90880664458433 37.11183744284928 43.21541162802258 37 46 C 36.88562026532379 48.847887711439164 36.70618210669989 49.127364406536664 36.03692421351288 47.5 C 35.397194283193976 45.944435651793995 35.135040639072606 46.49998021653649 34.85720947612326 50 C 34.55551129091225 53.80068817933903 34.15034408966952 54.53885065670339 32.25 54.75 C 30.248191796083812 54.972423133768466 30.05078682421175 54.64150073899005 30.460411489338078 51.75 C 30.713637808474022 49.9625 31.250816899418616 44.9 31.654142802548293 40.5 C 32.05746870567796 36.1 32.30028353547583 31.0375 32.19373131321021 29.25 C 32.04506488874699 26.75600008073448 32.34892311418515 26.11630770472838 33.5 26.5 Z M 39.5 26 C 39.775 26 40.0075 27.0125 40.016666666666666 28.25 C 40.02845594410131 29.84155245367708 39.70483875034197 30.207356646078704 38.91082506998249 29.5 C 38.293445525139525 28.95 38.06094552513952 27.9375 38.39415840331582 27.25 C 38.72737128149212 26.5625 39.225 26 39.5 26 Z M 34.112282707985514 35.75 C 33.36534107590183 33.85680867962538 33.24640484936004 34.084426893482 33.362282707985514 37.18533778862974 C 33.44863692143982 39.49619099664294 33.77972020329938 40.33535160654108 34.25 39.43533778862974 C 34.6625 38.64590200488338 34.600527218593484 36.9875 34.112282707985514 35.75 Z M 46 37 C 46.55 37 46.982236842105266 37.5625 46.96052631578947 38.25 C 46.93881578947368 38.9375 49.07631578947368 41.70722993903882 51.71052631578947 44.40495542008626 C 54.34473684210526 47.1026809011337 58.525 50.596622198899716 61 52.16926941512184 L 65.5 55.02862799007116 L 56.75 55.01431399503558 C 51.9375 55.00644129776601 47.1 54.55 46 54 L 44 53 L 44 54 C 44 54.55 43.55 55 43 55 C 42.45 55 42 54.325 42 53.5 C 42 52.675 42.5625 52.1125 43.25 52.25 C 44.1474358974359 52.42948717948718 44.57051282051282 50.31410256410257 44.75 44.75 C 44.88978494623656 40.41666666666667 45.44086021505376 37 46 37 Z M 49.70573300690911 45.5 C 49.46738011232569 44.4 49.27236410766653 45.525 49.27236410766653 48 C 49.27236410766653 50.475 49.46738011232569 51.375 49.70573300690911 50 L 50.13910190615168 47.5 L 49.70573300690911 45.5 Z M 54.66228070175438 49.5 C 54.38486842105263 48.95 54.1578947368421 49.625 54.1578947368421 51 C 54.1578947368421 52.375 54.38486842105263 52.825 54.66228070175438 52 L 55.166666666666664 50.5 L 54.66228070175438 49.5 Z M 35.5 63 C 40.16995307859098 63 40.960968653615375 63.264105838630144 40.74137316869867 64.75 C 40.546984559467305 66.06533168636531 39.367170565315995 66.572617097413 35.99137316869867 66.79236067246337 C 33.5211179259144 66.95315904231823 30.9375 66.84065904231824 30.25 66.54236067246337 C 29.5625 66.24406230260851 29.225 65.325 29.5 64.5 C 29.863636363636363 63.40909090909091 31.5 63 35.5 63 Z " fill="#0000ff"></path></svg>
