<?xml version="1.0" standalone="no"?>
<svg width="400" height="400" viewBox="0 0 400 400" xmlns="http://www.w3.org/2000/svg" xmlns:xlink="http://www.w3.org/1999/xlink" version="1.1"><!--?xml version="1.0" encoding="utf-8"?-->
<!-- Generator: Adobe Illustrator 15.0.2, SVG Export Plug-In . SVG Version: 6.00 Build 0)  -->

<svg version="1.1" id="Ebene_1" xmlns="http://www.w3.org/2000/svg" xmlns:xlink="http://www.w3.org/1999/xlink" x="0px" y="0px" width="100px" height="100px" viewBox="0 0 100 100" enable-background="new 0 0 100 100" xml:space="preserve">
<circle fill="#B2B2B2" cx="50" cy="50" r="50"></circle></svg><path d="M 50.5 35.75031764549189 C 48.3 35.49428405497727 43.575 35.66325321250797 40 36.125804662226784 C 36.425 36.58835611194561 30.6875 37.87427565601136 27.25 38.98340364903959 C 23.394616103120512 40.22736414471938 20.61686142350072 41.76627715299856 20 43 C 19.45 44.1 18.980898179019455 45.3375 18.95755150893212 45.75 C 18.934204838844785 46.1625 19.721704838844786 45.5383066405608 20.70755150893212 44.362903645690665 C 21.693398179019454 43.18750065082053 24.6375 41.72500065082053 27.25 41.112903645690665 C 29.8625 40.500806640560796 32.675 40 33.5 40 C 34.61649087356022 40 34.84518379494748 40.7031000651396 34.3944751465641 42.75 C 34.061436477174354 44.2625 32.936436477174354 46.2875 31.894475146564098 47.25 C 30.852513815953845 48.2125 30 49.225 30 49.5 C 30 49.775 30.9 50 32 50 C 33.333333333333336 50 34 50.666666666666664 34 52 C 34 53.338550492583686 34.578768318989276 53.91278952183912 35.75 53.73630495696783 C 36.96712672303528 53.552904794907036 37.5 52.563282994829706 37.5 50.48630495696783 C 37.5 48.84383723063552 37.95 47.128241053151186 38.5 46.67386900700264 C 39.146771358532604 46.13955114233583 39.05846419816576 45.69801534050159 38.25 45.42386900700264 C 37.5625 45.190741053151186 37 44.55 37 44 C 37 43.436072058017196 37.70741267773995 43.327054043512895 38.62223803321986 43.75 C 39.987536136931915 44.38121043694903 40.132833747052366 45.52950954644172 39.539601518626256 51 C 39.15192051732885 54.575 38.30941340237991 58.026946671962925 37.6673634854064 58.67099260436206 C 36.992521402755024 59.34793264726733 32.491862530680535 59.98079645821251 27 60.17099260436206 L 17.5 60.5 L 17.543369869996177 57 C 17.567223298494074 55.075 17.88987796541879 51.925 18.260380240939995 50 C 18.774239874543746 47.33016539967076 18.586830493618862 47.56735551386241 17.47025717209464 51 C 16.665187208708492 53.475 15.780032541783775 59.2125 15.503246801150823 63.75 C 15.187950102062985 68.91883120076722 15.37347500596761 72 16 72 C 16.55 72 17 72.45 17 73 C 17 73.55 16.55 73.775 16 73.5 C 15.45 73.225 14.979963592018551 73.5625 14.955474648930116 74.25 C 14.93098570584168 74.9375 15.493485705841678 76.00356890280447 16.205474648930114 76.61904200623218 C 16.917463592018553 77.23451510965988 19.75 78.25115389076734 22.5 78.8782392975821 C 25.25 79.50532470439686 30.424999999999997 80.39969889822058 34 80.86573750607924 C 38.72264596106588 81.481383757577 42.27735403893412 81.31595382960319 47 80.2607401289249 C 51.868793368645996 79.17287169442396 54.064648449314845 79.08339619248383 55.75 79.90419991419557 C 56.9875 80.50688996138801 58.7875 80.70975966825786 59.75 80.35502148501747 C 60.7125 80.00028330177709 62.175 78.84578826862935 63 77.78947696691138 C 63.825 76.73316566519341 67.875 74.76460973551575 72 73.41490823429434 C 76.56423800088709 71.92148789932972 80.67430479964517 71.17259726809671 82.5 71.50171508854727 C 84.89965695699313 71.93430091522913 86.24867789286557 71.38789814384161 89.24125044798926 68.77126233614683 L 92.98250089597852 65.5 L 92.87293565956327 60 C 92.81267477953489 56.975 92.47911207793972 53.18812682351611 92.13168521157401 51.58472627448024 L 91.5 48.66945254896048 L 84.5 46.98145122511046 C 80.65 46.05305049699296 75.925 44.32525330867391 74 43.1419019177348 C 72.075 41.95855052679568 66.9 39.9160867835492 62.5 38.60309359940926 C 58.1 37.290100415269336 52.7 36.006351236006516 50.5 35.75031764549189 Z M 55.280373410404756 41.18864347096822 C 57.60116803468214 41.56739738000075 60.7375 42.35489738000074 62.25 42.93864347096822 L 65 44 L 65 49 L 65 54 L 59.09156331539589 53.75 C 55.84192313886363 53.6125 52.97904723953679 53.275 52.72961687244735 53 C 52.48018650535792 52.725 52.002651048111915 49.8 51.66842696745623 46.5 L 51.06074682080951 40.5 L 55.280373410404756 41.18864347096822 Z M 67.75 44.42065308236073 C 68.7125 44.65201227765914 70.4 45.08187937881888 71.5 45.375913307160175 C 72.6 45.66994723550146 73.8313553925184 46.94315334843913 74.23634531670756 48.20526022479944 C 74.64133524089671 49.467367101159745 74.97883524089671 51.5125 74.98634531670756 52.75 C 74.99580472716958 54.308708692376236 74.53913912825082 54.846379709416944 73.5 54.5 C 72.675 54.225 70.65 54 69 54 L 66 54 L 66 49 C 66 44.74451311148162 66.26057958901856 44.062636347040545 67.75 44.42065308236073 Z M 45.25 46.861119327632494 C 47.256133681067226 47.628906210557616 47.527096257659196 48.49598645565193 47.75 54.861119327632494 L 48 62 L 45.25 62.94077260645314 C 43.7375 63.45819754000236 42.17279364963162 63.570697540002364 41.772874776959156 63.19077260645314 C 41.3729559042867 62.81084767290391 41.28451265551406 60.25 41.57633422413107 57.5 C 41.86815579274808 54.75 42.30786214311645 51.0375 42.5534594471719 49.25 C 42.95216073792364 46.34818249039975 43.2410494164306 46.09225436062352 45.25 46.861119327632494 Z M 78.75 47.5105155838923 C 80.2625 47.79129915503307 82.625 48.2763898906449 84 48.58849499636304 C 85.375 48.90060010208117 86.8375 49.345868089329635 87.25 49.57797941247073 C 87.6625 49.81009073561183 88 51.35 88 53 C 88 55.5 87.66666666666667 55.916666666666664 86 55.5 C 84.66046046760009 55.165115116900026 83.95052091349898 54.09186685704988 83.85016790882031 52.25 L 83.70033581764064 49.5 L 83.35016790882031 52.25 C 83.04335819451407 54.65949182689137 82.5666259614981 55 79.5 55 L 76 55 L 76 51 L 76 47 L 78.75 47.5105155838923 Z M 90 50 C 90.55 50 91 51.35 91 53 C 91 54.65 90.55 56 90 56 C 89.45 56 89 54.65 89 53 C 89 51.35 89.45 50 90 50 Z M 86.66228070175438 66.5 L 87.16666666666667 67.5 L 86.66228070175438 69 C 86.38486842105263 69.825 86.15789473684211 69.375 86.15789473684211 68 C 86.15789473684211 66.625 86.38486842105263 65.95 86.66228070175438 66.5 Z M 47.25 68.01474180239703 C 47.6625 68.00663381107867 48 68.675 48 69.5 C 48 70.325 47.1 71.9 46 73 C 44.9 74.1 43.4375 74.85 42.75 74.66666666666666 C 42.0625 74.48333333333333 41.5 73.48412316953262 41.5 72.44619963599843 C 41.5 71.40827610246421 42.625 69.98990991354289 44 69.2942747717288 C 45.375 68.59863962991469 46.8375 68.0228497937154 47.25 68.01474180239703 Z M 61.25 69.97222222222223 C 61.6625 69.9875 62.23647651703395 70.7875 62.52550337118656 71.75 L 63.05100674237312 73.5 L 62.52550337118656 75.25 C 62.23647651703395 76.2125 61.325 77 60.5 77 C 59.53703703703704 77 58.9900548696845 76.01543209876543 58.97222222222222 74.25 C 58.956944444444446 72.7375 59.294444444444444 71.15 59.72222222222222 70.72222222222223 C 60.15 70.29444444444444 60.8375 69.95694444444445 61.25 69.97222222222223 Z M 33.5 74 C 34.875 74 35.8875 74.45 35.75 75 C 35.6125 75.55 35.1625 76 34.75 76 L 34 76 L 32.5 76 C 31.674999999999997 76 31 75.55 31 75 C 31 74.45 32.125 74 33.5 74 Z " fill="#0000ff" transform="matrix(1 0 0 1 -3 -7)"></path></svg>
