<?xml version="1.0" encoding="utf-8"?>
<!-- Generator: Adobe Illustrator 15.0.0, SVG Export Plug-In . SVG Version: 6.00 Build 0)  -->
<!DOCTYPE svg PUBLIC "-//W3C//DTD SVG 1.1//EN" "http://www.w3.org/Graphics/SVG/1.1/DTD/svg11.dtd">
<svg version="1.1" id="繝ｬ繧､繝､繝ｼ_1" xmlns="http://www.w3.org/2000/svg" xmlns:xlink="http://www.w3.org/1999/xlink" x="0px"
	 y="0px" width="100px" height="100px" viewBox="0 0 100 100" enable-background="new 0 0 100 100" xml:space="preserve">
<circle fill="#B2B2B2" cx="50" cy="50" r="50"/>
<g id="繝ｬ繧､繝､繝ｼ_2">
	<path fill="none" stroke="#231815" stroke-miterlimit="10" d="M59.958,159.059"/>
</g>
<g>
	<g>
		<path fill="#221714" stroke="#231815" stroke-miterlimit="10" d="M42.124,59.523c-1.699-0.861-2.162-2.867-2.337-3.621
			c-0.158-0.688,0.166-2.104,0.869-3.791c0.033-0.078,0.027-0.17-0.014-0.244c-0.042-0.074-0.116-0.127-0.2-0.141
			c-1.11-0.18-2.223-0.393-3.305-0.629c-0.083-0.02-0.172,0.002-0.238,0.057c-0.067,0.055-0.104,0.139-0.103,0.225
			c0.005,0.189,0.121,4.672,0.627,5.283c0.555,0.648,2.953,2.873,3.794,3.154c0.254,0.084,0.487,0.158,0.695,0.225
			c0.027,0.008,0.057,0.012,0.084,0.012c0.111,0,0.216-0.066,0.26-0.174C42.313,59.744,42.255,59.588,42.124,59.523z"/>
		<path fill="#221714" stroke="#231815" stroke-miterlimit="10" d="M45.15,58.777c-0.076,0.016-0.142,0.064-0.182,0.131
			c-0.039,0.066-0.049,0.148-0.027,0.223c0.031,0.105,0.061,0.217,0.087,0.342c0.028,0.131,0.145,0.223,0.274,0.223
			c0.018,0,0.035-0.002,0.053-0.006c0.387-0.074,1.688-0.363,2.2-0.953l-0.163-0.223v-0.002l0.2,0.201
			c0.116-0.082,0.153-0.238,0.086-0.363c-0.144-0.268-0.277-0.563-0.399-0.881c-0.04-0.107-0.14-0.178-0.253-0.182
			c-0.105-0.006-0.218,0.063-0.265,0.164C46.398,58.248,45.667,58.664,45.15,58.777z"/>
		<path fill="#221714" stroke="#231815" stroke-miterlimit="10" d="M54.028,62.492c0.011,0.008,0.02,0.016,0.028,0.021
			c0.03,0.021,0.064,0.037,0.103,0.045c0.273,0.059,0.561,0.113,0.867,0.164c0.016,0.004,0.03,0.004,0.046,0.004
			c0.063,0,0.124-0.02,0.174-0.059c0.062-0.049,0.101-0.121,0.106-0.199c0.026-0.334,0.044-0.68,0.053-1.027
			c0.004-0.145-0.103-0.268-0.245-0.287c-1.192-0.152-2.184-0.578-2.805-0.906c-0.115-0.061-0.261-0.033-0.346,0.066
			c-0.085,0.102-0.089,0.248-0.008,0.354C52.454,61.252,53.048,61.926,54.028,62.492z"/>
		<path fill="#221714" stroke="#231815" stroke-miterlimit="10" d="M50.165,52.6c-0.053-0.059-0.122-0.094-0.211-0.094l-0.338,0.004
			c-0.892,0-1.838-0.027-2.813-0.082c-0.08-0.002-0.16,0.025-0.217,0.084s-0.085,0.137-0.079,0.219
			c0.087,1.109,0.484,4.85,1.954,6.426c1.124,1.203,2.012,2.154,3.737,2.834c0.032,0.014,0.067,0.02,0.103,0.02
			c0.092,0,0.18-0.045,0.233-0.125c0.073-0.111,0.06-0.256-0.032-0.352c-0.464-0.477-0.82-0.967-1.239-1.559
			c-0.209-0.297-0.446-0.631-0.698-0.947c-0.687-0.857-0.621-3.77-0.33-6.207C50.245,52.74,50.22,52.66,50.165,52.6z"/>
		<path fill="#221714" stroke="#231815" stroke-miterlimit="10" d="M43.527,67.488c-0.106,2.549-0.073,7.813,0.37,9.23
			c0.224,0.717,0.294,2.355,0.196,4.619c-0.006,0.123,0.07,0.234,0.187,0.275c0.03,0.012,0.063,0.018,0.094,0.018
			c0.087,0,0.171-0.041,0.226-0.115c0.11-0.148,0.23-0.295,0.355-0.434c0.215-0.24,0.459-0.49,0.744-0.766
			c0.072-0.07,0.1-0.209,0.074-0.307c0.004-0.029,0.367-2.988,0.005-4.076c-0.277-0.828-0.302-2.438-0.332-4.33
			c-0.011-0.691-0.022-1.418-0.047-2.152l-0.051-1.494c-0.079-2.43-0.17-5.182-0.324-7.109c-0.104-1.316-0.295-1.871-0.436-2.105
			c-0.058-0.094-0.166-0.146-0.275-0.133c-0.623,0.078-1.212,0.295-1.507,0.418c-0.12,0.051-0.19,0.176-0.17,0.305l0.051,0.316
			C42.904,61.014,43.605,65.613,43.527,67.488z"/>
		<path fill="#221714" stroke="#231815" stroke-miterlimit="10" d="M43.445,83.91c-0.008,0.027-0.01,0.057-0.009,0.088l0.172,2.826
			c0.006,0.104,0.067,0.193,0.16,0.236c0.275,0.131,0.565,0.197,0.861,0.197c0.626,0,1.147-0.289,1.403-0.463
			c0.073-0.049,0.119-0.131,0.123-0.219c0.018-0.389,0.068-1.688-0.008-2.143c-0.015-0.086-0.022-0.176-0.03-0.264
			c-0.022-0.244-0.047-0.521-0.281-0.736c-0.027-0.023-0.059-0.043-0.093-0.055c-0.013-0.006-0.022-0.012-0.033-0.023
			c-0.022-0.023-0.049-0.043-0.077-0.057c-0.176-0.09-0.403-0.15-0.716-0.191c-0.1-0.014-0.192-0.02-0.278-0.02
			C43.915,83.088,43.548,83.512,43.445,83.91z"/>
		<path fill="#221714" stroke="#231815" stroke-miterlimit="10" d="M45.329,87.732c0.014-0.09-0.016-0.18-0.08-0.244
			c-0.063-0.063-0.154-0.092-0.243-0.076c-0.139,0.021-0.259,0.033-0.376,0.033c-0.239,0-0.484-0.045-0.73-0.133
			c-0.077-0.027-0.163-0.021-0.234,0.02s-0.121,0.111-0.137,0.191c-0.261,1.381-0.664,3.898-0.517,4.582
			c0.023,0.107,0.107,0.191,0.215,0.215c0.251,0.055,0.655,0.086,1.107,0.086c0.283,0,0.569-0.014,0.829-0.037
			c0.093-0.008,0.176-0.063,0.221-0.143c0.045-0.082,0.047-0.18,0.005-0.264C45.038,91.273,45.017,89.732,45.329,87.732z"/>
		<path fill="#221714" stroke="#231815" stroke-miterlimit="10" d="M46.005,87.178c-0.078-0.043-0.19-0.037-0.271,0
			c-0.083,0.039-0.142,0.115-0.157,0.207c-0.007,0.041-0.708,4.117,0.153,4.725c0.001,0,0.016,0.018,0.017,0.02
			c0.053,0.063,0.14,0.094,0.224,0.094c0.033,0,0.066-0.006,0.097-0.016c0.06-0.02,0.11-0.057,0.146-0.109
			c0.478-0.707-0.04-4.678-0.045-4.719C46.155,87.291,46.084,87.221,46.005,87.178z"/>
		<path fill="#221714" stroke="#231815" stroke-miterlimit="10" d="M58.427,60.979l-2.506-0.357
			c-0.082-0.012-0.162,0.012-0.224,0.064c-0.062,0.055-0.097,0.131-0.097,0.213c0,1.943-0.23,3.49-0.666,4.471
			c-0.08,0.18-0.194,0.443-0.339,0.775l-0.06,0.137c-2.047,4.727-4.567,10.311-5.892,11.563c-0.614,0.58-1.142,1.061-1.604,1.482
			c-0.821,0.748-1.414,1.289-1.946,1.881c-0.354,0.395-0.651,0.832-0.882,1.305c-0.044,0.09-0.036,0.199,0.021,0.281
			c0.057,0.084,0.149,0.131,0.254,0.121l0.073-0.008c0.11-0.014,0.243-0.002,0.384,0.016c0.2,0.027,0.377,0.066,0.539,0.119
			c0.029,0.01,0.059,0.014,0.087,0.014c0.107,0,0.209-0.063,0.256-0.164c0.211-0.461,0.727-1.264,1.802-1.465
			c1.138-0.213,2.691-2.014,3.94-3.461c0.35-0.404,0.679-0.787,0.967-1.096c1.184-1.268,5.813-12.295,6.132-15.586
			C58.681,61.135,58.575,61,58.427,60.979z"/>
		<path fill="#221714" stroke="#231815" stroke-miterlimit="10" d="M69.539,45.623c-1.319,0.462-2.447,0.766-2.871,0.874
			c-0.05,0.013-0.095,0.039-0.13,0.075l-0.065,0.066c-0.149,0.153-0.344,0.352-0.598,0.584c-0.048,0.044-0.078,0.102-0.088,0.165
			c-0.207,1.348-1.269,8.151-1.837,9.741l-0.624,1.748c-0.006,0.018-0.018,0.031-0.032,0.043c-0.113,0.082-2.775,2.012-4.048,2.514
			c-0.001,0-0.014,0-0.04-0.014c-0.081-0.039-0.175-0.039-0.253,0.002c-0.08,0.041-0.135,0.117-0.148,0.205
			c-0.048,0.303-0.123,0.66-0.222,1.061c-0.023,0.1,0.007,0.203,0.08,0.273c0.053,0.049,0.122,0.076,0.192,0.076
			c0.028,0,0.056-0.004,0.083-0.014c1.217-0.375,2.554-1.127,2.935-1.348c0.034-0.021,0.063-0.049,0.087-0.08
			c0.2-0.281,1.286-1.77,3.084-3.566c1.714-1.713,4.15-9.665,4.856-12.062c0.03-0.101,0.001-0.21-0.075-0.283
			C69.749,45.612,69.639,45.589,69.539,45.623z"/>
		<path fill="#221714" stroke="#231815" stroke-miterlimit="10" d="M73.746,38.264c-0.088-0.081-0.217-0.098-0.323-0.043
			c-0.104,0.056-0.163,0.172-0.146,0.29c0.115,0.774,0.153,1.273,0.159,1.388c-0.031,0.19-0.864,4.7-10.179,6.563
			c-2.846,0.568-6.644,0.883-10.695,0.883c-3.063,0-6.083-0.182-8.734-0.523c-5.74-0.74-12.805-2.541-13.864-6.916
			c-0.012-0.051,0.02-0.102,0.091-0.116c0.037,0,0.08,0.024,0.092,0.071c1.297,5.36,12.49,7.271,22.533,7.271
			c3.991,0,7.834-0.311,10.541-0.853c8.661-1.732,9.905-5.887,10.019-6.354c0.008-0.029,0.01-0.059,0.008-0.088
			c-0.047-0.591-0.538-5.911-3.39-11.001c-3.653-6.523-9.682-9.972-17.43-9.972c-0.425,0-0.856,0.011-1.285,0.03
			c-7.869,0.36-13.604,3.331-17.045,8.832c-2.535,4.052-2.815,8.061-2.826,8.229c-0.008,0.109-0.213,2.688-2.669,4.011
			c-1.509,0.813-4.032,2.172-4.078,3.963c-0.029,1.146,0.966,2.339,2.96,3.548c4.469,2.708,14.242,4.829,22.249,4.829
			c0.17,0,0.34,0,0.508-0.002c0.038-0.002,0.076-0.01,0.112-0.025c0.024-0.012,0.037-0.014,0.028-0.018L50.478,52l0,0l-0.056,0.277
			c0.035,0.014,0.08,0.021,0.11,0.02c2.377-0.045,4.355-0.285,5.882-0.715c4.102-1.158,7.177-2.611,9.14-4.323
			c0.047-0.041,0.079-0.097,0.091-0.157c0.009-0.046,0.047-0.065,0.079-0.069c0.061-0.007,0.118-0.033,0.162-0.075
			c0.185-0.175,0.333-0.327,0.451-0.448l0.141-0.143c0.013-0.013,0.027-0.021,0.044-0.024c0.081-0.021,8.115-2.073,8.476-4.477
			C75.286,39.934,74.219,38.703,73.746,38.264z"/>
		<path fill="#221714" stroke="#231815" stroke-miterlimit="10" d="M64.808,44.915c-0.663,0.662-1.469,1.136-2.363,1.506
			c0.267-0.046,0.527-0.093,0.775-0.143c8.661-1.732,9.905-5.887,10.019-6.354c0.008-0.029,0.01-0.059,0.008-0.088
			c-0.047-0.591-0.538-5.911-3.39-11.001c-0.7-1.25-1.489-2.385-2.359-3.406C71.008,31.592,70.113,40.604,64.808,44.915z"/>
	</g>
	<path fill="#221714" stroke="#231815" stroke-miterlimit="10" d="M31.949,37.918c0,0-0.141,0.936-1.825,1.871
		c0,0,0.585,4.211,8.07,5.708c7.485,1.496,14.502,2.151,20.771,1.403C58.966,46.9,31.973,45.122,31.949,37.918z"/>
	<path fill="#221714" stroke="#231815" stroke-miterlimit="10" d="M73.814,37.71c-0.117-0.086-0.268-0.094-0.389-0.033
		c-0.997-5.632-5.22-20.035-22.306-19.251c-10.021,0.459-15.015,5.191-17.438,9.08c-2.625,4.213-2.869,8.257-2.878,8.42
		c-0.008,0.099-0.21,2.436-2.424,3.628c-1.598,0.859-4.271,2.3-4.324,4.362c-0.034,1.345,1.008,2.64,3.185,3.959
		c2.214,1.342,5.47,2.483,9.085,3.326c0.026,1.279,0.153,5.078,0.743,5.766c0.551,0.643,3.054,2.977,4.002,3.293
		c0.562,0.188,1.04,0.334,1.301,0.41c0.296,1.973,0.751,5.305,0.688,6.799c-0.076,1.84-0.129,7.725,0.392,9.389
		c0.438,1.402,0.086,6.012,0.077,6.125c-0.346,0.277-0.516,0.654-0.558,0.906c-0.004,0.029-0.006,0.057-0.004,0.084l0.185,3.041
		c-1.081,5.422-0.493,5.619-0.21,5.713c0.293,0.098,0.828,0.148,1.401,0.148c0.714,0,1.487-0.078,1.936-0.246
		c0.683-0.256,0.795-2.092,0.333-5.455c-0.01-0.07-0.044-0.131-0.087-0.184c0.05-0.061,0.086-0.133,0.09-0.213
		c0.01-0.186,0.093-1.836-0.004-2.42c-0.013-0.076-0.02-0.152-0.026-0.23c-0.031-0.35-0.098-0.699-0.364-0.975
		c0.16-0.379,0.577-1.096,1.493-1.266c1.298-0.244,2.845-2.035,4.208-3.615c0.347-0.402,0.674-0.781,0.956-1.082
		c1.057-1.133,4.455-9.014,5.759-13.605c0.025-0.002,0.052-0.004,0.078-0.01c1.533-0.383,3.392-1.492,3.47-1.539
		c0.045-0.027,0.085-0.064,0.115-0.107c0.011-0.018,1.13-1.621,3.075-3.566c2.041-2.041,4.962-12.205,5.086-12.637
		c0.014-0.049,0.016-0.097,0.011-0.144c2.286-0.873,4.765-2.151,4.989-3.646C75.863,39.247,73.898,37.771,73.814,37.71z
		 M37.637,56.48c-0.282-0.342-0.504-2.861-0.559-5.109c1.085,0.238,2.196,0.451,3.319,0.633c-0.365,0.875-1.129,2.898-0.884,3.961
		c0.188,0.82,0.67,2.889,2.482,3.809c-0.206-0.064-0.438-0.141-0.689-0.223C40.575,59.307,38.223,57.164,37.637,56.48z
		 M56.541,52.031c4.572-1.289,7.131-2.738,8.595-3.834c-0.29,1.944-1.13,7.385-1.626,8.775l-0.585,1.637
		c-0.48,0.346-2.694,1.914-3.773,2.363c0-0.012,0.001-0.027,0.001-0.039c0-0.186-0.137-0.344-0.321-0.369l-3.274-0.469
		c-0.107-0.016-0.216,0.018-0.298,0.088s-0.129,0.174-0.129,0.283l0.001,0.092c0,0.041-0.001,0.08-0.001,0.121
		c-2.189-0.314-3.733-1.607-3.749-1.621c-0.079-0.066-0.177-0.096-0.271-0.088c-0.06-0.078-0.117-0.158-0.179-0.234
		c-0.615-0.77-0.472-3.916-0.219-5.961C52.943,52.719,54.952,52.48,56.541,52.031z M46.222,75.785
		c-0.254-0.76-0.278-2.336-0.307-4.16c-0.012-0.703-0.023-1.443-0.049-2.189l-0.049-1.457c-0.08-2.447-0.171-5.221-0.326-7.168
		c-0.02-0.234-0.041-0.453-0.066-0.656c0.463-0.088,1.744-0.381,2.406-1.031c0.092,0.125,0.188,0.244,0.288,0.352
		c1.82,1.949,3.045,3.088,6.878,3.719c-0.104,0.813-0.27,1.49-0.49,1.986c-0.091,0.205-0.227,0.518-0.398,0.916
		c-1.193,2.752-4.36,10.063-5.785,11.408c-0.612,0.578-1.137,1.057-1.598,1.477c-0.144,0.129-0.281,0.256-0.413,0.377
		C46.4,78.375,46.503,76.631,46.222,75.785z M47.432,58.482c-0.023,0.018-0.049,0.031-0.069,0.053
		c-0.42,0.48-1.519,0.773-2.06,0.879c-0.028-0.131-0.06-0.252-0.092-0.363c0.527-0.115,1.384-0.557,1.807-1.482
		C47.14,57.889,47.277,58.197,47.432,58.482z M54.192,62.262c-0.888-0.506-1.464-1.113-1.968-1.766
		c0.731,0.387,1.729,0.787,2.899,0.938c-0.009,0.354-0.026,0.691-0.051,1.012c-0.304-0.049-0.587-0.104-0.856-0.162
		C54.208,62.277,54.202,62.268,54.192,62.262z M50.346,59.203c0.243,0.303,0.47,0.623,0.688,0.934
		c0.379,0.535,0.769,1.078,1.268,1.592c-1.667-0.656-2.521-1.57-3.636-2.766c-1.418-1.518-1.801-5.264-1.878-6.256
		c0.965,0.055,1.912,0.084,2.828,0.084c0.115,0,0.227-0.002,0.341-0.004C49.787,54.207,49.428,58.057,50.346,59.203z M46.033,52.66
		c0.033,0.484,0.16,1.969,0.546,3.502c-0.033,0.055-0.058,0.117-0.058,0.188c0,1.625-1.421,1.959-1.482,1.973
		c-0.051,0.012-0.098,0.033-0.138,0.063c-0.135-0.172-0.291-0.256-0.471-0.256c-0.001,0-0.001,0-0.002,0
		c-1.087,0.1-2.058,0.578-2.098,0.6c-0.107,0.053-0.179,0.154-0.2,0.268c-1.168-0.705-1.623-2.053-1.888-3.199
		c-0.191-0.826,0.529-2.771,0.917-3.674C42.79,52.367,44.433,52.549,46.033,52.66z M42.965,59.604c0-0.004-0.002-0.008-0.002-0.014
		c-0.019-0.115-0.035-0.219-0.049-0.303c0.306-0.127,0.854-0.328,1.434-0.398c0.088,0.145,0.288,0.615,0.397,1.982
		c0.154,1.93,0.244,4.693,0.324,7.131l0.049,1.459c0.025,0.742,0.037,1.477,0.048,2.176c0.03,1.887,0.056,3.516,0.346,4.387
		c0.284,0.854,0.085,3.143-0.017,3.951c-0.006,0.049-0.003,0.096,0.009,0.139c-0.272,0.264-0.522,0.52-0.758,0.779
		c-0.138,0.154-0.262,0.307-0.372,0.457c0.066-1.553,0.095-3.744-0.209-4.715c-0.428-1.369-0.46-6.674-0.357-9.135
		C43.886,65.633,43.222,61.223,42.965,59.604z M45.507,83.549c0.039,0.041,0.085,0.072,0.141,0.094
		c0.149,0.135,0.17,0.313,0.19,0.551c0.009,0.098,0.018,0.193,0.034,0.287c0.063,0.383,0.029,1.506,0.003,2.082
		c-0.214,0.145-0.688,0.414-1.245,0.414c-0.255,0-0.504-0.057-0.741-0.168l-0.172-2.828c0.046-0.18,0.282-0.713,1.164-0.594
		C45.176,83.426,45.37,83.48,45.507,83.549z M43.287,92.045c-0.113-0.52,0.159-2.58,0.517-4.469c0.268,0.096,0.543,0.15,0.826,0.15
		c0.147,0,0.287-0.016,0.422-0.039c-0.181,1.158-0.434,3.381,0.087,4.404C44.463,92.152,43.669,92.129,43.287,92.045z
		 M45.979,91.941c-0.006,0.002-0.014,0.004-0.02,0.006c-0.021-0.025-0.039-0.051-0.066-0.07c-0.438-0.307-0.375-2.535-0.041-4.445
		c0.012-0.004,0.024-0.01,0.035-0.016C46.144,89.346,46.237,91.559,45.979,91.941z M52.329,76.678
		c-0.291,0.313-0.623,0.697-0.975,1.105c-1.156,1.338-2.738,3.172-3.779,3.367c-1.188,0.223-1.76,1.088-2.006,1.623
		c-0.167-0.055-0.359-0.098-0.589-0.129c-0.126-0.018-0.243-0.025-0.353-0.025c-0.059,0-0.108,0.012-0.163,0.016
		c0.16-0.328,0.425-0.781,0.838-1.24c0.522-0.582,1.111-1.119,1.927-1.861c0.464-0.424,0.992-0.904,1.607-1.486
		c1.361-1.285,3.899-6.904,5.958-11.654c0.171-0.395,0.306-0.707,0.396-0.908c0.453-1.02,0.69-2.602,0.69-4.586l2.506,0.357
		C58.07,64.531,53.479,75.447,52.329,76.678z M64.845,57.832c-1.791,1.791-2.875,3.266-3.113,3.6
		c-0.313,0.184-1.672,0.951-2.876,1.324c0.1-0.402,0.177-0.766,0.227-1.084c0.052,0.025,0.106,0.041,0.164,0.041
		c0.047,0,0.094-0.008,0.139-0.025c1.276-0.51,3.96-2.457,4.073-2.541c0.062-0.043,0.107-0.105,0.133-0.176l0.624-1.746
		c0.629-1.762,1.718-9.297,1.765-9.616c0.005-0.033-0.002-0.064-0.006-0.096c0.305-0.273,0.531-0.505,0.7-0.678l0.064-0.065
		c0.43-0.111,1.571-0.419,2.894-0.881C69.084,47.746,66.546,56.131,64.845,57.832z M74.72,41.823
		c-0.246,1.638-5.201,3.474-8.267,4.246c-0.066,0.017-0.126,0.051-0.174,0.099l-0.142,0.145c-0.822,0.843-3.007,3.083-9.8,4.998
		c-1.559,0.439-3.566,0.664-5.81,0.707c-0.029-0.012-0.056-0.025-0.087-0.031c-0.073-0.01-0.141,0.008-0.202,0.035
		c-7.616,0.09-17.818-1.882-22.611-4.786c-1.9-1.152-2.851-2.263-2.824-3.3c0.042-1.629,2.477-2.94,3.931-3.724
		c2.584-1.391,2.808-4.117,2.816-4.238c0.002-0.04,0.249-4.048,2.783-8.1c3.39-5.417,9.049-8.345,16.821-8.7
		c0.433-0.02,0.855-0.029,1.271-0.029c18.555,0,20.428,19.304,20.539,20.713c-0.104,0.429-1.301,4.445-9.801,6.146
		c-8.847,1.77-30.945,1.238-32.747-6.208c-0.049-0.201-0.252-0.325-0.452-0.276s-0.324,0.251-0.275,0.452
		c1.096,4.53,8.273,6.378,14.101,7.129c6.338,0.817,14.366,0.668,19.521-0.362c9.502-1.9,10.369-6.596,10.4-6.795
		c0.005-0.028,0.006-0.058,0.004-0.086c-0.009-0.124-0.048-0.621-0.162-1.388C73.984,38.868,74.99,40.018,74.72,41.823z"/>
</g>
</svg>
