<?xml version="1.0" encoding="utf-8"?>
<!-- Generator: Adobe Illustrator 15.0.0, SVG Export Plug-In . SVG Version: 6.00 Build 0)  -->
<!DOCTYPE svg PUBLIC "-//W3C//DTD SVG 1.1//EN" "http://www.w3.org/Graphics/SVG/1.1/DTD/svg11.dtd">
<svg version="1.1" id="Ebene_1" xmlns="http://www.w3.org/2000/svg" xmlns:xlink="http://www.w3.org/1999/xlink" x="0px" y="0px"
	 width="100px" height="100px" viewBox="0 0 100 100" enable-background="new 0 0 100 100" xml:space="preserve">
<circle fill="#B2B2B2" cx="50" cy="49.935" r="50"/>
<g>
	<g>
		<path d="M39.985,67.146c-3.168,0.004-5.733,2.566-5.733,5.736c0,3.168,2.565,5.732,5.733,5.734
			c3.168-0.002,5.733-2.566,5.733-5.734C45.719,69.713,43.153,67.146,39.985,67.146z M42.334,76.404l-1.552-2.975
			c0.028-0.039,0.056-0.088,0.079-0.135l3.352-0.145c-0.067,1.064-0.522,2.018-1.231,2.727
			C42.784,76.074,42.568,76.25,42.334,76.404z M36.989,75.877c-0.709-0.709-1.164-1.66-1.23-2.723l3.354,0.143
			c0.021,0.045,0.048,0.094,0.077,0.133l-1.553,2.979C37.401,76.252,37.187,76.074,36.989,75.877z M37.634,69.355l1.553,2.977
			c-0.029,0.041-0.055,0.088-0.078,0.133l-3.353,0.145c0.068-1.063,0.522-2.016,1.232-2.723
			C37.187,69.688,37.401,69.512,37.634,69.355z M39.985,68.645c0.675,0,1.313,0.158,1.879,0.439l-1.801,2.83
			c-0.025-0.004-0.051-0.004-0.078-0.004c-0.029,0-0.052,0-0.08,0.004l-1.8-2.83C38.672,68.803,39.307,68.645,39.985,68.645z
			 M40.535,72.883c0,0.301-0.247,0.547-0.549,0.547s-0.552-0.248-0.552-0.547c0-0.305,0.249-0.553,0.552-0.553
			S40.535,72.578,40.535,72.883z M39.905,73.848c0.028,0.002,0.051,0.004,0.08,0.004c0.027,0,0.052-0.002,0.078-0.004l1.801,2.83
			c-0.565,0.281-1.204,0.439-1.879,0.439c-0.677,0-1.311-0.158-1.877-0.439L39.905,73.848z M40.858,72.465
			c-0.02-0.045-0.045-0.092-0.076-0.137l1.552-2.973c0.234,0.154,0.45,0.332,0.648,0.529c0.71,0.707,1.165,1.66,1.231,2.721
			L40.858,72.465z"/>
	</g>
	<g>
		<path d="M68.155,46.577c-8.849,0-16.02,7.171-16.02,16.021c0,8.846,7.173,16.018,16.02,16.018c8.848,0,16.021-7.172,16.021-16.018
			C84.177,53.748,77.003,46.577,68.155,46.577z M82.036,61.732l-0.754-0.031c-0.28-4.179-2.505-7.822-5.787-10.029l0.351-0.668
			C79.37,53.348,81.765,57.252,82.036,61.732z M68.406,59.488c-0.081-0.008-0.166-0.014-0.25-0.014s-0.167,0.006-0.25,0.014
			l-4.995-7.854c1.587-0.76,3.365-1.189,5.244-1.189c1.881,0,3.659,0.427,5.244,1.189L68.406,59.488z M65.594,60.828
			c-0.093,0.137-0.175,0.281-0.247,0.43l-9.3,0.396c0.228-2.98,1.526-5.656,3.518-7.65c0.528-0.527,1.108-1.004,1.723-1.428
			L65.594,60.828z M65.347,63.932c0.072,0.152,0.151,0.297,0.247,0.432l-4.307,8.252c-0.614-0.426-1.193-0.902-1.723-1.43
			c-1.991-1.994-3.29-4.668-3.518-7.65L65.347,63.932z M67.903,65.703c0.086,0.008,0.169,0.014,0.252,0.014
			c0.085,0,0.17-0.006,0.251-0.014l4.995,7.852c-1.587,0.764-3.365,1.189-5.245,1.189c-1.877,0-3.655-0.428-5.242-1.189
			L67.903,65.703z M70.721,64.363c0.094-0.139,0.175-0.279,0.245-0.432l9.299-0.396c-0.227,2.982-1.526,5.656-3.519,7.65
			c-0.527,0.527-1.106,1.004-1.72,1.428L70.721,64.363z M70.966,61.262c-0.072-0.15-0.149-0.299-0.247-0.432l4.308-8.252
			c0.613,0.424,1.192,0.9,1.72,1.429c1.992,1.995,3.292,4.67,3.519,7.649L70.966,61.262z M68.155,48.686
			c2.228,0,4.33,0.524,6.199,1.456l-0.407,0.637c-1.746-0.858-3.712-1.341-5.792-1.341c-2.078,0-4.041,0.482-5.79,1.339
			l-0.404-0.637C63.827,49.21,65.931,48.686,68.155,48.686z M60.467,51.003l0.348,0.667c-3.276,2.208-5.504,5.853-5.784,10.029
			l-0.755,0.031C54.55,57.252,56.943,53.348,60.467,51.003z M54.275,63.459l0.755,0.029c0.28,4.178,2.508,7.822,5.784,10.029
			l-0.348,0.668C56.943,71.846,54.55,67.939,54.275,63.459z M68.155,76.506c-2.226,0-4.328-0.525-6.194-1.455l0.404-0.637
			c1.746,0.857,3.712,1.342,5.79,1.342c2.08,0,4.045-0.484,5.792-1.342l0.407,0.637C72.485,75.98,70.383,76.506,68.155,76.506z
			 M75.846,74.188l-0.351-0.668c3.282-2.205,5.507-5.854,5.787-10.031l0.754-0.029C81.765,67.939,79.37,71.846,75.846,74.188z"/>
	</g>
	<g>
		<path d="M77.429,31.906h-4.381c-0.188,0-0.338,0.153-0.338,0.339h-2.53c-1.305,0-2.361,1.057-2.361,2.36v3.373h-2.022v-0.301
			c0-0.372-0.306-0.674-0.675-0.674H47.869c-0.375,0-0.676,0.303-0.676,0.674v0.301h-1.464c-1.304,0-2.36,1.057-2.36,2.359v3.036
			H43.2v11.296h0.169v0.677h-1.903c-0.46,0.002-0.875,0.167-1.247,0.4c-0.371,0.236-0.702,0.55-0.933,0.946L30.09,72.885l0.439,0.25
			L25.3,70.48l-0.252,0.248l-0.952-0.482l0.152-0.301l-1.955-0.994l-0.153,0.303l-0.451-0.23l-0.686,1.355l0.451,0.227l-0.076,0.152
			l1.955,0.988L23.41,71.6l0.501,0.252l-0.126,0.127l7.519,3.814l0.077-0.152l0.453,0.232l0.686-1.355l-0.45-0.229l0.15-0.301
			l-0.935-0.473l2.509-4.42l0.622,0.316l0.664-1.309l-0.56-0.285l4.692-8.261h4.158v3.712H43.2v-0.844h-0.017
			c-0.078-0.385-0.418-0.674-0.828-0.674c-0.407,0-0.747,0.287-0.825,0.674h-0.019v0.844h-1.008v1.348h1.008v6.207l-2.021,1.043
			c-0.56,0-1.013,0.453-1.013,1.012v0.168c0,0.557,0.453,1.01,1.013,1.01l5.564-2.865c0.557,0,1.013-0.453,1.013-1.01V70.01
			c0-0.555-0.456-1.008-1.013-1.008l-1.855,0.955v-5.34h0.167h0.676H73.72v0.242h2.067c0.254,0,0.461-0.205,0.461-0.457V63.48
			c0-0.252-0.207-0.459-0.461-0.459H73.72v0.246h-4.553v-8.6h0.335V43.372h-0.335V38.65l0,0v-4.049
			c0.002-0.557,0.453-1.009,1.01-1.009l2.53-0.001v0.001c0,0.186,0.15,0.336,0.338,0.336h0.169c0-0.185,0.149-0.336,0.337-0.336
			s0.335,0.151,0.335,0.336h0.171c0-0.185,0.15-0.336,0.338-0.336c0.185,0,0.338,0.151,0.338,0.336h0.166
			c0-0.185,0.149-0.336,0.338-0.336c0.187,0,0.337,0.151,0.337,0.336h0.168c0-0.185,0.153-0.336,0.339-0.336
			c0.187,0,0.336,0.151,0.336,0.336h0.169c0-0.185,0.15-0.336,0.34-0.336c0.186,0,0.335,0.151,0.335,0.336h0.169
			c0.188,0,0.34-0.15,0.34-0.336v-1.349C77.769,32.06,77.616,31.906,77.429,31.906z M43.369,58.719h-3.68l0.769-1.354
			c0.09-0.157,0.279-0.349,0.483-0.48c0.206-0.133,0.43-0.196,0.526-0.191h1.903v2.026H43.369z M44.717,54.67h6.746v1.541
			l-0.369,0.484h-6.376V54.67z M44.717,63.27v-5.564h7.33l1.319,1.012l0.777-1.012h3.885l0.971,5.564H44.717z M52.645,56.04v-1.37
			h4.853l0.353,2.025h-4.354L52.645,56.04z M58.356,54.67h5.962l0.354,2.025h-5.965L58.356,54.67z M59.851,63.27l-0.967-5.564h5.963
			l0.971,5.564H59.851z M67.82,63.27h-1.145l-0.973-5.564h2.117V63.27z M67.82,56.692h-2.294l-0.353-2.023h2.646V56.692z
			 M67.82,43.374H44.719v-3.036c0.001-0.558,0.454-1.01,1.011-1.01h22.088L67.82,43.374L67.82,43.374z"/>
	</g>
</g>
</svg>
