<?xml version="1.0" encoding="utf-8"?>
<!-- Generator: Adobe Illustrator 15.0.0, SVG Export Plug-In . SVG Version: 6.00 Build 0)  -->
<!DOCTYPE svg PUBLIC "-//W3C//DTD SVG 1.1//EN" "http://www.w3.org/Graphics/SVG/1.1/DTD/svg11.dtd">
<svg version="1.1" id="Ebene_1" xmlns="http://www.w3.org/2000/svg" xmlns:xlink="http://www.w3.org/1999/xlink" x="0px" y="0px"
	 width="100px" height="100px" viewBox="0 0 100 100" enable-background="new 0 0 100 100" xml:space="preserve">
<circle fill="#B2B2B2" cx="50" cy="49.935" r="50"/>
<g>
	<g>
		<path d="M57.123,58.604c-2.31,0.001-4.181,1.871-4.181,4.183c0,2.311,1.87,4.181,4.181,4.182c2.31-0.001,4.181-1.871,4.182-4.182
			C61.304,60.475,59.433,58.604,57.123,58.604z M58.836,65.356l-1.132-2.17c0.021-0.029,0.041-0.064,0.057-0.098l2.445-0.105
			c-0.049,0.776-0.381,1.47-0.897,1.987C59.164,65.114,59.007,65.243,58.836,65.356z M54.938,64.971
			c-0.518-0.518-0.849-1.211-0.898-1.987l2.446,0.105c0.016,0.033,0.035,0.068,0.056,0.097l-1.133,2.171
			C55.239,65.244,55.082,65.114,54.938,64.971z M55.408,60.214l1.133,2.172c-0.021,0.029-0.04,0.063-0.056,0.097l-2.446,0.104
			c0.05-0.774,0.381-1.47,0.898-1.986C55.082,60.457,55.239,60.328,55.408,60.214z M57.123,59.695c0.492,0,0.958,0.115,1.37,0.32
			L57.18,62.08c-0.019-0.003-0.038-0.003-0.057-0.003c-0.021,0-0.038,0-0.058,0.003l-1.313-2.064
			C56.165,59.811,56.628,59.695,57.123,59.695z M57.524,62.786c0,0.221-0.18,0.399-0.401,0.399s-0.402-0.18-0.402-0.399
			c0-0.222,0.181-0.402,0.402-0.402S57.524,62.564,57.524,62.786z M57.065,63.491c0.02,0.001,0.037,0.002,0.058,0.002
			c0.019,0,0.038-0.001,0.057-0.002l1.313,2.063c-0.412,0.206-0.878,0.321-1.37,0.321c-0.494,0-0.956-0.115-1.369-0.321
			L57.065,63.491z M57.76,62.482c-0.015-0.033-0.034-0.067-0.056-0.099l1.132-2.169c0.171,0.113,0.328,0.242,0.472,0.385
			c0.518,0.517,0.85,1.212,0.898,1.986L57.76,62.482z"/>
	</g>
	<g>
		<path d="M77.668,43.601c-6.453,0-11.683,5.23-11.683,11.684c0,6.451,5.231,11.683,11.683,11.683
			c6.453,0,11.685-5.231,11.685-11.683C89.353,48.831,84.121,43.601,77.668,43.601z M87.792,54.654l-0.55-0.022
			c-0.204-3.048-1.827-5.705-4.22-7.315l0.255-0.487C85.847,48.539,87.593,51.387,87.792,54.654z M77.851,53.018
			c-0.059-0.006-0.12-0.01-0.182-0.01s-0.122,0.004-0.182,0.01l-3.643-5.728c1.157-0.554,2.454-0.867,3.824-0.867
			c1.372,0,2.669,0.312,3.825,0.867L77.851,53.018z M75.8,53.995c-0.067,0.1-0.127,0.205-0.18,0.313l-6.783,0.29
			c0.166-2.174,1.113-4.125,2.566-5.58c0.385-0.385,0.808-0.733,1.256-1.042L75.8,53.995z M75.62,56.258
			c0.053,0.111,0.11,0.216,0.18,0.315l-3.141,6.019c-0.448-0.311-0.87-0.658-1.256-1.043c-1.453-1.454-2.4-3.405-2.566-5.58
			L75.62,56.258z M77.485,57.55c0.062,0.006,0.122,0.011,0.183,0.011c0.063,0,0.124-0.005,0.183-0.011l3.643,5.728
			c-1.157,0.556-2.454,0.866-3.825,0.866c-1.369,0-2.666-0.311-3.824-0.866L77.485,57.55z M79.539,56.573
			c0.068-0.1,0.128-0.204,0.179-0.315l6.782-0.289c-0.165,2.175-1.114,4.126-2.566,5.58c-0.385,0.385-0.807,0.732-1.255,1.042
			L79.539,56.573z M79.718,54.311c-0.053-0.11-0.109-0.217-0.18-0.315l3.141-6.018c0.448,0.309,0.87,0.657,1.255,1.042
			c1.452,1.455,2.401,3.406,2.566,5.58L79.718,54.311z M77.668,45.139c1.625,0,3.158,0.383,4.521,1.062l-0.297,0.465
			c-1.273-0.626-2.706-0.978-4.224-0.978c-1.516,0-2.948,0.352-4.222,0.977L73.15,46.2C74.512,45.522,76.046,45.139,77.668,45.139z
			 M72.061,46.829l0.254,0.487c-2.39,1.61-4.015,4.268-4.22,7.314l-0.55,0.023C67.745,51.387,69.491,48.539,72.061,46.829z
			 M67.545,55.913l0.55,0.022c0.205,3.048,1.83,5.706,4.22,7.315l-0.254,0.487C69.491,62.03,67.745,59.181,67.545,55.913z
			 M77.668,65.43c-1.623,0-3.156-0.384-4.518-1.062l0.296-0.464c1.273,0.625,2.706,0.979,4.222,0.979
			c1.518,0,2.95-0.354,4.224-0.979l0.297,0.464C80.826,65.046,79.293,65.43,77.668,65.43z M83.277,63.738l-0.255-0.487
			c2.393-1.609,4.016-4.268,4.22-7.315l0.55-0.022C87.593,59.181,85.847,62.03,83.277,63.738z"/>
	</g>
	<g>
		<path d="M84.432,32.901h-3.196c-0.136,0-0.246,0.111-0.246,0.247h-1.845c-0.952,0-1.722,0.771-1.722,1.721v2.46h-1.476v-0.219
			c0-0.271-0.222-0.492-0.492-0.492H62.873c-0.273,0-0.493,0.221-0.493,0.492v0.219h-1.067c-0.952,0-1.722,0.771-1.722,1.721v2.214
			h-0.123v8.239h0.123v0.493h-1.388c-0.336,0.002-0.639,0.122-0.909,0.292c-0.271,0.173-0.512,0.401-0.68,0.69l-6.708,11.81
			l0.32,0.182l-3.814-1.936l-0.184,0.182l-0.694-0.352l0.111-0.219l-1.426-0.725l-0.111,0.22l-0.329-0.167l-0.5,0.988l0.329,0.165
			l-0.056,0.11l1.426,0.722l0.056-0.107l0.366,0.184l-0.092,0.092l5.484,2.782l0.056-0.11l0.329,0.169l0.5-0.989l-0.328-0.167
			l0.11-0.218l-0.681-0.346l1.829-3.223l0.454,0.23l0.484-0.954l-0.409-0.207l3.423-6.025h3.032v2.706h-0.123v-0.615h-0.013
			c-0.057-0.281-0.304-0.491-0.603-0.491c-0.297,0-0.545,0.209-0.602,0.491h-0.013v0.615h-0.736v0.984h0.736v4.527l-1.475,0.76
			c-0.408,0-0.738,0.33-0.738,0.738v0.122c0,0.407,0.33,0.737,0.738,0.737l4.058-2.09c0.407,0,0.738-0.33,0.738-0.737v-0.124
			c0-0.405-0.331-0.736-0.738-0.736l-1.353,0.696v-3.894h0.122h0.493h21.644v0.177h1.509c0.185,0,0.336-0.149,0.336-0.334v-0.671
			c0-0.185-0.151-0.335-0.336-0.335h-1.509v0.179h-3.32v-6.272h0.245v-8.239h-0.245v-3.443l0,0v-2.953
			c0.001-0.406,0.33-0.736,0.737-0.736l1.845-0.001v0.001c0,0.135,0.11,0.245,0.246,0.245h0.124c0-0.135,0.109-0.245,0.245-0.245
			c0.137,0,0.245,0.11,0.245,0.245h0.124c0-0.135,0.11-0.245,0.246-0.245s0.247,0.11,0.247,0.245h0.121
			c0-0.135,0.109-0.245,0.247-0.245c0.136,0,0.245,0.11,0.245,0.245h0.123c0-0.135,0.111-0.245,0.247-0.245s0.246,0.11,0.246,0.245
			h0.123c0-0.135,0.109-0.245,0.247-0.245c0.135,0,0.245,0.11,0.245,0.245h0.122c0.138,0,0.248-0.11,0.248-0.245v-0.984
			C84.679,33.013,84.569,32.901,84.432,32.901z M59.591,52.456h-2.684l0.561-0.987c0.065-0.115,0.203-0.254,0.353-0.351
			c0.15-0.097,0.313-0.143,0.383-0.139h1.388V52.456z M60.574,49.504h4.92v1.124l-0.269,0.352h-4.651V49.504z M60.574,55.776v-4.059
			h5.346l0.962,0.738l0.567-0.738h2.833l0.708,4.059H60.574z M66.355,50.503v-0.999h3.54l0.257,1.476h-3.175L66.355,50.503z
			 M70.521,49.504h4.349l0.258,1.476h-4.35L70.521,49.504z M71.612,55.776l-0.706-4.059h4.349l0.708,4.059H71.612z M77.424,55.776
			h-0.835l-0.709-4.059h1.544V55.776z M77.424,50.979h-1.673l-0.257-1.476h1.93V50.979z M77.424,41.265H60.575v-2.214
			c0.001-0.407,0.331-0.737,0.737-0.737h16.11L77.424,41.265L77.424,41.265z"/>
	</g>
</g>
<path d="M53.459,19.037c0.16-0.288-1.189-0.673-1.947-1.304c-0.804-0.67-2.692-1.427-4.182-1.669
	c-1.489-0.242-8.334,0.128-10.068,0.865c-1.734,0.736-6.326,3.345-8.759,6.252c-0.789,0.939-1.112,1.813-1.66,3.504
	c0,0-4.326,8.048-3.685,15.827c0,0-1.008,6.679-1.098,9.975c-0.091,3.294,1.64,11.071,1.548,11.532
	c-0.092,0.455-0.457,1.187-0.274,1.463c0.182,0.275-0.732,10.982-1.098,12.081c-0.366,1.097-3.662,3.567-4.668,4.117
	c-1.006,0.549-0.458,2.288,1.556,2.196s4.027-1.647,5.309-1.831c1.279-0.181,2.013-0.822,2.104-1.281
	c0.091-0.457,0-2.012-0.274-2.288c-0.183-1.555,1.74-6.955,1.648-9.425c-0.091-2.473,0.274-4.577,0.274-4.577
	s0.828-11.987,1.653-11.164c0.824,0.823,4.511,10.219,4.969,11.503c0.458,1.281,0.477,3.965,1.905,6.903
	c1.115,2.289,3.383,5.506,3.476,6.059c0.091,0.547,0.091,1.277,0.091,1.277s-0.274,0-0.274,0.734c0,0.731-0.349,1.582,0.475,1.947
	c0.824,0.366,1.08,0.341,1.904,0.889c0.824,0.549,1.557,0.915,3.296,0.915c1.738,0,2.894-0.611,1.466-1.567
	c-1.026-0.684-3.206-3.282-3.206-3.556s-0.366-1.011-0.366-1.011s-3.529-7.435-3.607-11.163c-0.046-2.138-0.879-5.61-0.879-5.61
	s-0.242-2.529,0.124-2.803c0.366-0.275-0.106-3.261-0.22-4.793c-0.255-3.418,1.098-8.876,1.006-9.516
	c-0.091-0.642,0.439-6.295,0.439-6.295c0.426-1.428,0.059-4.044-0.51-4.747c-0.571-0.707-2.566-2.564-3.043-3.258
	c-0.479-0.696,0.924-0.915,0.924-0.915s1.112-0.068,1.577-0.111c0.463-0.042,0.876-0.459,0.906-0.732
	c1.633-0.654,3.93-4.094,2.1-5.945c-1.824-2.766-4.613-0.762-5.581-0.311c-0.536-0.149-1.115,0.985-1.245,1.341
	c-1.098,0.803-1.644,2.495-1.644,2.495s-0.159,0.627-0.614,0.579c-0.455-0.048-1.628-0.265-0.594-1.35
	c1.036-1.087,4.989-4.536,6.129-4.877c1.14-0.34,7.504-2.241,8.042-0.996c0.262,0.605,2.296,1.092,2.296,1.092
	s1.08,0.828,1.513,0.515c0.433-0.312-1.035-1.384-1.035-1.384s0.479,0.239,0.95,0.382c0.472,0.142,1.706,0.479,2.358,0.608
	C53.623,19.74,53.938,19.273,53.459,19.037z M36.703,37.025c0.55-0.639,0.366,0.093,0.366,0.093s-0.184,4.844,0.366,6.036
	c-0.484,2.891-0.549,7.776-0.549,7.045c0-0.73-0.75-6.473-1.244-6.891C34.982,42.749,35.63,38.278,36.703,37.025z"/>
</svg>
