<?xml version="1.0" encoding="utf-8"?>
<!-- Generator: Adobe Illustrator 15.0.0, SVG Export Plug-In . SVG Version: 6.00 Build 0)  -->
<!DOCTYPE svg PUBLIC "-//W3C//DTD SVG 1.1//EN" "http://www.w3.org/Graphics/SVG/1.1/DTD/svg11.dtd">
<svg version="1.1" id="Ebene_1" xmlns="http://www.w3.org/2000/svg" xmlns:xlink="http://www.w3.org/1999/xlink" x="0px" y="0px"
	 width="100px" height="100px" viewBox="0 0 100 100" enable-background="new 0 0 100 100" xml:space="preserve">
<circle fill="#B2B2B2" cx="50" cy="50" r="50"/>
<g>
	<path stroke="#000000" stroke-width="0.7087" stroke-miterlimit="10" d="M44.63,47.552l0.153-0.069
		c0.14-0.064,0.201-0.23,0.137-0.37c-0.064-0.142-0.233-0.203-0.373-0.139L44.4,47.042c-0.634,0.285-1.813,0.816-2.03,1.559
		c-0.072,0.251-0.032,0.507,0.121,0.738c0.196,0.301,0.519,0.435,0.908,0.375c0.738-0.112,1.635-0.924,1.791-1.472
		c0.042-0.148-0.043-0.304-0.193-0.347c-0.148-0.042-0.304,0.044-0.346,0.194c-0.093,0.325-0.802,0.989-1.337,1.07
		c-0.219,0.034-0.304-0.05-0.354-0.127c-0.063-0.096-0.078-0.18-0.051-0.274C43.053,48.263,44.199,47.747,44.63,47.552z"/>
	<path stroke="#000000" stroke-width="0.7087" stroke-miterlimit="10" d="M40.468,49.009c0.037-0.05,0.054-0.107,0.054-0.164
		c0-0.085-0.04-0.169-0.115-0.224c-0.125-0.093-0.302-0.063-0.395,0.062l-0.141,0.189c-0.231,0.304-0.448,0.593-0.441,1.084
		c0.005,0.336,0.045,0.666,0.303,0.814c0.249,0.144,0.538,0.022,0.813-0.13c0.45-0.249,1.002-0.846,1.141-1.458
		c0.09-0.396,0.04-0.898-0.274-1.125c-0.126-0.091-0.399-0.208-0.807,0.038c-0.133,0.079-0.176,0.251-0.096,0.384
		c0.08,0.133,0.251,0.175,0.385,0.096c0.116-0.07,0.18-0.071,0.19-0.064c0.038,0.028,0.082,0.156,0.082,0.324
		c0,0.069-0.007,0.145-0.025,0.224c-0.087,0.385-0.476,0.876-0.867,1.092c-0.149,0.083-0.213,0.105-0.25,0.113
		c-0.013-0.045-0.029-0.133-0.032-0.316c-0.001-0.005-0.001-0.011-0.001-0.017c0-0.288,0.118-0.444,0.328-0.722L40.468,49.009z"/>
	<path stroke="#000000" stroke-width="0.7087" stroke-miterlimit="10" d="M37.715,50.631c-0.142-0.062-0.307,0.003-0.369,0.145
		c-0.008,0.02-0.842,1.945-0.249,2.542c0.142,0.144,0.413,0.271,0.892,0.064c0.618-0.264,1.254-1.507,1.216-2.374
		c-0.021-0.5-0.258-0.849-0.664-0.982c-0.147-0.048-0.306,0.032-0.354,0.179c-0.048,0.147,0.032,0.305,0.179,0.354
		c0.072,0.022,0.262,0.085,0.279,0.474c0.032,0.725-0.532,1.688-0.877,1.835c-0.189,0.082-0.265,0.064-0.274,0.056
		c-0.17-0.171,0.062-1.229,0.365-1.923C37.921,50.858,37.857,50.693,37.715,50.631z"/>
	<path stroke="#000000" stroke-width="0.7087" stroke-miterlimit="10" d="M38.716,59.362c-0.515,0.519-0.748,1.548-0.469,2.078
		c0.151,0.288,0.43,0.419,0.767,0.358c0.153-0.026,0.253-0.173,0.227-0.324c-0.027-0.152-0.173-0.255-0.325-0.228
		c-0.116,0.021-0.146-0.017-0.172-0.067c-0.151-0.287,0.008-1.059,0.37-1.423c0.211-0.213,0.372-0.171,0.489-0.111
		c0.137,0.071,0.306,0.017,0.377-0.121c0.071-0.137,0.017-0.306-0.121-0.377C39.467,58.945,39.05,59.024,38.716,59.362z"/>
	<path stroke="#000000" stroke-width="0.7087" stroke-miterlimit="10" d="M37.999,65.456c0.151-0.03,0.249-0.179,0.218-0.33
		c-0.031-0.152-0.179-0.25-0.33-0.218c-0.478,0.098-0.956,0.541-1.217,1.129c-0.228,0.513-0.231,1.022-0.01,1.396
		c0.197,0.334,0.452,0.388,0.603,0.386c-0.326,0.34-0.427,0.972-0.296,1.444c0.132,0.477,0.469,0.737,0.899,0.699
		c0.125-0.012,0.227-0.104,0.25-0.228c0.013-0.068,0.049-0.121,0.11-0.206l0.141-0.231c0.081-0.132,0.023-0.271-0.108-0.353
		c-0.13-0.081-0.319-0.011-0.402,0.119l-0.087,0.137c-0.035,0.049-0.072,0.104-0.107,0.167c-0.057-0.036-0.116-0.106-0.157-0.255
		c-0.026-0.092-0.038-0.19-0.038-0.287c0-0.307,0.115-0.601,0.257-0.669c0.067-0.033,0.114-0.092,0.138-0.156
		c-0.009,0.036-0.019,0.068-0.026,0.11c-0.027,0.151,0.073,0.298,0.226,0.324c0.153,0.027,0.298-0.073,0.326-0.225
		c0.011-0.061,0.021-0.088,0.032-0.123c0.236,0.271,0.607,1.111,0.609,1.371c0,0.001,0,0.001,0,0.003c0,0.311-0.33,0.87-0.529,1.047
		c-0.009-0.04-0.018-0.079-0.023-0.155c-0.011-0.154-0.145-0.271-0.299-0.26c-0.154,0.01-0.271,0.145-0.26,0.299
		c0.046,0.665,0.358,0.752,0.541,0.745c0.559-0.022,1.135-1.183,1.131-1.685c-0.002-0.349-0.57-1.941-1.184-1.993
		c-0.18-0.015-0.408,0.063-0.529,0.482c0.001-0.014,0.005-0.025,0.005-0.038c0-0.04-0.009-0.083-0.028-0.122
		c-0.03-0.062-0.081-0.103-0.139-0.129c0.325-0.229,0.567-0.635,0.653-0.824c0.063-0.141,0-0.308-0.142-0.371
		c-0.141-0.063-0.307,0-0.37,0.142c-0.143,0.318-0.445,0.652-0.597,0.66c-0.044,0.003-0.093-0.067-0.118-0.11
		c-0.128-0.217-0.114-0.54,0.039-0.885C37.363,65.856,37.707,65.518,37.999,65.456z"/>
	<path stroke="#000000" stroke-width="0.7087" stroke-miterlimit="10" d="M36.016,72.387c0.185,0.32,0.397,0.495,0.635,0.523
		c-0.08,0.661-0.095,1.73,0.381,2.121c0.135,0.11,0.429,0.26,0.875,0.021c0.65-0.347,0.868-1.606,0.615-2.417
		c-0.14-0.452-0.413-0.732-0.77-0.811c0.064-0.148,0.125-0.303,0.183-0.461l0.016-0.043c0.054-0.145-0.021-0.308-0.165-0.36
		c-0.146-0.055-0.306,0.02-0.36,0.165l-0.016,0.044c-0.248,0.67-0.428,0.963-0.543,1.09c-0.031,0.018-0.059,0.043-0.081,0.072
		c-0.027,0.018-0.047,0.022-0.059,0.023c-0.02,0.002-0.105-0.04-0.226-0.249c-0.151-0.263,0.037-1.281,0.421-1.584
		c0.06-0.048,0.143-0.111,0.317,0.054c0.112,0.107,0.29,0.102,0.396-0.011c0.106-0.112,0.102-0.29-0.01-0.396
		c-0.33-0.313-0.722-0.346-1.05-0.087C36.018,70.522,35.698,71.836,36.016,72.387z M37.421,72.694
		c0.146,0.005,0.259-0.146,0.278-0.294c0.101,0.05,0.21,0.152,0.287,0.401c0.053,0.17,0.077,0.359,0.077,0.551
		c0,0.537-0.187,1.081-0.42,1.206c-0.183,0.098-0.237,0.054-0.255,0.039c-0.161-0.132-0.218-0.569-0.218-1.017
		c0-0.358,0.038-0.714,0.09-0.931c0.002-0.002,0.004-0.003,0.006-0.006C37.31,72.671,37.359,72.691,37.421,72.694z"/>
	<path stroke="#000000" stroke-width="0.7087" stroke-miterlimit="10" d="M33.729,62.888c0.029-0.078,0.051-0.146,0.062-0.192
		c0.037-0.15-0.056-0.302-0.207-0.338c-0.15-0.037-0.302,0.056-0.338,0.206c-0.086,0.356-0.485,1.044-0.726,1.093
		c-0.013,0.003-0.05,0.012-0.123-0.086c-0.096-0.127-0.056-0.405,0.104-0.728c0.276-0.554,0.747-0.954,0.931-0.954
		c0.155,0,0.281-0.126,0.281-0.279c0-0.156-0.125-0.281-0.281-0.281c-0.503,0-1.123,0.643-1.433,1.265
		c-0.267,0.538-0.284,1.005-0.049,1.316c0.25,0.33,0.536,0.327,0.684,0.297c0.06-0.013,0.118-0.036,0.174-0.064
		c-0.015,0.017-0.032,0.028-0.043,0.05c-0.218,0.376-0.286,1.607,0.153,2.037c0.199,0.194,0.477,0.213,0.745,0.05
		c0.533-0.325,0.809-1.563,0.69-2.411C34.26,63.188,33.941,62.963,33.729,62.888z M33.372,65.8c0,0.001-0.068,0.029-0.068,0.029
		c-0.164-0.106-0.211-1.086-0.053-1.357c0.078-0.134,0.032-0.305-0.102-0.383c-0.064-0.037-0.137-0.044-0.204-0.029
		c0.219-0.158,0.406-0.414,0.549-0.667c0.012,0.005,0.021,0.015,0.035,0.018c0.128,0.035,0.229,0.235,0.271,0.534
		C33.906,64.702,33.611,65.654,33.372,65.8z"/>
	<path stroke="#000000" stroke-width="0.7087" stroke-miterlimit="10" d="M43.109,60.941c-0.05-0.073-0.128-0.111-0.21-0.118
		c-0.011-0.147-0.133-0.263-0.282-0.261c-0.11,0.002-0.188,0.078-0.23,0.173c-0.02-0.019-0.033-0.041-0.058-0.054
		c-0.521-0.278-1.297,0.029-1.693,0.492c-0.05,0.058-0.09,0.117-0.127,0.18c-0.042-0.441-0.152-0.856-0.385-1.055
		c-0.192-0.163-0.447-0.179-0.697-0.043c-0.136,0.074-0.187,0.244-0.112,0.381c0.073,0.136,0.243,0.186,0.379,0.111
		c0.046-0.024,0.067-0.024,0.067-0.024c0.208,0.109,0.275,1.493,0.133,1.901c-0.094,0.271-0.371,0.39-0.514,0.349
		c-0.095-0.026-0.083-0.167-0.057-0.281c0.035-0.151-0.06-0.302-0.21-0.336c-0.15-0.035-0.301,0.06-0.335,0.21
		c-0.084,0.369,0.01,0.622,0.166,0.777c-0.165,0.003-0.368,0.064-0.592,0.271c-0.115,0.104-0.122,0.282-0.017,0.396
		c0.104,0.114,0.282,0.123,0.396,0.018c0.118-0.107,0.209-0.146,0.273-0.113c0.213,0.107,0.417,0.748,0.353,1.342
		c-0.036,0.329-0.14,0.473-0.202,0.488c-0.108,0.028-0.147-0.001-0.163-0.014c-0.207-0.154-0.23-0.833-0.238-1.09l-0.027-0.302
		c-0.014-0.151-0.138-0.214-0.291-0.203c-0.054,0.004-0.102,0.029-0.142,0.068c-0.078-0.065-0.187-0.088-0.287-0.046
		c-0.129,0.057-0.156,0.019-0.187-0.025c-0.225-0.319-0.126-1.417,0.234-1.807c0.104-0.112,0.171-0.104,0.26-0.051
		c0.133,0.078,0.305,0.034,0.384-0.099c0.079-0.133,0.035-0.305-0.098-0.384c-0.331-0.196-0.688-0.14-0.958,0.153
		c-0.522,0.563-0.676,1.948-0.28,2.509c0.193,0.274,0.502,0.357,0.832,0.23c0.016,0.452,0.047,1.184,0.462,1.494
		c0.124,0.092,0.334,0.187,0.639,0.107c0.34-0.088,0.561-0.433,0.62-0.972c0.059-0.547-0.059-1.392-0.48-1.776
		c0.385,0.004,0.825-0.249,0.991-0.73c0.031-0.089,0.063-0.267,0.084-0.486c0.011,0.019,0.02,0.036,0.033,0.055
		c0.222,0.297,0.561,0.396,0.928,0.27c0.103-0.035,0.207-0.091,0.31-0.156c-0.087,0.063-0.133,0.174-0.107,0.286
		c0.013,0.061,0.036,0.157,0.07,0.265c-0.019-0.004-0.038-0.012-0.059-0.011c-0.153,0.003-0.274,0.127-0.274,0.28
		c0,0.002,0.001,0.01,0.001,0.012c0,0.293-0.41,0.82-0.65,0.98c-0.029-0.13-0.132-0.238-0.266-0.237
		c-0.149,0.003-0.271,0.106-0.276,0.255c-0.01,0.268,0.066,0.451,0.228,0.548c0.107,0.065,0.29,0.11,0.55-0.04
		c0.362-0.21,0.873-0.837,0.958-1.361c0.091,0.119,0.208,0.215,0.364,0.243c0.143,0.025,0.424,0.008,0.686-0.396
		C43.344,62.787,43.581,61.638,43.109,60.941z M41.286,62.116c-0.16,0.055-0.233,0.012-0.298-0.075
		c-0.042-0.056-0.167-0.224,0.072-0.503c0.263-0.306,0.77-0.488,1.005-0.362c0.045,0.024,0.093,0.031,0.141,0.029
		C42.013,61.551,41.636,61.996,41.286,62.116z M42.692,62.664c-0.105,0.305-0.227,0.446-0.283,0.481
		c-0.035-0.036-0.118-0.153-0.194-0.492c-0.034-0.151-0.184-0.246-0.335-0.212c-0.036,0.008-0.068,0.023-0.097,0.044
		c0.379-0.248,0.739-0.676,0.944-1.071c0.061,0.153,0.087,0.332,0.087,0.517C42.814,62.186,42.766,62.449,42.692,62.664z"/>
	<path stroke="#000000" stroke-width="0.7087" stroke-miterlimit="10" d="M41.848,63.946c-0.12,0.099-0.136,0.274-0.037,0.395
		c0.181,0.217,0.444,1.168,0.321,1.758c-0.03,0.143-0.082,0.242-0.143,0.272c-0.094,0.048-0.123,0.029-0.133,0.023
		c-0.15-0.097-0.236-0.596-0.231-0.772c0.005-0.153-0.114-0.285-0.268-0.291c-0.153-0.008-0.283,0.107-0.292,0.261
		c-0.001,0.01-0.003,0.952,0.482,1.271c0.051,0.032,0.127,0.069,0.225,0.088c-0.017,0-0.032-0.005-0.048-0.003
		c-0.153,0.026-0.258,0.154-0.232,0.308l0.082,0.483c0.115,0.606,0.307,1.62-0.131,1.874c-0.097,0.057-0.157,0.066-0.183,0.057
		c-0.114-0.045-0.225-0.412-0.291-0.631c-0.07-0.23-0.135-0.446-0.242-0.607c-0.055-0.084-0.149-0.124-0.245-0.121
		c0.217-0.148,0.397-0.457,0.535-0.921c0.044-0.148-0.04-0.304-0.188-0.349c-0.148-0.044-0.305,0.041-0.348,0.188
		c-0.167,0.561-0.326,0.627-0.327,0.628c-0.093-0.051-0.29-0.602-0.076-1.223c0.05-0.146-0.028-0.305-0.173-0.355
		c-0.146-0.051-0.306,0.027-0.356,0.174c-0.221,0.638-0.142,1.392,0.181,1.754c0.151,0.169,0.351,0.241,0.548,0.197
		c0.005-0.001,0.01-0.004,0.015-0.006c-0.085,0.094-0.105,0.233-0.032,0.343c0.061,0.092,0.117,0.278,0.172,0.459
		c0.057,0.189,0.118,0.39,0.205,0.563c-0.056-0.013-0.115-0.013-0.171,0.013c-0.141,0.063-0.206,0.228-0.143,0.37
		c0.193,0.435,0.227,1.193-0.216,1.428c-0.151,0.081-0.208,0.066-0.209,0.066c-0.068-0.049-0.108-0.432,0.014-0.848
		c0.044-0.149-0.042-0.305-0.19-0.349s-0.304,0.041-0.348,0.189c-0.031,0.108-0.295,1.063,0.17,1.441
		c0.147,0.12,0.409,0.216,0.826-0.006c0.709-0.378,0.74-1.328,0.534-1.965c0.045,0.035,0.094,0.065,0.149,0.087
		c0.202,0.079,0.427,0.048,0.67-0.093c0.78-0.455,0.551-1.664,0.399-2.464l-0.074-0.441c-0.019-0.109-0.102-0.2-0.203-0.232
		c0.111,0.006,0.243-0.013,0.395-0.09c0.154-0.077,0.354-0.254,0.439-0.659c0.146-0.701-0.124-1.851-0.439-2.229
		C42.143,63.863,41.967,63.847,41.848,63.946z"/>
	<path stroke="#000000" stroke-width="0.7087" stroke-miterlimit="10" d="M46.425,64.424c-0.09-0.126-0.265-0.155-0.391-0.065
		c-0.077,0.055-0.118,0.141-0.118,0.229c0,0.056,0.018,0.114,0.053,0.163c0.125,0.175,0.166,0.375,0.166,0.558
		c0,0.24-0.07,0.451-0.103,0.538c-0.109,0.283-0.246,0.413-0.307,0.448c-0.032-0.056-0.102-0.223-0.102-0.666
		c0-0.056,0.001-0.115,0.003-0.18c0-0.004,0-0.007,0-0.011c0-0.149-0.119-0.273-0.27-0.279c-0.038-0.002-0.074,0.005-0.107,0.017
		c0.387-0.325,0.698-0.817,0.628-1.23c-0.026-0.152-0.171-0.255-0.323-0.229c-0.153,0.026-0.255,0.171-0.23,0.323
		c0.033,0.192-0.253,0.628-0.623,0.846c-0.089,0.052-0.312,0.164-0.44,0.061c-0.134-0.106-0.131-0.192-0.108-0.269
		c0.096-0.334,0.682-0.715,0.968-0.746c0.154-0.018,0.264-0.156,0.247-0.311c-0.017-0.152-0.156-0.264-0.31-0.247
		c-0.462,0.052-1.273,0.557-1.444,1.146c-0.095,0.328,0.011,0.634,0.297,0.863c0.282,0.226,0.674,0.221,1.075-0.016
		c0.047-0.027,0.093-0.061,0.139-0.095c-0.033,0.045-0.059,0.096-0.061,0.156c-0.004,0.117-0.004,0.226-0.001,0.328
		c-0.113,0.01-0.213,0.086-0.244,0.202l-0.033,0.12c-0.084,0.316-0.261,0.972-0.547,1.12c-0.049,0.025-0.12,0.049-0.247,0.001
		c-0.157-0.058-0.215-0.197-0.173-0.413c0.067-0.339,0.349-0.651,0.579-0.643c0.155,0.005,0.285-0.116,0.291-0.271
		c0.005-0.155-0.116-0.284-0.271-0.29c-0.572-0.02-1.042,0.553-1.147,1.095c-0.063,0.322,0.004,0.604,0.176,0.805
		c-0.058,0.025-0.11,0.067-0.141,0.13c-0.203,0.414-0.129,0.863,0.188,1.144c0.251,0.22,0.584,0.271,0.894,0.151
		c-0.003,0.047,0.001,0.095,0.024,0.141l0.044,0.091c0.146,0.293,0.487,0.98,0.202,1.177c-0.052,0.036-0.101,0.047-0.148,0.034
		c-0.072-0.019-0.142-0.087-0.189-0.185c-0.051-0.104-0.156-0.162-0.266-0.157c-0.065-0.214-0.048-0.356,0.053-0.469
		c0.103-0.115,0.093-0.292-0.022-0.396c-0.115-0.104-0.292-0.094-0.396,0.021c-0.318,0.356-0.253,0.776-0.154,1.066
		c-0.125,0.236-0.618,1.232-0.342,1.866c0.102,0.236,0.295,0.391,0.557,0.451c0.22,0.048,0.432,0.004,0.616-0.128
		c0.546-0.396,0.66-1.498,0.661-1.509c-0.015,0.154-0.152,0.267-0.306,0.252c-0.136-0.014-0.233-0.123-0.246-0.255
		c0.173,0.018,0.347-0.025,0.5-0.131c0.685-0.473,0.192-1.465-0.018-1.889l-0.042-0.084c-0.034-0.069-0.091-0.117-0.158-0.142
		c0.132-0.137,0.208-0.295,0.251-0.457c0.118,0.139,0.266,0.265,0.439,0.343c0.228,0.104,0.459,0.111,0.669,0.02
		c0.203-0.088,0.35-0.238,0.424-0.432c0.18-0.469-0.101-1.085-0.287-1.492l-0.023-0.053c0.025-0.029,0.051-0.059,0.075-0.091
		C46.648,66.049,46.911,65.105,46.425,64.424z M43.704,70.572c0.005,0.004,0.009,0.009,0.015,0.013
		c-0.033-0.012-0.063-0.026-0.091-0.05C43.651,70.555,43.678,70.563,43.704,70.572z M44.039,71.966
		c-0.053,0.039-0.102,0.049-0.164,0.034c-0.109-0.024-0.145-0.075-0.166-0.127c-0.026-0.058-0.037-0.132-0.037-0.216
		c0-0.298,0.142-0.711,0.281-1.005c0.012,0,0.022,0,0.034,0c0.108,0.116,0.236,0.202,0.38,0.24c0.032,0.008,0.064,0.01,0.097,0.014
		C44.425,71.22,44.273,71.795,44.039,71.966z M44.279,68.341c-0.146,0.096-0.3,0.093-0.414-0.006
		c-0.098-0.086-0.163-0.257-0.055-0.478c0.019-0.039,0.026-0.08,0.026-0.122c0.232,0.077,0.461,0.065,0.663-0.039
		c0.006-0.004,0.011-0.009,0.017-0.012C44.5,68.004,44.475,68.212,44.279,68.341z M46.02,67.936
		c-0.014,0.036-0.04,0.082-0.124,0.119c-0.024,0.01-0.093,0.04-0.213-0.016c-0.19-0.087-0.36-0.313-0.409-0.472
		c-0.028-0.088-0.096-0.147-0.175-0.177c0.01-0.074,0.025-0.138,0.053-0.178c0.074-0.108,0.057-0.248-0.026-0.342
		c0.041-0.104,0.076-0.207,0.107-0.308c0.078,0.138,0.179,0.23,0.308,0.276c0.066,0.024,0.134,0.032,0.202,0.027l0.005,0.01
		C45.875,67.16,46.115,67.687,46.02,67.936z"/>
	<path stroke="#000000" stroke-width="0.7087" stroke-miterlimit="10" d="M39.241,74.588c-0.028-0.151-0.177-0.264-0.329-0.235
		c-0.152,0.027-0.254,0.162-0.227,0.313l0.071,0.379c0.13,0.629,0.187,1.059-0.195,1.282c-0.123,0.071-0.22,0.083-0.258,0.063
		c-0.031-0.017-0.071-0.086-0.084-0.231c-0.013-0.149-0.143-0.264-0.294-0.256c-0.15,0.008-0.268,0.132-0.265,0.283l0.004,0.209
		c0.01,0.448,0.039,1.639-0.347,1.819c-0.02,0.009-0.088,0.039-0.107,0.02c-0.063-0.063-0.094-0.23-0.094-0.391
		c0-0.039,0.012-0.063,0.016-0.1c0-0.003,0.048-0.24,0.048-0.24c0.004-0.02,0.005-0.038,0.005-0.057c0-0.119-0.076-0.23-0.193-0.269
		c-0.135-0.044-0.282,0.017-0.341,0.146c-0.008,0.019-0.012,0.046-0.02,0.067c0-0.003,0-0.007,0.001-0.012
		c0,0-0.003,0.02-0.004,0.022c-0.029,0.085-0.049,0.185-0.059,0.296c-0.09,0.463-0.303,1.486-0.654,1.579
		c-0.169,0.044-0.271,0.004-0.337-0.139c-0.119-0.25-0.044-0.659,0.146-0.797c0.125-0.091,0.153-0.267,0.062-0.392
		s-0.266-0.153-0.391-0.063c-0.452,0.328-0.533,1.05-0.323,1.492c0.182,0.384,0.56,0.552,0.986,0.439
		c0.433-0.115,0.685-0.603,0.849-1.126c0.181,0.121,0.407,0.14,0.647,0.027c0.02-0.009,0.035-0.024,0.054-0.035
		c-0.039,0.358,0.012,0.826,0.28,1.043c0.092,0.076,0.348,0.226,0.719-0.016c0.493-0.323,0.303-1.162,0.199-1.509
		c-0.045-0.147-0.202-0.231-0.349-0.187c-0.148,0.044-0.232,0.201-0.188,0.349c0.133,0.442,0.124,0.817,0.032,0.878
		c-0.06,0.039-0.088,0.041-0.088,0.041c-0.062-0.072-0.086-0.533-0.011-0.729c0.057-0.144-0.015-0.305-0.159-0.362
		c-0.006-0.003-0.013-0.001-0.02-0.004c0.156-0.363,0.198-0.833,0.204-1.261c0.191,0.035,0.404,0.005,0.617-0.12
		c0.756-0.444,0.578-1.308,0.459-1.879L39.241,74.588z"/>
	<path stroke="#000000" stroke-width="0.7087" stroke-miterlimit="10" d="M35.566,75.907c-0.03,0.483,0.326,1.117,0.833,1.212
		c0.262,0.048,0.748-0.012,1.044-0.961c0.046-0.148-0.035-0.306-0.183-0.352s-0.305,0.035-0.351,0.184
		c-0.118,0.375-0.278,0.602-0.409,0.577c-0.169-0.031-0.393-0.36-0.375-0.625c0.006-0.106,0.045-0.174,0.216-0.184
		c0.155-0.009,0.272-0.143,0.264-0.296c-0.009-0.155-0.141-0.272-0.295-0.264C35.877,75.224,35.593,75.495,35.566,75.907z"/>
	<path stroke="#000000" stroke-width="0.7087" stroke-miterlimit="10" d="M32.59,60.427c0.052-0.146-0.023-0.306-0.169-0.358
		c-0.146-0.052-0.306,0.023-0.359,0.169c-0.131,0.368-0.575,0.987-1.063,1.191c-0.192,0.081-0.361,0.085-0.516,0.014
		c-0.152-0.069-0.243-0.148-0.242-0.209c0.002-0.233,0.599-0.684,1.092-0.899c0.142-0.063,0.207-0.229,0.144-0.369
		c-0.062-0.142-0.227-0.206-0.369-0.145c-0.014,0.006-1.42,0.632-1.428,1.409c-0.001,0.209,0.096,0.505,0.569,0.723
		c0.298,0.137,0.632,0.135,0.967-0.006C31.827,61.689,32.395,60.973,32.59,60.427z"/>
	<path stroke="#000000" stroke-width="0.7087" stroke-miterlimit="10" d="M52.275,46.229c0.153-0.02,0.261-0.162,0.239-0.314
		c-0.02-0.153-0.162-0.261-0.314-0.24c-0.515,0.07-1.105,0.649-1.194,1.169c-0.062,0.357,0.097,0.661,0.435,0.833
		c0.193,0.099,0.52,0.16,0.983-0.106c0.543-0.313,1.172-1.066,1.199-1.603c0.009-0.155-0.11-0.287-0.265-0.295
		c-0.155-0.007-0.286,0.111-0.294,0.265c-0.014,0.251-0.431,0.864-0.921,1.146c-0.188,0.109-0.352,0.143-0.449,0.093
		c-0.135-0.069-0.152-0.146-0.136-0.238C51.609,46.637,52.023,46.264,52.275,46.229z"/>
	<path stroke="#000000" stroke-width="0.7087" stroke-miterlimit="10" d="M53.384,56.511c-0.137,0.072-0.189,0.241-0.118,0.378
		c0.081,0.153,0.055,0.713-0.145,1.141c-0.104,0.221-0.214,0.315-0.281,0.331c-0.069,0.015-0.095,0.006-0.095,0.006
		c-0.026-0.029-0.052-0.199-0.065-0.289l-0.102-0.412c-0.036-0.148-0.168-0.189-0.317-0.155c-0.15,0.035-0.227,0.234-0.194,0.384
		l0.06,0.268c0.034,0.228,0.076,0.512,0.307,0.67c0.14,0.096,0.316,0.122,0.525,0.076c0.27-0.059,0.502-0.28,0.671-0.642
		c0.225-0.48,0.34-1.243,0.133-1.637C53.69,56.492,53.521,56.439,53.384,56.511z"/>
	<path stroke="#000000" stroke-width="0.7087" stroke-miterlimit="10" d="M41.402,73.161c-0.151-0.031-0.3,0.067-0.331,0.219
		c-0.05,0.249-0.195,0.333-0.309,0.36c-0.144,0.034-0.298-0.01-0.375-0.107c-0.095-0.12-0.042-0.291,0.018-0.411
		c0.07-0.139,0.014-0.307-0.125-0.376c-0.138-0.07-0.307-0.014-0.376,0.124c-0.187,0.372-0.171,0.741,0.043,1.011
		c0.211,0.267,0.591,0.39,0.945,0.305c0.373-0.09,0.646-0.386,0.728-0.793C41.651,73.34,41.554,73.191,41.402,73.161z"/>
	<path stroke="#000000" stroke-width="0.7087" stroke-miterlimit="10" d="M37.41,79.58c-0.132-0.082-0.305-0.041-0.386,0.09
		c-0.019,0.03-0.021,0.063-0.027,0.096c-0.303,0.128-0.505,0.403-0.562,0.804c-0.012,0.083-0.018,0.167-0.018,0.252
		c0,0.628,0.302,1.319,0.714,1.575c0.258,0.16,0.551,0.151,0.802-0.022c0.19-0.13,0.414-0.396,0.401-0.929
		C38.317,80.746,37.885,79.876,37.41,79.58z M37.774,81.487c0,0.15-0.029,0.337-0.159,0.426c-0.07,0.049-0.12,0.05-0.189,0.007
		c-0.226-0.14-0.45-0.639-0.45-1.094c0-0.061,0.004-0.12,0.013-0.178c0.031-0.22,0.12-0.351,0.263-0.391
		c0.017-0.005,0.025-0.021,0.041-0.027c0.238,0.283,0.472,0.794,0.482,1.229C37.774,81.469,37.774,81.478,37.774,81.487z"/>
	<path stroke="#000000" stroke-width="0.7087" stroke-miterlimit="10" d="M45.608,70.655c-0.126,0.09-0.156,0.265-0.066,0.391
		c0.223,0.313,0.373,1.095,0.127,1.313c-0.072,0.063-0.134,0.079-0.184,0.048c-0.009-0.006-0.008-0.024-0.017-0.032
		c-0.015-0.13-0.033-0.281-0.033-0.281c-0.016-0.131-0.121-0.247-0.253-0.259s-0.255,0.058-0.294,0.184
		c-0.024,0.078-0.035,0.158-0.035,0.236c0,0.111,0.031,0.219,0.076,0.317c0.001,0.007,0.005,0.043,0.005,0.043
		c0.034,0.228,0.074,0.495,0.074,0.732c0,0.269-0.052,0.499-0.221,0.591c-0.147,0.081-0.215,0.041-0.278-0.05
		c-0.143-0.21-0.124-0.563-0.005-0.662c0.118-0.101,0.133-0.277,0.033-0.396s-0.276-0.133-0.395-0.033
		c-0.384,0.322-0.368,1.01-0.096,1.407c0.238,0.348,0.624,0.435,1.008,0.226c0.407-0.221,0.515-0.639,0.515-1.079
		c0-0.125-0.023-0.243-0.037-0.368c0.175,0.001,0.353-0.067,0.509-0.205c0.564-0.5,0.267-1.621-0.042-2.057
		C45.909,70.595,45.734,70.565,45.608,70.655z"/>
	<path stroke="#000000" stroke-width="0.7087" stroke-miterlimit="10" d="M83.731,31.526c-0.049-0.145-1.203-3.546-3.129-3.754
		c-0.982-0.106-1.946,0.624-2.867,2.168c-2.062,3.464-3.54,19.617-4.085,26.565c-0.04-0.343-0.081-0.656-0.118-0.934
		c-2.151-19.872-8.409-29.004-8.472-29.095c-0.083-0.119-0.243-0.154-0.369-0.082c-0.126,0.072-0.176,0.229-0.114,0.36
		c0.052,0.112,4.05,8.884,6.166,23.782c-4.349-19.452-12.482-24.965-14.199-25.931c-0.125-0.07-0.283-0.034-0.365,0.083
		c-0.084,0.117-0.063,0.278,0.044,0.373c6.693,5.851,10.401,15.956,12.454,25.439c-0.5-0.673-1.257-1.529-2.322-2.377
		c-2.505-5.098-4.544-7.198-6.068-8.765l-0.862-0.911c-11.761-10.613-22.548-6.116-22.656-6.069
		c-0.13,0.056-0.198,0.201-0.158,0.337c0.041,0.136,0.175,0.22,0.315,0.196c8.203-1.372,16.05,1.478,21.531,7.821
		c1.311,1.518,2.521,3.199,3.638,5.056c-2.599-0.911-6.136-1.397-10.791-0.609c0.106-0.261,0.104-0.546-0.342-0.878
		c-0.459-0.34-1.289-0.384-1.735-0.331c-0.088,0.01-0.19,0.028-0.299,0.054c-0.055-0.377-0.26-0.679-0.597-0.86
		c-0.62-0.333-1.621-0.218-2.329,0.267c-0.497,0.339-0.738,0.794-0.679,1.279c0.019,0.154,0.159,0.263,0.313,0.244
		c0.154-0.018,0.263-0.158,0.244-0.312c-0.044-0.359,0.256-0.624,0.439-0.749c0.521-0.356,1.321-0.463,1.747-0.234
		c0.21,0.112,0.312,0.297,0.317,0.557c-0.348,0.171-0.63,0.436-0.602,0.822c0.021,0.283,0.256,0.525,0.725,0.751
		c-0.028,0.013-0.054,0.029-0.074,0.049c-0.06-0.055-0.139-0.089-0.226-0.079c-0.051,0.006-0.088,0.038-0.126,0.066
		c0.003-0.016,0.015-0.027,0.015-0.042c0-0.026-0.004-0.053-0.011-0.079c-0.044-0.148-0.199-0.234-0.348-0.191
		c-0.169,0.049-0.585,0.252-0.98,0.534c-0.064-0.034-0.143-0.045-0.217-0.021c-0.5,0.157-1.365,0.277-1.622,0.081
		c-0.03-0.023-0.062-0.055-0.058-0.146c0.003-0.092,0.034-0.16,0.101-0.22c0.358-0.319,1.443-0.233,1.853-0.2l0.13,0.011
		c0.155,0.011,0.288-0.105,0.3-0.259c0.011-0.155-0.106-0.289-0.261-0.3l-0.125-0.01c-0.556-0.044-1.109-0.063-1.564,0.026
		c0,0,0,0,0-0.001c-0.299-0.542-1.223-1.337-2.044-1.401c-0.415-0.033-0.764,0.119-1.012,0.437c-0.179,0.231-0.27,0.457-0.27,0.675
		c0,0.071,0.009,0.142,0.029,0.212c0.081,0.291,0.317,0.496,0.594,0.658c-0.234,0.033-0.479,0.082-0.709,0.147
		c-0.416-0.707-1.14-0.941-1.715-0.911c-0.557,0.028-1,0.294-1.13,0.678c-0.054,0.159-0.086,0.442,0.146,0.78
		c-0.327,0.055-0.644,0.194-0.927,0.468c-0.554,0.533-0.441,0.949-0.324,1.149c0.113,0.194,0.312,0.336,0.548,0.435l-0.227,0.013
		c-0.858,0.017-2.293,0.046-2.442,1.226c-0.017,0.14-0.01,0.255,0.01,0.357c-0.945,0.061-1.495,0.673-1.873,1.217
		c-0.349,0.504-0.391,1.022-0.108,1.351c0.14,0.162,0.333,0.252,0.559,0.267c-0.041,0.077-0.078,0.154-0.112,0.233
		c-0.002-0.007-0.002-0.015-0.005-0.021c-0.067-0.139-0.239-0.195-0.378-0.127L33.55,53.02c-0.699,0.329-1.568,0.738-1.816,1.642
		c-0.149,0.544-0.032,0.999,0.32,1.249c0.018,0.013,0.039,0.021,0.058,0.032c-0.5,0.362-0.956,1.08-1.093,1.671
		c-0.125,0.536,0.006,0.959,0.368,1.193c0.2,0.128,0.419,0.164,0.636,0.103c0.546-0.153,0.928-0.867,1.271-1.585l0.128-0.256
		c0.004-0.008,0.004-0.018,0.007-0.027c0.27,0.261,0.55,0.246,0.705,0.207c0.644-0.16,1.128-1.159,1.194-1.549
		c0.025-0.153-0.077-0.298-0.23-0.323c-0.152-0.025-0.297,0.078-0.322,0.23c-0.051,0.303-0.45,1.017-0.776,1.098
		c-0.038,0.009-0.116,0.028-0.239-0.133c-0.061-0.079-0.066-0.261-0.015-0.487c0.127-0.559,0.523-1.178,0.75-1.392
		c0.17,0.185,0.36,0.284,0.568,0.29c0.484,0.013,0.858-0.468,1.159-0.854c0.535-0.686,0.635-1.198,0.641-1.963
		c0-0.155-0.124-0.28-0.278-0.282c-0.155-0.001-0.282,0.124-0.283,0.278c-0.005,0.665-0.082,1.057-0.518,1.616
		c-0.191,0.246-0.506,0.649-0.707,0.644c-0.09-0.002-0.183-0.108-0.246-0.198c-0.321-0.458-0.077-1.07,0.356-1.647
		c0.067-0.038,0.112-0.099,0.131-0.169c0.358-0.437,0.808-0.842,1.18-1.127c0.123-0.095,0.146-0.271,0.051-0.394
		s-0.27-0.146-0.392-0.051c-0.221,0.168-0.835,0.664-1.333,1.292c-0.287,0.117-0.485,0.092-0.56,0.006
		c-0.085-0.099-0.076-0.349,0.144-0.666c0.497-0.716,0.991-1.009,1.652-0.98c0.048,0.002,0.092-0.013,0.133-0.032
		c0.035,0.02,0.068,0.035,0.095,0.046c0.765,0.292,2.243-0.432,2.567-0.9c0.088-0.127,0.057-0.302-0.071-0.39
		s-0.301-0.057-0.39,0.071c-0.204,0.294-1.432,0.878-1.906,0.696c-0.054-0.021-0.156-0.06-0.122-0.333
		c0.082-0.647,0.907-0.717,1.897-0.737l0.667-0.042c0.154-0.01,0.237-0.139,0.228-0.292c-0.002-0.03-0.014-0.056-0.026-0.082
		c0.312,0.031,0.619,0.009,0.848-0.059c0.148-0.044,0.233-0.2,0.189-0.349s-0.2-0.232-0.348-0.189
		c-0.466,0.138-1.253-0.017-1.405-0.278c-0.079-0.136,0.109-0.35,0.229-0.464c0.621-0.597,1.519-0.298,2.306,0.044
		c0.022,0.039,0.044,0.077,0.073,0.118c0.31,0.437,0.969,0.585,1.765,0.398c0.717-0.169,1.523-0.614,1.729-1.218
		c0.02,0.019,0.036,0.04,0.059,0.057c0.361,0.275,0.997,0.24,1.48,0.159c-0.111,0.161-0.186,0.328-0.193,0.495
		c-0.007,0.181,0.057,0.515,0.572,0.711c0.424,0.162,0.884,0.074,1.297-0.248c0.436-0.34,0.734-0.884,0.783-1.378
		c0.054,0.022,0.115,0.033,0.177,0.017c0.65-0.167,1.28-0.307,1.893-0.427c0.044,0.049,0.103,0.085,0.172,0.094
		c0.132,0.016,0.248-0.063,0.293-0.182c5.116-0.928,8.864-0.292,11.487,0.759c0.379,0.662,0.747,1.345,1.103,2.05
		c-2.223-0.585-4.874-0.512-7.929,0.221c0.077-0.052,0.126-0.14,0.126-0.234c0-0.024-0.003-0.05-0.012-0.077
		c0.042,0.104,0.124,0.188,0.243,0.188c0.154,0,0.279-0.126,0.279-0.281c-0.001-0.644-0.565-1.121-1.125-1.31
		c-0.644-0.216-1.255-0.072-1.597,0.376c-0.32,0.422-0.19,0.74-0.086,0.893c0.336,0.484,1.293,0.587,1.847,0.526
		c-0.872,0.22-1.773,0.487-2.709,0.813c0.012-0.006,0.025-0.012,0.036-0.019c0.383-0.227,0.58-0.518,0.558-0.818
		c-0.023-0.313-0.271-0.567-0.736-0.755c-0.604-0.246-1.954,0.112-2.276,0.731c-0.018,0.034-0.036,0.077-0.051,0.128
		c-0.25,0.037-0.479,0.078-0.688,0.12c0.076-0.256,0.072-0.47-0.011-0.642c0.091,0.074,0.22,0.09,0.324,0.025
		c0.442-0.274,1.166-1.091,1.035-1.749c-0.039-0.197-0.195-0.544-0.797-0.641c-0.513-0.083-0.995,0.189-1.324,0.746
		c-0.243,0.412-0.379,0.966-0.219,1.313c-0.585,0.154-1.281,0.655-1.568,1.345c-0.015,0.035-0.022,0.071-0.022,0.107
		c0,0.107,0.063,0.206,0.165,0.252c-0.019-0.004-0.032-0.021-0.052-0.021c-0.155-0.001-0.281,0.127-0.283,0.282l0,0.201
		c-0.005,0.329-0.008,0.614,0.223,0.777c0.218,0.153,0.504,0.079,0.755-0.015c0.119-0.043,0.243-0.116,0.366-0.203
		c-0.067,0.077-0.092,0.188-0.049,0.291c0.003,0.007,0.01,0.013,0.014,0.021c-0.263-0.02-0.564,0.048-0.879,0.211
		c-0.469,0.242-0.895,0.642-1.1,1.07c0.002-0.025,0.005-0.052,0.006-0.077c0.003-0.051,0.004-0.101,0.004-0.148
		c0-0.473-0.136-0.81-0.395-0.982c0.247-0.146,0.475-0.315,0.651-0.496c0.4-0.415,0.411-0.74,0.349-0.939
		c-0.086-0.28-0.35-0.466-0.781-0.554c-0.715-0.147-2.048,0.588-2.435,1.274c-0.581-0.359-1.567-0.174-2.188,0.271
		c-0.229,0.164-0.392,0.354-0.49,0.555c-0.273-0.124-0.584-0.123-0.888,0.018c-0.441,0.204-0.828,0.683-0.92,1.136
		c-0.09,0.445,0.084,0.845,0.425,0.971c0.111,0.04,0.25,0.049,0.393,0.002c0.121,0.321,0.104,1.143-0.154,1.634
		c-0.096,0.182-0.207,0.284-0.33,0.306c-0.112,0.021-0.186-0.006-0.255-0.091c-0.212-0.262-0.223-0.871-0.119-1.129
		c0.058-0.143-0.011-0.307-0.154-0.364c-0.144-0.059-0.307,0.011-0.365,0.153c-0.077,0.188-0.115,0.473-0.099,0.767
		c-0.01,0.001-0.02-0.002-0.03-0.001c-0.136,0.024-0.232,0.144-0.232,0.276c0,0.017,0.001,0.032,0.004,0.048
		c0.022,0.129,0.027,0.282,0.035,0.432c-0.006-0.051-0.017-0.102-0.05-0.144c-0.097-0.12-0.273-0.141-0.394-0.044
		c-0.154,0.122-0.368,0.43-0.56,0.799c-0.06,0.012-0.117,0.039-0.16,0.089c-0.174,0.203-0.427,0.251-0.561,0.178
		c-0.117-0.063-0.098-0.221-0.063-0.342c0.138-0.468,1.008-1.17,1.464-1.081c0.152,0.03,0.299-0.069,0.329-0.221
		c0.029-0.152-0.07-0.3-0.222-0.329c-0.815-0.159-1.911,0.802-2.108,1.473c-0.152,0.516,0.072,0.851,0.333,0.992
		c0.034,0.019,0.071,0.032,0.108,0.046c-0.16,0.055-0.213,0.258-0.264,0.458l-0.011,0.045c-0.038,0.149,0.053,0.303,0.203,0.341
		c0.139,0.035,0.272-0.045,0.322-0.175c0.086-0.046,0.154-0.119,0.154-0.224c0-0.001,0-0.001,0-0.002
		c0-0.104-0.002-0.293-0.116-0.393c0.082,0,0.165-0.007,0.247-0.025c-0.103,0.338-0.146,0.659-0.079,0.89
		c-0.064,0.083-0.08,0.196-0.029,0.297c0.332,0.645,0.601,1.364,0.092,1.79c-0.171,0.143-0.263,0.149-0.284,0.14
		c-0.036-0.017-0.105-0.131-0.107-0.331c-0.004-0.229,0.082-0.415,0.162-0.456c0.14-0.068,0.196-0.237,0.127-0.376
		c-0.069-0.138-0.237-0.194-0.375-0.125c-0.046,0.022-0.087,0.05-0.126,0.08c0.12-0.246,0.19-0.466,0.19-0.594
		c0-0.005,0-0.012,0-0.017c-0.005-0.108-0.082-0.176-0.175-0.214c0.001-0.009,0.006-0.018,0.006-0.025
		c0-0.106-0.06-0.207-0.162-0.255c-0.439-0.205-1.033,0.174-1.407,0.561c-0.497,0.515-0.676,1.051-0.48,1.437
		c0.258,0.509,0.653,0.466,0.81,0.424c0.056-0.016,0.112-0.04,0.168-0.068c0.169,0.384,0.188,1.514-0.107,2.129
		c-0.068,0.143-0.182,0.315-0.338,0.328c-0.139,0.011-0.17-0.037-0.188-0.063c-0.211-0.327,0.11-1.448,0.306-1.805
		c0.075-0.135,0.026-0.305-0.109-0.38c-0.135-0.076-0.306-0.026-0.381,0.109c-0.104,0.189-0.73,1.692-0.287,2.38
		c0.148,0.229,0.398,0.342,0.704,0.317c0.232-0.019,0.56-0.146,0.799-0.646c0.359-0.754,0.379-2.177,0.046-2.721
		c0.107-0.114,0.208-0.242,0.3-0.376c-0.031,0.125-0.045,0.252-0.043,0.364c0.006,0.398,0.169,0.71,0.435,0.832
		c0.182,0.082,0.48,0.112,0.877-0.22c0.757-0.635,0.461-1.586,0.2-2.162c0.092-0.017,0.194-0.047,0.314-0.104
		c0.809-0.387,1.068-1.447,1.067-2.359c0.193,0.203,0.449,0.291,0.735,0.24c0.055-0.009,0.114-0.026,0.177-0.052
		c-0.272,0.404-0.474,0.861-0.539,1.244c-0.017,0.097-0.025,0.19-0.025,0.278c0,0.451,0.219,0.762,0.617,0.848
		c0.17,0.037,0.345,0,0.513-0.072c-0.059,0.395-0.048,0.813,0.033,1.168c0.112,0.492,0.342,0.804,0.649,0.881
		c0.192,0.049,0.496,0.024,0.842-0.372c0.126-0.143,0.247-0.379,0.34-0.656c0.035,0.095,0.083,0.167,0.129,0.218
		c0.125,0.137,0.292,0.202,0.482,0.189c0.236-0.016,0.49-0.161,0.723-0.346c-0.118,0.435-0.175,0.998-0.011,1.355
		c0.098,0.209,0.267,0.344,0.478,0.378c0.205,0.033,0.599,0.014,0.943-0.484c0.474-0.688,0.672-2.069,0.37-2.595
		c-0.078-0.134-0.249-0.18-0.383-0.103s-0.18,0.248-0.103,0.382c0.147,0.257,0.061,1.41-0.346,1.997
		c-0.194,0.281-0.343,0.257-0.392,0.25c-0.013-0.003-0.033-0.006-0.059-0.061c-0.142-0.307,0.033-1.101,0.173-1.33
		c0.076-0.126,0.039-0.285-0.078-0.37c0.145-0.169,0.237-0.294,0.239-0.297c-0.087,0.127-0.262,0.16-0.389,0.072
		c-0.128-0.088-0.161-0.262-0.073-0.39c-0.228,0.333-0.849,0.962-1.131,0.98c-0.045-0.029-0.055-0.074-0.055-0.116
		c0-0.014,0.002-0.027,0.003-0.04c0.047-0.385,0.492-0.962,0.738-1.187c0.046,0.008,0.089,0.011,0.126,0.012
		c0.067,0.091,0.154,0.172,0.271,0.23c0.16,0.082,0.429,0.134,0.792-0.084c0.175-0.106,0.351-0.267,0.509-0.447
		c0.028,0.156,0.074,0.306,0.148,0.425c0.129,0.21,0.323,0.321,0.545,0.312c0.223-0.01,0.54-0.118,0.784-0.581
		c0.329-0.624,0.39-1.699,0.123-2.131c-0.005-0.009-0.013-0.012-0.018-0.02c0.082-0.087,0.162-0.177,0.234-0.268
		c0.053,0.121,0.134,0.224,0.241,0.297c0.264,0.18,0.627,0.154,0.97-0.068c0.411-0.266,0.702-0.783,0.78-1.385
		c0.065-0.515-0.041-0.985-0.291-1.314c0.074-0.091,0.14-0.181,0.19-0.271c0.016-0.025,0.024-0.049,0.037-0.073
		c-0.051,0.145-0.07,0.287-0.05,0.428c0.028,0.187,0.144,0.445,0.531,0.615c0.919,0.405,2.146-0.99,2.41-1.488
		c0.104-0.194,0.254-0.634,0.254-1.037c0-0.108-0.012-0.211-0.037-0.308c0.481-0.183,0.952-0.347,1.417-0.502
		c-0.212,0.283-0.371,0.59-0.441,0.871c-0.027,0.113-0.042,0.223-0.042,0.325c0,0.327,0.14,0.595,0.401,0.761
		c0.454,0.285,1.015,0.194,1.54-0.248c0.616-0.52,1.087-1.459,0.809-2.132c-0.032-0.08-0.073-0.149-0.119-0.213
		c3.374-0.866,6.238-0.929,8.562-0.186c0.398,0.819,0.781,1.667,1.151,2.543c-3.741-2.421-7.824-2.561-7.892-2.563
		c-0.155-0.003-0.283,0.119-0.286,0.273c-0.004,0.155,0.118,0.283,0.273,0.287c0.068,0.002,4.525,0.162,8.294,2.962
		c0.289,0.723,0.57,1.463,0.842,2.225c-0.538-0.464-1.133-0.891-1.789-1.259c-2.082-1.166-4.491-1.578-7.196-1.242
		c0.117-0.14,0.2-0.303,0.223-0.485c0.039-0.33-0.076-0.61-0.327-0.788c-0.332-0.237-0.872-0.254-1.313-0.04
		c-0.377,0.184-0.604,0.501-0.623,0.871c-0.015,0.323,0.1,0.585,0.31,0.753c-1.021,0.234-2.078,0.563-3.175,0.994
		c-0.112,0.044-0.177,0.151-0.176,0.265c-0.151-0.055-0.317-0.081-0.474-0.069c-0.014-0.001-0.027,0.003-0.04,0.004
		c-0.113,0.014-0.219,0.045-0.306,0.106c-0.042,0.028-0.104,0.084-0.153,0.167c-0.299,0.167-0.693,0.298-0.865,0.217
		c-0.063-0.029-0.088-0.124-0.076-0.28c0.02-0.256,0.519-0.68,1.054-0.79c0.162-0.033,0.449-0.061,0.55,0.133
		c0.071,0.138,0.241,0.191,0.378,0.119c0.138-0.071,0.19-0.241,0.118-0.378c-0.197-0.38-0.62-0.534-1.159-0.423
		c-0.688,0.143-1.454,0.697-1.499,1.298c-0.041,0.539,0.23,0.751,0.396,0.828c0.204,0.097,0.46,0.092,0.717,0.033
		c0,0.007-0.004,0.014-0.004,0.021c0.015,0.342-0.208,0.794-0.519,1.052c-0.149,0.123-0.383,0.258-0.651,0.197
		c-0.211-0.049-0.315-0.35-0.281-0.6c0.021-0.141,0.083-0.307,0.27-0.297c0.155,0.009,0.286-0.11,0.296-0.265
		c0.007-0.155-0.111-0.286-0.267-0.294c-0.441-0.023-0.784,0.289-0.854,0.778c-0.016,0.11-0.013,0.224,0.002,0.336
		c-0.964,0.1-1.429,0.612-1.541,1.065c-0.092,0.371,0.039,0.732,0.331,0.919c0.105,0.068,0.314,0.161,0.624,0.12
		c-0.042,0.159-0.06,0.331-0.04,0.511c0.052,0.491,0.325,0.856,0.682,0.907c0.05,0.008,0.104,0.011,0.161,0.003
		c-0.011,0.008-0.021,0.013-0.029,0.021c-0.094,0.085-0.142,0.208-0.142,0.367c0,0.008,0.001,0.017,0.001,0.024
		c0.004,0.138,0.111,0.231,0.244,0.25c0.005,0.046,0.026,0.091,0.026,0.138c0,0.475-0.242,0.933-0.479,1.165
		c-0.065,0.063-0.127,0.107-0.182,0.136c-0.029-0.011-0.06-0.019-0.095-0.02c-0.035,0-0.068,0.007-0.1,0.02
		c-0.071-0.086-0.154-0.323-0.133-0.833c0.008-0.155-0.113-0.285-0.267-0.293c-0.156-0.006-0.286,0.113-0.292,0.269
		c-0.011,0.235,0,0.439,0.027,0.619c-0.15,0.047-0.289,0.127-0.406,0.234c0-0.005,0.002-0.009,0.001-0.012
		c-0.012-0.155-0.146-0.271-0.3-0.259c-0.071,0.006-0.142,0.023-0.211,0.049l0.252-0.379c0.057-0.086,0.057-0.189,0.015-0.276
		c0.308-0.161,0.585-0.446,0.782-0.646l0.211-0.207c0.111-0.108,0.132-0.301,0.023-0.411c-0.107-0.111-0.268-0.131-0.378-0.022
		l-0.259,0.249c-0.45,0.462-0.766,0.713-0.95,0.536c-0.061-0.058-0.069-0.105-0.069-0.146v-0.002c0-0.286,0.434-0.721,0.664-0.947
		c0.025,0.014,0.055,0.015,0.079,0.039c0.107,0.112,0.283,0.116,0.396,0.01c0.112-0.106,0.117-0.284,0.011-0.396
		c-0.147-0.154-0.326-0.241-0.532-0.258c-0.082-0.007-0.165,0.025-0.223,0.083l-0.098,0.097c-0.322,0.317-0.86,0.847-0.856,1.379
		c0.001,0.208,0.085,0.397,0.241,0.547c0.124,0.119,0.252,0.184,0.38,0.209l-0.158,0.236c-0.086,0.129-0.052,0.303,0.077,0.389
		c0.052,0.034,0.11,0.044,0.168,0.042c-0.136,0.099-0.265,0.238-0.381,0.414c-0.242,0.369-0.425,0.922-0.288,1.322
		c0.121,0.35,0.393,0.555,0.711,0.536c0.253-0.015,0.481-0.17,0.629-0.402c0.06,0.039,0.123,0.074,0.195,0.102
		c0.144,0.055,0.27,0.076,0.381,0.075c0.011,0.016,0.017,0.031,0.03,0.045c0.176,0.177,0.288,0.921,0.098,1.399
		c-0.066,0.166-0.149,0.251-0.249,0.254c-0.086,0.002-0.138-0.154-0.153-0.203c-0.092-0.316,0.007-0.659,0.077-0.699
		c0.138-0.057,0.219-0.216,0.169-0.357c-0.05-0.141-0.191-0.222-0.335-0.179c-0.426,0.128-0.568,0.725-0.487,1.222
		c0.08,0.49,0.366,0.788,0.746,0.776c0.334-0.01,0.601-0.226,0.753-0.606c0.206-0.521,0.184-1.403-0.121-1.867
		c0.231-0.225,0.362-0.617,0.396-1.19c0.135-0.057,0.27-0.146,0.398-0.274c0.517-0.506,0.856-1.449,0.507-2.271
		c-0.038-0.093-0.123-0.157-0.223-0.17c-0.021-0.002-0.042-0.001-0.063-0.001c0.111-0.06,0.225-0.157,0.34-0.309
		c-0.037,0.466,0.02,0.902,0.211,1.161c0.119,0.161,0.471,0.491,1.139,0.066c0.376-0.239,0.587-0.648,0.595-1.154
		c0-0.009,0-0.017,0-0.024c0-0.501-0.197-1.041-0.498-1.441c0.623-0.009,1.382-1.157,1.39-1.17c0.478-0.734,0.685-1.678,0.139-2.222
		c0.459-0.182,0.909-0.339,1.354-0.482c-0.478,0.326-0.906,1.252-0.687,1.765c0.068,0.158,0.297,0.506,0.964,0.334
		c0.616-0.159,0.925-0.734,0.999-1.178c0.077-0.449-0.045-0.841-0.317-1.023c-0.065-0.044-0.165-0.09-0.296-0.103
		c3.723-1.079,6.939-0.883,9.584,0.597c0.953,0.534,1.771,1.203,2.474,1.941c0.483,1.434,0.937,2.933,1.361,4.503
		c0.724,2.67,1.319,5.416,1.773,8.164c0.412,2.498,0.401,4.847,0.39,7.332l-0.004,1.281l-0.066,1.419
		c-0.086,1.271-0.177,2.587,0.238,3.5c0.046,0.098,0.143,0.162,0.251,0.164l0.866,0.016c0.004,0,0.008,0.003,0.012,0.003H73h1.148
		c0.021,0,0.041-0.007,0.063-0.012c0.011-0.002,0.021-0.002,0.032-0.006c0.032-0.012,0.063-0.028,0.089-0.051
		c0.004-0.004,0.006-0.011,0.012-0.015c0.02-0.02,0.037-0.041,0.051-0.066c0.005-0.011,0.007-0.023,0.013-0.036
		c0.005-0.018,0.014-0.033,0.018-0.053c0.174-1.14,0.271-2.671,0.311-4.429c0.815-11.471,3.05-41.656,4.276-45.951
		c0.48-1.681,1.076-2.606,1.722-2.676c0.691-0.075,1.598,0.828,2.485,2.477c0.069,0.128,0.224,0.182,0.358,0.124
		C83.71,31.814,83.776,31.664,83.731,31.526z M32.935,56.789l-0.147,0.294c-0.185,0.386-0.569,1.189-0.918,1.288
		c-0.043,0.012-0.097,0.017-0.179-0.036c-0.153-0.098-0.195-0.298-0.126-0.595c0.164-0.708,0.829-1.433,1.136-1.469
		c0.122-0.015,0.213-0.106,0.238-0.221c0.086-0.019,0.173-0.049,0.259-0.085c-0.061,0.269-0.059,0.493-0.006,0.682
		C33.087,56.64,32.986,56.688,32.935,56.789z M33.429,55.305c-0.08-0.025-0.167-0.019-0.241,0.032
		c-0.29,0.201-0.624,0.248-0.811,0.115c-0.204-0.144-0.152-0.464-0.104-0.644c0.179-0.653,0.858-0.973,1.515-1.281l0.367-0.178
		c0.007-0.003,0.01-0.009,0.016-0.013c-0.073,0.294-0.076,0.59,0.027,0.875C33.937,54.418,33.64,54.848,33.429,55.305z
		 M39.565,45.683c0.045-0.135,0.276-0.281,0.628-0.299c0.383-0.019,0.862,0.123,1.161,0.556c-0.209,0.112-0.376,0.253-0.469,0.431
		c-0.025,0.049-0.046,0.106-0.062,0.17c-0.283-0.108-0.584-0.204-0.89-0.252c-0.017-0.03-0.037-0.059-0.065-0.083
		C39.631,46.005,39.521,45.814,39.565,45.683z M44.298,45.94c-0.001,0.027,0.004,0.051,0.005,0.077
		c-0.145-0.011-0.276,0.087-0.298,0.233c-0.052,0.337-0.669,0.758-1.346,0.918c-0.345,0.081-0.649,0.086-0.872,0.021
		c0.021-0.123-0.038-0.249-0.156-0.302l-0.138-0.062c-0.041-0.018-0.083-0.036-0.124-0.055c-0.018-0.079,0.003-0.122,0.013-0.141
		c0.185-0.355,1.363-0.569,2.35-0.564c0.134,0,0.257-0.091,0.282-0.224c0.026-0.131-0.038-0.261-0.162-0.311L43.527,45.4
		c-0.342-0.131-0.917-0.35-0.992-0.619c-0.028-0.102,0.02-0.233,0.144-0.393c0.132-0.17,0.3-0.241,0.527-0.223
		c0.56,0.043,1.275,0.625,1.547,1.04c-0.059,0.036-0.116,0.073-0.166,0.118C44.407,45.483,44.307,45.697,44.298,45.94z
		 M47.961,46.071c0.002,0.027,0.004,0.056,0.004,0.084c0,0.354-0.24,0.809-0.578,1.072c-0.178,0.139-0.453,0.281-0.752,0.167
		c-0.064-0.025-0.212-0.09-0.212-0.164c0-0.001,0-0.002,0-0.002c0.015-0.355,1.052-1.056,1.468-1.178
		c0.035-0.011,0.058-0.037,0.085-0.058c-0.003,0.015-0.018,0.027-0.018,0.043C47.958,46.048,47.959,46.06,47.961,46.071z
		 M48.339,44.992c-0.014-0.186,0.514-0.413,0.954-0.465c0.427-0.051,1.058,0.021,1.333,0.226c0.162,0.12,0.177,0.175,0.177,0.176
		c-0.001,0.024-0.048,0.108-0.079,0.163c-0.032,0.061-0.072,0.132-0.107,0.213c-0.442,0.084-0.895,0.18-1.356,0.289
		c-0.029-0.072-0.084-0.132-0.161-0.161C48.408,45.178,48.34,44.994,48.339,44.992z M54,48.06c-0.013-0.017-0.051-0.072,0.071-0.233
		c0.229-0.3,0.651-0.292,0.973-0.185c0.369,0.124,0.742,0.432,0.742,0.778c0,0.034,0.025,0.057,0.037,0.087
		c-0.047-0.146-0.199-0.229-0.348-0.186C55.121,48.427,54.181,48.321,54,48.06z M35.791,58.296c-0.019,0.24-0.627,1.292-1.004,1.367
		c-0.025,0.006-0.076,0.015-0.154-0.139c-0.065-0.127,0.061-0.459,0.383-0.792c0.351-0.362,0.686-0.481,0.767-0.443
		c0.004,0.001,0.007,0,0.011,0.003C35.793,58.293,35.792,58.294,35.791,58.296z M37.396,57.611c-0.09,0.044-0.138,0.055-0.168,0.059
		c-0.005-0.021-0.012-0.04-0.012-0.07c0-0.411,0.498-1.559,0.816-1.813c0.065-0.052,0.094-0.129,0.098-0.205
		c0.002,0.056,0.013,0.101,0.013,0.157C38.144,56.49,37.943,57.35,37.396,57.611z M54.371,51.391
		c-0.192,0.161-0.562,0.402-0.88,0.201l0,0c-0.05-0.03-0.201-0.126-0.114-0.477c0.154-0.617,0.893-1.389,1.364-1.425
		c0.098-0.008,0.201,0.013,0.282,0.209C55.175,50.266,54.863,50.975,54.371,51.391z M52.324,48.646
		c0.299,0.121,0.385,0.235,0.388,0.278c0.004,0.046-0.07,0.167-0.284,0.293c-0.425,0.252-1.137,0.379-1.479,0.158
		c-0.024-0.017-0.045-0.031-0.064-0.046c0.021-0.045,0.035-0.095,0.03-0.148c-0.009-0.064-0.04-0.117-0.081-0.159
		C51.125,48.742,51.984,48.507,52.324,48.646z M49.274,47.057c0.117-0.175,0.365-0.46,0.706-0.405
		c0.205,0.033,0.317,0.1,0.338,0.198c0.06,0.3-0.403,0.928-0.78,1.161c-0.109,0.067-0.152,0.196-0.117,0.314
		c-0.022-0.024-0.048-0.05-0.077-0.073c0.014-0.049,0.019-0.1,0.005-0.153c-0.034-0.139-0.178-0.224-0.319-0.206
		c-0.006-0.021-0.014-0.041-0.014-0.078C49.016,47.647,49.085,47.34,49.274,47.057z M47.55,50.563
		c-0.117,0.044-0.177,0.056-0.216,0.062c-0.005-0.045-0.008-0.102-0.008-0.168c0-0.041,0.003-0.337,0.003-0.338
		c0-0.124-0.091-0.209-0.203-0.244c0.14,0.048,0.293-0.016,0.351-0.155c0.252-0.602,0.958-1.017,1.354-1.047
		c0.112-0.009,0.166,0.015,0.174,0.028c0.007,0.01,0.012,0.032,0.012,0.064c0,0.083-0.04,0.245-0.173,0.495
		c-0.393,0.102-0.621,0.183-0.64,0.19c-0.145,0.052-0.22,0.212-0.167,0.358c0.039,0.11,0.142,0.179,0.251,0.184
		C48.04,50.248,47.759,50.485,47.55,50.563z M47.452,51.905c0.104-0.054,0.634-0.307,0.839-0.021
		c0.06,0.082-0.034,0.262-0.065,0.313c-0.288,0.505-1.12,1.052-1.534,1.013c-0.095-0.011-0.125-0.047-0.147-0.111
		C46.438,52.78,46.878,52.201,47.452,51.905z M45.979,53.127c0.007,0.051,0.018,0.101,0.034,0.149
		c0.044,0.13,0.118,0.234,0.21,0.315c-0.204,0.085-0.413,0.22-0.604,0.383C45.773,53.727,45.896,53.431,45.979,53.127z
		 M44.797,54.041c-0.278,0.135-0.331,0.033-0.37-0.041c-0.267-0.519,0.095-1.923,0.561-2.177c0.186-0.102,0.339-0.135,0.41-0.091
		c0.087,0.055,0.165,0.272,0.145,0.637C45.504,53.073,45.148,53.87,44.797,54.041z M43.948,50.906
		c0.108-0.454,1.368-1.179,1.871-1.077c0.257,0.053,0.347,0.132,0.358,0.171c0.013,0.042-0.016,0.176-0.216,0.384
		c-0.463,0.479-1.323,0.838-1.737,0.725c-0.246-0.067-0.279-0.138-0.279-0.179C43.945,50.921,43.946,50.912,43.948,50.906z
		 M44.076,51.649c0.08,0.021,0.166,0.032,0.254,0.037c-0.214,0.285-0.374,0.674-0.463,1.076c0.009-0.162-0.017-0.309-0.086-0.432
		c-0.063-0.113-0.178-0.234-0.375-0.307c0.081-0.083,0.153-0.169,0.206-0.258c0.052-0.088,0.088-0.176,0.112-0.265
		C43.815,51.559,43.932,51.609,44.076,51.649z M42.512,55.535c0.202-0.863,0.566-1.391,0.699-1.423
		c0.001,0.011,0.136,0.128,0.246,0.739c0.015,0.075,0.021,0.154,0.021,0.234c0,0.51-0.271,1.072-0.677,1.361
		c-0.228,0.161-0.314,0.146-0.315,0.146c-0.026-0.022-0.066-0.137-0.066-0.359C42.42,56.064,42.442,55.834,42.512,55.535z
		 M42.95,53.496c-0.477,0.637-1.142,1.047-1.547,0.953c-0.343-0.078-0.334-0.208-0.331-0.264c0.038-0.57,1.354-1.617,1.816-1.659
		c0.211-0.021,0.365,0.011,0.404,0.077C43.346,52.701,43.301,53.028,42.95,53.496z M41.634,51.281
		c0.455-0.325,1.12-0.436,1.481-0.284c0.003,0.041,0.011,0.083,0.033,0.12c0.024,0.041,0.047,0.091,0.047,0.156
		c0,0.057-0.017,0.125-0.066,0.207c-0.227,0.385-0.951,0.742-1.46,0.723c-0.127-0.006-0.29-0.037-0.349-0.158
		C41.158,51.714,41.402,51.447,41.634,51.281z M39.629,52.979c-0.044-0.017-0.111-0.134-0.071-0.334
		c0.058-0.283,0.324-0.607,0.607-0.738c0.167-0.078,0.318-0.08,0.45-0.008c0.032,0.018,0.064,0.025,0.098,0.031
		c0.013,0.12,0.044,0.241,0.104,0.361c0.115,0.235,0.336,0.386,0.628,0.442c-0.491,0.428-0.901,0.964-0.931,1.415
		c0,0.015-0.001,0.032-0.001,0.051c0,0.189,0.071,0.526,0.517,0.715c-0.266,0-0.54,0.129-0.797,0.338
		c0.278-0.655,0.289-1.584,0.093-2.013c-0.016-0.035-0.038-0.065-0.064-0.091c0.018-0.026,0.037-0.051,0.054-0.082
		c0.076-0.135,0.027-0.307-0.108-0.381c-0.135-0.076-0.306-0.027-0.381,0.107C39.736,52.953,39.653,52.987,39.629,52.979z
		 M39.79,57.77L39.79,57.77c-0.064-0.014-0.233-0.051-0.159-0.483c0.137-0.803,0.974-1.869,1.42-1.813
		c0.199,0.025,0.23,0.109,0.245,0.145c0.114,0.296-0.189,0.998-0.676,1.566c-0.001,0.002-0.003,0.005-0.006,0.007
		c-0.021,0.024-0.046,0.046-0.066,0.072C40.179,57.667,39.891,57.791,39.79,57.77z M41.287,59.552
		c-0.154,0.175-0.254,0.207-0.285,0.198c-0.055-0.014-0.169-0.152-0.24-0.462c-0.039-0.17-0.058-0.361-0.058-0.556
		c0-0.42,0.091-0.852,0.277-1.114c0.021-0.023,0.045-0.048,0.064-0.07c0.01-0.013,0.02-0.026,0.03-0.038
		c0.009-0.009,0.016-0.019,0.024-0.025c0.006-0.006,0.008-0.013,0.011-0.02c0.012-0.015,0.023-0.029,0.035-0.044
		c0.042,0.023,0.084,0.047,0.136,0.042c0.154-0.012,0.244,0.036,0.309,0.167C41.835,58.118,41.533,59.271,41.287,59.552z
		 M43.086,57.22c-0.2,0.134-0.595,0.574-0.848,1.044c0.013-0.329-0.026-0.645-0.146-0.885c-0.128-0.257-0.337-0.415-0.6-0.462
		c0.308-0.522,0.485-1.091,0.326-1.502c-0.069-0.179-0.2-0.31-0.373-0.396c0.22,0.016,0.447-0.031,0.67-0.125
		c-0.256,0.749-0.422,1.784,0.026,2.141c0.173,0.137,0.483,0.225,0.983-0.13c0.554-0.394,0.912-1.134,0.912-1.824
		c0-0.111-0.009-0.222-0.029-0.328c-0.071-0.391-0.197-0.881-0.49-1.092c0.141-0.214,0.239-0.419,0.295-0.609
		c-0.065,0.465-0.034,0.914,0.116,1.206c0.214,0.414,0.631,0.522,1.112,0.288c0.032-0.016,0.063-0.034,0.094-0.053
		c-0.099,0.136-0.178,0.274-0.23,0.409c-0.081,0.206-0.098,0.398-0.061,0.571c-0.01,0.002-0.019,0.001-0.028,0.005
		c-0.396,0.157-1.353,1.017-1.498,1.722C43.238,57.182,43.144,57.181,43.086,57.22z M45.987,57.374
		c-0.066,0.126-0.174,0.277-0.313,0.283c-0.012-0.003-0.047-0.033-0.082-0.128c-0.091-0.248-0.064-0.607-0.002-0.72
		c0.063-0.114,0.034-0.251-0.057-0.338c0.001-0.016,0.007-0.034,0.007-0.05c0.003-0.154-0.121-0.281-0.276-0.284
		c-0.155-0.002-0.282,0.122-0.284,0.275c-0.003,0.185-0.371,0.791-0.773,1.034c-0.109,0.065-0.202,0.09-0.25,0.065
		c-0.02-0.01-0.034-0.02-0.047-0.029c-0.001-0.063-0.015-0.115-0.045-0.154c0.059-0.447,0.884-1.223,1.159-1.331
		c0.044-0.018,0.079-0.048,0.107-0.082c0.019,0.014,0.036,0.029,0.056,0.042c0.172,0.114,0.378,0.143,0.596,0.083
		c0.124-0.033,0.248-0.097,0.37-0.179C46.25,56.131,46.242,56.891,45.987,57.374z M48.256,53.99
		c-0.057,0.433-0.258,0.812-0.529,0.986c-0.173,0.112-0.296,0.111-0.35,0.074c-0.069-0.047-0.091-0.188-0.055-0.363
		c0.013-0.064-0.001-0.125-0.027-0.18c0.001-0.002,0.004-0.007,0.005-0.01c0.067-0.14,0.009-0.307-0.13-0.375
		c-0.14-0.066-0.307-0.009-0.375,0.131c-0.149,0.311-0.742,1.132-1.16,1.247c-0.077,0.021-0.113,0.007-0.139-0.01
		c-0.062-0.041-0.175-0.115-0.069-0.387c0.207-0.527,0.979-1.089,1.235-1.047c0.153,0.024,0.297-0.079,0.322-0.231
		c0.004-0.029,0-0.057-0.003-0.084c0.37-0.074,0.777-0.297,1.117-0.575c0.003-0.002,0.007-0.002,0.011-0.004
		c0.098,0.161,0.162,0.362,0.162,0.603C48.271,53.839,48.266,53.914,48.256,53.99z M48.817,52.24
		c0.113-0.337,0.012-0.567-0.072-0.685c-0.076-0.104-0.169-0.188-0.275-0.247l1.459-0.608c0.144-0.059,0.211-0.223,0.151-0.366
		c-0.06-0.143-0.224-0.21-0.366-0.15l-1.491,0.621c0.407-0.313,0.798-0.769,0.985-1.059c0.299-0.071,0.671-0.146,1.101-0.208
		c0.071,0.102,0.178,0.206,0.335,0.307l0,0c0.334,0.215,0.811,0.242,1.266,0.152c-0.108,0.041-0.215,0.077-0.324,0.119
		c-0.03,0.012-0.057,0.03-0.08,0.051c-0.482-0.217-1.022,0.303-1.351,0.619L50.031,50.9l-0.082,0.072
		C49.473,51.389,49.027,51.819,48.817,52.24z M51.146,51.694L51.146,51.694c-0.266,0.502-1.257,1.429-1.689,1.238
		c-0.187-0.082-0.199-0.161-0.203-0.187c-0.038-0.248,0.32-0.702,1.064-1.351l0.085-0.075l0.143-0.133
		c0.544-0.525,0.693-0.533,0.733-0.512C51.398,50.742,51.316,51.37,51.146,51.694z M55.901,52.097
		c0.01-0.217,0.196-0.339,0.308-0.393c0.252-0.122,0.577-0.126,0.741-0.009c0.049,0.034,0.101,0.089,0.101,0.208
		c0,0.018-0.001,0.036-0.004,0.058c-0.035,0.297-0.496,0.525-0.835,0.497C55.922,52.433,55.895,52.252,55.901,52.097z
		 M46.601,63.214c-0.076,0.005-0.122-0.084-0.148-0.158c-0.053-0.158,0.018-0.512,0.227-0.833c0.146-0.222,0.301-0.328,0.39-0.335
		c0.007-0.001,0.013-0.004,0.021-0.006c-0.123,0.19-0.204,0.405-0.224,0.606c-0.013,0.125-0.003,0.244,0.022,0.354
		c-0.011,0.021-0.024,0.042-0.03,0.067C46.815,63.111,46.682,63.209,46.601,63.214z M47.423,62.545
		c0.031-0.296,0.261-0.596,0.492-0.651c0.076,0.114,0.172,0.202,0.288,0.256c-0.041,0.593-0.187,0.761-0.254,0.808
		c-0.023,0.016-0.097,0.065-0.292-0.008C47.592,62.924,47.392,62.848,47.423,62.545z M54.777,54.677
		c-0.048,0.278-0.229,0.637-0.587,0.729c-0.027,0.007-0.274,0.068-0.309-0.012c-0.102-0.236,0.208-0.91,0.501-1.093
		c0.171-0.107,0.278-0.115,0.316-0.089C54.759,54.252,54.821,54.422,54.777,54.677z M49.878,58.201
		c-0.142-0.059-0.306,0.008-0.366,0.149c-0.217,0.517-0.404,0.601-0.442,0.595c-0.058-0.009-0.179-0.158-0.205-0.413
		c-0.015-0.134-0.026-0.582,0.408-0.746c0.146-0.054,0.219-0.215,0.164-0.36c-0.007-0.019-0.02-0.032-0.03-0.048
		c-0.004-0.055-0.019-0.109-0.055-0.155c-0.097-0.121-0.273-0.142-0.395-0.045c-0.466,0.371-0.794,0.4-0.933,0.312
		c-0.088-0.057-0.123-0.177-0.089-0.313c0.063-0.26,0.389-0.587,1.093-0.648c0.035-0.004,0.068-0.015,0.098-0.029
		c0.121,0.177,0.292,0.313,0.517,0.365c0.301,0.069,0.614,0.014,0.903-0.154c-0.041,0.18-0.048,0.377,0.011,0.557
		c-0.053,0.008-0.104,0.026-0.146,0.063c-0.204,0.176-0.381,0.507-0.507,0.89C49.895,58.214,49.889,58.206,49.878,58.201z
		 M51.107,59.183c-0.005,0.318-0.116,0.551-0.336,0.688l0,0c-0.3,0.192-0.365,0.103-0.387,0.073c-0.083-0.11-0.119-0.311-0.119-0.55
		c0-0.477,0.148-1.086,0.362-1.437c0.273,0.304,0.479,0.79,0.479,1.208C51.107,59.172,51.107,59.178,51.107,59.183z M52.091,56.249
		c-0.251,0.384-0.753,0.909-0.922,0.919c-0.056-0.01-0.066-0.035-0.076-0.055c-0.055-0.127,0.01-0.402,0.101-0.54
		c0.087-0.128,0.053-0.302-0.077-0.388c-0.001-0.001-0.002-0.001-0.003-0.002c0.248-0.346,0.397-0.769,0.384-1.138
		c-0.001-0.028-0.012-0.053-0.02-0.078c0.043,0.01,0.088,0.014,0.135,0.004c0.145-0.032,0.234-0.187,0.214-0.332
		c0.036-0.026,0.069-0.052,0.101-0.077c0.094,0.013,0.224,0.045,0.313,0.112C52.705,55.023,52.346,55.855,52.091,56.249z
		 M72.977,55.641c0.451,3.246,1.215,13.12,1.215,20.38c0,0.661-0.007,1.296-0.021,1.904c-0.145,2.032-0.244,3.474-0.285,4.08
		c-0.165,0-0.404,0-0.596,0c0.156-4.707-0.438-15.222-0.959-21.325c-0.867-14.095-3.775-24.531-5.633-29.953
		C68.711,35.118,71.638,43.277,72.977,55.641z M71.319,56.547c0.123,0.683,0.284,2.184,0.452,4.151
		c0.078,1.257,0.14,2.541,0.182,3.855c0.003,0.095,0.058,0.173,0.132,0.222c0.357,5.126,0.671,11.393,0.671,15.438
		c0,0.668-0.011,1.261-0.029,1.792c-0.262,0-0.563,0-0.839,0c0.021-0.562,0.06-1.91,0.06-3.846c0-4.238-0.192-11.278-1.207-18.98
		c-1.315-9.987-4.29-22.905-11.001-31.237C63.366,31.748,68.666,39.924,71.319,56.547z M69.577,55.191
		c0.063,0.388,0.127,0.772,0.187,1.155c-0.531-1.484-1.048-2.829-1.549-4.056c1.041,1.437,1.314,2.776,1.318,2.797
		C69.54,55.126,69.556,55.162,69.577,55.191z M68.981,52.027c0.003,0.011,0.013,0.017,0.018,0.026
		c0.037,0.187,0.076,0.373,0.111,0.558c-0.374-0.626-0.887-1.303-1.577-1.936c-0.191-0.438-0.379-0.859-0.564-1.263
		C68.385,50.797,68.972,52.01,68.981,52.027z M58.88,40.368c-4.633-5.363-10.92-8.283-17.701-8.348
		c4.117-0.337,10.788,0.454,17.848,6.823c0.001,0.002,0.857,0.907,0.857,0.907c1.397,1.438,3.234,3.331,5.478,7.656
		c-0.101-0.067-0.197-0.136-0.303-0.202c-0.608-0.38-1.318-0.757-2.133-1.095C61.696,43.983,60.354,42.072,58.88,40.368z
		 M63.391,46.928c0.493,0.235,0.941,0.482,1.343,0.732c0.429,0.268,0.817,0.546,1.174,0.825c0.223,0.456,0.448,0.934,0.679,1.439
		c-0.214-0.146-0.439-0.288-0.679-0.422c-0.482-0.268-0.992-0.491-1.527-0.676C64.059,48.176,63.729,47.544,63.391,46.928z
		 M64.732,49.562c0.307,0.128,0.606,0.265,0.892,0.424c0.556,0.31,1.034,0.663,1.448,1.035c0.564,1.303,1.15,2.757,1.759,4.398
		c-0.831-1.226-1.813-2.209-2.85-2.995C65.582,51.435,65.165,50.481,64.732,49.562z M70.238,60.078
		c0.011,0.048,0.037,0.087,0.067,0.12c0.034,0.278,0.066,0.556,0.1,0.833c-0.598-1.559-1.583-3.506-3.145-5.16
		c-0.274-0.809-0.56-1.593-0.853-2.361C68.088,55.009,69.533,57.113,70.238,60.078z M70.714,80.474c0-0.497,0.037-1.028,0.072-1.553
		l0.068-1.457l0.004-1.278c0.003-0.41,0.004-0.816,0.004-1.22c0-2.07-0.049-4.077-0.401-6.207c-0.457-2.766-1.058-5.53-1.785-8.22
		c-0.299-1.105-0.613-2.178-0.941-3.218c2.285,3.045,2.938,6.584,2.947,6.633c0.007,0.041,0.022,0.077,0.044,0.108
		c0.86,9.098,0.655,16.456,0.601,17.935c-0.146-0.003-0.302-0.006-0.406-0.007C70.769,81.569,70.714,81.047,70.714,80.474z
		 M80.673,28.714c-0.916,0.1-1.636,1.106-2.199,3.08c-1.058,3.699-2.794,25.532-3.807,39.262c-0.136-3.986-0.409-8.138-0.691-11.334
		c0.001-0.008,0.005-0.015,0.005-0.023c0.008-0.234,1.72-25.241,4.237-29.472c0.798-1.339,1.579-1.978,2.323-1.897
		c0.38,0.041,0.736,0.281,1.061,0.605C81.303,28.769,80.991,28.68,80.673,28.714z"/>
	<path stroke="#000000" stroke-width="0.7087" stroke-miterlimit="10" d="M33.142,66.846c-0.156-0.072-0.338-0.099-0.515-0.054
		c-0.043-0.051-0.104-0.09-0.175-0.101c-0.153-0.021-0.295,0.086-0.316,0.239c-0.064,0.453-0.315,0.999-0.458,1.082
		c-0.02-0.017-0.067-0.06-0.142-0.223c-0.044-0.095-0.066-0.233-0.066-0.396c0-0.341,0.099-0.781,0.299-1.116
		c0.103-0.171,0.271-0.377,0.491-0.39c0.149-0.009,0.264-0.133,0.264-0.28c0-0.005,0-0.011,0-0.016
		c-0.009-0.155-0.142-0.272-0.296-0.264c-0.368,0.021-0.692,0.251-0.939,0.661c-0.374,0.624-0.491,1.537-0.26,2.035
		c0.237,0.514,0.524,0.586,0.723,0.557c0.069-0.011,0.132-0.036,0.193-0.07c0.057,0.182,0.116,0.35,0.175,0.499
		c-0.625,0.166-0.941,1.104-0.875,1.921c0.055,0.679,0.375,1.096,0.834,1.089c0.242-0.002,0.445-0.093,0.588-0.262
		c0.01-0.012,0.016-0.026,0.025-0.039c0.155,0.107,0.321,0.477,0.311,0.846c-0.002,0.133-0.033,0.368-0.199,0.466
		c-0.12,0.069-0.169,0.042-0.191,0.029c-0.133-0.074-0.252-0.373-0.26-0.652c-0.004-0.154-0.133-0.276-0.288-0.272
		c-0.155,0.005-0.276,0.133-0.272,0.288c0.012,0.415,0.186,0.926,0.548,1.128c0.225,0.124,0.489,0.111,0.744-0.037
		c0.298-0.173,0.467-0.505,0.479-0.936c0.012-0.47-0.181-1.079-0.572-1.334c-0.033-0.021-0.069-0.035-0.107-0.042
		c0.055-0.382-0.005-0.82-0.058-1.164c0.088,0.051,0.179,0.086,0.273,0.093c0.548,0.043,0.872-0.657,0.979-0.887
		C34.44,68.466,33.837,67.173,33.142,66.846z M32.238,71.396c-0.027,0.03-0.067,0.063-0.168,0.064
		c-0.153,0.002-0.246-0.296-0.269-0.574c-0.004-0.055-0.006-0.11-0.006-0.166c0-0.46,0.148-0.901,0.342-1.082
		c0.045,0.074,0.072,0.119,0.09,0.149c0.013,0.099,0.037,0.283,0.037,0.283c0.031,0.206,0.083,0.541,0.083,0.831
		C32.347,71.112,32.32,71.3,32.238,71.396z M33.57,69.009c-0.219,0.473-0.384,0.567-0.427,0.563
		c-0.004-0.001-0.328-0.041-0.739-1.467c-0.009-0.03-0.025-0.058-0.043-0.082c0.072-0.135,0.131-0.28,0.178-0.419
		c0.012-0.017,0.027-0.03,0.036-0.05c0.137-0.291,0.253-0.236,0.331-0.2C33.342,67.558,33.791,68.532,33.57,69.009z"/>
</g>
</svg>
