<?xml version="1.0" encoding="utf-8"?>
<!-- Generator: Adobe Illustrator 15.0.0, SVG Export Plug-In . SVG Version: 6.00 Build 0)  -->
<!DOCTYPE svg PUBLIC "-//W3C//DTD SVG 1.1//EN" "http://www.w3.org/Graphics/SVG/1.1/DTD/svg11.dtd">
<svg version="1.1" id="レイヤー_1" xmlns="http://www.w3.org/2000/svg" xmlns:xlink="http://www.w3.org/1999/xlink" x="0px"
	 y="0px" width="100px" height="100px" viewBox="0 0 100 100" enable-background="new 0 0 100 100" xml:space="preserve">
<circle fill="#B2B2B2" cx="50" cy="50" r="50"/>
<g>
	<g>
		<g>
			<path fill="#231815" d="M56.827,32.205c-0.093-0.02-0.132,0.035-0.132-0.167c0-0.202-0.048-2.327-0.053-2.418
				c-0.021-0.257-0.37-0.276-0.482-0.166c-0.07,0.071-0.018,0.129-0.129,0.129s-1.054,0-1.203,0c-0.145,0-0.424,0-0.424-0.074
				c0.02-0.075-0.035-0.147-0.185-0.147c-0.258,0-0.184,0.221-0.276,0.221c-0.094,0-1.44,0-1.44,0s-1.348,0-1.44,0
				s-0.02-0.221-0.277-0.221c-0.147,0-0.203,0.073-0.186,0.147c0,0.074-0.276,0.074-0.425,0.074s-1.052,0-1.164,0
				c-0.11,0-0.059-0.058-0.128-0.129c-0.111-0.11-0.462-0.091-0.481,0.166c-0.006,0.091-0.092,2.216-0.092,2.418
				c0,0.203-0.037,0.148-0.129,0.167c-0.093,0.019-0.147,0.295,0.035,0.295c0.186,0,4.284,0,4.284,0s4.1,0,4.283,0
				S56.918,32.224,56.827,32.205z"/>
			<polygon fill="#231815" points="49.829,30.136 49.829,29.103 49.422,29.103 49.422,28.955 48.462,28.955 48.204,28.696 
				48.204,29.029 46.136,29.029 46.136,26.48 48.167,26.48 48.352,26.666 48.534,26.849 49.569,26.849 49.569,26.518 50.123,26.518 
				50.123,26.739 55.479,26.739 55.479,30.136 			"/>
		</g>
		<path fill="#231815" d="M41.39,64.222c-0.007-12.646-1.868-16.44-2.649-22.049l0,0c-0.179-1.304-0.276-2.688-0.276-4.056l0,0
			c0.001-1.654,0.14-3.286,0.456-4.756l0,0c0.317-1.469,0.798-2.782,1.585-3.796l0,0c0.729-0.938,1.599-1.705,2.728-2.177l0,0
			c1.131-0.477,2.459-0.664,4.159-0.664l0,0v2.105c-1.551,0-2.586,0.181-3.341,0.498l0,0c-0.751,0.322-1.287,0.774-1.887,1.536l0,0
			c-0.488,0.612-0.918,1.661-1.187,2.939l0,0c-0.275,1.278-0.409,2.783-0.409,4.316l0,0c0,1.271,0.09,2.563,0.257,3.77l0,0
			c0.711,5.217,2.674,9.504,2.67,22.338l0,0H41.39V64.222z"/>
		<polygon fill="#231815" points="44.063,66.655 43.653,63.853 42.429,63.853 41.203,63.853 40.794,66.655 40.531,66.918 
			40.531,68.7 42.019,68.7 42.836,68.7 44.326,68.7 44.326,66.918 		"/>
		<path fill="#231815" d="M45.489,57.429h-2.881v3.212h2.051l0.221,1.052v0.995c0,0-0.056,0.112,0.388,0.112L45.489,57.429z"/>
		<path fill="#231815" d="M50.593,24.088c-0.169,0-0.237,0.169-0.37,0.37c-0.137,0.202-0.27,0.473-0.137,0.676
			c0.137,0.201,0.879,1.688,0.945,1.823c0.068,0.136,0.258,0.372,0.496,0.372c0.234,0,5.67,0.101,6.278,0.101
			c0.607,0,1.328,0.046,2.546,0.488c1.008,0.368,2.214,0.756,2.584,0.925c0.371,0.169,0.822,0.476,0.992,0.712
			c0.169,0.237,0.573,0.776,0.71,0.944c0.136,0.169,0.338,0.237,0.472,0.034c0.136-0.203,0.371-0.643-0.169-1.35
			c-0.539-0.71-0.843-0.879-1.486-1.318c-0.641-0.438-2.429-1.417-2.9-1.654c-0.475-0.236-1.521-0.575-2.129-0.709
			c-0.607-0.136-2.094-0.101-2.498-0.237c-0.407-0.134-0.644-0.236-0.644-0.574c0-0.336-0.135-0.605-0.473-0.605
			s-3.545-0.035-3.883-0.035S50.593,24.088,50.593,24.088z"/>
		<path fill="#231815" d="M50.355,24.662c0,0,0.27-0.844,0.27-0.945c0-0.101,0.068-0.136,0.338-0.27
			c0.27-0.136,7.373-3.322,7.697-3.442c1.081-0.406,1.898-0.704,2.869-0.811c1.217-0.136,2.736-0.069,3.41-0.069
			c0.407,0,1.015,0.203,1.081,0.643c0.067,0.439,0.338,0.573-0.169,0.573s-3.072,0.271-3.646,0.337
			c-0.057,0.008-0.566,0.013-1.149,0.339C59.064,22.131,54.103,25,54.103,25s-1.554,1.081-2.937,0.878
			C50.399,25.766,50.355,24.662,50.355,24.662z"/>
		<path fill="#231815" d="M57.564,16.029c0,0-1.441-0.056-2.418-0.056c-1.09,0-1.938,0.997-1.938,1.68
			c0,0.278-0.019,0.886-0.019,1.274s0.035,0.72,0.221,0.942c0.185,0.222,1.589,1.533,1.754,1.719
			c0.167,0.185,0.238,0.239,0.406,0.146c0.102-0.056,0.878-0.442,1.531-0.79v2.728c0,0.082,0.068,0.147,0.149,0.147
			c0.083,0,0.146-0.066,0.146-0.147v-2.884c0.295-0.162,0.531-0.298,0.608-0.365c0.258-0.222,0.463-0.572,0.463-0.833
			c0-0.257,0-2.251,0-2.75C58.471,16.343,57.897,16.029,57.564,16.029z M55.895,20.093c-0.873,0-1.579-0.708-1.579-1.58
			c0-0.871,0.708-1.579,1.579-1.579c0.87,0,1.578,0.708,1.578,1.579C57.473,19.385,56.765,20.093,55.895,20.093z"/>
	</g>
	<path fill="#231815" d="M57.254,33.391c-1.072-0.579-1.072-0.993-1.072-0.993h-7.266c0,0,0,0.414-1.073,0.993
		c-1.073,0.577-2.724,1.568-2.724,4.292s0,33.453,0,35.351s0,3.55,0,4.047c0,0.494,2.064,2.215,7.43,2.215
		c5.365,0,7.431-1.721,7.431-2.215c0-0.497,0-2.148,0-4.047s0-32.627,0-35.351S58.328,33.968,57.254,33.391z M57.445,68.149
		c0,0.048-0.044,0.086-0.102,0.086h-9.575c-0.056,0-0.1-0.038-0.1-0.086V50.298c0-0.051,0.044-0.089,0.1-0.089h9.575
		c0.058,0,0.102,0.039,0.102,0.089V68.149z"/>
</g>
<g id="レイヤー_2">
	<path fill="none" stroke="#231815" stroke-miterlimit="10" d="M59.958,159.059"/>
</g>
</svg>
