<?xml version="1.0" encoding="utf-8"?>
<!-- Generator: Adobe Illustrator 15.0.0, SVG Export Plug-In . SVG Version: 6.00 Build 0)  -->
<!DOCTYPE svg PUBLIC "-//W3C//DTD SVG 1.1//EN" "http://www.w3.org/Graphics/SVG/1.1/DTD/svg11.dtd">
<svg version="1.1" id="レイヤー_1" xmlns="http://www.w3.org/2000/svg" xmlns:xlink="http://www.w3.org/1999/xlink" x="0px"
	 y="0px" width="100px" height="100px" viewBox="0 0 100 100" enable-background="new 0 0 100 100" xml:space="preserve">
<circle fill="#B2B2B2" cx="50" cy="50" r="50"/>
<g id="レイヤー_2">
	<path fill="none" stroke="#231815" stroke-miterlimit="10" d="M59.958,159.059"/>
</g>
<g>
	<g>
		<path fill="#221714" stroke="#231815" stroke-miterlimit="10" d="M64.817,57.24c-1.202-0.609-1.53-2.029-1.653-2.563
			c-0.112-0.488,0.117-1.49,0.615-2.684c0.023-0.055,0.02-0.121-0.01-0.174c-0.03-0.053-0.082-0.09-0.143-0.1
			c-0.785-0.127-1.572-0.277-2.338-0.443c-0.059-0.016-0.122,0-0.169,0.039c-0.048,0.039-0.074,0.098-0.073,0.158
			c0.004,0.135,0.086,3.307,0.444,3.74c0.393,0.459,2.09,2.033,2.685,2.232c0.18,0.059,0.346,0.111,0.492,0.158
			c0.02,0.006,0.041,0.008,0.06,0.008c0.079,0,0.153-0.047,0.185-0.123C64.951,57.396,64.91,57.285,64.817,57.24z"/>
		<path fill="#221714" stroke="#231815" stroke-miterlimit="10" d="M66.959,56.711c-0.054,0.012-0.1,0.047-0.128,0.094
			s-0.034,0.105-0.02,0.156c0.022,0.076,0.043,0.154,0.062,0.242c0.02,0.094,0.103,0.158,0.194,0.158
			c0.013,0,0.024-0.002,0.037-0.004c0.274-0.053,1.195-0.258,1.558-0.676l-0.115-0.156v-0.002l0.141,0.143
			c0.083-0.059,0.109-0.168,0.062-0.258c-0.102-0.189-0.196-0.396-0.282-0.623c-0.029-0.076-0.1-0.125-0.18-0.129
			c-0.074-0.004-0.154,0.045-0.188,0.117C67.843,56.338,67.325,56.631,66.959,56.711z"/>
		<path fill="#221714" stroke="#231815" stroke-miterlimit="10" d="M73.242,59.34c0.008,0.006,0.014,0.012,0.021,0.016
			c0.021,0.016,0.046,0.027,0.073,0.033c0.193,0.041,0.396,0.08,0.613,0.115c0.011,0.002,0.021,0.002,0.032,0.002
			c0.044,0,0.088-0.014,0.123-0.041c0.044-0.035,0.071-0.086,0.075-0.141c0.019-0.236,0.031-0.48,0.037-0.727
			c0.003-0.104-0.072-0.189-0.174-0.203c-0.844-0.109-1.545-0.41-1.984-0.643c-0.082-0.043-0.185-0.023-0.244,0.047
			c-0.061,0.072-0.063,0.176-0.006,0.25C72.129,58.463,72.549,58.939,73.242,59.34z"/>
		<path fill="#221714" stroke="#231815" stroke-miterlimit="10" d="M70.508,52.34c-0.037-0.041-0.086-0.066-0.148-0.066
			l-0.239,0.002c-0.631,0-1.301-0.02-1.991-0.057c-0.057-0.002-0.113,0.018-0.152,0.059c-0.041,0.041-0.061,0.096-0.057,0.154
			c0.062,0.785,0.343,3.434,1.383,4.549c0.796,0.852,1.424,1.523,2.646,2.006C71.971,58.996,71.996,59,72.021,59
			c0.065,0,0.128-0.033,0.165-0.09c0.053-0.078,0.043-0.18-0.022-0.248c-0.328-0.338-0.581-0.684-0.877-1.104
			c-0.147-0.209-0.315-0.445-0.494-0.67c-0.485-0.607-0.439-2.668-0.233-4.393C70.564,52.439,70.547,52.383,70.508,52.34z"/>
		<path fill="#221714" stroke="#231815" stroke-miterlimit="10" d="M65.811,62.877c-0.075,1.803-0.052,5.529,0.262,6.533
			c0.158,0.506,0.209,1.666,0.139,3.268c-0.004,0.088,0.051,0.166,0.133,0.195c0.021,0.008,0.044,0.014,0.066,0.014
			c0.062,0,0.121-0.029,0.16-0.082c0.078-0.105,0.162-0.209,0.251-0.307c0.151-0.17,0.325-0.348,0.526-0.543
			c0.051-0.049,0.07-0.148,0.053-0.217c0.003-0.021,0.26-2.115,0.004-2.885c-0.197-0.586-0.214-1.725-0.235-3.064
			c-0.008-0.49-0.017-1.004-0.033-1.523L67.1,63.209c-0.056-1.721-0.12-3.668-0.229-5.031c-0.073-0.932-0.208-1.324-0.308-1.49
			c-0.041-0.066-0.118-0.104-0.195-0.096c-0.441,0.057-0.857,0.209-1.066,0.297c-0.085,0.035-0.135,0.125-0.12,0.215l0.036,0.225
			C65.369,58.295,65.866,61.549,65.811,62.877z"/>
		<path fill="#221714" stroke="#231815" stroke-miterlimit="10" d="M65.753,74.498c-0.006,0.02-0.007,0.041-0.007,0.063l0.122,2
			c0.004,0.074,0.048,0.137,0.113,0.168c0.194,0.092,0.4,0.139,0.609,0.139c0.443,0,0.813-0.203,0.993-0.326
			c0.053-0.035,0.084-0.094,0.088-0.156c0.012-0.273,0.048-1.193-0.006-1.516c-0.011-0.061-0.016-0.125-0.021-0.186
			c-0.016-0.174-0.033-0.369-0.199-0.521c-0.02-0.018-0.041-0.031-0.065-0.039c-0.009-0.004-0.017-0.008-0.024-0.018
			c-0.016-0.016-0.033-0.029-0.054-0.039c-0.124-0.064-0.286-0.107-0.507-0.135c-0.07-0.01-0.137-0.016-0.197-0.016
			C66.085,73.916,65.825,74.217,65.753,74.498z"/>
		<path fill="#221714" stroke="#231815" stroke-miterlimit="10" d="M67.086,77.203c0.01-0.063-0.012-0.127-0.057-0.172
			s-0.109-0.064-0.172-0.055C66.759,76.992,66.674,77,66.591,77c-0.169,0-0.343-0.031-0.517-0.094
			c-0.055-0.02-0.115-0.014-0.166,0.014c-0.051,0.029-0.086,0.08-0.097,0.137c-0.185,0.977-0.47,2.758-0.366,3.242
			c0.018,0.076,0.076,0.135,0.152,0.152c0.178,0.039,0.464,0.061,0.784,0.061c0.2,0,0.403-0.01,0.587-0.025
			c0.065-0.006,0.124-0.045,0.156-0.102c0.031-0.059,0.033-0.127,0.003-0.188C66.88,79.711,66.865,78.619,67.086,77.203z"/>
		<path fill="#221714" stroke="#231815" stroke-miterlimit="10" d="M67.564,76.811c-0.056-0.029-0.135-0.025-0.192,0
			c-0.059,0.029-0.101,0.082-0.111,0.146c-0.005,0.029-0.501,2.914,0.108,3.344c0.001,0,0.012,0.014,0.012,0.016
			c0.037,0.043,0.1,0.066,0.158,0.066c0.023,0,0.047-0.006,0.068-0.012c0.043-0.014,0.078-0.041,0.104-0.078
			c0.338-0.5-0.028-3.311-0.032-3.34C67.671,76.893,67.62,76.842,67.564,76.811z"/>
		<path fill="#221714" stroke="#231815" stroke-miterlimit="10" d="M76.355,58.27l-1.773-0.254c-0.059-0.008-0.115,0.01-0.158,0.047
			c-0.043,0.039-0.068,0.092-0.068,0.15c0,1.375-0.163,2.471-0.472,3.164c-0.057,0.127-0.138,0.314-0.239,0.549l-0.043,0.096
			c-1.448,3.346-3.232,7.299-4.169,8.184c-0.435,0.41-0.808,0.752-1.136,1.049c-0.581,0.529-1.001,0.912-1.377,1.332
			c-0.252,0.279-0.461,0.588-0.625,0.924c-0.031,0.063-0.025,0.141,0.015,0.199s0.106,0.092,0.18,0.084l0.052-0.004
			c0.078-0.01,0.172-0.002,0.271,0.01c0.143,0.02,0.268,0.047,0.382,0.084c0.021,0.008,0.042,0.01,0.062,0.01
			c0.076,0,0.148-0.043,0.182-0.115c0.148-0.326,0.514-0.895,1.274-1.037c0.806-0.15,1.905-1.424,2.789-2.449
			c0.247-0.285,0.48-0.557,0.685-0.775c0.838-0.896,4.114-8.701,4.34-11.031C76.535,58.381,76.461,58.285,76.355,58.27z"/>
		<path fill="#221714" stroke="#231815" stroke-miterlimit="10" d="M84.22,47.402c-0.934,0.327-1.731,0.542-2.031,0.618
			c-0.036,0.01-0.067,0.028-0.093,0.054l-0.046,0.047c-0.105,0.108-0.243,0.249-0.423,0.413c-0.034,0.031-0.056,0.072-0.063,0.117
			c-0.146,0.954-0.897,5.769-1.3,6.894l-0.441,1.236c-0.005,0.014-0.013,0.023-0.023,0.031c-0.08,0.059-1.964,1.424-2.864,1.779
			c-0.001,0-0.01,0-0.028-0.01c-0.058-0.027-0.124-0.027-0.179,0.002c-0.057,0.027-0.096,0.082-0.105,0.145
			c-0.033,0.215-0.087,0.467-0.156,0.75c-0.018,0.07,0.004,0.145,0.057,0.193c0.037,0.035,0.086,0.055,0.136,0.055
			c0.021,0,0.039-0.004,0.059-0.01c0.861-0.266,1.808-0.797,2.077-0.953c0.023-0.016,0.045-0.035,0.062-0.057
			c0.142-0.199,0.91-1.254,2.183-2.525c1.213-1.211,2.938-6.839,3.437-8.536c0.021-0.071,0.001-0.148-0.053-0.2
			S84.291,47.377,84.22,47.402z"/>
		<path fill="#221714" stroke="#231815" stroke-miterlimit="10" d="M87.197,42.194c-0.062-0.058-0.153-0.069-0.229-0.031
			c-0.074,0.04-0.115,0.122-0.104,0.206c0.081,0.548,0.108,0.9,0.112,0.981c-0.021,0.135-0.611,3.327-7.204,4.646
			c-2.014,0.402-4.701,0.625-7.568,0.625c-2.168,0-4.306-0.129-6.182-0.371c-4.063-0.523-9.063-1.798-9.813-4.895
			c-0.008-0.036,0.014-0.071,0.064-0.082c0.025,0,0.057,0.018,0.064,0.051c0.918,3.793,8.84,5.146,15.947,5.146
			c2.825,0,5.545-0.22,7.461-0.604c6.129-1.227,7.01-4.166,7.09-4.497c0.006-0.021,0.007-0.042,0.006-0.063
			c-0.033-0.418-0.381-4.184-2.399-7.786c-2.585-4.617-6.852-7.057-12.335-7.057c-0.301,0-0.606,0.007-0.91,0.021
			c-5.568,0.255-9.628,2.358-12.063,6.251c-1.795,2.868-1.993,5.705-2,5.824c-0.006,0.077-0.151,1.902-1.89,2.838
			c-1.067,0.575-2.854,1.537-2.886,2.805c-0.021,0.812,0.684,1.655,2.095,2.512c3.163,1.916,10.079,3.417,15.746,3.417
			c0.12,0,0.241,0,0.359-0.002c0.027,0,0.054-0.006,0.079-0.018c0.018-0.008,0.027-0.01,0.021-0.012l0.068-0.184l0,0l-0.039,0.195
			c0.024,0.01,0.057,0.016,0.078,0.014c1.683-0.031,3.082-0.201,4.163-0.506c2.902-0.818,5.079-1.848,6.468-3.06
			c0.033-0.028,0.056-0.068,0.064-0.11c0.006-0.033,0.033-0.047,0.056-0.05c0.043-0.005,0.084-0.023,0.115-0.053
			c0.131-0.124,0.235-0.231,0.319-0.317l0.1-0.101c0.009-0.01,0.019-0.015,0.03-0.018c0.058-0.015,5.744-1.468,5.999-3.168
			C88.287,43.375,87.532,42.504,87.197,42.194z"/>
		<path fill="#221714" stroke="#231815" stroke-miterlimit="10" d="M80.871,46.901c-0.469,0.469-1.039,0.804-1.672,1.065
			c0.188-0.032,0.373-0.065,0.549-0.101c6.129-1.227,7.01-4.166,7.09-4.497c0.006-0.021,0.007-0.042,0.006-0.063
			c-0.033-0.418-0.381-4.184-2.399-7.786c-0.495-0.885-1.054-1.688-1.669-2.411C85.26,37.472,84.627,43.849,80.871,46.901z"/>
	</g>
	<path fill="#221714" stroke="#231815" stroke-miterlimit="10" d="M57.617,41.949c0,0-0.1,0.662-1.293,1.324
		c0,0,0.414,2.98,5.713,4.04c5.297,1.059,10.263,1.522,14.7,0.993C76.737,48.306,57.633,47.047,57.617,41.949z"/>
	<path fill="#221714" stroke="#231815" stroke-miterlimit="10" d="M87.246,41.801c-0.083-0.061-0.189-0.066-0.275-0.023
		c-0.705-3.986-3.694-14.179-15.786-13.625c-7.093,0.325-10.626,3.674-12.342,6.426c-1.858,2.982-2.03,5.844-2.037,5.959
		c-0.005,0.07-0.148,1.724-1.716,2.567c-1.13,0.608-3.022,1.628-3.06,3.088c-0.024,0.951,0.713,1.868,2.253,2.802
		c1.567,0.949,3.871,1.756,6.43,2.354c0.02,0.906,0.109,3.594,0.527,4.08c0.389,0.455,2.16,2.107,2.832,2.332
		c0.396,0.131,0.736,0.236,0.92,0.289c0.209,1.396,0.531,3.754,0.487,4.813c-0.054,1.301-0.091,5.467,0.277,6.645
		c0.31,0.992,0.062,4.254,0.055,4.334c-0.245,0.197-0.365,0.463-0.395,0.643c-0.003,0.02-0.005,0.039-0.003,0.059l0.131,2.152
		c-0.766,3.838-0.35,3.977-0.148,4.043c0.207,0.07,0.586,0.105,0.991,0.105c0.505,0,1.053-0.055,1.37-0.174
		c0.482-0.182,0.563-1.48,0.235-3.861c-0.007-0.049-0.03-0.092-0.062-0.129c0.035-0.043,0.061-0.096,0.064-0.152
		c0.006-0.131,0.064-1.299-0.004-1.713c-0.008-0.053-0.014-0.107-0.018-0.162c-0.022-0.248-0.07-0.494-0.258-0.689
		c0.113-0.268,0.408-0.775,1.057-0.896c0.918-0.172,2.013-1.439,2.978-2.559c0.245-0.285,0.478-0.553,0.677-0.766
		c0.748-0.801,3.152-6.379,4.076-9.629c0.018-0.002,0.036-0.002,0.055-0.006c1.086-0.271,2.4-1.057,2.456-1.09
		c0.031-0.02,0.06-0.047,0.081-0.076c0.008-0.012,0.8-1.148,2.177-2.523c1.444-1.445,3.512-8.639,3.6-8.944
		c0.01-0.035,0.011-0.068,0.007-0.102c1.618-0.618,3.373-1.523,3.531-2.581C88.696,42.889,87.306,41.845,87.246,41.801z
		 M61.642,55.086c-0.2-0.242-0.356-2.025-0.396-3.615c0.768,0.168,1.555,0.318,2.35,0.447c-0.259,0.619-0.799,2.051-0.625,2.803
		c0.133,0.58,0.474,2.045,1.756,2.695c-0.146-0.045-0.309-0.1-0.487-0.156C63.722,57.086,62.057,55.57,61.642,55.086z
		 M75.021,51.938c3.235-0.912,5.046-1.938,6.082-2.713c-0.205,1.375-0.8,5.225-1.15,6.209l-0.414,1.158
		c-0.34,0.246-1.907,1.355-2.671,1.674c0-0.008,0.001-0.02,0.001-0.027c0-0.133-0.097-0.244-0.228-0.262l-2.317-0.332
		c-0.076-0.012-0.152,0.012-0.211,0.063c-0.058,0.049-0.091,0.123-0.091,0.201l0.001,0.064c0,0.029-0.001,0.057-0.001,0.086
		c-1.55-0.223-2.643-1.139-2.653-1.148c-0.057-0.047-0.125-0.066-0.192-0.063c-0.042-0.055-0.083-0.111-0.126-0.166
		c-0.436-0.543-0.334-2.771-0.155-4.219C72.475,52.424,73.896,52.256,75.021,51.938z M67.718,68.748
		c-0.18-0.537-0.197-1.652-0.218-2.943c-0.008-0.498-0.016-1.021-0.034-1.551l-0.034-1.031c-0.057-1.73-0.121-3.693-0.23-5.072
		c-0.014-0.166-0.029-0.32-0.047-0.465c0.327-0.063,1.234-0.27,1.702-0.729c0.065,0.088,0.133,0.172,0.204,0.248
		c1.288,1.379,2.154,2.186,4.867,2.633c-0.073,0.574-0.19,1.055-0.347,1.404c-0.063,0.146-0.16,0.367-0.282,0.648
		c-0.844,1.947-3.086,7.121-4.094,8.074c-0.434,0.41-0.805,0.748-1.131,1.045c-0.102,0.092-0.199,0.182-0.293,0.268
		C67.844,70.582,67.916,69.348,67.718,68.748z M68.574,56.502c-0.017,0.014-0.035,0.023-0.049,0.039
		c-0.298,0.34-1.075,0.547-1.458,0.621c-0.021-0.092-0.042-0.178-0.065-0.258c0.373-0.08,0.979-0.393,1.279-1.049
		C68.367,56.082,68.465,56.301,68.574,56.502z M73.359,59.178c-0.629-0.357-1.037-0.787-1.394-1.25
		c0.519,0.273,1.224,0.557,2.052,0.664c-0.006,0.25-0.018,0.488-0.035,0.715c-0.215-0.033-0.416-0.072-0.606-0.113
		C73.369,59.189,73.365,59.182,73.359,59.178z M70.637,57.014c0.172,0.213,0.332,0.439,0.486,0.66
		c0.269,0.379,0.545,0.764,0.897,1.127c-1.18-0.465-1.784-1.111-2.573-1.957c-1.004-1.074-1.274-3.727-1.328-4.428
		c0.682,0.039,1.353,0.059,2.001,0.059c0.081,0,0.16-0.002,0.241-0.002C70.241,53.477,69.986,56.201,70.637,57.014z M67.584,52.383
		c0.023,0.342,0.113,1.393,0.387,2.479c-0.023,0.039-0.041,0.082-0.041,0.133c0,1.148-1.006,1.385-1.049,1.395
		c-0.036,0.01-0.069,0.023-0.098,0.045c-0.096-0.121-0.206-0.182-0.333-0.182c-0.001,0-0.001,0-0.001,0
		c-0.77,0.07-1.457,0.41-1.485,0.426c-0.075,0.037-0.126,0.109-0.142,0.189c-0.826-0.5-1.148-1.453-1.336-2.266
		c-0.135-0.584,0.375-1.961,0.648-2.6C65.289,52.176,66.451,52.303,67.584,52.383z M65.412,57.297c0-0.004-0.001-0.006-0.001-0.01
		c-0.013-0.082-0.024-0.156-0.034-0.215c0.217-0.09,0.604-0.232,1.014-0.281c0.063,0.102,0.205,0.436,0.282,1.402
		c0.108,1.365,0.173,3.322,0.229,5.047l0.034,1.033c0.019,0.525,0.026,1.045,0.034,1.539c0.021,1.336,0.039,2.488,0.244,3.105
		c0.201,0.604,0.061,2.223-0.012,2.795c-0.004,0.035-0.002,0.068,0.006,0.1c-0.192,0.186-0.369,0.367-0.535,0.551
		c-0.098,0.109-0.186,0.217-0.264,0.324c0.047-1.1,0.066-2.65-0.148-3.338c-0.303-0.969-0.325-4.723-0.252-6.465
		C66.064,61.563,65.594,58.441,65.412,57.297z M67.212,74.242c0.027,0.029,0.06,0.053,0.099,0.066
		c0.106,0.096,0.121,0.223,0.135,0.391c0.007,0.068,0.014,0.137,0.025,0.203c0.045,0.271,0.02,1.066,0.002,1.475
		c-0.152,0.102-0.486,0.293-0.882,0.293c-0.181,0-0.356-0.041-0.524-0.119l-0.121-2.002c0.032-0.127,0.199-0.504,0.823-0.42
		C66.978,74.156,67.115,74.195,67.212,74.242z M65.641,80.256c-0.08-0.367,0.113-1.826,0.365-3.162
		c0.189,0.068,0.385,0.105,0.585,0.105c0.104,0,0.204-0.01,0.299-0.027c-0.128,0.82-0.307,2.393,0.062,3.117
		C66.473,80.332,65.911,80.316,65.641,80.256z M67.547,80.184c-0.005,0-0.01,0.002-0.015,0.004
		c-0.015-0.018-0.027-0.037-0.047-0.051c-0.311-0.217-0.265-1.793-0.028-3.146c0.008-0.002,0.017-0.006,0.024-0.01
		C67.662,78.346,67.729,79.912,67.547,80.184z M72.04,69.381c-0.206,0.221-0.44,0.492-0.69,0.781
		c-0.817,0.947-1.938,2.246-2.674,2.383c-0.841,0.158-1.246,0.771-1.42,1.15c-0.118-0.039-0.254-0.07-0.416-0.092
		c-0.09-0.014-0.173-0.018-0.25-0.018c-0.041,0-0.077,0.008-0.115,0.01c0.113-0.232,0.301-0.553,0.593-0.877
		c0.37-0.412,0.786-0.793,1.363-1.318c0.329-0.299,0.702-0.639,1.138-1.051c0.964-0.91,2.76-4.887,4.217-8.248
		c0.121-0.279,0.217-0.5,0.279-0.643c0.321-0.723,0.489-1.842,0.489-3.246l1.773,0.252C76.104,60.783,72.854,68.51,72.04,69.381z
		 M80.897,56.043c-1.268,1.268-2.034,2.311-2.203,2.547c-0.222,0.131-1.183,0.674-2.035,0.938c0.07-0.285,0.125-0.541,0.16-0.768
		c0.036,0.018,0.075,0.029,0.116,0.029c0.033,0,0.066-0.006,0.098-0.018c0.904-0.361,2.803-1.738,2.883-1.799
		c0.044-0.029,0.076-0.074,0.095-0.125l0.441-1.234c0.445-1.248,1.216-6.581,1.249-6.806c0.003-0.023-0.002-0.046-0.005-0.067
		c0.216-0.194,0.376-0.357,0.496-0.48l0.046-0.046c0.304-0.079,1.111-0.297,2.048-0.623C83.898,48.905,82.102,54.838,80.897,56.043z
		 M87.887,44.712c-0.174,1.159-3.682,2.459-5.851,3.005c-0.047,0.013-0.089,0.036-0.123,0.07l-0.101,0.103
		c-0.582,0.596-2.128,2.182-6.936,3.538c-1.104,0.311-2.523,0.469-4.111,0.5c-0.021-0.008-0.039-0.018-0.062-0.021
		c-0.052-0.008-0.1,0.004-0.144,0.023c-5.39,0.064-12.61-1.332-16.002-3.387c-1.346-0.815-2.018-1.601-1.999-2.335
		c0.03-1.152,1.753-2.081,2.782-2.636c1.828-0.983,1.986-2.913,1.992-2.999c0.002-0.028,0.177-2.865,1.971-5.732
		c2.398-3.834,6.404-5.906,11.904-6.157c0.307-0.014,0.605-0.021,0.9-0.021c13.132,0,14.457,13.662,14.536,14.66
		c-0.073,0.303-0.921,3.146-6.937,4.349c-6.262,1.253-21.9,0.877-23.176-4.394c-0.035-0.143-0.179-0.229-0.32-0.195
		s-0.229,0.178-0.195,0.32c0.775,3.206,5.855,4.514,9.98,5.045c4.484,0.578,10.167,0.473,13.814-0.256
		c6.725-1.346,7.339-4.668,7.361-4.81c0.003-0.02,0.004-0.041,0.002-0.061c-0.006-0.088-0.033-0.439-0.114-0.982
		C87.366,42.622,88.078,43.435,87.887,44.712z"/>
</g>
<g>
	<g>
		<g>
			<path fill="#231815" d="M35.721,37.384c-0.081-0.017-0.114,0.03-0.114-0.146c0-0.175-0.042-2.019-0.046-2.098
				c-0.018-0.223-0.321-0.24-0.417-0.144c-0.062,0.062-0.016,0.112-0.113,0.112c-0.096,0-0.914,0-1.042,0
				c-0.126,0-0.368,0-0.368-0.064c0.018-0.065-0.031-0.127-0.16-0.127c-0.224,0-0.159,0.191-0.24,0.191c-0.081,0-1.25,0-1.25,0
				s-1.169,0-1.25,0c-0.08,0-0.018-0.191-0.241-0.191c-0.128,0-0.176,0.063-0.161,0.127c0,0.064-0.24,0.064-0.369,0.064
				s-0.913,0-1.01,0c-0.096,0-0.051-0.051-0.111-0.112c-0.096-0.096-0.401-0.079-0.417,0.144c-0.005,0.079-0.08,1.923-0.08,2.098
				c0,0.176-0.032,0.128-0.112,0.146c-0.081,0.017-0.127,0.256,0.03,0.256c0.161,0,3.717,0,3.717,0s3.557,0,3.716,0
				S35.8,37.4,35.721,37.384z"/>
			<polygon fill="#231815" points="29.65,35.588 29.65,34.692 29.297,34.692 29.297,34.563 28.464,34.563 28.24,34.34 28.24,34.628 
				26.446,34.628 26.446,32.417 28.208,32.417 28.368,32.578 28.526,32.737 29.424,32.737 29.424,32.449 29.905,32.449 
				29.905,32.642 34.551,32.642 34.551,35.588 			"/>
		</g>
		<path fill="#231815" d="M22.328,65.159c-0.006-10.972-1.621-14.263-2.298-19.128l0,0c-0.156-1.132-0.24-2.332-0.24-3.519l0,0
			c0.001-1.435,0.122-2.851,0.396-4.126l0,0c0.275-1.274,0.692-2.413,1.375-3.293l0,0c0.633-0.813,1.387-1.479,2.367-1.889l0,0
			c0.981-0.414,2.133-0.576,3.608-0.576l0,0v1.826c-1.345,0-2.244,0.157-2.898,0.432l0,0c-0.652,0.279-1.116,0.671-1.637,1.333l0,0
			c-0.423,0.531-0.796,1.44-1.03,2.549l0,0c-0.239,1.109-0.355,2.414-0.355,3.744l0,0c0,1.103,0.079,2.224,0.223,3.271l0,0
			c0.617,4.526,2.32,8.247,2.317,19.379l0,0h-1.828V65.159z"/>
		<polygon fill="#231815" points="24.647,67.27 24.292,64.838 23.229,64.838 22.167,64.838 21.812,67.27 21.583,67.498 
			21.583,69.044 22.874,69.044 23.583,69.044 24.876,69.044 24.876,67.498 		"/>
		<path fill="#231815" d="M25.885,59.266h-2.5v2.786h1.779l0.192,0.913v0.863c0,0-0.049,0.097,0.337,0.097L25.885,59.266z"/>
		<path fill="#231815" d="M30.313,30.342c-0.146,0-0.206,0.146-0.321,0.321c-0.118,0.175-0.234,0.41-0.118,0.586
			c0.118,0.175,0.762,1.464,0.819,1.582c0.06,0.118,0.225,0.322,0.43,0.322c0.204,0,4.92,0.088,5.447,0.088
			c0.527,0,1.152,0.04,2.208,0.424c0.875,0.319,1.92,0.656,2.242,0.802s0.713,0.413,0.86,0.618c0.146,0.205,0.497,0.673,0.616,0.819
			c0.118,0.146,0.293,0.205,0.409,0.029c0.118-0.176,0.322-0.558-0.146-1.171c-0.468-0.616-0.731-0.762-1.29-1.144
			c-0.556-0.38-2.107-1.229-2.517-1.435c-0.412-0.205-1.319-0.499-1.847-0.615c-0.527-0.119-1.816-0.088-2.167-0.206
			c-0.353-0.117-0.558-0.206-0.558-0.499c0-0.292-0.118-0.525-0.411-0.525s-3.076-0.03-3.368-0.03
			C30.31,30.309,30.313,30.342,30.313,30.342z"/>
		<path fill="#231815" d="M30.106,30.839c0,0,0.234-0.732,0.234-0.82s0.059-0.118,0.293-0.234c0.233-0.118,6.396-2.882,6.678-2.987
			c0.938-0.352,1.647-0.611,2.489-0.703c1.055-0.118,2.374-0.06,2.958-0.06c0.353,0,0.88,0.176,0.938,0.558
			c0.059,0.381,0.293,0.497-0.146,0.497s-2.666,0.234-3.164,0.293c-0.048,0.007-0.491,0.011-0.997,0.294
			c-1.728,0.966-6.032,3.456-6.032,3.456s-1.348,0.938-2.548,0.762C30.145,31.797,30.106,30.839,30.106,30.839z"/>
		<path fill="#231815" d="M36.361,23.35c0,0-1.25-0.048-2.098-0.048c-0.946,0-1.682,0.864-1.682,1.458
			c0,0.241-0.017,0.769-0.017,1.105c0,0.336,0.031,0.625,0.191,0.817c0.161,0.193,1.379,1.33,1.522,1.491
			c0.146,0.161,0.208,0.208,0.353,0.127c0.087-0.048,0.761-0.384,1.329-0.685v2.367c0,0.071,0.059,0.127,0.129,0.127
			c0.071,0,0.126-0.058,0.126-0.127v-2.502c0.256-0.141,0.461-0.259,0.528-0.317c0.224-0.192,0.401-0.497,0.401-0.722
			c0-0.223,0-1.954,0-2.386C37.146,23.623,36.649,23.35,36.361,23.35z M34.912,26.875c-0.758,0-1.37-0.614-1.37-1.37
			c0-0.755,0.614-1.37,1.37-1.37c0.754,0,1.369,0.614,1.369,1.37C36.281,26.261,35.667,26.875,34.912,26.875z"/>
	</g>
	<path fill="#231815" d="M36.091,38.413c-0.93-0.502-0.93-0.861-0.93-0.861h-6.304c0,0,0,0.359-0.931,0.861
		c-0.931,0.5-2.363,1.36-2.363,3.724s0,29.02,0,30.667s0,3.079,0,3.511c0,0.43,1.791,1.922,6.446,1.922
		c4.654,0,6.446-1.492,6.446-1.922c0-0.432,0-1.863,0-3.511s0-28.304,0-30.667S37.023,38.913,36.091,38.413z M36.257,68.566
		c0,0.041-0.038,0.076-0.087,0.076h-8.307c-0.048,0-0.087-0.035-0.087-0.076V53.08c0-0.043,0.039-0.078,0.087-0.078h8.307
		c0.049,0,0.087,0.035,0.087,0.078V68.566z"/>
</g>
</svg>
