<?xml version="1.0" encoding="utf-8"?>
<!-- Generator: Adobe Illustrator 15.0.0, SVG Export Plug-In . SVG Version: 6.00 Build 0)  -->
<!DOCTYPE svg PUBLIC "-//W3C//DTD SVG 1.1//EN" "http://www.w3.org/Graphics/SVG/1.1/DTD/svg11.dtd">
<svg version="1.1" id="Ebene_1" xmlns="http://www.w3.org/2000/svg" xmlns:xlink="http://www.w3.org/1999/xlink" x="0px" y="0px"
	 width="100px" height="100px" viewBox="0 0 100 100" enable-background="new 0 0 100 100" xml:space="preserve">
<circle fill="#B2B2B2" cx="50" cy="50" r="50"/>
<path d="M31.846,20.949c0-4.363,3.536-7.9,7.9-7.9c3.024,0,5.651,1.7,6.979,4.198c0.298-0.059,0.605-0.091,0.922-0.091
	c2.19,0,4.033,1.487,4.576,3.508c0.211-0.021,0.422-0.031,0.637-0.031c1.346,0,2.598,0.392,3.65,1.065
	c0.514-0.276,1.1-0.434,1.723-0.434c1.664,0,3.066,1.12,3.498,2.646c0.35-0.076,0.711-0.118,1.084-0.118
	c1.906,0,3.564,1.054,4.426,2.611c0.201-0.053,0.412-0.083,0.631-0.083c1.396,0,2.527,1.132,2.527,2.528
	c0,0.338-0.066,0.66-0.188,0.954c1.336,0.067,2.4,1.169,2.4,2.521c0,1.396-1.133,2.528-2.529,2.528c-0.895,0-1.68-0.467-2.129-1.169
	c-0.314,0.141-0.664,0.221-1.031,0.221c-0.639,0-1.219-0.238-1.664-0.629c-0.725,0.4-1.557,0.629-2.443,0.629
	c-1.221,0-2.338-0.432-3.213-1.15c-0.629,0.521-1.436,0.835-2.318,0.835c-0.41,0-0.805-0.069-1.172-0.195
	c-0.967,0.527-2.074,0.827-3.252,0.827c-2.074,0-3.931-0.932-5.177-2.398c-0.931,0.711-2.093,1.134-3.354,1.134
	c-2.578,0-4.742-1.761-5.356-4.146C34.971,28.421,31.846,25.051,31.846,20.949z"/>
<path d="M74.68,37.473c0,0-1.238-0.748-3.053-0.748c-1.816,0-3.055,0.748-3.055,0.748L68.244,55.92l-13.506-8.556v9.503
	l-15.002-9.503v9.503l-15.001-9.503V78.43h50.674L74.68,37.473z M40.799,69.932h-9.06v-6.953h9.06V69.932z M53.018,69.932h-8.426
	v-6.953h8.426V69.932z M65.238,69.932h-8.428v-6.953h8.428V69.932z"/>
</svg>
