<?xml version="1.0" encoding="utf-8"?>
<!-- Generator: Adobe Illustrator 15.1.0, SVG Export Plug-In . SVG Version: 6.00 Build 0)  -->
<!DOCTYPE svg PUBLIC "-//W3C//DTD SVG 1.1//EN" "http://www.w3.org/Graphics/SVG/1.1/DTD/svg11.dtd">
<svg version="1.1" id="Ebene_1" xmlns="http://www.w3.org/2000/svg" xmlns:xlink="http://www.w3.org/1999/xlink" x="0px" y="0px"
	 width="100px" height="100px" viewBox="0 0 100 100" enable-background="new 0 0 100 100" xml:space="preserve">
<circle fill="#B2B2B2" cx="50" cy="50" r="50"/>
<path fill-rule="evenodd" clip-rule="evenodd" d="M55.966,17.548c1.469,2.428,1.234,5.176,1.025,7.907
	c1.904-0.506,0.357,4.946-0.158,5.683c-0.713,1.022-0.877,0.556-1.287,1.894c-0.443,1.434-1.186,2.708-1.886,4.024
	c1.298,2.016,5.628,1.758,7.514,3.287c2.428,1.971,2.46,5.813,3.675,8.45c1.293,2.807,3.83,5.356,1.963,8.443
	c-1.424,2.379-5.381,2.465-6.528-0.257c-0.913,0.923-0.054,4.101-0.321,5.389c-0.248,1.226-0.777,2.46-1.93,3.056
	c0,0.791,0.931,0.918,1.537,1.447c3.422,3.011,9.154-0.33,12.518,3.209c1.754,1.846,1.018,5.851-0.588,7.578
	c-1.822,1.957-4.349,3.006-6.93,3.436c-0.402,0.076-3.432,0.234-3.219,0.891c0.158,0.461-0.719,1.69-1.207,1.658
	c-1.822-0.117-3.884-0.831-5.652-1.369c1.994,3.566-4.408,3.693-6.302,4.037c-0.655,0.122-3.373,0.859-3.427-0.141
	c-0.041-0.561-0.14-1.314,0.036-1.875c-2.31-0.218-4.751-0.732-6.637-2.148c-0.809-0.602-1.695-1.79-2.708-1.957
	c-1.18-0.199-2.351-0.398-3.508-0.71c-2.365-0.646-5.312-1.47-5.027-4.647c0.208-2.287,2.355-3.48,4.213-4.398
	c1.094-0.547,1.858-1.475,2.722-2.306c0.244-0.244,1.121-1.827,1.125-2.138c0.036-1.633,2.084-2.718,1.84-4.395
	c-0.14-0.955,0.389-1.32-0.886-1.664c-0.882-0.24-2.129-0.466-2.83-1.107c-1.533-1.402-1.433-4.715-0.99-6.537
	c0.357-1.496,1.135-2.821,1.546-4.286c0.321-1.116,0.321-2.288,0.755-3.386c0.877-2.247,2.79-4.548,5.122-5.263
	c1.858-0.569,3.49-1.415,4.851-2.699c0.357-0.344-1.13-2.057-1.384-2.451c-0.583-0.904-0.344-0.963-1.315-0.913
	c-0.569,0.032-1.271-0.42-1.664-0.791c-0.723-0.687-1.456-1.79-1.831-2.722c-0.158-0.389-0.371-0.958-0.167-1.383
	c0.036-0.082,0.543-0.511,0.547-0.556c0.068-0.619-0.651-2.156-0.814-2.825c-0.28-1.162-0.452-2.265-0.339-3.454
	c0.366-3.96,4.67-7.12,8.146-8.024C49.039,12.67,54.071,14.438,55.966,17.548"/>
</svg>
