<?xml version="1.0" encoding="utf-8"?>
<!-- Generator: Adobe Illustrator 15.1.0, SVG Export Plug-In . SVG Version: 6.00 Build 0)  -->
<!DOCTYPE svg PUBLIC "-//W3C//DTD SVG 1.1//EN" "http://www.w3.org/Graphics/SVG/1.1/DTD/svg11.dtd">
<svg version="1.1" id="Ebene_1" xmlns="http://www.w3.org/2000/svg" xmlns:xlink="http://www.w3.org/1999/xlink" x="0px" y="0px"
	 width="100px" height="100px" viewBox="0 0 100 100" enable-background="new 0 0 100 100" xml:space="preserve">
<circle fill="#B2B2B2" cx="50" cy="50" r="50"/>
<path fill-rule="evenodd" clip-rule="evenodd" d="M60.316,62.096L40.592,27.931c0.921-3.001,2.039-7.192,0.74-9.442
	c-2.255-3.904-4.714-8.164-4.714-8.164l-15.258,8.809c0,0,2.459,4.26,4.714,8.164c1.299,2.25,5.488,3.378,8.547,4.08l19.726,34.165
	l-9.288,5.362c0,0,4.179,7.238,8.097,14.022c3.916,6.786,18.85,4.308,18.85,4.308s9.611-11.693,5.695-18.479
	c-3.918-6.785-8.096-14.022-8.096-14.022L60.316,62.096z M29.545,25.648c-1.269-2.197-2.186-3.786-2.186-3.786l8.623-4.979
	c0,0,0.918,1.59,2.186,3.786s-1.374,7.579-1.374,7.579S30.813,27.844,29.545,25.648z"/>
</svg>
