<?xml version="1.0" standalone="no"?>
<svg width="105" height="88" viewBox="0 0 105 88" xmlns="http://www.w3.org/2000/svg" xmlns:xlink="http://www.w3.org/1999/xlink" version="1.1"><!--?xml version="1.0" encoding="utf-8"?-->
<!-- Generator: Adobe Illustrator 15.0.2, SVG Export Plug-In . SVG Version: 6.00 Build 0)  -->

<svg version="1.1" id="Ebene_1" xmlns="http://www.w3.org/2000/svg" xmlns:xlink="http://www.w3.org/1999/xlink" x="0px" y="0px" width="100px" height="100px" viewBox="0 0 100 100" enable-background="new 0 0 100 100" xml:space="preserve">
<circle fill="#B2B2B2" cx="50" cy="50" r="40

" transform="matrix(1 0 0 1 0 -3.4125)"></circle>
</svg><path d="M 49.5 18 L 26 18 L 26 35.5 L 26 53 L 36 53 L 46 53 L 46 55 L 46 57 L 34 57 L 22 57 L 22 59.5 C 22 61.05555555555556 21.433333333333334 62 20.5 62 C 19.675 62 19 62.675 19 63.5 C 19 64.33333333333333 18.11111111111111 65 17 65 C 15.899999999999999 65 15 65.45 15 66 C 15 66.64215719219757 27.166819007540383 67.0894607019506 49.00045702262116 67.25 C 75.6676828704463 67.44607990732362 83.00081547443398 67.2303995366181 83.00045702262116 66.25 C 83.00020566017952 65.5625 82.325 65 81.5 65 C 80.675 65 80 64.325 80 63.5 C 80 62.666666666666664 79.11111111111111 62 78 62 C 76.53333333333333 62 76 61.333333333333336 76 59.5 L 76 57 L 64.5 57 L 53 57 L 53 55 L 53 53 L 63 53 L 73 53 L 73 35.5 L 73 18 L 49.5 18 Z M 49 23 L 69 23 L 69.00103230036663 35.25 L 69.00206460073326 47.5 L 49.00103230036663 47.25 L 29 47 L 29 35 L 29 23 L 49 23 Z " fill="#000000"></path></svg>

