<?xml version="1.0" standalone="no"?>
<svg width="105" height="108" viewBox="0 0 105 108" xmlns="http://www.w3.org/2000/svg" xmlns:xlink="http://www.w3.org/1999/xlink" version="1.1"><!--?xml version="1.0" encoding="utf-8"?-->
<!-- Generator: Adobe Illustrator 15.0.2, SVG Export Plug-In . SVG Version: 6.00 Build 0)  -->

<svg version="1.1" id="Ebene_1" xmlns="http://www.w3.org/2000/svg" xmlns:xlink="http://www.w3.org/1999/xlink" x="0px" y="0px" width="100px" height="100px" viewBox="0 0 100 100" enable-background="new 0 0 100 100" xml:space="preserve">
<circle fill="#B2B2B2" cx="50" cy="50" r="50"></circle></svg><path d="M 57.5 18 L 56 18 L 54.00023102088745 23.75 L 52.000462041774895 29.5 L 47.75023102088745 31.244049865294386 C 45.41260395939935 32.2032772912063 42.6 32.97074088322485 41.5 32.94952451422451 L 39.5 32.91094929786024 L 38.34308098516423 34.20547464893012 L 37.186161970328456 35.5 L 36.46639763788256 46 L 35.74663330543666 56.5 L 37.02117573434699 71 L 38.29571816325732 85.5 L 39.39785908162866 86.76233118371523 L 40.5 88.02466236743047 L 41.79452535106988 86.76233118371523 L 43.089050702139765 85.5 L 43.04036861419365 73.5 L 42.99168652624755 61.5 L 44.495843263123774 50.25 C 45.323129468405696 44.0625 45.8875 38.50088261468309 45.75 37.890850254851316 L 45.5 36.78170050970264 L 49.5 35.33637792575307 C 51.7 34.5414505045808 54.08182472136804 33.35306788989771 54.79294382526231 32.69552767090175 L 56.08588765052462 31.5 L 58.010761733404664 25.5 L 59.93563581628471 19.5 L 59.46781790814235 18.75 C 59.21051805866406 18.3375 58.325 18 57.5 18 Z M 41.5 18.98453594357987 C 40.95 18.98453594357987 39.4875 19.6630153562744 38.25 20.492267971789936 L 36 22 L 35.96740526445389 24.75 L 35.934810528907775 27.5 L 37.71740526445389 29.224721792999492 C 38.697832369004246 30.173318779149213 40.175 30.964298191843742 41 30.982453821209557 C 41.825 31.00060945057537 43.5125 30.3369846437256 44.75 29.507732028210064 L 47 28 L 47 25 L 47 22 L 44.75 20.492267971789936 C 43.5125 19.6630153562744 42.05 18.98453594357987 41.5 18.98453594357987 Z M 54.75 35.01423979471424 C 54.3375 35.00640790762141 53.6625 35.67941730321057 53.25 36.50981622935683 C 52.8375 37.34021515550308 52.725 38.24296365032539 53 38.51592399562864 C 53.275 38.78888434093188 54.4 39.1626997806524 55.5 39.346624972785364 L 57.5 39.6810344130271 L 57.75 41.84051720651355 L 58 44 L 53.5 44 L 49 44 L 49 46.5 L 49 49 L 61 49 L 73 49 L 73 46.5 L 73 44 L 70.5 44 L 68 44 L 66.17298629980336 41.75 L 64.34597259960671 39.5 L 59.922986299803355 37.26423979471424 C 57.49034383491151 36.03457168180707 55.1625 35.02207168180707 54.75 35.01423979471424 Z M 61.5 40.5 C 62.325 40.775 63.45 41 64 41 C 64.55 41 65.225 41.675 65.5 42.5 L 66 44 L 63 44 L 60 44 L 60 42 L 60 40 L 61.5 40.5 Z M 62 50 L 52 50 L 52 66.5 L 52 83 L 62 83 L 72 83 L 72 66.5 L 72 50 L 62 50 Z M 61 84 L 50 84 L 50 85.5 L 50 87 L 61 87 L 72 87 L 72 85.5 L 72 84 L 61 84 Z " fill="#000000" transform="matrix(1 0 0 1 -3.24 -2.7)"></path></svg>
