<?xml version="1.0" encoding="utf-8"?>
<!-- Generator: Adobe Illustrator 16.0.4, SVG Export Plug-In . SVG Version: 6.00 Build 0)  -->
<!DOCTYPE svg PUBLIC "-//W3C//DTD SVG 1.1//EN" "http://www.w3.org/Graphics/SVG/1.1/DTD/svg11.dtd">
<svg version="1.1" id="Ebene_1" xmlns="http://www.w3.org/2000/svg" xmlns:xlink="http://www.w3.org/1999/xlink" x="0px" y="0px"
	 width="100px" height="100px" viewBox="0 0 100 100" enable-background="new 0 0 100 100" xml:space="preserve">
<circle fill="#B2B2B2" cx="50" cy="50" r="50"/>
<path d="M50,91.25c-11.019,0-21.377-4.291-29.168-12.082S8.75,61.02,8.75,50c0-11.019,4.291-21.376,12.082-29.168
	C28.623,13.042,38.981,8.75,50,8.75c11.018,0,21.377,4.291,29.168,12.082C86.957,28.625,91.25,38.982,91.25,50
	c0,11.019-4.293,21.376-12.082,29.167C71.377,86.959,61.018,91.25,50,91.25z M50,14.312c-19.679,0-35.688,16.01-35.688,35.688
	c0,19.679,16.01,35.689,35.688,35.689c19.68,0,35.688-16.012,35.688-35.689C85.688,30.322,69.68,14.312,50,14.312z"/>
<path id="rect3143_2_" d="M56.685,23.303v4.82H46.477v7.416v33.74H33.128v-33.74h2.967v30.953h7.416V28.117l-17.797,0.006v7.416
	v41.158h28.179V35.539h2.793v10.383h7.415h2.77v23.357h-2.77V48.888h-7.415v27.81h17.601V38.505H64.101v-2.966h10.186v-7.416H64.101
	v-4.82H56.685L56.685,23.303z"/>
</svg>
