<svg width="100" height="100" xmlns="http://www.w3.org/2000/svg">
 <g>
  <title>Layer 1</title>
  <circle fill="#ffffff" cx="50" cy="50" r="50" id="svg_1"/>
  <path id="polyline25" fill="#ffffff" d="m40.927002,22.726l7.574997,5.452l-21.667,15.681002l-15.306999,0"/>
  <path id="polyline27" fill="#ffffff" d="m88.733002,43.859001l-14.078003,0l-31.791,-22.547001l7.211002,-5.190001"/>
  <path id="polyline29" fill="#ffffff" d="m50.075001,86l-40.222001,-28.834999l14.859,0l33.204,23.191002"/>
  <path d="m50,1.533396c-24.465225,0 -44.734266,18.103807 -48.159366,41.652151c2.872472,-2.341568 8.049309,-5.673939 15.605013,-7.257896c5.510962,-12.518471 18.019926,-21.265932 32.554338,-21.265932c15.871056,0 29.322044,10.429049 33.889679,24.810354c-2.565285,-0.687363 -5.609947,-1.125145 -9.202095,-1.125145c-12.272465,0 -19.186897,5.676029 -19.186897,5.676029l-5.500687,-23.000069l-5.47496,22.949345c-0.35088,-0.281559 -7.176601,-5.625305 -19.129047,-5.625305c-2.227272,0 -4.296465,0.183582 -6.210133,0.490711c-0.969046,0.156071 -1.898262,0.342094 -2.787632,0.558292c-8.596776,2.08992 -13.440709,6.692745 -14.7105,8.036022c0,0 -0.295569,0.321434 -0.295569,0.321434l0,0.101448c-0.038554,0.796734 -0.059147,1.596157 -0.059147,2.402424c0,26.895634 21.803577,48.723995 48.666988,48.723995c20.455383,0 37.974083,-12.658524 45.168648,-30.570938c-1.223518,-2.140869 -4.275856,-6.155487 -10.899826,-8.645153c-4.156395,15.03883 -17.929932,26.087627 -34.268822,26.087627c-17.437691,0 -31.950293,-12.586174 -34.970542,-29.175095c0.861103,-0.3675 5.874684,-2.368561 13.205539,-2.368561c7.046806,0 12.290459,2.221905 13.197803,2.630722l-4.410847,18.491478l25.956097,0l-4.401848,-18.457626c0.55135,-0.256161 5.936386,-2.664574 13.281357,-2.664574c1.564079,-0.003429 3.126907,0.096901 4.680725,0.27071c7.548027,0.952919 15.061356,4.180199 19.914314,10.226894l0.042419,-0.1353c1.409866,-4.556721 2.171989,-9.395695 2.171989,-14.414181c0,-26.895636 -21.803558,-48.723882 -48.667007,-48.723882l0.000015,0.000019z" id="svg_7" fill="#000000"/>
 </g>
</svg>
