<?xml version="1.0" standalone="no"?>
<svg width="105" height="108" viewBox="0 0 105 108" xmlns="http://www.w3.org/2000/svg" xmlns:xlink="http://www.w3.org/1999/xlink" version="1.1"><!--?xml version="1.0" encoding="utf-8"?-->
<!-- Generator: Adobe Illustrator 15.0.2, SVG Export Plug-In . SVG Version: 6.00 Build 0)  -->

<svg version="1.1" id="Ebene_1" xmlns="http://www.w3.org/2000/svg" xmlns:xlink="http://www.w3.org/1999/xlink" x="0px" y="0px" width="100px" height="100px" viewBox="0 0 100 100" enable-background="new 0 0 100 100" xml:space="preserve">
<circle fill="#B2B2B2" cx="50" cy="50" r="50"></circle></svg><path d="M 45.75 22 L 35 22 L 35 43.5 L 35 65 L 45.75 65 L 56.5 65 L 56.5 43.5 L 56.5 22 L 45.75 22 Z M 78 56 L 75 56 L 75 72 L 75 88 L 78 88 L 81 88 L 81 72 L 81 56 L 78 56 Z M 45.75 66 L 32.5 66 L 32.5 70 L 32.5 74 L 45.75 74 L 59 74 L 59 70 L 59 66 L 45.75 66 Z M 27 67 L 26 67 L 26 70.5 L 26 74 L 27 74 L 28 74 L 28 70.5 L 28 67 L 27 67 Z M 64 67 C 63.45 67 62.965365464359884 67.1125 62.92303436524419 67.25 C 62.8807032661285 67.3875 62.768203266128495 68.96253303335487 62.67303436524419 70.75007340745529 L 62.5 74.00014681491058 L 63.75 74.00007340745529 L 65 74 L 65 70.5 L 65 67 L 64 67 Z M 45.75 75 L 22.5 75 L 22.5 81 L 22.5 87 L 45.75 87 L 69 87 L 69 81 L 69 75 L 45.75 75 Z " fill="#000000" transform="matrix(1 0 0 1 -1.62 -5.94)"></path></svg>
