<?xml version="1.0" encoding="utf-8"?>
<!-- Generator: Adobe Illustrator 17.0.0, SVG Export Plug-In . SVG Version: 6.00 Build 0)  -->
<!DOCTYPE svg PUBLIC "-//W3C//DTD SVG 1.1//EN" "http://www.w3.org/Graphics/SVG/1.1/DTD/svg11.dtd">
<svg version="1.1" id="Ebene_1" xmlns="http://www.w3.org/2000/svg" xmlns:xlink="http://www.w3.org/1999/xlink" x="0px" y="0px"
	 width="100px" height="100px" viewBox="0 0 100 100" enable-background="new 0 0 100 100" xml:space="preserve">
<circle fill="#B2B2B2" cx="50" cy="50" r="50"/>
<path d="M52.647,57.763h-0.03v0.341C52.618,57.989,52.641,57.877,52.647,57.763z"/>
<rect x="83.261" y="25.687" transform="matrix(-0.7971 -0.6038 0.6038 -0.7971 133.7307 103.0696)" width="1.839" height="6.764"/>
<rect x="78.642" y="24.113" transform="matrix(-0.9945 -0.1046 0.1046 -0.9945 155.81 63.1605)" width="1.839" height="6.763"/>
<path d="M49.82,62.952v-0.813c-0.017,6.377-8.934,11.544-19.935,11.544c-6.655,0-12.525-1.9-16.139-4.808
	c3.582,1.999,8.441,3.234,13.805,3.234c11.011,0,19.937-5.176,19.937-11.562l-0.001-0.761v-0.814
	c-0.016,6.378-8.934,11.545-19.935,11.545c-1.261,0-2.492-0.071-3.687-0.201c0.395,0.014,0.786,0.035,1.187,0.035
	c10.464,0,19.029-4.679,19.854-10.624c-2.341,4.875-10.034,8.458-19.188,8.458c-9.922,0-18.128-4.209-19.658-9.713
	c2.566,4.666,10.095,8.047,18.991,8.047c7.767,0,14.479-2.581,17.77-6.34c-3.625,2.884-9.479,4.766-16.104,4.766
	c-7.657,0-14.297-2.507-17.636-6.18c3.608,2.973,9.559,4.921,16.304,4.921c10.464,0,19.029-4.679,19.854-10.624
	c-2.341,4.875-10.034,8.458-19.188,8.458c-8.299,0-15.409-2.942-18.41-7.125c3.52,3.274,9.767,5.459,16.91,5.459
	c7.767,0,14.479-2.581,17.77-6.34c-3.625,2.884-9.479,4.766-16.104,4.766c-11.01,0-19.935-5.177-19.935-11.562l0.001-0.761v-0.648
	C6.3,51.682,15.218,56.85,26.219,56.85c7.767,0,14.479-2.581,17.77-6.34c-3.625,2.884-9.479,4.766-16.104,4.766
	c-7.657,0-14.297-2.507-17.636-6.18c3.608,2.973,9.559,4.921,16.304,4.921c10.464,0,19.029-4.679,19.854-10.624
	c-2.341,4.875-10.034,8.458-19.188,8.458c-8.299,0-15.409-2.942-18.41-7.125c3.52,3.274,9.767,5.459,16.91,5.459
	c7.767,0,14.479-2.581,17.77-6.34c-3.625,2.884-9.479,4.766-16.104,4.766c-10.017,0-18.284-4.29-19.698-9.872
	c2.53,4.701,10.094,8.113,19.033,8.113c11.01,0,19.936-5.177,19.936-11.562s-8.926-11.562-19.936-11.562
	c-10.84,0-19.639,5.02-19.91,11.269c-0.657,1.141-1.026,2.357-1.026,3.627c0,1.17,0.306,2.298,0.863,3.363
	c-0.012,0.157-0.029,0.312-0.029,0.471c0,0.205,0.035,0.404,0.053,0.607c-0.142,0.412-0.245,0.833-0.307,1.26
	c0.039-0.324,0.093-0.645,0.177-0.961c-1.22,1.497-1.922,3.163-1.922,4.928c0,1.17,0.306,2.298,0.863,3.363
	c-0.012,0.157-0.029,0.312-0.029,0.471c0,0.205,0.035,0.404,0.053,0.607c-0.248,0.72-0.386,1.464-0.386,2.227
	c0,0.655,0.116,1.293,0.297,1.919c-0.185,0.623-0.297,1.261-0.297,1.914c0,3.116,2.136,5.938,5.592,8.018
	c2.333,4.881,10.018,8.47,19.176,8.47c11.011,0,19.937-5.176,19.937-11.562L49.82,62.952z M20.433,29.976l6.326,4.007l6.323-4.007
	h2.982l-6.197,3.817h4.642V34.5h-5.808L28,34.933v1.58h6.509v0.717H28v3.931h-2.486V37.23H19.01v-0.717h6.504v-1.58L24.816,34.5
	h-5.809v-0.707h4.642l-6.195-3.817H20.433z M6.284,45.104v-0.341h0.025c-0.013,0.165-0.024,0.33-0.025,0.496v-0.121
	c0-0.006-0.001-0.011-0.001-0.017S6.284,45.11,6.284,45.104z"/>
<path d="M94.82,61.119v-0.813c-0.017,6.377-8.934,11.544-19.935,11.544c-6.655,0-12.525-1.9-16.139-4.808
	c3.582,1.999,8.441,3.234,13.805,3.234c11.011,0,19.937-5.176,19.937-11.562l-0.001-0.761v-0.814
	c-0.016,6.378-8.934,11.545-19.935,11.545c-1.261,0-2.492-0.071-3.687-0.201c0.395,0.014,0.786,0.035,1.187,0.035
	c10.464,0,19.029-4.679,19.854-10.624c-2.341,4.875-10.034,8.458-19.188,8.458c-9.923,0-18.128-4.209-19.658-9.713
	c2.566,4.666,10.095,8.047,18.991,8.047c7.767,0,14.479-2.581,17.77-6.34c-3.625,2.884-9.479,4.766-16.104,4.766
	c-7.657,0-14.297-2.507-17.636-6.18c3.608,2.973,9.559,4.921,16.304,4.921c10.464,0,19.029-4.679,19.854-10.624
	c-2.341,4.875-10.034,8.458-19.188,8.458c-8.299,0-15.409-2.942-18.41-7.125c3.521,3.273,9.767,5.459,16.91,5.459
	c7.767,0,14.479-2.581,17.77-6.34c-3.625,2.884-9.479,4.766-16.104,4.766c-11.01,0-19.935-5.177-19.935-11.562l0.001-0.761v-0.814
	c0-0.006-0.001-0.011-0.001-0.017s0.001-0.011,0.001-0.017V42.93h0.03c-0.006,0.12-0.031,0.237-0.031,0.358
	c0,6.385,8.926,11.562,19.936,11.562s19.936-5.177,19.936-11.562s-8.926-11.562-19.936-11.562c-9.975,0-18.214,4.253-19.681,9.8
	c0,0,0,0,0,0c-1.22,1.497-1.922,3.163-1.922,4.928c0,1.17,0.306,2.298,0.863,3.363c-0.012,0.157-0.029,0.312-0.029,0.471
	c0,0.205,0.035,0.404,0.053,0.607c-0.248,0.72-0.386,1.464-0.386,2.227c0,0.655,0.116,1.293,0.297,1.919
	c-0.185,0.623-0.297,1.26-0.297,1.914c0,3.116,2.136,5.938,5.592,8.018c2.333,4.881,10.018,8.47,19.176,8.47
	c11.011,0,19.937-5.176,19.937-11.562L94.82,61.119z M65.183,37.976l6.326,4.007l6.323-4.007h2.982l-6.197,3.817h4.642V42.5h-5.808
	l-0.701,0.433v1.58h6.509v0.717H72.75v3.931h-2.486V45.23H63.76v-0.717h6.504v-1.58L69.566,42.5h-5.809v-0.707h4.642l-6.195-3.817
	H65.183z"/>
</svg>
