<?xml version="1.0" standalone="no"?>
<svg width="194" height="137" viewBox="0 0 194 137" xmlns="http://www.w3.org/2000/svg" xmlns:xlink="http://www.w3.org/1999/xlink" version="1.1"><path d="M 83.75 48.51574998177348 L 77.5 48.03149996354697 L 76.25 48.51574998177348 C 75.53904166970442 48.79117524929663 75 50.72493334305414 75 53 L 75 57 L 62.75 56.466644963615096 C 56.0125 56.1732996936034 41.275000000000006 55.26889526651204 30 54.45685734785653 C 18.724999999999998 53.644819429201014 7.355512756835548 52.647329195574216 4.734472792967885 52.24021238424143 L -0.031054414064229263 51.5 L -0.015527207032114632 94.25 L 0 137 L 97 137 L 194 137 L 194 135 C 194 133.50387431809435 193.18120423309668 132.88501908003394 190.75 132.54361269929007 C 188.9625 132.2925996838996 185.925 131.84434999974908 184 131.5475022900667 C 182.075 131.2506545803843 177.125 130.55578706552788 173 130.00335225705243 C 168.875 129.45091744857694 163.025 128.34560991013785 160 127.54711328274331 C 156.975 126.74861665534877 149.1 125.63061581976203 142.5 125.06266698143946 C 135.850247116092 124.49043676544738 129.162438220977 123.3573035259706 127.5 122.52117710654679 C 125.85 121.69130651367838 123.825 121.01704914944101 123 121.02282740824151 C 122.175 121.02860566704202 121.05 120.55722402081558 120.5 119.97531263884943 C 119.95 119.39340125688328 117.475 118.48792111155193 115 117.96313453811308 C 112.525 117.43834796467422 107.35 116.71516966504237 103.5 116.3560716500423 C 99.65 115.99697363504222 95.375 115.70912842152185 94 115.71641561999704 C 92.625 115.72370281847222 91.05 115.84377990430605 90.5 115.98325358851665 C 89.95 116.12272727272723 88.2625 116.18355263157896 86.75 116.11842105263159 C 85.2375 116.05328947368422 84.225 115.55 84.5 115 C 84.775 114.45 85.9 114 87 114 C 88.1 114 89.18947368421053 113.4375 89.42105263157895 112.75 C 89.65263157894736 112.0625 89.87763157894736 112.2875 89.92105263157895 113.25 C 89.98536995383898 114.67570064343087 90.25746317987627 114.76835760245062 91.38933536455359 113.75 C 92.38323428175379 112.8557784332011 92.454389968394 112.32211078339945 91.63933536455359 111.875 C 90.81229834004216 111.4213160747914 90.84263214958281 111.0786839252086 91.75 110.625 C 92.4375 110.28125 92.97996359201855 108.5375 92.95547464893012 106.75 C 92.93014268785622 104.90096632565648 93.6428029704758 102.85340015738932 94.6087234644777 102 C 95.98701502277741 100.78226599385205 99.77680965234516 100.5 114.74820915587532 100.5 C 124.8911504945044 100.5 133.37218852750797 100.8375 133.59496034032773 101.25 C 133.8177321531475 101.6625 135.125 102 136.5 102 C 137.875 102 139 101.55 139 101 C 139 100.45 141.5875 99.79162451062076 144.75 99.53694335693504 C 147.9125 99.28226220324932 153.0620189367009 98.94476220324931 156.19337541489088 98.78694335693504 C 159.32473189308087 98.62912451062077 162.47473189308087 97.93000000000008 163.19337541489088 97.2333333333335 C 163.9120189367009 96.53666666666693 165.7375 95.97416666666693 167.25 95.9833333333335 C 168.7625 95.99250000000008 170.225 96.45 170.5 97 C 170.775 97.55 172.125 98 173.5 98 C 175.16666666666666 98 176.16666666666666 97.33333333333333 176.5 96 L 177 94 L 185.5 94.5 L 194 95 L 194 92.5 C 194 90.55542963286027 193.3890274038537 89.89365805667586 191.25 89.52135276445136 C 189.7375 89.25809678489962 180.4 88.81634732643762 170.5 88.53968730120249 C 160.6 88.26302727596735 147.55 88.01321006393712 141.5 87.98453794113533 C 132.89445544709986 87.94375459730111 130.75271850799103 87.6676663663676 131.66097528198668 86.71620340438422 C 132.37140562972894 85.9719775617604 136.44618817072444 85.40117329253634 142.16097528198668 85.24534090643401 C 147.297438876894 85.10527840497271 157.35 84.75567717951323 164.5 84.4684492943018 C 171.65 84.18122140909038 181.2125 83.73331800119509 185.75 83.4731083878678 L 194 83 L 194 72 L 194 61 L 189.75 61.059610950584805 C 187.4125 61.092396973406444 183.31347756525847 61.42989697340645 180.6410612561299 61.809610950584805 C 177.66767758366478 62.2320882929406 175.64519106285624 62.111940966783386 175.4292600926724 61.5 C 175.23518576189934 60.95 174.38420819664088 60.1625 173.5381988365425 59.75 C 172.69218947644413 59.3375 171.2125 59.51140661102432 170.25 60.1364591356096 C 169.02117208308687 60.93446639976277 166.41531166765256 61.00891955448947 161.5 60.3864591356096 C 157.65 59.898906611024316 148.65 59.529082647894 141.5 59.564628106431115 C 134.35 59.60017356496822 121.02777309365939 60.050173564968226 111.89505131924311 60.564628106431115 C 97.63686680586126 61.36780463552164 95.0513161138089 61.28800619509641 93.60052596817323 60 C 92.49707526352299 59.02036049262638 91.92639545360497 57.025645270891914 91.95547464893012 54.25 C 91.97996359201855 51.9125 91.55 49.775 91 49.5 C 90.45 49.225 87.1875 48.782087491798066 83.75 48.51574998177348 Z M 72.25 107.03543541572941 C 73.51281637831137 107.00986488809777 74.16030177611201 108.04396490361849 74.57581596693188 110.75 C 74.89251474874442 112.8125 75.00501474874441 114.61728902819925 74.82581596693188 114.76064228488724 C 74.64661718511935 114.90399554157521 73.6 114.73415568868577 72.5 114.38322038957739 C 70.80578318956715 113.8427108594649 70.72933739217537 113.59848351526067 72 112.78583143860233 C 73.10950812200717 112.07624568872178 72.84918020334528 111.9632487398673 71 112.35177523197146 C 69.33295157629613 112.7020344847245 68.10912060275278 112.31446100547896 67.32682436659364 111.18852189805928 C 66.36181664678857 109.79961079192252 66.53925633073159 109.28448804403862 68.32682436659364 108.28543541572941 C 69.52207096496714 107.61742489438058 71.2875 107.05492489438058 72.25 107.03543541572941 Z " fill="#0000ff"></path></svg>
