<?xml version="1.0" standalone="no"?>
<svg width="105" height="108" viewBox="0 0 105 108" xmlns="http://www.w3.org/2000/svg" xmlns:xlink="http://www.w3.org/1999/xlink" version="1.1"><!--?xml version="1.0" encoding="utf-8"?-->
<!-- Generator: Adobe Illustrator 15.0.2, SVG Export Plug-In . SVG Version: 6.00 Build 0)  -->

<svg version="1.1" id="Ebene_1" xmlns="http://www.w3.org/2000/svg" xmlns:xlink="http://www.w3.org/1999/xlink" x="0px" y="0px" width="100px" height="100px" viewBox="0 0 100 100" enable-background="new 0 0 100 100" xml:space="preserve">
<circle fill="#B2B2B2" cx="50" cy="50" r="50"></circle></svg><path d="M 48.5 19.045761900266207 C 46.85 19.054042409610613 44.6 19.57117502625807 43.5 20.19494549281611 C 42.4 20.818715959374153 41.167227016930056 21.817532050718814 40.760504482066786 22.414536806915365 C 40.353781947203515 23.011541563111916 40.29665175761823 24.175 40.63354850521059 25 C 40.97044525280295 25.825 41.640718235872896 28.4125 42.123044023143805 30.75 L 43 35 L 40.25 37.41420126543139 C 38.406125933726955 39.0329223941923 37.088124575578654 39.527172903497906 36.25 38.91420126543139 C 35.5625 38.41139056944412 33.8839245176388 38.1125 32.51983226141955 38.25 C 31.155740005200308 38.3875 30.03074000520031 38.1625 30.019832261419555 37.75 C 30.0089245176388 37.3375 29.325 37 28.5 37 C 27.675 37 26.8875 37.43600531289825 26.75 37.96890069532945 C 26.6125 38.50179607776066 24.7 39.20824851405227 22.5 39.53879499819972 C 20.3 39.86934148234717 17.949792562717903 40.895836169448906 17.27731680603978 41.81989430287027 C 16.555809954404126 42.81132673437766 16.313360770082244 44.72969632231864 16.685831298793403 46.5 C 17.03299002648602 48.15 17.695697463768116 49.6125 18.158514492753625 49.75 C 18.62133152173913 49.8875 19 50.9 19 52 C 19 53.1 17.866356312209476 57.9375 16.48079180490994 62.75 C 15.09522729761041 67.5625 13.954663866783367 73.075 13.946206403072066 75 C 13.936738365189347 77.15501639101115 14.80875203026915 79.60891049986493 16.215414598162123 81.38567587261907 L 18.5 84.27135174523815 L 24.5 83.5478156860859 C 27.8 83.14987085355216 32.6375 81.96381671087357 35.25 80.91213981346682 C 38.16356402423002 79.73926786192686 40.19330905008105 79.3866181001621 40.5 80 L 41 81 L 40.5 82.5 L 40 84 L 59.75 84.00749754316156 C 70.6125 84.01162119190042 81.64428133562069 83.67412119190043 84.26506963471266 83.25749754316156 L 89.03013926942532 82.5 L 89.00032783231563 77 C 88.98393154190529 73.975 88.4146502062846 70.41273086603816 87.73525819760297 69.08384636897367 C 87.05586618892133 67.75496187190919 82.7875 64.4924618719092 78.25 61.833846368973674 L 70 57 L 69.40939782510219 52.75 C 69.08456662890839 50.4125 69.33869910284686 46.475 69.97413665607658 44 C 70.60957420930629 41.525 70.8753451880103 38.2625 70.56473883097439 36.75 L 70 34 L 72 33 C 73.1 32.45 74 31.1 74 30 C 74 28.9 72.5375 26.896316520374 70.75 25.54737004527556 C 68.9625 24.19842357017712 63.900000000000006 22.180332516641574 59.5 21.062723259641018 C 55.1 19.945114002640462 50.15 19.037481390921798 48.5 19.045761900266207 Z M 42.74042679975903 25.5 C 43.3095579784233 26.05 44.05078833974927 27.5125 44.3876053804834 28.75 C 44.725537364011885 29.991596413011067 44.55182062800492 31 44 31 C 43.45 31 43 30.325 43 29.5 C 43 28.675 42.708769638674035 27.2125 42.35282141927563 26.25 C 41.911696623746494 25.057178705896074 42.03510546048712 24.818387831940615 42.74042679975903 25.5 Z M 56.75 31.180248238696834 C 58.5375 31.081111707413577 60 31.45 60 32 C 60 32.55 57.4125 33.0061446074816 54.25 33.013654683292444 C 51.0875 33.021164759103286 47.4875 33.24616475910329 46.25 33.513654683292444 C 45.0125 33.7811446074816 44 33.55 44 33 C 44 32.45 46.1375 31.856111707413575 48.75 31.680248238696834 C 51.3625 31.504384769980092 54.9625 31.27938476998009 56.75 31.180248238696834 Z M 42 39 C 42.55 39 43.19535167744231 40.0125 43.43411483876069 41.25 C 43.67287800007908 42.4875 43.219398587384546 44.4 42.426382810550635 45.5 C 41.633367033716716 46.6 40.9880153562744 47.8375 40.992267971789936 48.25 C 40.99652058730547 48.6625 41.675 49 42.5 49 C 43.325 49 44.2188553925184 50.0125 44.486345316707556 51.25 C 44.75383524089671 52.4875 44.978835240896714 54.5125 44.986345316707556 55.75 C 44.996112888376565 57.35948707374446 46.06752154375923 58.50824875942954 48.75 59.78538115600846 L 52.5 61.570762312016925 L 48.5 61.609327897609745 C 46.046312568130105 61.63298487077769 42.76039836085363 62.66410117117171 40 64.27661864243218 C 37.525 65.72241748000849 33.5875 67.6016414462879 31.25 68.45267190083091 L 27 70 L 25.861754060944698 67.75 C 25.165830606324022 66.37435022241671 24.96198222263969 63.36269945631473 25.337182954847172 60 L 25.950857787804953 54.5 L 28.975428893902475 52.25 C 30.638943002256113 51.0125 32 49.325 32 48.5 C 32 47.675 33.0125 46.609130554333674 34.25 46.13140123185261 C 35.4875 45.653671909371546 37.0625 45.428671909371545 37.75 45.63140123185261 C 38.4375 45.834130554333676 39.71025045537684 45.4375 40.57833434528186 44.75 C 41.57496205854956 43.96069661487842 41.9435193504523 42.67074609321884 41.57833434528186 41.25 C 41.26025045537684 40.0125 41.45 39 42 39 Z " fill="#000000" transform="matrix(1 0 0 1 -2.7 -2.7)"></path></svg>
