<?xml version="1.0" standalone="no"?>
<svg width="105" height="108" viewBox="0 0 105 108" xmlns="http://www.w3.org/2000/svg" xmlns:xlink="http://www.w3.org/1999/xlink" version="1.1"><!--?xml version="1.0" encoding="utf-8"?-->
<!-- Generator: Adobe Illustrator 15.0.2, SVG Export Plug-In . SVG Version: 6.00 Build 0)  -->

<svg version="1.1" id="Ebene_1" xmlns="http://www.w3.org/2000/svg" xmlns:xlink="http://www.w3.org/1999/xlink" x="0px" y="0px" width="100px" height="100px" viewBox="0 0 100 100" enable-background="new 0 0 100 100" xml:space="preserve">
<circle fill="#B2B2B2" cx="50" cy="50" r="50"></circle></svg><path d="M 52 35.960317460317356 C 27.894324844687297 35.973743066084815 23.73128025498354 36.1859936693562 25 37.33689802889958 C 25.825 38.08528718288959 31.674999999999997 42.65530294364021 38 47.4924886083454 C 44.325 52.32967427305059 50.0625 56.67271301718864 50.75 57.143685817541055 C 51.593065945518994 57.721229278257915 56.47627459929108 54.53311801736557 65.75 47.35060255937536 C 73.3125 41.493433967031805 79.725 36.53093396703176 80 36.322824781597475 C 80.275 36.114715596163194 67.67500000000001 35.95158730158713 52 35.960317460317356 Z M 25.25 42.84493707213958 L 19 38 L 19.25 57.75 L 19.5 77.5 L 51.75 77.75 C 76.79830915683091 77.94417293920024 84.11554609501738 77.7208646960012 84.51742870465549 76.75 C 84.80201449221602 76.0625 84.91451449221601 67.07604767588445 84.76742870465549 56.78010594640989 L 84.5 38.06021189281979 L 68.5 50.48811268886743 C 59.7 57.32345812669364 52.1625 62.934910450809184 51.75 62.95800674245754 C 51.3375 62.98110303410589 46.6125 59.555221682462815 41.25 55.34493707213958 C 35.8875 51.134652461816344 28.6875 45.50965246181635 25.25 42.84493707213958 Z " fill="#000000" transform="matrix(1 0 0 1 -1.89 -6.21)"></path></svg>
