<?xml version="1.0" encoding="utf-8"?>
<!-- Generator: Adobe Illustrator 15.0.0, SVG Export Plug-In . SVG Version: 6.00 Build 0)  -->
<!DOCTYPE svg PUBLIC "-//W3C//DTD SVG 1.1//EN" "http://www.w3.org/Graphics/SVG/1.1/DTD/svg11.dtd">
<svg version="1.1" id="Ebene_1" xmlns="http://www.w3.org/2000/svg" xmlns:xlink="http://www.w3.org/1999/xlink" x="0px" y="0px"
	 width="100px" height="100px" viewBox="0 0 100 100" enable-background="new 0 0 100 100" xml:space="preserve">
<circle fill="#B2B2B2" cx="50" cy="50" r="50"/>
<g>
	<path d="M97.4,58c-0.1-0.1-0.2-0.1-0.3-0.2c0-0.1-0.1-0.1-0.2-0.1c-0.1,0,0.1,0.1-0.1,0.1s-0.2,0.1-0.3,0c0-0.1-0.1-0.1,0-0.2
		c0.1-0.1,0.1-0.1,0.2-0.2c0.1-0.1,0.2-0.1,0.3-0.2c0-0.1,0.1-0.1,0.1-0.3c0-0.1-0.1-0.2-0.1-0.2c-0.1,0,0-0.2-0.1-0.1
		c-0.1,0.1-0.2,0-0.2,0.1c0,0.1,0,0.3-0.1,0.3c0,0-0.1-0.1-0.1-0.2c0-0.1,0-0.2,0-0.2c0.1,0,0.2,0,0.1-0.1c-0.1-0.1,0-0.1-0.1-0.1
		c-0.1,0-0.1,0-0.1,0c0,0-0.1,0-0.2-0.1c-0.1-0.1-0.2,0-0.2-0.2c0-0.1-0.2-0.3,0-0.3c0.2,0,0.2-0.2,0.2-0.2s-0.1-0.2-0.2-0.2
		c-0.1,0-0.2-0.1-0.2-0.1c0,0-0.1-0.1-0.1-0.2c-0.1-0.1,0-0.2-0.2-0.1c-0.1,0.1-0.2,0.1-0.2,0.1s-0.1,0-0.1,0.1c0,0.1,0.1,0.2,0,0.2
		c0,0-0.2-0.1-0.2-0.1c0-0.1,0-0.2,0-0.2c0,0-0.2-0.1-0.2-0.1s-0.2-0.1-0.1-0.1c0.1-0.1,0.2-0.1,0.3-0.1c0.1,0,0.1-0.2,0.1-0.2v0
		c0,0,0,0,0-0.1c0,0,0.1,0,0.1-0.1c0-0.1,0-0.1,0-0.2c0,0,0,0,0,0c0,0,0,0,0.1,0c0.1,0.1,0.1,0.2,0.2,0.2c0.1-0.1,0.1-0.1,0.1-0.2
		c0,0,0.1,0.1,0.1-0.1c0-0.2,0.1-0.1,0-0.2c-0.1-0.1-0.2-0.1-0.3-0.1c-0.1,0-0.1-0.1-0.1-0.1s0.1-0.4,0-0.4
		c-0.1-0.1-0.1-0.1-0.2-0.1c-0.1-0.1-0.1,0-0.1-0.1c0-0.1,0.1-0.1,0.1-0.2c0-0.1,0.1-0.2,0-0.2S95,52.5,95,52.5c0,0-0.1,0.1-0.1,0.2
		c0,0,0,0,0,0c0,0-0.1-0.1-0.1-0.1c0,0,0,0,0,0c0.1-0.1-0.1-0.2,0.1-0.2c0.3,0,0.3,0,0.3,0c0,0,0.1,0,0.1-0.1c0-0.1,0-0.2-0.1-0.3
		c-0.2,0-0.2,0.1-0.3,0.1c0,0-0.1,0-0.1-0.1c0,0,0,0-0.1,0c0,0,0,0,0,0c0,0,0,0,0,0c0,0,0,0,0,0c0,0,0,0,0,0c0,0,0,0,0,0
		c0,0,0,0,0,0c0,0,0,0,0.1,0c0.1-0.1,0.1-0.2,0.1-0.2c0-0.1,0-0.2,0.1-0.2c0,0.1,0.1,0.1,0.1,0.1c0.1,0,0,0,0.1,0s0.1,0.2,0.2,0.2
		c0.1,0,0.1,0,0.1,0.1s0.2,0,0.2-0.1c0-0.1,0.1-0.1-0.1-0.2c-0.2-0.1-0.2-0.1-0.2-0.1s0.1-0.2-0.1-0.1c0,0-0.1,0-0.1,0
		c0,0,0-0.1-0.1-0.1c0,0,0.1-0.1,0.1-0.1c0.1,0,0-0.2,0.1-0.2c0.1,0,0.1,0.1,0.1,0.2c0,0.1,0.1,0.1,0.2,0.1c0.1,0,0-0.2,0.1-0.2
		c0.1-0.1,0.2-0.2,0.2-0.2c0,0,0,0-0.1-0.1c0-0.2,0.1-0.3,0-0.3c-0.2,0-0.2,0.1-0.3,0.2c0,0-0.1-0.1-0.2-0.2s-0.2-0.2-0.3-0.1
		s-0.1,0.1-0.2,0c0,0,0,0,0,0c0,0,0,0,0,0c0,0,0,0,0,0c0-0.1-0.1-0.2-0.1-0.2c0,0,0-0.1,0.1,0c0.2,0.1,0.2,0.1,0.3,0
		c0.1,0,0.1-0.1,0.1-0.1c0-0.1,0.1-0.1,0.1-0.2c-0.1-0.1,0.1-0.2-0.1-0.1c-0.1,0.1-0.2,0.2-0.3,0.1c-0.1-0.1-0.1-0.1-0.2-0.1
		c0,0,0,0,0.1,0c0,0,0,0,0,0c0,0,0,0,0.1,0c0.1,0,0.2,0,0.1-0.2c0,0,0,0,0,0c0,0,0,0,0-0.1c0-0.1,0.1-0.3,0-0.2
		c-0.1,0.1-0.2,0.1-0.2,0.1c0-0.1-0.1-0.1,0-0.2c0.1-0.1,0.1-0.1,0.1-0.2c0-0.1-0.1-0.2,0.1-0.2c0.2,0.1,0.1,0.1,0.3,0.1
		c0.1-0.1,0-0.2,0-0.2s0.2,0.1,0.1-0.1c-0.1-0.2-0.1-0.3-0.1-0.3s-0.1-0.1-0.1-0.2s-0.2-0.1-0.1-0.2s0.2,0.1,0.3,0
		c0.1,0,0.2-0.1,0.1-0.1c-0.1,0-0.3,0-0.4-0.1s0-0.2-0.1-0.3c-0.1,0,0-0.1,0-0.2c0-0.1-0.1-0.1-0.2-0.3c0-0.2,0.2-0.2,0-0.2
		c-0.2,0-0.1-0.2-0.3-0.1c-0.2,0.1-0.1,0-0.2,0c-0.1,0-0.1-0.2-0.2-0.1c-0.1,0.1-0.2,0.2-0.3,0.2c-0.1,0-0.2,0.1-0.1,0
		c0-0.1-0.1-0.1,0-0.2c0.1-0.1,0.1,0,0.1-0.1c0-0.1,0.1-0.1,0.2-0.1c0.1,0,0.3-0.1,0.3-0.2c0-0.1,0-0.2,0.1-0.2
		c0.1-0.1,0.2,0,0.1-0.2s-0.1-0.1-0.2-0.2c-0.1-0.1,0-0.2-0.1-0.1c-0.1,0.1-0.1,0.1-0.2,0.1s-0.1,0-0.1,0.1c0,0.1,0.1,0.1,0,0.2
		c-0.1,0.1,0,0.1-0.1,0.1c-0.1-0.1-0.1-0.1-0.2-0.1c-0.1,0-0.1,0-0.1-0.1c0-0.2,0.1-0.3,0-0.4c0-0.1-0.2-0.3-0.2-0.3s0,0-0.1-0.2
		c-0.1-0.2-0.2-0.3-0.2-0.2s-0.3-0.1-0.3,0.1c-0.1,0.1-0.1,0.2-0.2,0.1s-0.2-0.1-0.1-0.2c0.1-0.1,0.2-0.2,0.3-0.2
		c0,0,0.1-0.2,0.1-0.3c0,0,0.2-0.3-0.1-0.1c-0.2,0.2-0.4,0.2-0.4,0.2s0,0-0.1,0c0,0,0,0-0.1-0.1c-0.1-0.1,0-0.2-0.1-0.3
		c-0.1-0.1-0.1-0.2-0.1-0.1c-0.1,0.1-0.1,0.2-0.2,0.1c0-0.2-0.1-0.2-0.1-0.3c0-0.1,0-0.1-0.1-0.2c0-0.1,0-0.2,0-0.3
		c0-0.1,0-0.2-0.1-0.2c-0.1,0-0.3,0.1-0.2-0.1c0.1-0.1,0.1-0.2,0-0.3c-0.1-0.1-0.2-0.1-0.2-0.1s0.1-0.2,0.1-0.3c0-0.1,0-0.1,0-0.2
		c0,0,0.1-0.1,0-0.2c-0.2,0-0.2,0-0.2-0.1c0-0.1-0.1,0-0.1-0.2c0-0.1-0.1-0.1-0.1-0.2c0,0,0-0.1-0.1-0.1c-0.1,0.1-0.1,0.2-0.2,0.2
		c-0.1,0-0.2-0.1-0.2-0.1c0-0.1,0.1-0.1,0.1-0.2c0-0.1,0-0.3-0.1-0.2c-0.1,0.1-0.2,0.1-0.2-0.1c0-0.1,0-0.2,0-0.2
		c-0.1,0-0.1,0-0.2,0c-0.2,0.1-0.4-0.1-0.3,0c0.1,0.1,0.1,0.2,0.1,0.3c0,0.1-0.1,0.2-0.1,0.3c0,0-0.1-0.3-0.2-0.3
		c-0.1,0.1-0.1,0.1-0.3,0c-0.2-0.1-0.3-0.2-0.4-0.3c-0.1,0-0.2-0.1-0.2-0.2c-0.1-0.1-0.1-0.1-0.2-0.1c-0.1,0-0.2,0-0.3,0
		c-0.1,0-0.1-0.2-0.3-0.2c-0.2,0-0.2,0-0.3,0.1c-0.1,0.1-0.1,0.2-0.2,0.3c-0.1,0.1-0.1,0.1,0,0.2c0.1,0.1,0.1,0.1,0.1,0.1
		c0,0-0.1,0-0.1,0c0,0-0.1,0-0.1,0.1c0,0.1,0,0.1,0,0.1c0,0-0.1,0-0.1,0.1c-0.1,0.1-0.1,0.1-0.1,0.2c-0.1,0.1-0.1,0.1-0.1,0.2
		c0,0.1,0,0.1,0,0.1c0,0,0.1-0.1,0.1-0.1c0.1,0,0,0.1,0.1,0.1c0.1,0,0.1,0,0.1-0.1c0.1-0.1,0.2-0.1,0.2,0s-0.1,0.1-0.1,0.2
		c0,0.1,0,0.1,0,0.1c0,0,0.1,0,0.1,0.1c0,0.1-0.1,0.2-0.1,0.2s-0.1,0-0.1-0.1s-0.3-0.1-0.3-0.1s-0.2,0-0.1,0.1c0,0.1-0.1,0.2,0,0.2
		c0,0,0.2,0,0.2,0s0,0.2-0.1,0.2c-0.1,0-0.1-0.1-0.2-0.1c-0.1,0-0.1,0-0.2,0c-0.1,0-0.3,0-0.3,0s0-0.2-0.1-0.1c-0.1,0-0.1,0.1-0.1,0
		c0-0.1,0.1-0.1,0-0.2c-0.1-0.1-0.1-0.1-0.1-0.2c0-0.1,0,0,0-0.2c0-0.2,0.1-0.1,0.1-0.1s0.1,0,0.2,0.2c0.1,0.1,0.2,0.1,0.2,0.1
		s-0.1-0.1-0.2-0.2c0-0.1,0-0.2-0.1-0.3c0-0.1,0-0.1,0-0.2c0,0-0.1-0.1,0-0.2c0.2-0.1,0.2,0.1,0.2,0.1s0.1-0.1,0.1-0.2
		s0-0.1-0.1-0.1c-0.1-0.1,0-0.1-0.2-0.3c-0.1-0.2-0.2-0.3-0.3-0.2c-0.1,0.1-0.1,0.3-0.1,0.4c0,0,0,0.2-0.1,0.2c0,0-0.2-0.1-0.3-0.1
		c-0.1,0-0.1,0.1-0.2,0.1c-0.1,0.1,0,0.1-0.1,0.2c-0.1,0.1-0.1,0-0.2-0.1c0-0.1,0-0.2,0-0.2c0-0.1-0.1-0.2-0.2-0.1
		c-0.1,0.1,0,0.3-0.1,0.3c-0.1,0.1-0.2,0.1-0.3,0c0,0-0.1,0-0.1,0c0,0.1,0,0.1-0.1,0.1c-0.1,0-0.1-0.1-0.2-0.1
		c-0.1,0-0.3,0.2-0.3,0.2s-0.1,0.1,0,0.1c0.1,0.1,0.1,0.1,0.1,0.2c0,0.1,0.1,0.1,0.2,0.1c0.1,0,0.2,0.1,0.1,0.2c0,0.1,0.2,0.3,0,0.1
		c-0.2-0.2-0.2-0.2-0.2-0.2c0,0.1,0.2,0.2,0,0.1c-0.2-0.1-0.2,0-0.2-0.1c0-0.1,0.1-0.2,0-0.2C84,41.9,84,42,84,42c0,0,0,0.1-0.1-0.1
		c-0.1-0.2-0.1-0.2-0.1-0.3c0-0.1,0.1-0.2,0.1-0.3s0-0.2-0.1-0.2c-0.1,0-0.1,0.1-0.2,0c-0.1-0.1,0-0.2-0.2-0.2c-0.2,0-0.2,0-0.3-0.1
		c-0.1,0-0.1-0.3-0.3-0.2c-0.2,0-0.2,0.1-0.3,0c-0.1-0.1,0,0-0.2-0.1c-0.2-0.1-0.1-0.2-0.2-0.1c-0.1,0.1-0.1,0.2-0.2,0.2
		c-0.1,0.1,0,0.1-0.1,0.2c-0.1,0.1-0.2,0-0.2,0.1s0,0.1,0,0.1s-0.1,0-0.1,0.1c0,0.1-0.2,0.1-0.2,0.2c0,0.1-0.2,0.1-0.3,0.2
		c-0.1,0,0,0.2-0.1,0.3c-0.1,0.1-0.2,0-0.1,0.2c0.1,0.2,0.3,0,0.1,0.2c-0.1,0.3-0.1,0.4-0.1,0.4c0.1,0,0.1,0.1,0.1,0
		c0,0,0.2-0.1,0.3,0c0,0.1-0.1,0.1,0.1,0.1c0.2,0,0.2,0.1,0.2,0.1c0,0,0.1,0.1,0.1,0.1c0.1,0,0.1,0,0.2-0.1c0-0.1,0.2-0.2,0.2-0.1
		c0,0.1-0.2,0.3-0.2,0.3l0.1,0.2c0,0,0.1-0.1,0.2-0.1c0,0,0.2-0.1,0.1,0.1c0,0.1-0.1,0.3-0.2,0.3c-0.1,0.1-0.1,0.2-0.1,0.2
		c0.1,0,0.2,0,0.2,0s0.1-0.2,0.1-0.2c0.1,0,0.1-0.1,0.1-0.1c0.1,0,0.3-0.2,0.2,0c-0.1,0.2-0.2,0.3-0.2,0.3c0,0,0.1,0,0,0.1
		c-0.1,0.1,0,0.1,0,0.2s-0.1,0.3-0.2,0.2c0-0.1,0.2-0.4,0-0.3C82.1,44,82,44,82,44.1c0.1,0.1,0.2,0.1,0.1,0.2
		C82,44.3,82,44.4,82,44.4c0,0,0.1-0.2-0.1-0.2c-0.1,0-0.2,0-0.2,0c-0.1,0,0-0.1,0-0.2c0-0.1,0.2-0.1,0-0.2c-0.1-0.1-0.2,0-0.2-0.1
		c0-0.2,0.1,0,0.1-0.2c-0.1-0.2-0.1-0.2-0.1-0.2c-0.1-0.1-0.1-0.2-0.2-0.3c-0.1-0.1-0.3,0-0.3,0s0.1-0.1-0.1-0.1
		c-0.1,0.1-0.1,0.1-0.1,0.2c0,0.1-0.1-0.1-0.2-0.1c0-0.1-0.1-0.2-0.1-0.1c-0.1,0.1-0.2,0.2-0.2,0.1c-0.1-0.1,0-0.1-0.1-0.2
		c-0.1-0.1-0.2,0-0.3-0.1c-0.1-0.1,0-0.1-0.1-0.2c-0.2,0-0.1-0.1-0.2,0s-0.2-0.1-0.1,0.1c0,0.2-0.1,0.2-0.2,0.2c-0.1,0-0.1,0-0.2,0
		c-0.1,0-0.2,0.2-0.2,0c0-0.2,0.1-0.2-0.1-0.2c-0.1,0-0.3,0-0.3,0c-0.1,0.1,0,0.1,0,0.2c0,0.1-0.1,0.1,0,0.2c0.1,0,0.2,0,0.2,0
		c0,0,0,0.2,0.1,0.2c0.1,0.1,0,0.2-0.1,0.2c-0.1,0-0.1-0.1-0.2-0.1s-0.1,0-0.1-0.1c0-0.1,0-0.1-0.1-0.1c-0.1,0-0.1-0.2-0.2-0.1
		c-0.1,0-0.1,0.1-0.2,0.2s-0.2,0.2,0,0.2c0.1,0,0.2,0.1,0.2,0.1c0,0,0.3,0,0.3,0c0,0,0,0.1-0.1,0.1c-0.1,0-0.3-0.1-0.4,0
		c-0.1,0.1-0.2,0.2-0.3,0.2s-0.1,0-0.1,0.2c0,0.2,0,0.3,0,0.4c0,0.1-0.1,0.2-0.2,0.3c-0.1,0.1,0,0.2-0.1,0.2c-0.1,0-0.2,0-0.3,0
		c-0.1,0-0.2,0.1-0.2,0.2c0,0.1,0,0.2,0,0.2c0,0.1-0.1,0-0.1,0c-0.1,0-0.1,0.1-0.1,0.1c0,0.1,0.1,0,0,0.2c-0.1,0.1-0.1,0.1-0.2,0.2
		c-0.1,0-0.1-0.1-0.2,0.1c-0.1,0.1-0.1,0.2-0.2,0.3c-0.1,0-0.2,0-0.2,0.1c-0.1,0.1-0.1,0.2-0.1,0.2c0,0.1,0.1,0.1,0,0.2
		c-0.1,0.1-0.2,0.1-0.1,0.2c0.1,0.1,0.1,0.2,0.1,0.3c0,0.1,0,0.1,0.1,0.2c0.1,0,0.1,0.2,0.1,0.2s0.1,0-0.1,0.1c-0.1,0-0.2-0.1-0.2,0
		c-0.1,0.1-0.1,0.1-0.2,0.1c-0.1,0,0,0.1-0.1,0c-0.1,0-0.1-0.1-0.2-0.1c0,0.1,0,0.1,0,0.2c0,0.1,0.1,0.1,0.1,0.2
		c0,0.1,0,0.2,0.1,0.1c0.1-0.1,0.1-0.1,0.1-0.1s0.1,0.1,0,0.2c-0.1,0.1-0.2,0-0.2,0c-0.1,0-0.2-0.1-0.2-0.1c0,0-0.1,0.1-0.1,0.1
		c0,0.1,0.2,0.1,0.2,0.2c0,0.1,0.1,0.1,0.1,0.1c0,0,0,0.1-0.1,0.1c-0.1,0-0.1,0.1-0.2,0.1c-0.1,0.1-0.1,0.2-0.2,0.1
		c0-0.1-0.1-0.1-0.1,0s-0.1,0.2,0,0.3c0.1,0.1,0.2,0.1,0.2,0.1L75,49c0,0,0.1,0,0.1,0.1c0,0-0.1,0.2-0.1,0.3l-0.3,0.3c0,0,0,0,0,0
		c-0.1,0-0.1,0-0.2-0.1c0-0.1-0.1-0.2-0.2-0.1c-0.1,0.1-0.1,0-0.1,0.1c0,0.2-0.1,0.1,0,0.2c0,0.1,0.1,0.1,0.1,0.1s0.1,0.1,0.1,0.1
		l-7.8,8.5v-6.4l1.5,0l-1.3-8.2c0.5-0.9,1.2-2,2.4-2.7c0.7-0.5,1.7-0.8,2.8-0.8c0.5,0,1.3,0.1,1.3,0.1c0,0.1-0.1,0.4-0.1,0.4
		s-0.2,0.1-0.1,0.2c0,0.1,0.2,0.1,0.2,0.1c0,0,0,0,0.1,0.1c0.1,0,3.2,0.5,3.3,0.5c0.2,0,0.6-0.2,0.6-0.3c0.1-0.1,0.1-0.2,0.1-0.2
		s0.2-0.1,0.1-0.2c0,0-0.2-0.1-0.2-0.1s-0.1-0.1-0.1-0.1c0,0-3.3-0.7-3.4-0.7c-0.1,0-0.2,0-0.2,0c0,0-0.1,0-0.1,0
		c-0.1,0-0.1,0-0.1,0s-1-0.2-1.5-0.2c-1.2,0-2.3,0.3-3,0.7c-1.1,0.7-1.8,1.5-2.3,2.3l0-2.5l0.1-0.1v-0.9h-0.6L66.3,39h-1.1v0.6h-0.5
		v0.8l0.1,0.2v3h-9h-0.6L55,43.4c-0.1-1.9-0.1-3.1-0.1-3.2c0-0.9,0-2.9,0.2-4.8c0.2-1.6,0.7-3,1-3.7c0.5-1.5,2-3.8,4.6-5.3
		c1.2-0.6,2.8-1.1,4.7-1.1c0.8,0,2.2,0.2,2.2,0.2c-0.1,0.1-0.1,0.5-0.1,0.5s-0.3,0.2-0.2,0.3c0,0.1,0.3,0.1,0.3,0.1
		c0.1,0,0.1,0.1,0.2,0.1c0.1,0,5.2,0.7,5.5,0.7c0.3,0,0.9-0.3,1-0.4c0.1-0.1,0.1-0.2,0.1-0.2s0.4-0.1,0.2-0.2c0,0-0.3-0.1-0.3-0.1
		S74.1,26,74,26c-0.1,0-5.5-0.9-5.6-0.9c-0.1,0-0.3,0.1-0.3,0.1c-0.1,0-0.1,0-0.2,0c-0.1,0-0.2,0.1-0.2,0.1s-1.6-0.2-2.4-0.2
		c-2,0-3.8,0.4-4.9,1c-3.6,2-4.8,4.8-5.1,5.5c-0.3,0.8-0.8,2.1-1.1,3.7c-0.3,1.8-0.3,4.9-0.3,4.9l0.1,2.4l-5.8-4.4l-0.6,0.6l-9-7.6
		l-6,5.7c0-0.1,0.1-0.2,0-0.3c0-0.2-0.2-0.1-0.2-0.4c0-0.2,0.2-0.3,0-0.3c-0.3-0.1-0.1-0.3-0.4-0.2c-0.2,0.1-0.1,0-0.2-0.1
		c-0.1,0-0.1-0.2-0.3-0.1c-0.1,0.1-0.3,0.2-0.4,0.3c-0.1,0-0.2,0.2-0.2,0c0-0.2-0.1-0.1,0-0.3c0.1-0.1,0.1,0,0.1-0.1
		s0.2-0.1,0.3-0.1s0.4-0.1,0.3-0.3c0-0.1,0-0.2,0.1-0.3s0.2-0.1,0.1-0.2c-0.1-0.2-0.2-0.1-0.3-0.3c-0.1-0.1,0-0.3-0.1-0.1
		c-0.1,0.2-0.2,0.2-0.2,0.2c-0.1,0-0.2,0-0.2,0.1c0,0.1,0.1,0.2,0,0.3c-0.1,0.1-0.1,0.2-0.2,0.1c-0.1-0.1-0.1-0.2-0.2-0.2
		s-0.1,0.1-0.1-0.2c0-0.2,0.1-0.5,0-0.6c-0.1-0.1-0.3-0.4-0.3-0.4s0,0-0.2-0.3c-0.2-0.3-0.2-0.4-0.3-0.3c-0.1,0.1-0.3-0.1-0.4,0.1
		c-0.1,0.2-0.2,0.3-0.3,0.2c-0.1-0.1-0.3-0.2-0.1-0.3c0.1-0.1,0.3-0.2,0.3-0.3s0.1-0.3,0.1-0.4c0-0.1,0.2-0.4-0.1-0.1
		c-0.3,0.3-0.5,0.3-0.5,0.3s0,0-0.1,0c-0.1,0,0-0.1-0.1-0.1c-0.1-0.1,0-0.3-0.1-0.4c-0.1-0.1-0.1-0.2-0.2-0.1s-0.2,0.3-0.2,0.1
		C28,31.5,28,31.5,28,31.3c0-0.2-0.1-0.2-0.1-0.3c-0.1-0.1,0-0.2-0.1-0.4c0-0.1,0-0.2-0.1-0.3c-0.1,0-0.4,0.1-0.3-0.1
		c0.1-0.2,0.2-0.3,0-0.4c-0.2-0.1-0.2-0.2-0.2-0.2s0.1-0.3,0.1-0.4c0-0.1,0-0.2,0-0.3c0-0.1,0.2-0.2,0-0.3c-0.2-0.1-0.2,0-0.3-0.1
		c-0.1-0.1-0.1,0-0.1-0.2c0-0.2-0.1-0.2-0.1-0.2c-0.1-0.1-0.1-0.2-0.2-0.1c-0.1,0.1-0.1,0.3-0.2,0.2c-0.1-0.1-0.3-0.1-0.2-0.2
		c0.1-0.1,0.1-0.1,0.1-0.3c0-0.2,0-0.4-0.1-0.3c-0.1,0.1-0.3,0.1-0.3-0.1c0-0.2,0-0.3-0.1-0.3c-0.1,0-0.1-0.1-0.3,0
		c-0.2,0.1-0.5-0.2-0.3,0c0.2,0.2,0.2,0.3,0.2,0.4c0,0.1-0.1,0.3-0.2,0.4c0,0.1-0.1-0.5-0.3-0.4c-0.2,0.1-0.1,0.2-0.4,0
		c-0.2-0.2-0.4-0.3-0.6-0.4c-0.2,0-0.2-0.2-0.3-0.3c-0.1-0.1-0.1-0.2-0.2-0.2s-0.2,0-0.4,0c-0.1-0.1-0.2-0.3-0.4-0.3
		c-0.2,0-0.3,0-0.4,0.2C22,26.8,22,27,21.9,27.1c-0.1,0.1-0.1,0.2,0,0.3c0.1,0.1,0.2,0.1,0.2,0.1c0,0.1-0.1,0.1-0.2,0.1
		c-0.1,0-0.2,0-0.2,0.1c0,0.1,0,0.1,0,0.2c0,0.1-0.1,0.1-0.2,0.2c-0.1,0.1-0.1,0.1-0.2,0.2c-0.1,0.1-0.1,0.1-0.2,0.2
		c-0.1,0.1,0,0.2,0.1,0.2c0,0,0.1-0.1,0.2-0.1c0.1,0,0.1,0.1,0.2,0.1c0.1,0,0.1,0,0.2-0.1c0.1-0.1,0.2-0.1,0.2,0s-0.1,0.2-0.2,0.3
		c-0.1,0.1,0,0.1,0,0.2c0,0,0.2,0.1,0.1,0.2c-0.1,0.1-0.2,0.2-0.2,0.2s-0.1,0-0.1-0.1c0-0.1-0.3-0.2-0.3-0.2s-0.2,0-0.2,0.1
		c0.1,0.1-0.1,0.3-0.1,0.3c0,0.1,0.2,0.1,0.2,0.1s0,0.2-0.1,0.2c-0.1,0-0.2-0.1-0.3-0.1c-0.1,0-0.2,0-0.3,0c-0.2,0-0.4,0-0.4,0
		s0-0.2-0.1-0.2c-0.1,0.1-0.2,0.2-0.1,0c0-0.2,0.1-0.2,0-0.3C20,29.2,20,29.1,20,28.9c0-0.1,0,0-0.1-0.2c0-0.2,0.1-0.2,0.1-0.2
		s0.2,0.1,0.2,0.2c0.1,0.2,0.3,0.1,0.3,0.1s-0.2-0.2-0.2-0.3c0-0.2,0-0.3-0.1-0.4c-0.1-0.1,0-0.2,0-0.2c0-0.1-0.2-0.2,0.1-0.3
		c0.2-0.1,0.3,0.1,0.3,0.1s0.2-0.1,0.1-0.3c-0.1-0.1-0.1-0.1-0.2-0.2c-0.1-0.1-0.1-0.1-0.2-0.4s-0.2-0.5-0.3-0.3
		c-0.1,0.2-0.2,0.5-0.1,0.5c0,0.1-0.1,0.3-0.1,0.3c0,0-0.2-0.2-0.3-0.1c-0.1,0.1-0.1,0.1-0.3,0.2c-0.1,0.1,0,0.1-0.1,0.3
		c-0.1,0.1-0.2,0-0.2-0.1c0-0.1,0-0.2,0-0.3c0-0.1-0.1-0.3-0.3-0.1c-0.2,0.2,0,0.4-0.1,0.5c-0.1,0.1-0.3,0.1-0.3,0
		c0-0.1-0.1,0-0.1,0.1c0,0.1,0,0.2-0.1,0.2c-0.1,0-0.2-0.1-0.2-0.1c-0.1,0-0.3,0.2-0.3,0.2s-0.1,0.1,0.1,0.2
		c0.1,0.1,0.1,0.1,0.2,0.2c0,0.1,0.1,0.1,0.2,0.2c0.1,0.1,0.2,0.2,0.2,0.3c0,0.1,0.2,0.4,0,0.1c-0.2-0.2-0.2-0.3-0.2-0.2
		c0,0.1,0.2,0.3,0,0.2c-0.2-0.1-0.2-0.1-0.2-0.2c0-0.1,0.1-0.3,0-0.3c-0.2,0-0.2,0.1-0.3,0.1c0,0,0,0.2-0.1-0.2
		c-0.1-0.3-0.1-0.2-0.1-0.4c0-0.2,0.1-0.2,0.1-0.4c0-0.1,0-0.3-0.1-0.3c-0.1,0-0.2,0.2-0.3,0c-0.1-0.2,0-0.3-0.2-0.3
		c-0.2-0.1-0.2,0-0.3-0.1c-0.1,0-0.2-0.4-0.4-0.3c-0.2,0-0.3,0.1-0.4,0c-0.1-0.1,0,0-0.3-0.1c-0.2-0.1-0.2-0.3-0.3-0.1
		c-0.1,0.2-0.1,0.3-0.2,0.3c-0.1,0.1,0,0.2-0.2,0.3c-0.1,0.1-0.3,0-0.3,0.1c0,0.1,0,0.1,0,0.1s-0.1,0-0.1,0.1
		c-0.1,0.1-0.2,0.2-0.3,0.2c0,0.1-0.2,0.2-0.3,0.2c-0.1,0,0,0.2-0.1,0.4c-0.1,0.1-0.3,0-0.2,0.2c0.1,0.2,0.3,0,0.2,0.3
		c-0.2,0.4-0.2,0.5-0.1,0.6s0.1,0.1,0.2,0c0.1-0.1,0.3-0.2,0.3,0c0,0.1-0.1,0.1,0.1,0.1c0.3,0,0.3,0.1,0.3,0.2
		c0,0.1,0.1,0.1,0.2,0.1c0.1,0,0.2,0,0.2-0.1c0-0.1,0.2-0.2,0.2-0.2c0,0.1-0.2,0.4-0.2,0.4l0.1,0.3c0,0,0.2-0.1,0.2-0.1
		c0.1,0,0.2-0.1,0.2,0.1c-0.1,0.2-0.1,0.4-0.2,0.5c-0.1,0.1-0.2,0.2-0.1,0.3c0.1,0,0.3,0.1,0.3,0.1s0.1-0.3,0.2-0.3
		c0.1,0,0.1-0.1,0.2-0.2c0.1-0.1,0.4-0.3,0.2,0c-0.2,0.3-0.2,0.4-0.3,0.5c0,0.1,0.2,0.1,0.1,0.2c-0.1,0.1,0,0.1,0.1,0.3
		c0,0.1-0.2,0.5-0.2,0.3c-0.1-0.1,0.2-0.5-0.1-0.4c-0.3,0.1-0.4,0.1-0.3,0.2c0.1,0.1,0.3,0.1,0.2,0.3c-0.2,0.1-0.2,0.2-0.3,0.2
		c0-0.1,0.1-0.2-0.1-0.2c-0.2,0-0.2,0-0.3,0c-0.1-0.1,0-0.2,0-0.3c0.1-0.1,0.2-0.1,0.1-0.2c-0.1-0.1-0.2,0-0.2-0.2
		c0-0.2,0.2-0.1,0.1-0.3c-0.1-0.2-0.1-0.2-0.2-0.3c-0.1-0.1-0.1-0.3-0.2-0.4c-0.2-0.1-0.5,0-0.5,0s0.1-0.2-0.1-0.1
		c-0.2,0.1-0.1,0.1-0.1,0.3c0,0.1-0.2-0.1-0.2-0.2c0-0.1-0.1-0.3-0.2-0.2c-0.1,0.1-0.2,0.2-0.3,0.1c-0.1-0.1,0-0.2-0.1-0.3
		c-0.2-0.1-0.3,0-0.4-0.1c-0.1-0.1,0-0.2-0.2-0.3c-0.2-0.1-0.2-0.1-0.3,0c-0.2,0.1-0.2-0.1-0.2,0.1c0,0.2-0.1,0.3-0.2,0.3
		c-0.1,0-0.2-0.1-0.3-0.1c-0.1,0-0.2,0.3-0.3,0c0-0.2,0.1-0.3-0.1-0.3c-0.2,0.1-0.3,0-0.4,0.1c-0.1,0.1,0,0.2,0,0.3
		c0,0.1-0.2,0.2,0,0.3c0.2,0.1,0.3,0,0.3,0.1c0,0,0,0.3,0.1,0.3s0,0.2-0.1,0.3c-0.1,0.1-0.2-0.1-0.2-0.1c-0.1,0-0.1,0-0.1-0.2
		c0-0.1-0.1-0.1-0.1-0.2c-0.1,0-0.1-0.2-0.3-0.2c-0.2,0.1-0.2,0.1-0.2,0.3C8.9,30.9,8.8,31,9,31c0.2,0,0.2,0.1,0.3,0.1
		c0,0,0.4,0,0.5,0c0,0.1,0,0.1-0.1,0.2c-0.1,0-0.4-0.1-0.5-0.1c-0.1,0.1-0.3,0.3-0.4,0.3c0,0-0.2,0-0.1,0.3c0,0.3,0,0.4-0.1,0.6
		c0,0.2-0.1,0.3-0.3,0.4c-0.1,0.1,0,0.3-0.2,0.3c-0.1,0-0.2,0-0.4,0c-0.1,0.1-0.2,0.1-0.2,0.2c0,0.1,0.1,0.3,0,0.3
		c-0.1,0.1-0.1-0.1-0.2,0c-0.1,0-0.1,0.1-0.2,0.2c0,0.1,0.1,0,0,0.2c-0.1,0.2-0.1,0.2-0.3,0.2c-0.1,0.1-0.1-0.1-0.3,0.1
		c-0.2,0.2-0.1,0.3-0.3,0.4c-0.2,0.1-0.2,0-0.3,0.2c-0.1,0.2-0.1,0.2-0.1,0.3c0,0.1,0.1,0.2,0,0.3c-0.1,0.1-0.3,0.1-0.1,0.2
		c0.1,0.2,0.1,0.3,0.2,0.4c0,0.1,0,0.2,0.2,0.3c0.2,0.1,0.2,0.3,0.2,0.3s0.1,0.1-0.1,0.1c-0.2,0.1-0.2-0.1-0.3,0
		c-0.1,0.1-0.1,0.2-0.2,0.2c-0.1,0,0,0.1-0.1,0c-0.1-0.1-0.2-0.2-0.2-0.1c0,0.1,0,0.1,0,0.2c0,0.1,0.1,0.1,0.1,0.3
		c0,0.1,0,0.3,0.1,0.2c0.1-0.1,0.2-0.1,0.2-0.1s0.1,0.2,0,0.3c-0.2,0.1-0.2,0-0.3,0c-0.1,0-0.2-0.1-0.3-0.1c0,0-0.2,0.1-0.1,0.2
		c0.1,0.1,0.2,0.2,0.3,0.2c0,0.1,0.1,0.1,0.1,0.1c0,0,0,0.1-0.1,0.2c-0.1,0-0.2,0.1-0.3,0.2c-0.1,0.1-0.2,0.2-0.2,0.1
		c0-0.1-0.1-0.1-0.1,0s-0.2,0.2,0,0.4C5,39.2,5,39.2,5,39.2L5.2,39c0,0,0.1,0,0.1,0.1c0,0.1-0.2,0.4-0.2,0.5C5,39.6,5,39.8,5,39.8
		s-0.2,0.1-0.2,0.1c-0.1,0-0.2-0.1-0.2-0.1c0-0.1-0.1-0.2-0.2-0.1c-0.1,0.1-0.1,0-0.2,0.2c0,0.2-0.1,0.1,0,0.2
		c0,0.1,0.1,0.2,0.1,0.2s0.2,0.2,0.3,0.1c0.1-0.1,0.3-0.2,0.3-0.1s-0.3,0.4-0.3,0.4c0,0-0.3-0.1-0.2,0.1C4.3,40.9,4.5,41,4.5,41
		s0.1,0.2,0.2,0.2c0,0.1-0.1,0.3,0.1,0.2c0.2-0.1,0.2-0.1,0.3-0.1s0.2,0,0.2,0.1c0,0.1-0.1,0.1-0.2,0.3C5,41.8,5.1,41.9,5,42
		c-0.2,0.1-0.2,0.2-0.2,0c-0.1-0.1-0.2-0.2-0.3-0.2c-0.1,0.1-0.1,0.1-0.2,0.1c-0.1,0-0.1-0.2-0.2,0c-0.1,0.3-0.1,0.2-0.1,0.3
		s0,0.1-0.1,0.2c-0.1,0.1-0.2,0-0.2,0.3c0,0.3,0.1,0.4,0.3,0.4c0.2,0,0.2,0.1,0.3,0.2c0,0,0.1-0.1,0.1-0.3C4.1,43,4,42.9,4,42.7
		c0.1-0.2,0.1-0.7,0.2-0.3c0,0.4,0.1,0.6,0.1,0.7c0,0.1,0.1,0.2,0.2,0.2s0.1-0.1,0.2,0c0,0.1,0,0.1-0.1,0.2c-0.1,0-0.1-0.1-0.3,0
		c-0.2,0.1-0.2,0.2-0.2,0.3s0.1,0.1,0,0.2C4,44.2,4,44.3,4,44.3s0.1,0.2,0.2,0c0.1-0.2,0.4,0,0.4-0.2c0-0.2,0.1-0.2,0.1-0.2
		s0,0.1,0.2,0c0.1,0,0.2,0,0.3-0.1c0.1-0.1,0.2,0,0.2,0.2c0,0.2-0.2,0.3,0,0.4c0,0,0,0,0,0.1c0,0.1,0.2,0.2,0.3,0.2
		c0.1,0,0.1,0,0.3,0c0.1,0,0.2,0,0.3-0.1c0,0,0,0,0,0c0,0,0,0,0.1,0.1c0.1,0.1,0.1,0.3,0.1,0.4c0,0.1-0.1,0.3-0.3,0.1
		C6,45,6,44.9,5.9,44.9c-0.1,0-0.3,0-0.4,0c-0.1,0-0.1-0.1-0.2-0.2c-0.1-0.1-0.1-0.3-0.2-0.2c-0.2,0.2-0.2,0.2-0.2,0
		c0-0.2-0.1-0.2-0.1-0.2s-0.1,0.3-0.1,0.2s0.1-0.4-0.1-0.3c-0.2,0-0.6,0.2-0.6,0.2s-0.2-0.1-0.3-0.1s-0.1,0.4-0.1,0.4S3.8,45,3.9,45
		c0.1,0,0.2-0.2,0.2-0.2s0-0.1,0.2-0.1c0.1,0.1,0.3,0,0.1,0.2c-0.2,0.2-0.2,0.2-0.3,0.3c-0.1,0.1-0.3,0.4-0.3,0.2
		c-0.1-0.1-0.1-0.3-0.2-0.3c-0.1,0,0.2-0.2-0.2-0.1c-0.4,0.2-0.4,0.2-0.5,0.2c-0.1,0,0,0-0.2,0.2c-0.2,0.2-0.4,0-0.4,0.3
		c0,0.3,0,0.4,0,0.5s0.2,0.1,0.2,0.2c0,0.1,0,0.2,0.1,0.1c0.1-0.1,0.1-0.1,0.2-0.1c0.2,0,0.1,0.1,0.3,0.1c0.1,0,0.2,0,0.3,0.2
		s0.1,0.1,0.3,0.2c0.1,0,0.2,0.3,0.1,0.4c-0.1,0.1-0.1,0-0.2-0.1C3.4,47.2,3.4,47,3.3,47c-0.1,0-0.1-0.1-0.3,0
		c-0.2,0.1-0.1,0.1-0.2,0.1c-0.1,0.1,0,0.1-0.2,0C2.2,47.1,2.1,47,2,47.2c-0.1,0.2-0.1,0.1-0.2,0.3c-0.1,0.2-0.1,0.1-0.2,0.3
		s0.1,0.3,0.1,0.3c0,0.1-0.1,0.1,0,0.3c0.1,0.2,0,0.3,0,0.4c0,0.1,0.3,0.2,0.3,0.2s0,0.1,0.1-0.1c0.1-0.2,0-0.3,0.1-0.3
		c0.1,0,0.2,0.4,0.3,0.4c0.1,0,0.2,0,0.1,0.2c-0.1,0.1-0.2,0.1-0.3,0.2c-0.1,0.1-0.1,0.3-0.1,0.3c0,0.1-0.1,0.2-0.1,0.3
		c0,0.1,0,0.3-0.1,0.2c-0.1-0.1-0.2-0.2-0.2-0.2c-0.1,0-0.1,0-0.1,0c0,0.1-0.2,0-0.2,0.1c0,0.1-0.1,0.1,0.1,0.3
		c0.1,0.2,0.1,0.2,0.2,0.3c0.1,0,0.3-0.1,0.2,0.1c0,0.1,0.1,0.1,0.1,0.2c0,0.1-0.1,0.1-0.2,0.2s0,0.3,0,0.3s0.1-0.1,0.2-0.1
		c0.1,0,0.1,0.1,0.2,0.2c0,0.1,0.1,0.1,0.2,0c0-0.1,0.1,0.1,0,0.2c0,0.1-0.2,0.1-0.2,0.2c0,0.1,0,0.3,0,0.3c0,0.1,0,0.2-0.1,0.3
		c-0.1,0.1,0,0.1-0.1,0.2S2,53.2,2.1,53.2c0.1,0.1,0.2,0.1,0.2,0.1s0.2-0.2,0.2-0.2s0.1,0.2,0.2,0.2c0.1,0,0.1,0,0.1-0.2
		c0-0.2-0.1-0.4,0-0.4c0.1,0,0.1,0.2,0.2,0.1c0.1-0.2-0.1-0.2-0.1-0.3c0-0.1,0-0.1,0.1-0.1c0.1,0,0.1-0.2,0-0.2
		c-0.1,0-0.1-0.1-0.1-0.2c0-0.1,0-0.2,0.1-0.3c0-0.1,0-0.2,0.1-0.2c0.1,0,0.1,0,0.2,0.2c0.2,0.2,0.1,0.3,0.2,0.2s0-0.2,0.2-0.2
		c0.2,0,0.2-0.1,0.2,0.1C3.9,52,4,52.2,4.1,52c0,0,0.1-0.1,0.1-0.1c0.1,0,0.2,0,0.2-0.1c0-0.2,0-0.2,0.1-0.3c0.1,0,0.2,0.1,0.1-0.1
		c-0.2-0.3,0-0.4-0.2-0.5c-0.2,0-0.5,0.2-0.5,0.2s-0.1,0-0.1-0.2c0-0.1,0-0.2,0-0.3c0,0,0-0.1,0-0.1c0,0,0,0,0,0
		c0.1-0.1,0.2,0,0.3,0.1c0.1,0,0-0.1,0.1-0.1c0.1,0,0.3,0.2,0.3,0c0-0.1-0.2-0.3,0-0.2c0.2,0.1,0.4,0.1,0.5,0.1c0,0,0.1,0.4,0.1,0.5
		c0,0.1,0.2,0.2,0,0.1c-0.2-0.1-0.4-0.4-0.3-0.1c0.1,0.3,0.3,0.5,0.2,0.5c-0.1,0.1-0.2,0.1-0.2,0.1c0,0.1,0,0.2,0.1,0.2
		c0.2,0,0.2-0.1,0.3,0c0.1,0,0.1,0.2,0.2,0.3c0.1,0.1,0.1,0.7,0,0.7s-0.1,0-0.1,0.2c0,0.2,0.1,0.3,0.1,0.3s0,0.2,0.1,0.2
		c0.1,0,0,0.1,0.3,0.1c0.2,0,0.2,0,0.3,0.1c0.1,0.1,0,0.2-0.1,0.3c0,0,0,0,0,0c-0.1,0-0.2,0.1-0.3,0.1c-0.1-0.1,0-0.3-0.1-0.3
		c-0.1-0.1-0.2,0-0.3,0c0,0,0,0-0.1-0.1c0,0,0-0.1-0.1-0.1c0,0-0.1,0-0.1,0c0,0,0,0,0,0c-0.1,0-0.1,0-0.2,0c0-0.1-0.1-0.3-0.1-0.4
		c0,0,0,0,0,0c0-0.1,0-0.1,0-0.2c0-0.1-0.1-0.1-0.1-0.3c0-0.1,0.1-0.3-0.1-0.1c-0.1,0.1-0.2,0.3-0.2,0.3s-0.1,0-0.1-0.1
		c0-0.2,0.1-0.3,0-0.3c-0.1,0-0.1,0-0.3,0c-0.1,0-0.3-0.2-0.2,0c0,0.2,0.2,0.3,0.1,0.4c-0.1,0.1-0.2,0-0.3-0.1c0-0.1,0,0-0.1-0.1
		s-0.2-0.2-0.2-0.1c-0.1,0.1-0.3,0.2-0.2,0.4c0.1,0.1,0.2,0.3,0.1,0.4c-0.1,0.1-0.2,0.2-0.2,0.3c0,0.1,0,0.3,0,0.3s0.1,0.1,0.1,0.2
		s0.1,0.2,0.3,0.3c0,0,0.1,0,0.1,0.1c0,0,0,0.1,0.1,0.2c0.1,0.2,0.2,0,0.3,0.1c0.1,0.1,0.3,0,0.5-0.1c0.1,0,0.1,0.1,0.1,0.2
		c0,0-0.1,0.1-0.1,0.2c0,0.2-0.3,0.1-0.2,0.4s0.1,0.5,0.2,0.4c0.1,0,0.1-0.1,0.1-0.1c0,0,0,0.1,0,0.1c0,0.1,0.1,0,0.3-0.1
		c0,0,0,0.1,0,0.1s-0.1,0-0.1,0.2c0,0.2-0.1,0.3,0.1,0.3c0.2,0,0.3-0.1,0.4-0.2c0.1-0.1,0.1-0.3,0.1-0.1c0.1,0.1,0.1,0.1,0.2,0.2
		c0.1,0.1,0,0.3,0.2,0.2C5.9,56.3,6,56.3,6,56.2c0-0.1,0-0.2,0-0.3c0-0.1,0.1-0.1,0.1-0.1c0-0.1,0.1-0.2,0.1-0.1
		c0,0.1-0.1,0.2,0,0.3c0.1,0.2,0.2,0.4,0.2,0.4s0.1-0.2,0.1-0.2c0-0.1,0.1-0.1,0.1-0.1c0.1,0,0.1,0.3,0.1,0.3l0,0c0,0,0,0.1,0.1,0.1
		c0,0,0,0,0.1,0l0,0c0,0,0.2-0.1,0.1-0.2c-0.1-0.2,0-0.2,0-0.3c0-0.1,0.1-0.1-0.1-0.2c-0.2-0.1-0.3-0.1-0.3-0.1s-0.1-0.1,0-0.1
		c0,0,0,0,0,0c0,0,0.2-0.1,0.2-0.1s0,0,0,0c0,0,0,0,0,0c0,0,0,0,0,0c0.1,0.2,0.1,0.1,0.1,0.3c0,0.1,0.1,0.2,0.2,0.3c0,0,0,0,0,0
		c0,0,0.1,0.1,0.1,0.1c0,0,0,0,0,0c0,0.1,0.1,0,0.2-0.1c0,0,0.1,0,0,0.1c0,0.1-0.1,0.1-0.1,0.2c0,0,0,0,0,0c0,0,0,0,0,0
		c0,0.1-0.1,0.1-0.2,0.2c-0.2,0.2-0.3,0.2-0.4,0.4c0,0.2-0.3,0.1-0.1,0.2c0.2,0.1,0.1,0.2,0.2,0.1c0.1-0.1,0.1-0.3,0.1-0.1
		c0,0.1,0.1,0.1,0,0.3c-0.1,0.2-0.2,0.1-0.2,0.3s0,0.3,0.1,0.6s0.1,0.5,0.1,0.5c0.1,0,0.1,0,0.2,0c0.1,0,0.2,0.1,0.2,0.1
		s0.1,0.2,0,0.3c-0.1,0.1-0.2,0.3-0.1,0.3c0,0.1,0.2,0.2,0.3,0.3C8,60,8,60.2,8.1,60c0-0.1,0.1-0.2,0.1-0.2c0.1,0.1,0.2-0.1,0.3-0.1
		c0,0,0.1,0,0.1,0c0,0,0,0,0,0c0.1,0.1,0.1,0.2,0.2,0.3c0.1,0.2,0.3-0.1,0.4-0.3c0-0.2-0.1,0-0.1,0c0,0-0.1,0-0.1-0.1
		c0,0,0.1-0.1,0.1-0.1c0.2,0,0.2,0,0.3,0c0.1,0,0,0.2,0.1,0.2c0,0.1-0.1,0-0.2,0.1C9.2,60,9,60.2,9,60.2c0,0-0.1,0.1,0,0.2
		c0.1,0.1,0.2,0,0.2,0.2c0,0.1,0,0.1,0,0.2c0,0-0.1,0.1-0.1,0.2c0,0-0.1,0.1-0.1,0.1c-0.1,0.1-0.1-0.1-0.2,0.1
		c-0.1,0.2-0.3,0.3-0.2,0.4c0.1,0.1,0.3,0.1,0.3,0.2c0.1,0.1,0,0.3,0.1,0.3C9,62,9,62,9,62c0,0,0,0.1,0,0.1c0,0.1,0,0.1,0,0.2
		c0,0-0.1,0-0.1,0c-0.1,0,0,0.1-0.1-0.1C8.7,62,8.7,62,8.6,61.9c-0.1,0-0.2,0-0.3,0c-0.1,0.1-0.1-0.1-0.2,0C8,62.1,8,62.3,8,62.3
		c0,0.1-0.3,0,0,0.1c0.3,0.1,0.4,0.1,0.5,0.2c0.1,0.1,0,0.3-0.1,0.3c-0.1,0-0.1-0.2-0.2-0.1c-0.1,0,0,0.3,0.1,0.3
		c0,0.1,0.1,0.1-0.1,0.3c-0.2,0.1-0.3,0.3-0.3,0.5c0,0.2,0,0.4,0.1,0.4c0.2,0,0.5-0.1,0.5-0.1s0.1-0.2,0-0.2s-0.1-0.2-0.1-0.2
		s0.3-0.1,0.4,0.1c0.1,0.2,0.2,0,0.1,0.3c-0.1,0.3-0.2,0.4,0.1,0.4c0.1,0,0.2,0,0.3,0c0.1,0.1,0.2,0.1,0.3,0.2c0,0,0.1,0,0.1,0
		c0,0,0.1,0.1,0.1,0.1C9.8,65,9.9,65,9.9,64.9c0-0.1,0-0.1,0.2-0.1c0.1,0,0.1,0.1,0.2-0.1c0.1-0.1,0.1-0.2,0.1-0.2c0,0,0,0,0,0.1
		c0,0.1,0.1,0,0.3,0c0,0,0.1,0,0.2,0c0.2,0,0.5-0.1,0.5-0.1c0.1,0,0.3,0.1,0.3,0c-0.1-0.1,0-0.2-0.1-0.3c0,0-0.1,0-0.1-0.1
		c0.1-0.1,0.1-0.1,0.2-0.2c0.1,0.1,0.2,0.2,0.3,0.3c0.1,0.1,0.1,0.1,0.2,0.2c0.1,0.1,0.2,0,0.3,0c0,0,0,0,0,0c0.1,0.1,0-0.2,0.1-0.3
		c0,0,0,0,0-0.1c0,0,0,0,0,0c0.1,0,0.2,0,0.1,0.2c-0.1,0.2-0.1,0.1,0,0.4c0.1,0.2,0,0.3,0.1,0.4c0,0.1,0.3,0.1,0.4,0.1
		c0.1,0,0.3-0.2,0.5-0.1c0.2,0.1,0.4,0.1,0.4,0c0,0,0,0,0,0c0,0,0,0,0.1,0c0.1,0.1,0.1,0,0.1,0s0,0,0,0c0,0,0.1,0,0.1,0
		s0-0.2-0.1-0.3s-0.3,0-0.3-0.1c0-0.1-0.2-0.2,0.1-0.2c0,0,0,0,0.1,0c0,0,0,0,0,0.1c0.1,0.1,0.1,0,0.2,0c0.1,0,0.1,0,0.2,0
		c0,0.2,0.2,0,0.3,0c0.1-0.1,0.1-0.2,0.2-0.4c0.1-0.2,0.1-0.3,0-0.3c0,0,0,0,0-0.1c0,0,0,0,0,0c0-0.1,0-0.1-0.1-0.2
		c0-0.1,0-0.1,0-0.1s0,0,0,0c0,0,0,0,0,0c0,0,0.1,0,0.1,0c0.2,0.1,0.2,0.4,0.3,0.3c0.2-0.1,0.1,0,0.2-0.1c0.1-0.1,0.1-0.1,0.1-0.2
		c0,0,0-0.1,0-0.1c0,0,0.1,0,0.1,0c0,0,0,0,0,0c0.1,0.1,0.1,0.3,0.2,0.2c0.1-0.1,0.1-0.1,0.1-0.1c0,0,0.1-0.1,0.1-0.1c0,0,0,0,0,0
		c0.1-0.2,0.3,0.1,0.2-0.3s-0.2-0.4-0.1-0.5c0,0,0,0,0,0c0,0,0,0,0,0c0,0,0.1,0,0.2,0c0,0,0.1,0,0.1,0c0.2,0,0.5,0,0.6-0.1
		c0,0,0-0.1,0.1-0.1c0,0,0.1,0,0.1-0.1l0.5,0c0.1,0.1,0.1,0.2,0.2,0.1c0.1,0,0.4,0.1,0.2-0.1c0,0,0,0,0,0l0.2,0c0,0,0,0,0,0.1
		c0,0,0,0.1,0,0.1c0,0.1-0.1,0.1-0.1,0.1c0,0,0,0.1,0,0.1c0,0,0,0.1,0,0.1c0,0.1,0,0.1-0.1,0.2c-0.1,0.3-0.1,0.6-0.1,0.8
		c0,0,0,0,0,0c-0.1,0.1,0,0,0,0.1c0,0.1,0,0,0,0.1c0,0.1,0,0.2-0.1,0.4c-0.1,0.2,0.1,0.4,0.1,0.6c0,0.1,0,0.1,0,0.1c0,0,0,0,0,0
		c0,0.2,0,0.5,0,1c0,0.7,0,1.5,0,2.2c0,0,0,0,0,0.1c0,0.4,0,0.8,0,1c0,0.6,0,1.9-0.1,2.8c0,0,0,0,0,0.1c0,0.3,0,0.6,0,0.7
		c0,0.3-0.1,1.1-0.2,1.8c0,0,0,0,0,0.1c-0.1,0.4-0.1,0.7-0.2,0.9c0,0,0,0,0,0c0,0.1-0.1,0.2-0.1,0.3c0,0,0,0,0,0
		c-0.3,0.2-0.3,0.2-0.5,0.2c-0.1,0-0.1,0.1,0,0.1c0,0,0,0,0,0c0.1,0,0.1,0,0.2,0c0.1,0,0.2,0,0.2,0s0,0.1,0,0.1c0.1,0,0.1,0,0.3-0.1
		c0.1-0.1,0.2-0.1,0.3-0.1c0.1,0,0.3,0.1,0.3,0.1c0.1,0,0.3,0,0.3,0c0,0,0,0,0,0c0,0,0-0.1,0-0.1c0,0,0.1,0,0.1,0
		c0.1,0,0.5,0.1,0.6,0.1c0.1,0,0.2,0,0.2,0c0,0,0,0,0-0.1c0,0,0,0,0,0c0,0,0.1,0,0.2,0c0.1,0,0.2,0,0.3,0c0,0,0,0,0,0
		c0.1,0,0.2,0,0.3,0c0.1,0,0.3-0.1,0.2-0.1c-0.1,0-0.5,0-0.7-0.2c-0.2-0.2-0.1-0.1-0.2-0.2c0-0.1-0.1-0.2-0.1-0.3
		c0-0.1-0.1-0.6-0.1-1.3l8.9,0.3v0.4h10l-0.3,1.2l16.2,0.3l-0.3-1.5l16.9-0.1v0.3h5.4v0.3l-0.1,0v0.1l0.1,0.1V76l-0.1,0.1v0.2l8.7,0
		v-0.2l-0.2,0l0-0.3h0.1v-0.1l-0.1-0.1v-0.1c0.1,0,0.2,0.1,0.2,0.1c0.1,0,0.2,0,0.2,0c0,0,0,0,0,0c0,0,0,0,0,0c0,0,0,0,0.1,0
		c0.1,0,0.4,0.1,0.5,0.1c0.1,0,0.1,0,0.1,0c0,0,0,0,0,0c0,0,0,0,0,0c0,0,0,0,0.1,0c0.1,0,0.2,0,0.2,0c0,0,0,0,0,0c0.1,0,0.1,0,0.2,0
		c0.1,0,0.2-0.1,0.1-0.1c-0.1,0-0.2,0-0.4,0l4.5,0v-0.7H91v-0.2h0.4l0.1-9.5c0.1,0,0.1,0.1,0.2,0.1c0,0.1,0.1,0.1,0.1,0.1
		c0,0,0.1,0.1,0,0.1c-0.1,0-0.1,0.1-0.1,0.2c-0.1,0.1,0,0.3,0.1,0.4c0.1,0.1,0.1,0,0.1,0c0,0,0,0,0,0c0,0-0.1,0.1,0,0.2
		c0.1,0.1,0.2,0,0.1,0.2c0,0.2-0.1,0.4,0,0.4c0.1,0,0.3,0,0.4,0c0.1,0,0.1,0,0.1-0.1c0,0,0.1,0,0.1,0c0.1,0,0.3,0.1,0.3,0.1
		c0,0,0.1-0.1,0.1-0.2c0-0.1,0.1-0.2,0.1-0.2c0.1-0.1,0.1-0.2,0.2-0.1c0,0.1,0,0.1,0.1,0.2c0,0.1-0.1,0.1,0,0.2
		c0.1,0.1,0.1,0.1,0.1,0.2c0.1,0.1,0.2,0.2,0.2,0.2c0,0,0.1-0.2,0-0.3c-0.1-0.1-0.2-0.1-0.2-0.2c0-0.1,0-0.1,0.1-0.1c0,0,0,0,0,0
		c0.1,0.1,0.1,0.2,0.2,0.2c0.1,0.1,0.1,0.4,0.2,0.2c0,0,0,0,0,0c0,0,0.1,0,0.1,0c0,0,0,0,0-0.1c0.1-0.1,0.1-0.1,0.1-0.2
		c0-0.1,0-0.2-0.1-0.3c0,0,0,0-0.1,0c0,0,0-0.1,0-0.1c0-0.1,0-0.2,0-0.2s0,0,0.1,0c0,0,0,0,0.1,0c0,0,0,0,0.1,0c0,0,0,0,0,0
		c0,0.1,0,0.2,0,0.3c0,0.1,0.1,0.1,0.1,0.1s0,0.2,0.1,0c0,0,0-0.1,0-0.1c0.1-0.1,0.3-0.2,0.3-0.3c0,0,0.1,0,0.1,0s0.1-0.1,0-0.2
		c0-0.1,0.1-0.2,0-0.2c-0.1,0-0.1,0-0.1,0c0,0,0.1,0,0.1-0.1c0.1,0,0.2,0,0.2-0.1c-0.1-0.1-0.2-0.1-0.2-0.1s-0.1,0,0-0.1
		c0.1-0.1,0.1-0.1,0.2-0.2c0,0,0.1-0.2,0-0.2c0,0-0.1,0-0.1,0c0,0,0,0,0,0c0-0.1,0-0.1,0-0.2c0,0,0,0,0,0c0,0,0,0,0-0.1
		c0,0-0.1,0-0.1-0.1c0,0,0,0,0-0.1c0-0.1,0-0.1,0-0.2c0,0,0,0,0,0c0.1-0.1,0.2,0,0.2-0.2c-0.1-0.2,0-0.2-0.1-0.2
		c-0.1,0-0.1,0.1-0.2,0.1C94.6,64,94.5,64,94.5,64c0,0-0.1,0.1-0.2,0c0-0.1,0.1-0.2,0-0.3c0,0-0.2-0.1-0.2-0.1c0,0,0,0-0.1,0
		c0,0,0,0,0-0.1c0,0,0-0.1,0-0.1c0.1,0,0.1,0,0.1-0.1c0,0,0,0,0-0.1c0,0,0,0,0,0c0,0,0,0,0,0c0,0,0,0,0-0.1c0-0.1,0-0.1-0.1-0.1
		c0,0,0,0,0,0c0,0,0-0.1,0-0.1c0,0,0.1,0,0.1,0.1c0,0,0.1,0,0.1,0c0,0,0.1,0.1,0.1,0.1h0.1c0,0,0.1,0.1,0.1,0c0,0,0,0,0,0
		c0,0,0.1,0,0.1,0c0.1,0,0.1,0,0.1,0c0,0,0,0-0.1,0.1c0,0.1-0.3,0.2-0.1,0.3c0.1,0,0.1,0,0.2,0.1c0,0,0.1,0.1,0.1,0.1c0,0,0,0,0,0
		c0,0,0,0,0.1-0.1c0,0,0,0,0-0.1c0,0,0,0,0,0c0,0,0,0,0.1,0c0.1,0.1,0.2,0.2,0.1,0.1c0-0.1-0.1-0.2-0.1-0.3c0,0,0,0,0,0
		c0,0,0.1,0,0.1,0c0,0,0,0,0.1,0c0,0,0.1,0.1,0.1,0.1c0.1,0,0.2,0,0.2,0c0,0,0.1,0.2,0.2,0.2c0,0,0,0,0-0.1c0.1,0,0.2-0.1,0.3-0.2
		c0.1-0.1,0.1,0,0.1-0.2c0-0.1,0-0.2,0-0.2c0.1,0,0.2-0.1,0.2-0.2c0-0.1,0-0.1,0-0.2c0-0.1,0-0.1,0-0.1s0,0,0.1,0c0,0,0.1,0,0.1-0.1
		c0,0,0,0,0-0.1c0,0,0,0,0,0c0,0,0,0,0,0c0.1,0,0.1-0.1,0.1-0.2c-0.1-0.1,0,0-0.1-0.2c0,0,0-0.1-0.1-0.1c0,0,0-0.1,0-0.1
		c-0.1-0.2,0-0.1,0-0.2c0,0,0,0,0,0c0,0,0,0.1,0.1,0.1c0,0.1,0.1,0.1,0.1,0.2s0,0.2,0.1,0.2c0,0,0,0.2,0,0.1c0-0.1,0.1-0.2,0.1-0.3
		s0.1,0,0.1-0.1c0-0.1-0.1-0.1-0.1-0.2c0-0.1,0.1-0.1,0-0.2c-0.1-0.1,0-0.2-0.1-0.3c-0.1-0.1,0-0.2-0.2-0.3c-0.2-0.1-0.2,0-0.3-0.1
		c0-0.1-0.1-0.2-0.1-0.3s-0.3,0-0.1-0.1c0.2,0,0.2-0.1,0.3,0s0.3,0.2,0.3,0.1c-0.1-0.1-0.1-0.1-0.1-0.2c-0.1-0.1-0.1-0.2-0.1-0.3
		c-0.1-0.1-0.1-0.2-0.2-0.2c-0.1,0-0.2,0.1-0.1,0.2c0,0.1-0.1,0.2-0.1,0.1c0-0.1-0.1-0.1-0.2-0.2c0,0,0,0,0,0c0,0,0,0,0-0.1
		c0-0.1,0.1-0.2,0.1-0.2c0,0,0,0,0,0s-0.2-0.1-0.1-0.2c0.1-0.1,0.1-0.2,0-0.2c-0.1,0-0.1-0.2-0.2,0c-0.1,0.1-0.2,0.2-0.2,0.2l0,0
		c0,0,0,0,0,0c0,0,0,0,0,0c-0.1,0-0.1-0.1-0.2-0.1c0,0,0,0-0.1,0c0,0,0,0,0-0.1c0,0,0,0,0,0c0,0,0.1,0,0.1-0.1c0.1,0,0.1,0,0.2-0.1
		c0,0,0,0,0,0c0,0,0.1,0,0.1-0.1c0,0,0,0,0,0c0.1,0,0.2,0,0.2-0.1c0,0,0.1,0,0.1,0c0,0,0.1,0,0.1,0c0,0,0,0,0,0
		c0.1,0,0.1-0.1,0.1-0.1c0.1,0.1,0.1,0,0.2,0.2c0.1,0.1,0.2,0.1,0.2,0.1s0.2,0.1,0.2,0.2c0,0.1,0,0.2,0.1,0.2c0.1,0,0.2,0,0.2,0
		s0-0.2-0.1-0.2c0-0.1-0.1-0.2-0.2-0.2c0,0-0.1-0.1-0.1-0.1c0.1,0,0.1-0.1,0.1-0.1c0.1,0,0.1,0,0.2,0c0.1,0,0.3,0,0.3,0
		c0,0,0-0.2,0-0.3C97.4,58.1,97.5,58.1,97.4,58z M94.8,51.1c0.1-0.1,0.1-0.1,0.1-0.2c0,0,0,0,0,0c0,0,0.1-0.1,0.1-0.1
		c0,0,0,0.1,0,0.1c0,0.1,0,0.1,0,0.1c0,0,0.1,0.1,0.1,0.1c0,0,0,0,0,0C95,51.2,94.9,51.1,94.8,51.1C94.9,51.1,94.8,51.1,94.8,51.1
		C94.8,51.1,94.8,51.1,94.8,51.1z M82.5,42.9c-0.1,0-0.2-0.1-0.2-0.2c0-0.1-0.2-0.1-0.2-0.1c-0.1,0-0.1-0.1,0-0.2
		c0.1-0.1,0.3,0,0.2-0.1c-0.1-0.1-0.1-0.1,0-0.2c0.1-0.1,0.3,0,0.2-0.1c-0.1-0.1-0.2-0.1-0.2-0.2c0-0.1,0-0.3,0-0.3
		c0-0.1-0.1-0.1,0-0.2c0.1-0.1,0-0.2,0.1-0.1c0.1,0,0.2,0.1,0.2,0.1s0.2-0.2,0.1,0c-0.1,0.2-0.2,0.4-0.1,0.5
		c0.1,0.1,0.1,0.1,0.1,0.2c0,0.1,0.1,0.2,0,0.3c-0.1,0-0.2,0-0.2,0c0,0-0.1,0.2,0,0.2c0,0.1,0.2,0.2,0.2,0.2
		C82.6,42.8,82.7,42.9,82.5,42.9z M15.1,30.3c-0.2,0-0.2-0.1-0.3-0.2C14.8,30,14.6,30,14.5,30c-0.1,0-0.2-0.1-0.1-0.2
		c0.1-0.1,0.3,0,0.2-0.2c-0.1-0.2-0.1-0.2,0-0.3c0.1-0.1,0.4,0,0.3-0.1c-0.1-0.1-0.2-0.1-0.3-0.2c0-0.1,0-0.4,0-0.5
		c0-0.1-0.2-0.1,0-0.3c0.1-0.2,0-0.2,0.2-0.2c0.1,0,0.2,0.2,0.2,0.2s0.2-0.3,0.1,0c-0.1,0.3-0.3,0.6-0.2,0.7
		c0.1,0.1,0.1,0.1,0.1,0.2c0,0.2,0.2,0.3,0,0.4c-0.2,0-0.2,0-0.2,0c0,0-0.1,0.3,0,0.3c0.1,0.1,0.3,0.2,0.3,0.2
		C15.2,30.2,15.3,30.3,15.1,30.3z M5.9,38.1C5.9,38.1,5.9,38,5.9,38.1c-0.2,0.1-0.2,0-0.2,0.2c0,0.1,0,0.1,0.1,0.2
		c0,0.1,0,0.3,0.1,0.3c0,0,0,0,0,0c0,0.1-0.1,0.2-0.1,0.2c-0.1,0-0.1,0.1-0.1,0.1s0-0.3-0.2-0.3c-0.1,0,0,0,0.1-0.2
		c0.1-0.2,0.1-0.1,0.1-0.2c0-0.2,0.1-0.1,0-0.2c-0.1-0.1,0-0.1,0.1-0.1C5.8,38,5.9,38,5.9,38C5.9,38,5.9,38.1,5.9,38.1z M4.2,49.2
		c0,0.1-0.1,0-0.1,0.1c0,0,0,0,0,0c0,0,0,0,0,0c0,0,0,0,0,0c0,0,0,0,0-0.1c0.1-0.1,0.1-0.3,0.2-0.3C4.3,49,4.3,49.1,4.2,49.2z
		 M4.3,48.5C4.3,48.5,4.3,48.5,4.3,48.5c0-0.1,0.1-0.1,0-0.2c0,0,0,0,0,0c0,0,0,0,0.1,0C4.3,48.3,4.3,48.4,4.3,48.5
		C4.3,48.4,4.3,48.5,4.3,48.5z M4.3,47.2c0-0.1,0-0.1-0.1-0.1c-0.1,0,0-0.5,0-0.5s0.1,0.1,0.1,0.1c0,0,0,0,0,0c0,0.2-0.1,0.4,0,0.2
		c0.2-0.1,0.4-0.3,0.3-0.4c0,0,0,0,0,0c0-0.1,0.1-0.1,0.1,0c0.1,0.1,0.2,0.3,0.1,0.3C4.8,47,4.7,47,4.6,47c-0.1,0-0.1,0.1-0.1,0.1
		C4.4,47.2,4.3,47.2,4.3,47.2z M5.4,49.7c-0.1,0.1-0.1,0.1-0.2,0.1c0,0,0,0-0.1-0.1S4.9,49.6,5,49.5s0.2,0,0.3,0
		C5.3,49.6,5.4,49.6,5.4,49.7z M5.4,47.7c-0.1,0.1-0.1,0.1-0.2,0.2c-0.1,0-0.1,0-0.1,0S5,47.9,4.9,47.8c0,0,0,0-0.1,0
		c0,0-0.1-0.1-0.1-0.1c-0.1-0.1-0.1-0.1-0.2-0.1c-0.1,0-0.1-0.1-0.1-0.1c0-0.1,0.3,0,0.3-0.1c0,0,0,0,0,0c0,0,0,0,0.1,0
		c0,0,0,0,0.1,0.1c0.1,0.1,0.2,0.2,0.3,0.2c0.1,0,0.3,0,0.3-0.1c0,0,0,0,0,0c0,0,0,0,0,0s0-0.3,0.1-0.1C5.5,47.6,5.5,47.6,5.4,47.7z
		 M5.4,46.7C5.3,46.7,5.3,46.6,5.4,46.7c0-0.1,0-0.1,0-0.2c-0.1-0.1-0.1-0.2,0-0.2c0,0,0.1,0,0.1,0c0,0.2,0.1,0.3,0.1,0.3
		C5.6,46.6,5.4,46.7,5.4,46.7z M4,54.1C4,54.1,4,54.1,4,54.1c-0.1,0-0.1,0-0.1,0c0-0.1,0-0.2,0.1-0.3c0,0,0,0.1,0,0.1
		C4,54,4,54,4,54.1C4,54.1,4,54.1,4,54.1z M4.3,54.4C4.3,54.4,4.3,54.3,4.3,54.4C4.3,54.3,4.3,54.3,4.3,54.4
		C4.3,54.3,4.3,54.3,4.3,54.4C4.3,54.3,4.3,54.4,4.3,54.4z M6.2,47.3C6.2,47.2,6.2,47.2,6.2,47.3C6.2,47.2,6.2,47.2,6.2,47.3
		C6.3,47,6.3,47,6.4,46.9c0,0.1,0.1,0,0.1,0.2C6.4,47.2,6.3,47.3,6.2,47.3z M6.4,38.7c-0.1,0-0.1-0.1-0.1-0.2c0-0.2,0-0.2,0-0.3
		c0,0,0-0.1,0-0.1c0,0,0,0,0,0c0,0.1,0.1,0.2,0.1,0.3c0.1,0,0.1,0.2,0.1,0.2C6.5,38.6,6.5,38.6,6.4,38.7z M8.7,62.7
		c-0.1,0.1,0,0.3-0.1,0.3c-0.1,0-0.1,0.1-0.1,0c0-0.1,0,0,0-0.2c0.1-0.2,0.1-0.3,0-0.3c-0.1-0.1-0.1-0.1-0.2-0.1s-0.2,0-0.1-0.1
		c0.1-0.1,0-0.1,0.1-0.1c0.1,0,0.2,0,0.2,0.1c0,0.1,0.1,0.1,0.1,0.1C8.7,62.5,8.8,62.6,8.7,62.7z M12.9,41.9c0,0,0-0.1,0-0.2
		c0,0,0.1,0,0.1,0.1c0,0,0,0,0,0c0.1,0.3,0.3,0.6,0.4,0.8c0,0.1,0,0.1,0,0.2c0,0,0,0.1,0.1,0.1c0,0,0,0,0,0s0,0-0.1-0.1
		c0,0,0,0-0.1-0.1c-0.1-0.1,0,0-0.1,0c0,0,0,0,0,0c0,0,0,0,0-0.1c0,0,0,0,0,0c0,0,0-0.1-0.1-0.2C13,42.4,13,42.3,13,42.3
		c0-0.1,0-0.1,0-0.2c0-0.1-0.1-0.1-0.1-0.1s0,0,0,0c0,0,0,0,0,0S12.8,41.9,12.9,41.9C12.9,41.9,12.9,41.9,12.9,41.9z M12.4,42.6
		c0,0.1,0.1,0.1,0.1,0.2c0,0,0,0,0,0C12.4,42.8,12.4,42.7,12.4,42.6C12.4,42.7,12.4,42.7,12.4,42.6z M12.1,44.8c0,0,0.1,0,0.2,0.1
		c0.1,0.1,0.1,0.2,0,0.2c-0.1,0-0.2,0.1-0.2,0C12.1,44.9,12.1,44.8,12.1,44.8z M11.9,34.9c0,0,0,0.1,0,0.1c0,0,0,0.1-0.1,0.1
		c-0.1,0.2-0.3,0.2-0.2,0.3c0,0.1,0.1,0.1,0.1,0.2c0,0.1,0,0.2,0,0.3c-0.1,0.1-0.2,0.1-0.2,0c0-0.1,0.1-0.2,0-0.3
		c-0.1-0.1-0.1-0.2-0.1-0.2c0-0.1,0.1-0.1,0.1-0.2c-0.1-0.1-0.2-0.2-0.1-0.3c0.1-0.1,0.2-0.2,0.2-0.2C11.6,34.7,11.7,34.8,11.9,34.9
		C11.9,34.9,11.9,34.9,11.9,34.9z M11.5,39C11.5,39,11.5,38.9,11.5,39c0.2,0.1,0.3,0.2,0.3,0.2C11.7,39.1,11.5,39,11.5,39z
		 M11.7,51.4C11.7,51.4,11.7,51.4,11.7,51.4c-0.1,0-0.1,0-0.1,0C11.7,51.4,11.7,51.4,11.7,51.4z M11.1,33.4c0-0.2,0.2,0,0.2-0.2
		c0-0.2,0-0.2,0-0.3c0-0.1,0-0.2,0-0.2c0,0,0.1,0,0.2,0c0.1,0.1,0,0.4,0,0.4s0.1,0,0.1,0.1c0,0.1-0.2,0.2-0.2,0.2c0,0-0.1,0-0.1,0.1
		c0,0.1-0.1,0.1,0.1,0.2c0.1,0.1,0.1,0.1,0.2,0.2c0,0.1,0.2,0,0.1,0.1c0,0-0.1,0-0.1,0.1c-0.1,0-0.2-0.1-0.2-0.1s0.1-0.2,0-0.2
		c-0.1,0-0.1,0-0.2-0.1C11.1,33.6,11.1,33.7,11.1,33.4z M10.8,38.8C10.9,38.8,10.9,38.9,10.8,38.8c0.1,0.1,0.1,0.1,0.1,0.1
		c0,0,0.1,0.1,0.1,0.1c0,0.1,0,0.1,0,0.2c0,0,0,0-0.1,0c-0.1,0-0.1-0.1-0.2-0.2C10.8,38.9,10.8,38.8,10.8,38.8z M10.8,46.1
		c0.1,0,0.2,0.1,0.2,0.1c0,0,0.2,0,0.3,0c0.1,0,0.1,0,0.2,0.1c0.2,0.1,0.1,0.4,0,0.3c-0.1,0-0.1-0.1-0.1-0.2c0-0.1-0.1-0.1-0.1,0
		c0,0.1,0,0.4,0.1,0.5s0.1,0.1,0,0.2c-0.1,0.1-0.1,0.1-0.3,0.1c-0.1,0-0.1-0.3-0.1-0.1c0,0.2-0.1,0.1,0,0.3s0,0.2,0,0.3
		s0.1,0.1,0.1,0.2c0,0,0,0.1-0.1,0.1c-0.1-0.1-0.2-0.2-0.2-0.4c0-0.2,0.1-0.3,0.1-0.4c0-0.1,0-0.1,0.1-0.3c0-0.1,0-0.2,0-0.2
		c0,0,0,0,0-0.1c0,0-0.1-0.1-0.1-0.1c0,0,0-0.1-0.1-0.1C10.7,46.3,10.7,46.2,10.8,46.1z M11.3,50.8C11.3,50.7,11.3,50.7,11.3,50.8
		c0.1-0.1,0.1-0.2,0.1-0.2c0,0,0,0,0.1,0c0,0,0,0,0,0c0,0.1-0.2,0.2-0.2,0.4c0,0,0,0,0,0C11.3,51,11.3,51,11.3,50.8
		C11.3,50.8,11.3,50.8,11.3,50.8z M10.6,37.3C10.6,37.3,10.6,37.3,10.6,37.3c0.1,0.1,0.1,0.1,0.2,0.2c0,0.1,0,0.2-0.1,0.2
		c-0.1,0-0.2,0-0.3-0.1c-0.1-0.2-0.1-0.2-0.1-0.3c0,0-0.1-0.1-0.1-0.1C10.3,37.2,10.5,37.2,10.6,37.3z M10.4,48.5
		C10.4,48.5,10.4,48.5,10.4,48.5c0,0.1,0,0.1,0.1,0.2c0.1,0.1,0.1,0.1,0.1,0.3c0,0,0,0,0,0.1C10.5,48.9,10.4,48.7,10.4,48.5
		c0,0.1-0.1,0-0.1-0.1C10.3,48.5,10.3,48.5,10.4,48.5z M10.3,39.3C10.4,39.3,10.4,39.3,10.3,39.3c0.1,0.1,0.1,0.2,0.1,0.2
		C10.4,39.4,10.4,39.4,10.3,39.3C10.3,39.3,10.3,39.3,10.3,39.3z M10.4,46.3C10.4,46.3,10.4,46.3,10.4,46.3
		C10.4,46.3,10.4,46.3,10.4,46.3C10.4,46.3,10.4,46.3,10.4,46.3z M10,49.4C10.1,49.5,10.1,49.5,10,49.4C9.9,49.4,9.9,49.4,10,49.4
		C9.9,49.4,10,49.4,10,49.4z M9.8,39.6c0.1,0,0.2,0.2,0.2,0.3c-0.1,0-0.1,0-0.2,0c0-0.1,0-0.1-0.1-0.1C9.6,39.7,9.6,39.6,9.8,39.6z
		 M9.1,38.7c0.1,0,0.1-0.1,0.2,0c0,0.1,0,0.1,0.1,0.1c0,0,0,0,0,0C9.2,39,9.2,39,9.2,39.1c0,0.1-0.1,0-0.1-0.1
		C9,38.9,9.1,38.8,9.1,38.7z M8.8,45.4C8.8,45.4,8.8,45.4,8.8,45.4C8.9,45.4,8.9,45.4,8.8,45.4C8.9,45.5,9,45.6,9,45.6
		c0,0-0.1,0.1,0,0.2c0.1,0.2,0.2,0.3,0.2,0.4c0,0-0.2,0-0.3-0.1c-0.1-0.1-0.1-0.3-0.2-0.4c0,0,0,0,0,0C8.9,45.7,8.9,45.5,8.8,45.4
		C8.8,45.4,8.8,45.4,8.8,45.4z M7.4,44.2C7.4,44.2,7.4,44.1,7.4,44.2c0,0.1,0,0.1,0,0.1s-0.1,0-0.1-0.1C7.3,44.2,7.3,44.2,7.4,44.2z
		 M6.9,43C7,43,7,42.9,7,42.8c0,0,0,0,0,0c0.1,0.1,0.1,0.3,0,0.3c-0.1,0-0.1,0.2-0.1,0C7,43,6.9,43,6.9,43z M7.2,50.1
		C7.2,50.2,7.1,50.2,7.2,50.1c-0.1,0.1-0.1,0-0.1,0c0,0,0,0,0-0.1c0,0,0,0,0,0C7.1,50.1,7.2,50.1,7.2,50.1z M7.1,53.7
		C7.1,53.7,7.1,53.7,7.1,53.7c0,0.1,0,0.2,0,0.2c0,0,0,0-0.1,0c0,0,0,0,0,0c0,0,0.1-0.1,0-0.2C7,53.7,7.1,53.7,7.1,53.7z M7,54.9
		c0-0.1,0-0.1,0-0.2c0,0,0,0,0-0.1c0,0,0,0,0,0s0,0,0.1,0c0,0,0.1,0,0.1,0.1c0,0,0,0,0,0c0,0,0,0.1,0,0.1c0,0,0,0.1,0,0.1
		C7.2,54.9,7,54.9,7,54.9z M7.3,54.5c-0.1,0-0.1-0.1-0.1-0.1s0,0,0-0.1c0,0,0,0,0,0C7.3,54.4,7.3,54.4,7.3,54.5
		C7.3,54.5,7.3,54.5,7.3,54.5z M7.4,54.1C7.4,54.1,7.3,54.1,7.4,54.1c0-0.1,0-0.2,0-0.2c0,0,0,0,0,0c0,0,0,0,0,0
		c0,0,0.1,0.1,0.1,0.1C7.5,54.1,7.4,54.1,7.4,54.1z M7.5,47.8c0-0.1,0-0.3,0-0.4c0-0.1,0-0.1,0-0.1c0-0.1-0.2-0.1-0.2-0.1
		c0,0,0-0.1,0.1-0.1c0,0,0.1-0.1,0.1-0.1c0,0,0,0,0.1,0c0,0,0,0,0,0c0.1,0.1,0.1,0.2,0.2,0.1c0,0,0.1-0.1,0.1-0.1c0,0,0,0,0,0
		c0,0,0.1,0,0.1,0c0,0.2-0.2,0.2-0.2,0.4c0,0.2,0.2,0.1,0.2,0.2c0,0,0.1,0.1,0.1,0.1c0,0,0,0,0,0c0,0,0,0-0.1,0.1
		c-0.2,0.2-0.2,0.2-0.3,0.2c0,0,0,0,0,0c0,0,0,0,0,0C7.6,47.9,7.6,47.8,7.5,47.8C7.5,47.8,7.5,47.8,7.5,47.8z M7.7,49.1
		c-0.1,0.1-0.1,0.2-0.1,0c0-0.1,0-0.1,0-0.2c0,0,0,0,0.1,0C7.7,48.9,7.7,49,7.7,49.1C7.7,49,7.7,49,7.7,49.1z M7.6,48.7
		C7.6,48.7,7.6,48.7,7.6,48.7c0-0.1,0-0.1,0.1-0.2c0.1-0.1,0.1-0.1,0.1-0.2c0,0,0,0,0,0C8,48.5,8.2,48.6,8,48.6
		C7.9,48.7,7.7,48.7,7.6,48.7z M8,49.5C8,49.5,7.8,49.8,8,49.5c-0.1-0.2-0.1-0.3-0.1-0.4c0,0,0,0,0,0C7.9,49,8.1,49,8.1,49
		C8.2,49,8,49.1,8,49.2c0,0.1,0.1,0,0.2,0.2c0,0.1,0,0.1,0,0.1C8.1,49.5,8,49.5,8,49.5z M8.1,50.1C8.2,50.1,8.2,50.1,8.1,50.1
		C8.2,50.1,8.2,50.1,8.1,50.1C8.2,50.1,8.2,50.1,8.1,50.1z M8.3,46.2c0-0.2,0-0.1-0.1-0.3C8,45.7,8,45.6,7.9,45.6s0,0-0.2-0.1
		c-0.2-0.1-0.3,0-0.2-0.2c0-0.2,0-0.2,0-0.2c0-0.1,0.1-0.1,0.1-0.1c0.1,0,0.1-0.1,0-0.2c0-0.1,0.1-0.2,0.1-0.1
		c0.1,0.1,0,0.4,0.1,0.4c0.1,0,0.3,0.1,0.3,0c0-0.1,0-0.3,0.1-0.2s0.1,0.2,0.1,0.2c0,0,0.1,0,0.1,0c0,0,0,0,0,0.1
		c0,0.1,0,0.1,0.1,0.1l0.1,0.2c0,0,0,0,0.1,0.1c0,0,0,0,0.1,0.1c0,0.1,0,0.2,0.1,0.3c0.1,0.2,0.2,0.5,0.1,0.5
		c-0.1,0-0.1-0.1-0.3-0.1C8.4,46.3,8.3,46.4,8.3,46.2z M9.5,62.6C9.5,62.6,9.5,62.6,9.5,62.6C9.5,62.6,9.5,62.6,9.5,62.6
		C9.5,62.6,9.5,62.6,9.5,62.6z M9.7,63.1C9.7,63.1,9.7,63.1,9.7,63.1C9.7,63.1,9.7,63.1,9.7,63.1C9.7,63.1,9.7,63.1,9.7,63.1
		C9.8,63.2,9.7,63.2,9.7,63.1C9.7,63.2,9.7,63.2,9.7,63.1z M9.8,64.4C9.8,64.5,9.8,64.5,9.8,64.4C9.8,64.4,9.8,64.4,9.8,64.4
		c-0.1-0.1-0.1-0.2,0-0.2c0,0,0,0.1,0,0.1C9.8,64.3,9.8,64.3,9.8,64.4C9.8,64.4,9.8,64.4,9.8,64.4C9.8,64.4,9.8,64.4,9.8,64.4z
		 M10.2,64C10.2,64,10.1,64,10.2,64c-0.1-0.1-0.2-0.2-0.3-0.3c0,0,0,0-0.1,0c0-0.1,0-0.1,0.1-0.1c0.1,0.1,0.1,0.2,0.2,0.1
		c0,0,0,0,0,0C10.2,63.8,10.2,63.8,10.2,64C10.3,63.9,10.3,63.9,10.2,64C10.2,64,10.2,64,10.2,64z M10,62.6C10,62.6,10,62.6,10,62.6
		C10,62.5,10,62.5,10,62.6C10,62.5,10,62.5,10,62.6C10,62.5,10,62.5,10,62.6c0,0,0.1,0.1,0.1,0.2c0,0,0,0,0,0.1c0,0,0,0,0,0
		c0,0,0,0,0,0C10,62.8,10,62.7,10,62.6z M12,61.9c-0.1,0-0.2,0.1-0.3,0.1c0,0,0,0.1-0.1,0.1c0,0-0.1,0-0.1-0.1c0,0,0,0,0,0
		c0,0,0,0,0,0c-0.1-0.3,0-0.2-0.1-0.3c0-0.1-0.1-0.1-0.1-0.2c0,0,0-0.1,0-0.1c0,0,0,0,0,0c0.1-0.1,0-0.1,0.1-0.1c0,0,0.1,0,0.1,0
		c0,0.1,0,0.1,0.1,0.1c0.1,0,0.2-0.1,0.2-0.1c0.1,0.1,0.2,0.1,0.1,0.2c-0.1,0.1-0.4,0.1-0.1,0.2c0.1,0,0.2,0.1,0.2,0.1
		C12.1,61.9,12,61.9,12,61.9z M11.4,60.3C11.5,60.3,11.5,60.3,11.4,60.3C11.5,60.3,11.5,60.4,11.4,60.3
		C11.5,60.3,11.5,60.3,11.4,60.3z M11.7,59.3C11.7,59.3,11.7,59.3,11.7,59.3C11.7,59.3,11.7,59.4,11.7,59.3
		C11.7,59.4,11.7,59.4,11.7,59.3C11.7,59.3,11.7,59.3,11.7,59.3z M12.2,55C12.2,55,12.2,55,12.2,55c-0.1,0-0.3,0-0.2,0.2
		c0,0,0.1,0.1,0.1,0.1c0,0,0,0.1,0,0.2c0,0.1,0,0.2,0,0.2c-0.1,0-0.2,0-0.2,0.1c0,0.1,0.1,0.3,0.1,0.3c0,0.1-0.1,0.2-0.2,0.2
		c-0.1,0-0.2-0.1-0.2-0.3c0-0.2-0.1-0.1-0.2,0c0,0,0,0,0,0.1c0,0-0.1,0.1-0.1,0.2c-0.1,0-0.1-0.1-0.2-0.1c-0.1,0-0.2,0-0.3,0
		c0,0,0,0,0,0c0,0,0,0-0.1-0.1c0,0,0,0,0,0c0-0.1,0.1-0.1,0-0.2c-0.1-0.1-0.2-0.2-0.3-0.1c-0.1,0.1-0.1,0-0.2,0.2
		c0,0.2-0.1,0.1-0.2,0.1c-0.1-0.1,0-0.2-0.1-0.3s-0.1,0-0.2-0.1c0-0.1-0.1-0.1-0.1-0.2c0,0,0,0,0,0c0.1,0,0.1,0,0.1-0.1
		c0,0,0-0.1,0-0.1c0,0,0,0,0-0.1c0,0,0-0.1-0.1-0.1c0,0,0,0,0,0c0,0,0,0.1,0.1,0c0,0,0,0,0.1,0c0.1-0.1,0.2-0.1,0.2-0.1
		c0.1,0,0.1,0,0.1-0.2c-0.1-0.2-0.1-0.3-0.2-0.4c0,0,0,0-0.1,0c0-0.1,0.1-0.2-0.1-0.1c-0.1,0-0.1-0.1-0.2,0c0,0,0,0.1-0.1,0.2
		c-0.1,0.1-0.3,0.2-0.3,0.2c0,0-0.1,0.3-0.1,0.3c0,0.1,0,0.2,0.1,0.2c0,0,0,0,0,0c0,0,0,0,0.1,0c0.1,0,0.1,0,0.1,0.1
		c0,0,0,0.1,0,0.1c-0.1-0.1-0.2-0.1-0.3-0.1c0,0,0,0,0,0c0,0,0,0,0,0c-0.1,0.1-0.1,0.2-0.1,0.2c0,0-0.2,0.1-0.2,0.2
		c0,0.1-0.2,0.2-0.4,0.2c0-0.1,0-0.1,0-0.2c0-0.1-0.1-0.2-0.1-0.3c0-0.1-0.1-0.1-0.1-0.2c0,0,0,0,0.1,0C8.7,55,8.6,55.2,8.7,55
		c0.1-0.2,0.1-0.1,0.1-0.3c0,0,0-0.1,0-0.2c0,0,0.1,0,0.1,0.1c0.1,0,0,0.1,0.2,0.2c0.2,0,0.3-0.1,0.3-0.1s0,0,0-0.1c0,0,0,0,0-0.1
		c0-0.2,0-0.1,0.1-0.2c0,0,0.1-0.1,0.1-0.1c0.1,0,0.1,0,0.2,0c0.1,0,0.1-0.1,0-0.2c0-0.1,0-0.1,0-0.2c0,0,0.1,0,0.1,0
		c0.3,0.1,0.3,0.2,0.4,0.2c0,0,0,0,0.1,0c0,0.1,0.1,0.1,0.2,0.2c0.1,0,0.2,0,0.4,0.1c0,0,0,0,0,0c0,0.1-0.1,0.1-0.1,0.2
		c0,0.1,0.1,0.2,0,0.2c-0.1,0-0.4,0.1-0.2,0.1c0.2,0,0.3,0.1,0.3,0.1c0,0,0,0,0.1,0c0,0,0,0,0,0.1c0,0.1,0.1,0.1,0.2,0.2
		c0,0,0,0,0,0c0,0,0,0.1-0.1,0.1c-0.2,0-0.3,0-0.4,0s-0.2-0.1-0.3,0s0,0.2,0,0.2c0.1,0,0.1,0,0.2,0c0.1,0,0.3,0,0.3,0
		c0.1,0,0.1,0.1,0.2,0.1c0.1,0,0.1,0,0.1-0.1c0-0.1,0.2,0,0.1,0c0,0.1,0,0.3,0,0.2c0.1-0.1,0.1-0.1,0.1-0.1s0,0,0.1-0.1
		c0.1-0.1,0.2,0,0.2-0.2c-0.1-0.2,0.1-0.3-0.1-0.2c-0.2,0-0.3,0.2-0.3,0.1c0,0,0-0.1,0-0.1c0,0,0.1-0.1,0.1-0.1
		c0.2-0.2,0.2,0.1,0.2,0.1c0,0,0.1-0.1,0.1-0.2c0,0,0,0,0,0c0.1-0.1,0.1-0.2,0.1-0.2c0.1-0.2,0.2,0,0.3,0c0,0,0,0,0.1,0c0,0,0,0,0,0
		C12.3,54.8,12.2,54.9,12.2,55z M12.3,46.8c0,0-0.1,0-0.2-0.2c0-0.1,0-0.1,0-0.2c0-0.1,0.1-0.2,0.1-0.2c0,0,0,0,0,0.1
		c0,0,0,0,0.1,0.1c0,0.1,0,0.2,0,0.2c0,0,0.1,0.1,0.2,0c0,0,0,0,0,0c0,0,0,0,0.1,0.1C12.5,46.8,12.3,46.9,12.3,46.8z M12.3,44.5
		c0-0.1,0-0.1,0.1-0.3c0,0,0.1,0.1,0.1,0.1S12.5,44.5,12.3,44.5C12.4,44.6,12.4,44.6,12.3,44.5C12.3,44.6,12.3,44.6,12.3,44.5z
		 M12.8,44.5c0.1-0.2,0.1-0.3,0.1-0.3s0,0.2,0-0.1c0-0.3,0-0.4-0.1-0.4c-0.1,0.1-0.1,0.3-0.2,0.2c-0.1-0.1-0.2-0.2-0.2-0.2
		s0.3,0,0.2-0.1c-0.1-0.2-0.1-0.3-0.2-0.4c-0.1-0.1-0.1,0-0.1,0.1c0,0,0,0,0,0l-0.1,0c0,0,0-0.1,0-0.1l0-0.1c0,0,0.1-0.1,0.1-0.2
		c0,0,0,0,0,0c0.1,0,0.1,0,0.2,0.1c0,0,0,0,0,0c0,0.1,0.1,0.1,0.2,0.1c0.1,0,0.1,0,0.1,0c0,0,0,0,0,0C12.9,43,12.9,43,13,43
		c0,0,0,0.1,0,0.1c0,0,0,0,0,0c0,0,0,0,0,0.1c0,0.1,0,0.1-0.1,0.2c-0.1,0.1,0,0.1,0,0.1c0,0,0,0,0,0c0,0,0,0,0,0
		c0,0.1,0.2,0.2,0.2,0.3c0,0.1,0.3,0.1,0.3,0.3c0,0.2,0.1,0.2-0.1,0.2c-0.1,0-0.1,0-0.1,0c0,0.1,0.1,0.2-0.1,0.3
		C13,44.7,12.7,44.7,12.8,44.5z M13.5,60.9c-0.2,0.1-0.2-0.1-0.3,0.2c0,0.3,0,0.6-0.1,0.4c-0.1-0.1-0.1,0-0.1-0.1c0,0,0-0.1,0.1-0.2
		c0.1-0.2,0-0.3,0-0.4c0,0,0,0,0,0c0,0,0,0,0,0c0,0,0.1,0,0.1,0c0.1,0,0.2,0,0.3,0C13.5,60.8,13.5,60.8,13.5,60.9z M13.3,43.8
		c-0.1-0.1-0.1-0.1-0.2-0.2c0,0,0,0,0,0c0.1,0,0.1-0.1,0.1-0.1s0,0,0.1,0c0.1,0.1,0.1,0.1,0.2,0.2c0,0,0,0.1,0.1,0.1
		C13.5,43.8,13.4,43.9,13.3,43.8z M14.5,62.3c-0.1,0-0.2,0.1-0.3,0.1c0,0,0,0-0.1,0c0,0-0.1-0.1-0.1-0.2c-0.1-0.1-0.2,0,0-0.2
		c0.2-0.2,0.2-0.3,0.2-0.3s0.1-0.2,0.2-0.1c0.1,0.2,0.2,0.2,0.2,0.3C14.7,62.1,14.7,62.3,14.5,62.3z M26.6,58
		C26.6,58,26.5,58,26.6,58C26.5,58,26.6,58,26.6,58v-5.7h4.2h0.3v0.3v5.5h-3c0,0,0,0,0,0L26.6,58C26.6,58.1,26.6,58.1,26.6,58z
		 M16.4,40.5C16.3,40.5,16.3,40.5,16.4,40.5c-0.1,0.1-0.1,0-0.2,0c0,0,0-0.1,0.1-0.3c0,0,0,0,0.1,0.1C16.3,40.3,16.3,40.4,16.4,40.5
		C16.3,40.4,16.3,40.5,16.4,40.5z M16.8,59.4C16.8,59.4,16.8,59.4,16.8,59.4C16.8,59.4,16.8,59.4,16.8,59.4
		C16.8,59.4,16.8,59.4,16.8,59.4C16.8,59.4,16.8,59.4,16.8,59.4z M17,59.8c0-0.1,0-0.3,0-0.4c0,0,0,0,0,0C17.1,59.6,17,59.7,17,59.8
		z M17.1,59.9C17.1,59.9,17.1,59.9,17.1,59.9C17.1,60,17,59.9,17.1,59.9C17,59.9,17,59.9,17.1,59.9C17,59.9,17,59.9,17.1,59.9z
		 M17.2,54.7c0-0.2,0.1-0.2,0.1-0.3c0.1,0.1,0,0,0.2,0.2c0.1,0.1,0.1,0.2,0.1,0.3c0,0,0,0.1,0,0.1c0,0,0,0.1,0,0.1c0,0,0,0.1,0,0.1
		c0,0,0,0,0,0c0-0.1-0.2-0.1-0.2-0.1c0,0-0.1,0,0,0.1c0,0-0.1-0.1-0.1-0.1C17.1,54.9,17.1,54.8,17.2,54.7z M17.1,54.3
		C17.1,54.1,17.1,54.2,17.1,54.3C17.1,54.3,17.1,54.3,17.1,54.3z M18.9,47.7C18.9,47.7,18.9,47.7,18.9,47.7
		C18.9,47.7,18.9,47.7,18.9,47.7c0.1,0,0.2,0,0.2,0l-0.2,0.1C18.9,47.8,18.9,47.8,18.9,47.7z M19.5,39.7
		C19.5,39.8,19.5,39.8,19.5,39.7c0-0.1-0.1-0.2-0.1-0.4c0.1,0,0.1,0.1,0.1,0.1C19.6,39.6,19.5,39.7,19.5,39.7z M19.6,40.5
		C19.7,40.5,19.7,40.5,19.6,40.5c0,0.1,0.1,0.2,0.1,0.2c0,0,0,0,0,0c0,0,0,0.1,0,0.1c0,0,0,0-0.1,0c-0.1,0-0.1,0-0.1,0
		C19.5,40.7,19.6,40.6,19.6,40.5z M19.5,41.6c0.1-0.1,0.1-0.2,0.2-0.2c0,0.1,0,0.2,0,0.2c0,0,0,0.1,0,0.1c0,0.1,0,0.2-0.1,0.3
		c-0.1,0.1-0.2,0-0.2,0c0,0,0-0.2-0.1-0.3c0,0,0,0,0,0C19.4,41.6,19.4,41.7,19.5,41.6z M19.3,40c-0.1,0-0.1,0,0-0.1L19.3,40
		C19.3,39.9,19.3,39.9,19.3,40C19.3,39.9,19.3,39.9,19.3,40z M19.3,40.7C19.3,40.8,19.3,40.8,19.3,40.7
		C19.2,40.8,19.2,40.8,19.3,40.7C19.2,40.8,19.2,40.8,19.3,40.7C19.2,40.8,19.2,40.8,19.3,40.7C19.2,40.8,19.2,40.8,19.3,40.7z
		 M19.2,42.1c0.1-0.1,0,0.1,0,0.1c0,0.1,0,0,0,0.1c0,0,0,0,0,0c0,0,0,0-0.1,0c0,0,0,0-0.1,0.1c0-0.1,0-0.2,0-0.3
		C19.1,42.2,19.1,42.1,19.2,42.1z M21.4,42.2C21.4,42.2,21.4,42.2,21.4,42.2c0,0,0,0.1-0.1,0.1c0,0-0.1,0.1-0.1,0.2c0,0,0,0.1,0,0.1
		c0-0.1-0.1-0.1-0.1-0.2c0-0.2,0.2-0.3,0.3-0.3c0,0,0.1,0.1,0.1,0.1c0,0,0,0,0,0c0,0,0,0,0,0C21.5,42.2,21.5,42.2,21.4,42.2
		C21.5,42.2,21.4,42.1,21.4,42.2C21.4,42.2,21.4,42.2,21.4,42.2z M21.4,42.7C21.4,42.7,21.4,42.7,21.4,42.7
		C21.4,42.7,21.4,42.6,21.4,42.7C21.4,42.6,21.4,42.6,21.4,42.7z M21.3,43.2c0.1,0,0-0.1,0-0.3c0.1-0.2,0.1-0.1,0.1-0.1
		c0,0,0.1-0.1,0.1-0.1s0-0.1,0-0.1c0,0,0-0.1,0.1-0.1c0,0,0,0,0,0c0,0,0,0,0,0.1c0,0.1,0,0.1,0,0.3c0,0.1-0.1,0.2-0.1,0.3
		c0,0,0,0,0,0.1c0,0.2-0.1,0.2-0.2,0.4c0,0.1,0,0.1-0.1,0c-0.1-0.1-0.1-0.3-0.1-0.4c0,0,0,0,0,0c0-0.1,0.1-0.1,0.1-0.1
		C21.3,43.1,21.3,43.2,21.3,43.2z M22.6,32.9c0,0,0-0.1,0-0.1c0.3-0.2,0.5-0.6,0.5-0.5c0,0.1,0,0.1-0.1,0.3
		c-0.1,0.1-0.1,0.2-0.1,0.2c-0.1,0.1-0.1,0.2,0,0.2c0,0,0.1,0.1,0.1,0.1c0,0.1-0.1,0.2-0.1,0.2c0,0.1,0,0.4-0.1,0.3
		c-0.1-0.1-0.1-0.1-0.2-0.2c-0.1-0.1,0-0.1-0.1-0.1c0,0,0,0,0,0c0-0.1,0-0.2,0-0.2C22.5,33,22.6,33,22.6,32.9z M22.8,31.8L22.8,31.8
		C22.8,31.8,22.8,31.8,22.8,31.8C22.8,31.8,22.8,31.8,22.8,31.8z M23.1,33.4c0,0.1,0,0.2-0.1,0.3C23,33.6,23,33.5,23.1,33.4
		C23.1,33.4,23.1,33.4,23.1,33.4z M22.9,43.8c-0.1,0.1-0.1,0.1-0.2,0.1c0,0-0.1,0-0.1,0c0,0,0.1,0,0.1-0.1
		C22.7,43.8,22.8,43.7,22.9,43.8C22.9,43.7,22.9,43.7,22.9,43.8C22.9,43.7,22.9,43.7,22.9,43.8z M22.6,44.2
		C22.6,44.2,22.6,44.2,22.6,44.2c0,0.1,0.1,0.2,0.2,0.2c0.1,0,0.2-0.2,0.2,0c0,0,0,0.1,0,0.1c-0.1,0-0.2,0.1-0.2,0.1c0,0,0,0,0,0
		c0-0.1-0.1-0.1-0.3-0.1c-0.3,0.1-0.4,0.2-0.4,0.2c-0.1,0-0.1,0.1-0.2,0c0-0.1,0.1-0.2,0.1-0.4c0-0.1-0.3-0.2-0.1-0.3
		c0.1,0,0.2-0.1,0.2-0.1c0,0,0,0,0,0.1C22.2,44.4,22.4,44.3,22.6,44.2z M22.5,29.9c0,0.1-0.1,0.1-0.1,0c0-0.2-0.2-0.2-0.2-0.2
		s0,0,0,0c0-0.1,0.1-0.1,0.2-0.1C22.5,29.6,22.6,29.8,22.5,29.9z M22.2,31.7c0.1,0.1,0.1,0.2,0.1,0.2c0,0,0,0,0,0.1
		c-0.1,0.2-0.1,0.2-0.1,0.3c0,0-0.1,0-0.1-0.1c0.1-0.1,0.1-0.2,0-0.2c-0.2,0.1-0.2,0.1-0.3,0.1c-0.1,0.1-0.1,0.2-0.2,0.2
		c0,0,0,0,0,0c0,0,0,0,0-0.1c0,0,0,0,0,0c0-0.1,0.1-0.3,0.3-0.4c0.1,0,0.1-0.2,0.1-0.2c0,0,0,0,0.1,0C22.2,31.6,22.2,31.8,22.2,31.7
		z M21.2,42.7C21.2,42.7,21.2,42.7,21.2,42.7C21.1,42.7,21.1,42.7,21.2,42.7c0-0.2-0.1-0.2-0.1-0.2c0,0,0-0.1,0-0.1c0,0,0-0.1,0-0.1
		C21.2,42.5,21.2,42.7,21.2,42.7z M20.1,54.6c-0.1-0.1,0-0.3,0-0.4c0,0,0,0,0,0c0.1,0.2,0.1,0.2,0.1,0.2c0,0,0-0.1,0-0.2
		c0,0,0.1,0,0.1,0c0.1-0.1,0.1-0.1,0.1-0.2c0.1-0.1,0.1,0,0.2,0.1c0.1,0.1,0,0.3-0.1,0.4c-0.1,0.1-0.1,0-0.2,0.2c0,0,0,0.1,0,0.2
		C20.2,54.9,20.2,54.7,20.1,54.6z M20.2,57.6c0,0.1-0.1,0.1-0.1,0.1C20,57.6,20,57.6,20.2,57.6C20.1,57.5,20.1,57.5,20.2,57.6
		C20.1,57.5,20.2,57.5,20.2,57.6z M20.7,55.5c0.1-0.1,0,0,0.2-0.2c0,0,0,0,0.1-0.1c0,0,0,0.1,0,0.1c-0.1,0.2-0.1,0.2,0,0.2
		c0,0,0,0,0,0c-0.1,0.1-0.1,0.2-0.1,0.2c0,0,0,0-0.1,0c-0.1,0.1-0.2,0.2-0.2,0.3c0,0.1,0,0-0.2,0.1c0,0,0,0,0,0c0,0,0,0,0-0.1
		C20.4,56.1,20.6,55.7,20.7,55.5z M20.8,55.2C20.8,55.2,20.9,55.2,20.8,55.2c0.1,0,0.1,0,0.1,0.1C20.9,55.3,20.8,55.3,20.8,55.2
		C20.8,55.2,20.8,55.2,20.8,55.2z M20.9,53.3c-0.1,0.1-0.3,0.1-0.4,0.1c-0.1,0-0.1,0.2-0.2,0.2c0,0.1,0,0.1-0.1,0
		c0-0.1,0.1-0.2,0.1-0.3c0,0,0-0.1,0-0.1c0.1-0.2,0.3-0.2,0.3-0.2C20.8,53.1,21,53.2,20.9,53.3z M20.8,52.2c0,0.1-0.1,0.2-0.3,0.3
		c0,0.1,0,0.1,0,0.2c0,0.3-0.1,0.1-0.3,0c0,0-0.1,0.1-0.1,0.1C20,52.8,20,53,19.9,53.1c0,0,0,0,0-0.1c0,0,0,0,0,0
		c0.1-0.1,0.1-0.2,0.2-0.3c0,0,0,0,0,0c0.1,0,0.1-0.1,0-0.1c0.1-0.1,0.1-0.2,0.2-0.3c0,0,0,0,0,0c0-0.1,0.1-0.1,0.1-0.1
		c0.3-0.1,0.4-0.2,0.5-0.1c0,0,0.1,0.1,0.2,0.1c0,0-0.1,0.1-0.1,0.1C20.9,52.3,20.9,52.2,20.8,52.2z M19.6,54.3
		c0.1,0.2,0.2,0.4,0.2,0.2c0-0.1,0-0.1,0-0.2c0,0,0.1,0,0.1,0.1c0.1,0.1-0.1,0.3-0.1,0.3s-0.1,0-0.3-0.1c0-0.2,0-0.4,0-0.5
		C19.5,54.1,19.6,54.2,19.6,54.3z M19.6,53.8c0,0,0.1,0,0.1,0c0,0.3-0.1,0.1-0.1,0.3C19.6,54,19.6,53.9,19.6,53.8z M20.2,51.5
		C20.2,51.5,20.2,51.5,20.2,51.5c0,0.2,0,0.2,0,0.2c-0.1,0,0-0.3-0.1-0.1c-0.1,0.2-0.1,0.3-0.2,0.1c-0.1-0.2-0.1-0.3-0.1-0.4
		c0,0,0,0,0,0c0,0,0,0,0,0c0,0,0.1-0.1,0.1-0.1c0,0,0,0.1,0,0.1c0,0,0,0,0,0C19.9,51.4,20,51.4,20.2,51.5z M20.1,50.9
		C20.2,50.8,20.2,50.8,20.1,50.9c0.1-0.1,0.2-0.1,0.2-0.1c0,0.1-0.1,0.2-0.1,0.3c0,0-0.1,0-0.1,0.1C20.1,51,20.1,51,20.1,50.9z
		 M18.3,48.9C18.2,48.9,18.2,48.9,18.3,48.9C18.2,48.9,18.2,48.9,18.3,48.9C18.2,48.9,18.2,48.8,18.3,48.9L18.3,48.9z M20.2,47.4
		C20.2,47.3,20.2,47.3,20.2,47.4c0.1-0.1,0.2-0.1,0.2-0.1L20.2,47.4z M21.8,46.8l-0.2,0.1c0-0.1,0-0.1,0-0.2c0-0.1,0.1-0.1,0.2-0.1
		c0.1,0,0.2,0,0.2-0.1c0,0,0-0.2,0-0.2c0.1-0.1,0.2,0,0.3,0.1L21.8,46.8z M30.1,38.8C30.1,38.8,30.1,38.8,30.1,38.8
		C30.1,38.8,30.1,38.8,30.1,38.8C30.1,38.8,30.1,38.8,30.1,38.8z M29.8,38.5C29.8,38.5,29.8,38.5,29.8,38.5c0,0.1,0,0.1,0,0.2
		C29.7,38.6,29.7,38.6,29.8,38.5C29.7,38.5,29.7,38.5,29.8,38.5z M27.7,36.1C27.7,36.1,27.6,36.1,27.7,36.1
		C27.7,36,27.7,36.1,27.7,36.1z M27.6,37.2c0.1-0.1,0.1-0.1,0.1-0.1c0,0,0,0,0,0c0,0,0,0,0-0.1c0,0,0-0.1,0-0.1c0,0,0-0.1,0-0.1
		c0,0,0,0,0,0c0,0,0.1,0.1,0.1,0.1c0,0.1,0,0.2,0,0.4c0,0.1,0.1,0.1,0.1,0c0,0,0,0,0.1-0.1c0-0.1,0.1-0.1,0.1-0.1
		c0,0,0.1-0.1,0.2-0.1c0.2-0.2,0,0,0.1,0.1c0.1,0,0,0.2,0,0.2c0,0,0,0.2,0,0.3c0,0.1,0,0.2,0.1,0.2c0,0,0.1-0.1,0.1-0.1c0,0,0,0,0,0
		c0,0,0.1,0,0.1,0c0,0,0.1,0.1,0.1,0.1c0.1,0.1,0.1,0.2,0,0.3c0,0.1-0.1,0-0.2,0.1c-0.1,0.1-0.1,0.2-0.1,0.2c0,0,0,0.1,0,0.2
		c-0.1,0-0.1,0.1-0.1,0.2c0,0,0,0-0.1,0c-0.1-0.1,0-0.1,0-0.2S28.5,38,28.4,38c-0.1,0,0,0.1,0,0.3c0,0.1,0,0.3,0,0.4
		c0,0.1,0.2,0.4,0.1,0.5c-0.1,0.1,0,0-0.1-0.2c-0.1-0.2-0.1,0.1-0.2,0.1c0,0-0.1,0.1-0.1,0.2c0,0,0,0.1-0.1,0.1c0,0.1-0.1,0.1-0.1,0
		c0-0.1-0.1-0.1,0-0.2c0.1-0.1,0.3-0.1,0.2-0.3c0-0.2-0.1-0.4-0.1-0.5c0,0,0,0-0.1,0c0-0.1,0-0.1-0.1,0c0,0-0.1,0-0.1,0.1
		c-0.3,0.1-0.1,0-0.1-0.1c0-0.1,0-0.2,0.1-0.2c0.1,0,0.1-0.1,0.1-0.3c0,0,0,0,0,0c0,0,0-0.1,0-0.1c0-0.1,0-0.1,0-0.1
		c0,0,0-0.1,0-0.1c0-0.2-0.1-0.2-0.2-0.1C27.6,37.4,27.6,37.3,27.6,37.2z M26.3,33.3c0.2,0,0.3,0,0.4,0.1c0.1,0.1,0.1,0.3,0.2,0.2
		c0-0.1,0.2-0.1,0.1-0.3c-0.1-0.2-0.2-0.3-0.2-0.3c0-0.1-0.2-0.2,0.1-0.1c0.2,0.1,0.2,0.3,0.3,0.2c0,0,0,0,0-0.1c0,0,0,0,0,0
		c0.1,0.3,0.1-0.1,0.1-0.4c0,0,0,0,0,0c0.1-0.1,0.1-0.1,0.2,0c0,0.2,0.1,0.3,0,0.4c-0.1,0.1-0.2,0.2-0.2,0.3c0,0.1-0.1,0.3-0.2,0.4
		c0,0.1,0.1,0.2-0.1,0.2c-0.2,0-0.2,0-0.3-0.1c-0.1-0.1-0.1-0.1-0.2-0.2C26.4,33.5,26,33.3,26.3,33.3z M25.3,31
		C25.3,31,25.3,31,25.3,31c0.2-0.1,0.3,0.2,0.4-0.1c0.1-0.2,0.1-0.2,0.1-0.3c0,0,0.1-0.1,0.2,0c0.1,0.1,0.1,0.1,0,0.2
		c-0.1,0.1,0,0.2,0,0.2s0.2,0.1,0,0.2c-0.2,0.1-0.1,0.1-0.2,0.1s-0.2-0.1-0.2,0c0,0.1,0,0.1-0.1,0.2c0,0,0,0,0,0c0,0,0,0,0-0.1
		c0,0,0-0.1,0-0.1c0,0,0,0,0-0.1C25.3,31.2,25.3,31.1,25.3,31z M24.2,32.3c0.1,0,0.2-0.1,0.3,0c0.1,0.1,0.1,0.2,0.2,0.3
		c0.1,0.1,0.1,0.1,0.2,0.1c0.1,0,0.2,0.1,0.2,0c0-0.2,0.1-0.2,0-0.3c-0.1-0.1-0.1-0.1-0.2-0.1c-0.1-0.1,0-0.3-0.1-0.3
		c0,0,0-0.1,0-0.1s0.1-0.2,0-0.2c0,0-0.1-0.1-0.1-0.1c0,0,0-0.1,0.1-0.1c0.1,0,0.1,0,0.2,0.1c0,0,0,0,0,0c0,0,0,0.1,0,0.2
		c0,0.2,0,0.3,0.2,0.3c0.1,0,0.1,0,0.1-0.1c0,0.1,0.1,0.1,0.1,0.1c0,0,0.2,0,0.2,0c0-0.1,0.1-0.1,0.2-0.2c0,0,0-0.1,0-0.1
		c0-0.1,0.1-0.1,0.1-0.1c0,0.1,0.1,0,0.1,0.2c0,0.2-0.1,0.3-0.1,0.3c0,0-0.1,0-0.2,0.1c-0.1,0-0.1,0.1-0.1,0.2s0.1,0.2,0,0.3
		c-0.1,0.1-0.1,0.1-0.1,0.2c0.1,0,0.2,0,0.2,0s0.1-0.3,0.1-0.2c0,0.2,0,0.1,0,0.3c0,0.2,0,0.2,0,0.3c0,0.1-0.2,0.1-0.3,0.1
		c0-0.1,0-0.2-0.2-0.2c-0.1,0-0.2,0.2-0.3,0.1c-0.1,0-0.1-0.2-0.1-0.1c0,0.1,0,0.1,0,0.3c-0.1,0.1-0.1,0.1-0.1,0.2s-0.3,0.1-0.2,0
		c0.1-0.2,0.1-0.3,0-0.3c-0.1,0,0.1-0.2-0.1-0.1c0-0.1,0-0.1,0-0.2c0,0,0,0,0-0.1c-0.1-0.2-0.1-0.1-0.2-0.2c-0.1-0.1-0.2,0-0.1-0.2
		c0-0.1,0.1-0.1,0-0.2c0-0.1,0,0-0.1-0.1C24.1,32.3,24,32.3,24.2,32.3z M24,33.8C24.1,33.7,23.9,33.6,24,33.8c0.1-0.1,0.2,0,0.2,0
		c0,0,0,0,0,0.1c-0.1,0.1-0.2,0.2-0.2,0.2c0,0,0,0,0,0C23.9,34,23.9,33.9,24,33.8z M22.9,29.1c0,0,0,0,0.1-0.1
		c0.1-0.2,0.2-0.1,0.2-0.2c0-0.1,0-0.2-0.1-0.3c0-0.1,0-0.3,0.2-0.2c0.1,0.1,0.1,0,0.1,0.2c0,0.2-0.1,0.2-0.1,0.4
		c0,0.3-0.1,0.3-0.2,0.4c0,0.1-0.2,0.3-0.2,0.2c-0.1-0.1-0.1-0.1-0.1-0.3C22.7,29.2,22.9,29.1,22.9,29.1z M22.8,28.1
		c0,0,0.1,0-0.1,0.3s-0.4,0.7-0.4,0.6c-0.1-0.1-0.1,0-0.1-0.2s0-0.2,0.1-0.2c0.1,0,0.2,0,0.2-0.1c0-0.1,0-0.1,0.1-0.2
		C22.6,28.2,22.7,28,22.8,28.1z M21.6,28.5c-0.1,0-0.2,0.1-0.2,0c0-0.2,0-0.1,0.1-0.3c0.1-0.1,0.3-0.2,0.3-0.3c0-0.1,0-0.1,0.1-0.2
		c0.1-0.1,0.4-0.2,0.4-0.2c0.1,0,0.4,0.1,0.2,0.2c-0.2,0.1-0.4,0.1-0.4,0.2C22,28,21.9,28,21.8,28.1c-0.1,0.1-0.3,0.3-0.1,0.2
		c0.3-0.1,0.4-0.1,0.4-0.1S21.7,28.5,21.6,28.5z M21.4,30c0.1-0.1,0-0.3,0.1-0.2c0.1,0,0.1,0.1,0.2,0.2c0,0.1,0.1,0.2,0.2,0.2
		c0.2,0,0.3,0.1,0.1,0.2c-0.1,0.1-0.3,0.1-0.3,0s0-0.2-0.1-0.2C21.4,30.1,21.4,30.1,21.4,30z M21.2,41.1c0.3-0.2,0,0.2,0.1,0.4
		c0,0.1,0,0.2-0.1,0.2c0,0,0,0,0-0.1c0-0.1-0.1-0.3-0.1-0.4C21.1,41.2,21.2,41.1,21.2,41.1z M20.7,46.8c0,0,0,0.1,0,0.1
		C20.7,46.9,20.7,46.8,20.7,46.8z M20.6,42.6C20.6,42.6,20.6,42.6,20.6,42.6C20.6,42.6,20.7,42.6,20.6,42.6
		C20.7,42.6,20.7,42.6,20.6,42.6z M20.6,39.5C20.6,39.5,20.6,39.5,20.6,39.5C20.6,39.5,20.6,39.5,20.6,39.5
		C20.6,39.5,20.6,39.5,20.6,39.5z M20.3,42.6c-0.1,0.2-0.1,0.3-0.2,0.4c-0.2,0.1-0.2,0.1-0.3,0.2c-0.1,0.2-0.2,0.1-0.3,0.2
		c0,0,0,0,0,0c-0.1,0-0.1,0.1-0.1,0.1c0,0,0,0,0,0c0-0.1,0-0.2,0-0.3c0,0,0,0,0,0c0,0,0-0.1,0-0.2c0,0,0,0,0,0c0-0.1,0-0.1,0-0.2
		c0.1,0,0.1,0,0.2-0.1c0.1-0.2,0.1,0,0.2-0.1c0.1-0.1,0.1,0,0.1-0.2c0-0.2,0-0.1-0.1-0.2c0,0,0-0.1,0-0.1c0-0.1,0-0.1,0-0.2
		c0,0,0-0.1,0-0.1c0,0.1,0.1,0.2,0.1,0.2c0.1,0,0,0.1,0.1,0.2c0,0.1,0.1,0.1,0.2,0c0,0,0.1-0.1,0.1-0.2
		C20.4,42.3,20.4,42.4,20.3,42.6z M20,41.6C20,41.6,20,41.6,20,41.6c0-0.1,0-0.1,0-0.1c0,0,0.1-0.1,0.1-0.1c0,0,0,0,0,0
		c0,0,0.1,0,0.1,0.1c0,0.1,0,0.1,0,0.1c0-0.1,0-0.1-0.1,0C20.1,41.6,20.1,41.6,20,41.6z M20.1,39.4C20.2,39.4,20.2,39.4,20.1,39.4
		c0.1,0.1,0.1,0.1,0.1,0.1c0.1,0.2,0.1,0.2,0.1,0.2c0,0-0.1-0.1-0.1,0c0,0-0.1,0-0.1,0C20,39.9,20,39.9,20,40.1c0,0,0,0,0,0.1
		c0,0.1-0.1,0.1-0.1,0.2c0,0-0.1,0-0.1,0c0,0,0,0,0-0.1c0-0.1-0.1-0.1-0.1-0.1c0,0,0-0.1,0-0.1c0,0,0,0,0,0c0,0,0-0.2-0.1-0.3
		c0,0,0-0.1,0-0.1c0,0,0,0,0-0.1c0-0.1,0.1,0,0.1-0.1c0-0.1,0-0.1,0-0.2C20,39.4,20,39.4,20.1,39.4z M19.1,27.9
		c0-0.2,0.2-0.2,0.2-0.3c0-0.1,0-0.1,0.1,0c0.1,0,0.2,0.2,0.2,0.1c0.1,0,0.1-0.1,0.2-0.2c0-0.1,0.1-0.3,0.1-0.3
		c0,0.1,0.1,0.1,0.1,0.2c0,0.1,0.2-0.1,0,0.1C20,27.8,20,27.8,20,27.9s-0.1-0.2-0.2,0c0,0.2,0.1,0.7-0.1,0.4
		c-0.2-0.3-0.1-0.5-0.2-0.4s-0.2,0.4-0.3,0.2S19.1,28.1,19.1,27.9z M19,40.3C19.1,40.4,19.1,40.4,19,40.3c0-0.1,0-0.2,0-0.2
		c0,0,0,0,0,0.1c0,0.1,0,0,0,0.1C19.2,40.4,19.2,40.4,19,40.3c0,0.1,0,0.1-0.1,0.1C19,40.4,19,40.4,19,40.3z M19,47.1
		c0.1,0,0.1,0,0.2,0.1c0,0,0,0.1-0.1,0.1c-0.1,0.1-0.2,0.2-0.2,0.2c0,0,0,0,0,0C18.9,47.4,18.9,47.1,19,47.1z M18.8,41.9
		C18.8,41.9,18.8,41.9,18.8,41.9C18.7,42,18.7,42,18.8,41.9C18.7,41.9,18.7,41.9,18.8,41.9z M18.7,42.3c0,0.1,0,0.2,0.1,0.2
		c0,0,0,0-0.1,0c0,0,0,0,0,0C18.7,42.5,18.7,42.4,18.7,42.3C18.7,42.4,18.7,42.4,18.7,42.3z M18.6,39.8
		C18.6,39.8,18.7,39.8,18.6,39.8c0,0.3,0.1,0.4-0.1,0.6c-0.1,0.1-0.1,0.1-0.1,0.2c0,0-0.1,0-0.1,0c0,0,0,0,0-0.1
		c0.1-0.1,0.2-0.1,0.1-0.3c0,0,0,0,0-0.1c0-0.1,0-0.2,0-0.3c0,0,0,0,0,0C18.5,39.7,18.5,39.6,18.6,39.8z M18.4,38.7
		C18.4,38.7,18.4,38.7,18.4,38.7C18.4,38.7,18.4,38.7,18.4,38.7c0,0.1,0,0.1,0,0.2C18.3,38.8,18.2,38.7,18.4,38.7z M18.2,47.2
		c0,0,0-0.1,0.1-0.1C18.3,47.1,18.3,47.1,18.2,47.2C18.3,47.2,18.3,47.4,18.2,47.2c0,0.1,0,0.1,0,0.1C18.2,47.3,18.2,47.2,18.2,47.2
		z M17.7,29.6c0.1,0,0.1,0,0.1,0.2c0,0.1,0,0.1,0.1,0.2c0,0.1,0,0.2,0,0.3c0-0.1-0.1-0.1-0.2-0.1C17.6,30.1,17.6,29.9,17.7,29.6
		C17.6,29.6,17.6,29.5,17.7,29.6z M17.5,39.8C17.5,39.8,17.5,39.7,17.5,39.8c0.1,0,0.1-0.1,0.1-0.1c0.1-0.1,0.1-0.1,0-0.1
		c0-0.1,0.1-0.1,0.2,0.1c0,0.1,0.1,0.1,0.2,0.2c0,0,0,0,0,0c0,0,0,0,0,0c0,0,0,0,0,0c0,0-0.1,0-0.2,0.1c0,0,0,0,0,0
		c-0.1-0.1-0.1-0.3-0.2-0.3C17.5,39.9,17.4,39.9,17.5,39.8C17.4,39.8,17.4,39.8,17.5,39.8z M17.3,42.1c0-0.2,0-0.3,0-0.4
		c0,0,0.1,0,0.1-0.1c0,0,0,0.1,0,0.1C17.4,42,17.3,42,17.3,42.1c0,0,0,0.1,0,0.1C17.3,42.3,17.3,42.3,17.3,42.1z M17.3,53.8
		c0,0.1,0,0.1-0.1,0c0,0,0,0,0,0C17.2,53.7,17.3,53.8,17.3,53.8z M16.8,48.6c0.1-0.1,0.1,0,0.2-0.1c0,0,0,0,0.1-0.1
		c0,0,0.1,0.1,0.1,0.1c0,0,0,0,0,0c0,0.2,0,0.3,0.1,0.3c0,0,0,0,0.1,0c0,0,0,0.1,0,0.1c0,0,0,0,0,0c-0.1,0.1,0,0.1,0,0.2
		c0,0,0,0,0,0l-0.1,0.1c0,0-0.1-0.1-0.2-0.1c0-0.1,0-0.2-0.1-0.2c0,0-0.1,0-0.1,0c0,0,0,0,0-0.1c0,0,0,0,0,0c0,0,0,0,0,0
		c0,0,0,0,0.1,0c0.1-0.1,0.1-0.1,0-0.2c0,0,0,0,0,0c0,0,0,0,0-0.1C16.9,48.6,16.8,48.6,16.8,48.6C16.8,48.6,16.8,48.6,16.8,48.6
		C16.8,48.6,16.8,48.6,16.8,48.6z M16.9,53.5c0,0,0,0.1,0.1,0.1c0,0.1,0,0.1-0.1,0.2c0,0,0,0,0-0.1c0,0,0,0,0,0c0,0,0,0,0,0
		C16.9,53.6,16.9,53.5,16.9,53.5z M16.8,55c0,0.2,0.1,0.2,0.2,0.3c0,0,0.1,0,0.1,0c0,0,0,0.1,0.1,0.1c0,0,0,0,0,0
		c0,0.1,0,0.2,0.1,0.3c0,0,0,0,0,0c-0.1,0.1-0.2,0.2-0.2,0.4c0,0,0,0-0.1,0c0,0,0,0,0,0c0,0,0,0,0-0.1c0,0,0,0,0,0c0,0,0-0.1,0-0.2
		c-0.1-0.4-0.2-0.7-0.2-0.7l0-0.3c0-0.1-0.1-0.1-0.1-0.2c0-0.1,0,0,0.1,0.1c0,0,0,0.1,0.1,0.1c0,0,0,0.1,0,0.1
		C16.7,54.9,16.7,55,16.8,55z M16.5,41.6c-0.1,0.1,0,0.2,0.1,0.3c0,0,0,0.1,0,0.1c0,0.3,0.1,0.3,0.1,0.4c0,0,0,0.1,0,0.1
		c-0.1,0-0.3,0-0.3-0.1c-0.1-0.1-0.1-0.1-0.1-0.2c0-0.1,0-0.2,0.1-0.4c0,0,0,0,0,0C16.4,41.7,16.4,41.6,16.5,41.6
		C16.5,41.5,16.5,41.5,16.5,41.6z M15.7,29.4c0,0,0.2-0.1,0.4,0c0.2,0.1-0.1,0.2-0.3,0.2C15.7,29.6,15.7,29.4,15.7,29.4z M15.6,30.4
		c0,0,0.1,0,0.2-0.1s0.1-0.3,0.1-0.5c0.1-0.2,0.2,0.1,0.2,0.2c0,0.1-0.1,0.4,0,0.5c-0.1,0-0.1,0.1-0.1,0.2c0,0,0,0,0,0
		c0,0-0.1,0.1-0.1,0.1c-0.1,0.2,0,0.2,0.1,0.3s0,0.1,0.2,0.3c0.2,0.1,0.1,0.1,0,0.3s-0.2-0.1-0.2-0.2c-0.1-0.1-0.2-0.2-0.2-0.3
		s-0.1-0.2-0.2-0.2c-0.1,0-0.2,0-0.2,0.1c-0.1,0,0-0.3,0-0.4L15.6,30.4z M15.4,29.6c0.2,0,0.3,0.2,0.2,0.3c-0.1,0.1-0.2,0.3-0.2,0.1
		C15.3,29.9,15.3,29.6,15.4,29.6z M15.2,41.5C15.2,41.5,15.1,41.6,15.2,41.5c-0.1,0.1-0.1,0.1-0.3,0.4c-0.2,0.3-0.1,0-0.1-0.1
		c0,0-0.1-0.3,0-0.2c0,0,0,0,0,0C15,41.8,15.2,41.5,15.2,41.5c-0.1,0,0-0.2,0-0.5c0-0.2-0.1-0.1-0.1-0.1s0-0.1,0-0.1
		c0,0,0-0.1,0-0.1c0,0,0,0,0,0c0,0,0,0.1,0.1,0.1c0.1,0,0.1,0.1,0.1,0.2c0.1,0.1,0.1,0.1,0.2,0.2c0.1,0.1,0,0.1-0.1,0.2
		S15.3,41.5,15.2,41.5z M19.7,62.4C19.7,62.4,19.7,62.4,19.7,62.4C19.7,62.4,19.7,62.4,19.7,62.4L19.7,62.4z M19.5,68.7
		c0-0.6,0-1.1,0-1.5c0-1,0.2-2.4,0.1-2.9c0-0.5,0-0.7-0.1-0.9c-0.1-0.2,0-0.3,0-0.5c0,0,0-0.1,0-0.1c0.1,0,0.1,0.1,0.2,0.1
		c0.1,0,0.2,0.1,0.2,0.1s0.2,0.1,0.1,0.2c-0.1,0.2-0.2,0.1-0.3,0.2c-0.1,0.1-0.2,0-0.1,0.1c0.1,0.1,0.1,0.1,0.2,0.2
		c0.1,0,0.1,0.2,0.2,0c0.1-0.1,0.1-0.2,0.2-0.3c0.1-0.2-0.1-0.2,0-0.3c0.1-0.1,0.1-0.1,0-0.3c-0.1-0.1-0.1-0.2,0-0.3
		c0,0,0.1-0.1,0.1-0.1l1.6,0.1l0.4,5.8L19.5,68.7z M31.1,69h-4.8v-5.3h1.4c0,0.1,0,0.2,0.1,0.2c0.2,0,0.3-0.1,0.5-0.1
		c0.1,0,0.1,0,0.1-0.1c0,0,0.1,0,0.1-0.1c0.2,0,0.3,0.1,0.4,0.1c0,0,0.1-0.1,0.2-0.2h0.5c0,0,0,0.1,0.1,0.1c0.1,0.1,0.1,0.2,0.2,0.3
		c0.1,0.1,0.2,0.3,0.2,0.2s0.1-0.3,0-0.4c-0.1-0.1-0.2-0.2-0.2-0.3h0.3c0.1,0.1,0.1,0.2,0.2,0.2c0.1,0.1,0.1,0.5,0.2,0.3
		c0,0,0,0,0,0c0,0,0.1,0.1,0.1,0c0,0,0-0.1,0-0.1c0.1-0.1,0.2-0.1,0.1-0.3c0,0,0-0.1,0-0.1h0.2c0,0,0,0,0,0h0.2V69z M44.3,68.8h-5.2
		v-5.3h5.2V68.8z M44.7,58.4h-5.4v-6.3h5.4V58.4z M94.2,65.4c0.1-0.1,0.1-0.1,0.1,0C94.3,65.5,94.2,65.5,94.2,65.4
		C94.2,65.5,94.2,65.4,94.2,65.4z M94.5,57.2c0.1,0,0.3-0.1,0.2,0.1c-0.1,0.2-0.1,0.2-0.1,0.3s0,0.1-0.1,0.2c0,0,0,0,0,0
		c0,0,0-0.1,0-0.1c0-0.1,0-0.1-0.1-0.1c0,0,0,0,0-0.1c0,0-0.1-0.1-0.1-0.1c0,0,0-0.1,0-0.1c0-0.1,0-0.1-0.1-0.1c0,0,0,0,0,0
		c0,0,0-0.1-0.1-0.1c-0.1-0.2,0-0.1,0.1-0.3c0,0,0,0,0,0c0.1,0.1,0,0.2,0.1,0.3C94.6,57.1,94.5,57.2,94.5,57.2z M94.5,50.6
		C94.5,50.6,94.4,50.6,94.5,50.6c-0.1,0.1-0.1,0.1-0.2,0.1c0,0,0,0-0.1,0c-0.1-0.1-0.2-0.2-0.1-0.2s0.2,0.1,0.2,0.1
		C94.4,50.6,94.5,50.6,94.5,50.6C94.5,50.6,94.5,50.6,94.5,50.6z M94.3,50c0.1,0,0.2,0.2,0,0.2c-0.1,0-0.2,0.1-0.3,0
		C94,50.1,94,50,93.9,50c-0.1,0-0.1,0-0.2,0c0,0,0,0,0,0c0.1-0.1,0.1-0.2,0.1-0.2c0,0,0,0,0,0c0,0,0.1,0.1,0.1,0.1c0,0,0,0,0,0
		C94.2,50,94.2,50,94.3,50z M94,58.3C94,58.3,94,58.3,94,58.3C94,58.3,94,58.3,94,58.3c-0.1-0.1-0.1-0.1-0.1-0.1
		C94,58.2,94,58.3,94,58.3C94,58.3,94,58.3,94,58.3z M93.8,48.9C93.8,48.9,93.8,48.9,93.8,48.9C93.8,48.9,93.8,48.9,93.8,48.9
		C93.8,48.9,93.8,48.9,93.8,48.9z M93.8,49.2c0-0.1,0-0.2,0-0.2c0,0,0,0,0,0C93.9,49,93.9,49.1,93.8,49.2c0.1,0.1,0.2,0,0.2-0.1
		c0,0,0,0,0,0s0,0,0,0c0,0-0.1,0.1-0.1,0.1c-0.1,0-0.1,0-0.1,0.1c-0.1,0.1-0.1,0-0.1,0C93.7,49.3,93.8,49.2,93.8,49.2z M93.7,56.9
		c0.1,0,0.1,0,0.1,0.1c0,0,0,0.1,0,0.2c0,0,0,0-0.1,0.1c-0.1,0.1-0.2,0.2-0.2,0.1c0-0.2-0.2-0.1-0.1-0.2
		C93.7,56.9,93.7,56.8,93.7,56.9z M93.5,48.7C93.6,48.7,93.6,48.7,93.5,48.7c0,0.1,0,0.1,0,0.1C93.5,48.8,93.5,48.7,93.5,48.7
		C93.5,48.7,93.5,48.7,93.5,48.7z M92,47C92,47,91.9,47,92,47C92,46.9,92,47,92,47z M91.9,47.8C92,47.7,92,47.7,91.9,47.8
		c0.1-0.1,0.1-0.1,0.1-0.1c0,0,0,0,0-0.1c0,0,0-0.1,0-0.1c0,0,0,0,0-0.1c0,0,0,0,0,0c0,0,0.1,0.1,0.1,0.1c0,0.1,0,0.2,0,0.3
		c0,0.1,0,0.1,0.1,0c0,0,0,0,0.1-0.1c0,0,0-0.1,0.1-0.1c0,0,0.1-0.1,0.1-0.1c0.2-0.1,0,0,0.1,0.1c0,0,0,0.1,0,0.2c0,0,0,0.2,0,0.2
		c0,0,0,0.1,0.1,0.1c0,0,0.1,0,0.1-0.1c0,0,0,0,0,0c0,0,0.1,0,0.1,0c0,0,0,0.1,0.1,0.1c0,0,0,0.1,0,0.2s0,0-0.1,0.1
		c-0.1,0.1-0.1,0.1-0.1,0.2c0,0,0,0.1,0,0.1c-0.1,0-0.1,0.1-0.1,0.1c0,0,0,0,0,0c-0.1-0.1,0-0.1,0-0.2c0-0.1-0.1-0.3-0.2-0.3
		c-0.1,0,0,0.1,0,0.2c0,0.1,0,0.2,0,0.3c0,0,0.1,0.3,0.1,0.4c-0.1,0.1,0,0-0.1-0.1c-0.1-0.1-0.1,0.1-0.1,0.1c0,0,0,0.1-0.1,0.1
		c0,0,0,0.1,0,0.1c0,0.1-0.1,0.1-0.1,0c0-0.1-0.1-0.1,0-0.2c0.1-0.1,0.2-0.1,0.1-0.2c0-0.1-0.1-0.3-0.1-0.3c0,0,0,0,0,0
		c0,0,0-0.1-0.1,0c0,0-0.1,0-0.1,0c-0.2,0.1,0,0-0.1-0.1c0-0.1,0-0.2,0.1-0.2c0.1,0,0.1-0.1,0.1-0.2c0,0,0,0,0,0c0,0,0,0,0-0.1
		c0,0,0,0,0-0.1c0,0,0,0,0-0.1C92.1,47.8,92,47.9,91.9,47.8C91.9,47.9,91.9,47.8,91.9,47.8z M92,53.1c0,0-0.1,0.2-0.1,0.3
		c-0.1-0.1-0.1,0-0.1-0.2c0,0,0,0,0-0.1c0,0,0,0,0,0C91.9,53.2,91.9,53.2,92,53.1C92,53.1,92,53.1,92,53.1z M90.9,45
		c0.2,0,0.3,0,0.3,0.1c0.1,0.1,0.1,0.2,0.1,0.1c0-0.1,0.2-0.1,0.1-0.2c-0.1-0.1-0.1-0.2-0.1-0.2c0,0-0.2-0.2,0.1,0
		c0.2,0.1,0.2,0.2,0.2,0.1c0,0,0,0,0,0c0,0,0,0,0,0c0.1,0.2,0.1-0.1,0.1-0.3c0,0,0,0,0,0c0.1,0,0.1-0.1,0.1,0c0,0.1,0.1,0.2,0,0.3
		c-0.1,0.1-0.2,0.1-0.2,0.2c0,0.1-0.1,0.2-0.1,0.3c0,0.1,0.1,0.2-0.1,0.2c-0.1,0-0.1,0-0.2-0.1c-0.1-0.1-0.1-0.1-0.2-0.1
		C91,45.2,90.7,45,90.9,45z M78.9,49.2C78.9,49.2,79,49.2,78.9,49.2c0.1,0.1,0.1,0.1,0,0.1C78.9,49.3,78.9,49.3,78.9,49.2
		C78.9,49.3,78.9,49.2,78.9,49.2z M79.8,49C79.8,49,79.8,49,79.8,49c0.1,0.1,0.2,0.1,0.2,0.1C79.9,49.1,79.8,49,79.8,49z M83.5,50.1
		C83.4,50.1,83.4,50.1,83.5,50.1c-0.1,0-0.1,0-0.1,0c0,0,0-0.1,0-0.2c0,0,0,0,0,0C83.4,49.9,83.4,50,83.5,50.1
		C83.4,50,83.4,50,83.5,50.1z M85.4,55.7c0-0.1,0-0.1,0-0.2c0-0.1,0-0.1,0-0.2c0,0,0-0.1,0-0.2c0,0,0,0,0,0c0,0,0,0,0,0
		c0.1,0,0.1,0,0.2,0.1c0.1,0,0.1,0,0.1,0c0,0,0,0.1,0,0.1c0,0,0,0,0,0c0,0.2-0.1,0.1-0.1,0.2c0,0.1,0,0.1,0,0.1L85.4,55.7z
		 M85.8,49.5C85.8,49.5,85.8,49.6,85.8,49.5c0,0-0.1-0.2-0.1-0.2c0,0,0.1,0.1,0.1,0.1C85.9,49.4,85.8,49.5,85.8,49.5z M85.9,50.1
		C85.9,50.1,86,50.1,85.9,50.1c0,0,0,0.2,0.1,0.1c0,0,0,0,0,0c0,0,0,0,0,0.1c0,0,0,0,0,0c0,0-0.1,0-0.1,0
		C85.9,50.2,85.9,50.1,85.9,50.1z M85.8,50.8c0-0.1,0.1-0.1,0.1-0.2c0,0.1,0,0.1,0,0.2c0,0,0,0,0,0.1c0,0.1,0,0.2-0.1,0.2
		c-0.1,0.1-0.1,0-0.1,0c0,0,0-0.1,0-0.2c0,0,0,0,0,0C85.7,50.9,85.8,50.9,85.8,50.8z M85.7,49.7C85.6,49.7,85.6,49.7,85.7,49.7
		L85.7,49.7C85.6,49.6,85.7,49.6,85.7,49.7C85.7,49.7,85.7,49.7,85.7,49.7z M85.6,50.2C85.6,50.3,85.6,50.3,85.6,50.2
		C85.6,50.3,85.6,50.3,85.6,50.2C85.6,50.3,85.6,50.3,85.6,50.2C85.6,50.3,85.6,50.3,85.6,50.2C85.6,50.3,85.6,50.3,85.6,50.2z
		 M85.6,51.2c0.1-0.1,0,0.1,0,0.1c0,0,0,0,0,0.1c0,0,0,0,0,0c0,0,0,0,0,0c0,0,0,0,0,0.1c0-0.1,0-0.1,0-0.2
		C85.5,51.2,85.5,51.2,85.6,51.2z M87.1,51.4C87.1,51.4,87.1,51.4,87.1,51.4c0,0,0,0.2,0,0.2c0,0,0,0,0,0c0,0,0,0,0-0.1
		C87.1,51.5,87,51.5,87.1,51.4C87,51.5,87,51.4,87.1,51.4z M87.3,51.3C87.3,51.3,87.3,51.3,87.3,51.3C87.3,51.3,87.3,51.3,87.3,51.3
		c-0.1,0.1-0.1,0.1-0.1,0.2c0,0,0,0,0,0.1c0,0-0.1-0.1-0.1-0.1c0-0.1,0.1-0.2,0.2-0.2C87.3,51.1,87.4,51.2,87.3,51.3
		C87.4,51.2,87.4,51.2,87.3,51.3C87.4,51.2,87.4,51.3,87.3,51.3C87.4,51.3,87.3,51.3,87.3,51.3C87.3,51.2,87.3,51.2,87.3,51.3
		C87.3,51.2,87.3,51.3,87.3,51.3z M87.2,51.6C87.2,51.6,87.2,51.6,87.2,51.6C87.2,51.6,87.2,51.6,87.2,51.6
		C87.2,51.6,87.2,51.6,87.2,51.6z M87.2,51.9c0.1,0,0-0.1,0-0.2c0-0.1,0.1-0.1,0.1-0.1s0-0.1,0-0.1s0-0.1,0-0.1c0,0,0,0,0.1-0.1
		c0,0,0,0,0,0c0,0,0,0,0,0c0,0.1,0,0.1,0,0.2c0,0.1-0.1,0.1-0.1,0.2c0,0,0,0,0,0.1c0,0.1-0.1,0.1-0.2,0.3c0,0,0,0.1,0,0
		c0-0.1-0.1-0.2-0.1-0.3c0,0,0,0,0,0C87.1,51.9,87.1,51.9,87.2,51.9C87.1,51.9,87.1,52,87.2,51.9z M88.2,44.8
		C88.2,44.7,88.2,44.7,88.2,44.8c0.2-0.3,0.3-0.5,0.4-0.4c0,0.1,0,0.1-0.1,0.2c-0.1,0.1-0.1,0.1-0.1,0.1c0,0.1-0.1,0.1,0,0.2
		c0,0,0.1,0,0.1,0.1c0,0.1-0.1,0.1-0.1,0.2c0,0.1,0,0.3-0.1,0.2c-0.1-0.1-0.1-0.1-0.1-0.2s0-0.1-0.1-0.1c0,0,0,0,0,0
		c0-0.1,0-0.1,0-0.2C88.1,44.8,88.1,44.8,88.2,44.8z M88.5,45.1c0,0.1,0,0.2,0,0.2C88.5,45.2,88.4,45.1,88.5,45.1
		C88.5,45.1,88.5,45.1,88.5,45.1z M88.4,52.4c-0.1,0-0.1,0.1-0.1,0.1c0,0,0,0-0.1,0c0,0,0,0,0.1-0.1C88.3,52.4,88.3,52.3,88.4,52.4
		C88.3,52.3,88.3,52.3,88.4,52.4C88.4,52.3,88.4,52.3,88.4,52.4z M88.2,52.7C88.2,52.7,88.2,52.7,88.2,52.7c0,0.1,0.1,0.1,0.1,0.1
		c0,0,0.2-0.1,0.2,0c0,0,0,0.1,0,0.1c0,0-0.1,0-0.2,0.1c0,0,0,0,0,0c0,0-0.1-0.1-0.2,0c-0.2,0.1-0.3,0.1-0.3,0.1c0,0-0.1,0.1-0.1,0
		c0-0.1,0.1-0.2,0.1-0.3c0-0.1-0.2-0.1,0-0.2c0.1,0,0.1,0,0.2,0c0,0,0,0,0,0C87.9,52.8,88,52.8,88.2,52.7z M87.9,54.6
		C87.9,54.6,87.9,54.6,87.9,54.6C87.9,54.7,87.9,54.7,87.9,54.6c0,0.1-0.1,0.1-0.2,0.2c-0.1,0-0.2-0.1-0.3-0.1c0,0,0,0,0,0
		c0,0,0-0.1,0-0.2c0-0.1,0.1-0.1,0.2-0.1c0.1,0,0.1,0,0.1,0c0,0,0-0.2,0-0.2c0.1-0.1,0.2,0,0.2,0.1c0,0,0.1,0,0.1,0l0,0.1
		c0,0,0,0,0,0c-0.1,0.1-0.1,0-0.2,0.1C87.8,54.5,87.9,54.5,87.9,54.6z M88.1,42.6c0,0.1-0.1,0.1-0.1,0c0-0.1-0.1-0.1-0.1-0.1
		s0,0,0,0c0,0,0.1-0.1,0.1-0.1C88.1,42.4,88.1,42.6,88.1,42.6z M87.9,43.9C87.9,44,88,44,88,44.1c0,0,0,0,0,0c0,0.1-0.1,0.2-0.1,0.2
		c0,0,0,0-0.1-0.1c0-0.1,0.1-0.2,0-0.1c-0.2,0.1-0.2,0-0.3,0.1c0,0-0.1,0.1-0.1,0.1c0,0,0,0,0,0c0,0,0,0,0-0.1c0,0,0,0,0,0
		c0-0.1,0.1-0.2,0.2-0.3c0.1,0,0.1-0.1,0.1-0.2c0,0,0,0,0.1,0C87.8,43.8,87.8,44,87.9,43.9z M89.4,54.7
		C89.4,54.7,89.4,54.7,89.4,54.7C89.4,54.7,89.4,54.7,89.4,54.7C89.4,54.6,89.5,54.6,89.4,54.7c0.1-0.1,0.1-0.1,0.1-0.1
		c0,0.1,0,0.1,0.1,0.1c0,0,0.1,0,0.1,0.1c0,0,0,0,0,0c0,0,0,0,0,0c0,0-0.1,0-0.1,0.1c0,0-0.1,0-0.1,0C89.4,54.8,89.3,54.8,89.4,54.7
		z M89.9,54.2C89.9,54.2,89.9,54.2,89.9,54.2C89.9,54.1,89.9,54.1,89.9,54.2c0.1-0.1,0.1-0.1,0.1-0.1c0,0,0-0.1,0-0.1
		c0-0.1,0,0,0.1,0c0,0,0.1-0.1,0.1-0.2c0.1,0,0.1,0,0.1,0c0,0-0.1,0.1-0.1,0.1C90,53.9,90,53.9,90,54c0,0.1-0.1,0.2-0.1,0.3
		c0,0,0,0,0,0C89.9,54.2,89.9,54.2,89.9,54.2z M91.5,62.2c0.2,0,0.1,0.1,0,0.1L91.5,62.2z M90.2,43.4C90.2,43.4,90.2,43.4,90.2,43.4
		c0.1-0.1,0.2,0.1,0.3-0.1c0.1-0.1,0.1-0.2,0.1-0.2c0,0,0.1-0.1,0.1,0c0,0.1,0.1,0.1,0,0.1c-0.1,0.1,0,0.2,0,0.2s0.1,0.1,0,0.1
		s-0.1,0.1-0.2,0.1c-0.1,0-0.2-0.1-0.2,0c0,0.1,0,0.1-0.1,0.1c0,0,0,0,0,0c0,0,0,0,0-0.1c0,0,0,0,0-0.1c0,0,0,0,0-0.1
		C90.1,43.5,90.1,43.5,90.2,43.4z M89.3,44.3c0.1,0,0.1-0.1,0.2,0c0.1,0.1,0.1,0.1,0.2,0.2c0.1,0.1,0.1,0.1,0.2,0.1
		c0.1,0,0.2,0.1,0.2,0c0-0.1,0.1-0.1,0-0.2c-0.1-0.1-0.1-0.1-0.1-0.1c0,0,0-0.2-0.1-0.2s0-0.1,0-0.1c0,0,0.1-0.1,0-0.1
		c0,0,0,0-0.1-0.1c0,0,0,0,0.1-0.1c0.1,0,0.1,0,0.1,0.1c0,0,0,0,0,0c0,0,0,0.1,0,0.1c0,0.2,0,0.2,0.1,0.2c0.1,0,0.1,0,0.1,0
		c0,0,0.1,0.1,0.1,0.1c0,0,0.1,0,0.1,0c0,0,0.1-0.1,0.1-0.2c0,0,0,0,0-0.1c0,0,0.1-0.1,0.1,0c0,0,0.1,0,0.1,0.1
		c0,0.1-0.1,0.2-0.1,0.2c0,0-0.1,0-0.2,0c-0.1,0-0.1,0.1-0.1,0.1c0,0,0.1,0.2,0,0.2c-0.1,0.1-0.1,0.1-0.1,0.1c0.1,0,0.1,0,0.1,0
		s0.1-0.2,0.1-0.1c0,0.1,0,0.1,0,0.2c0,0.1,0,0.1,0,0.2c0,0.1-0.2,0.1-0.2,0c0-0.1,0-0.1-0.1-0.1c-0.1,0-0.2,0.1-0.2,0.1
		c0,0-0.1-0.2-0.1-0.1c0,0.1,0,0.1,0,0.2c0,0.1-0.1,0.1-0.1,0.1c-0.1,0.1-0.2,0.1-0.1,0c0.1-0.1,0.1-0.2,0-0.2c-0.1,0,0.1-0.1,0-0.1
		c0-0.1,0-0.1,0-0.1c0,0,0,0,0-0.1c-0.1-0.1-0.1-0.1-0.2-0.1c-0.1-0.1-0.1,0-0.1-0.1c0-0.1,0-0.1,0-0.1
		C89.4,44.4,89.4,44.4,89.3,44.3C89.3,44.3,89.2,44.3,89.3,44.3z M89.2,45.4C89.2,45.3,89.1,45.2,89.2,45.4c0.1,0,0.1,0,0.1,0
		c0,0,0,0,0,0c-0.1,0.1-0.1,0.1-0.2,0.2c0,0,0,0,0,0C89.1,45.5,89.1,45.4,89.2,45.4z M88.4,42.1c0,0,0,0,0.1-0.1
		c0.1-0.1,0.1,0,0.1-0.1c0-0.1,0-0.1-0.1-0.2s0-0.2,0.1-0.1c0.1,0.1,0.1,0,0.1,0.2c0,0.2-0.1,0.1-0.1,0.3c0,0.2-0.1,0.2-0.1,0.3
		c0,0.1-0.1,0.2-0.2,0.1c0-0.1-0.1-0.1-0.1-0.2C88.2,42.1,88.3,42.1,88.4,42.1z M88.3,41.3c0,0,0.1,0-0.1,0.2
		c-0.1,0.2-0.3,0.5-0.3,0.4c0-0.1-0.1,0,0-0.1c0-0.1,0-0.1,0.1-0.2c0.1,0,0.2,0,0.1-0.1c0-0.1,0-0.1,0.1-0.1
		C88.2,41.4,88.2,41.3,88.3,41.3z M87.4,41.6c-0.1,0-0.2,0.1-0.1,0c0-0.1,0-0.1,0.1-0.2c0.1-0.1,0.2-0.2,0.2-0.2
		c0-0.1,0-0.1,0.1-0.1c0.1,0,0.3-0.1,0.3-0.1c0.1,0,0.3,0.1,0.1,0.1c-0.2,0.1-0.3,0.1-0.3,0.1c0,0.1-0.2,0.1-0.2,0.1
		c0,0.1-0.2,0.2,0,0.2c0.2,0,0.3-0.1,0.3-0.1S87.5,41.6,87.4,41.6z M87.3,42.7c0-0.1,0-0.2,0.1-0.2c0.1,0,0.1,0.1,0.1,0.1
		c0,0,0,0.1,0.1,0.1c0.1,0,0.2,0.1,0.1,0.1c-0.1,0.1-0.2,0.1-0.3,0c0-0.1,0-0.1-0.1-0.1C87.2,42.8,87.2,42.7,87.3,42.7z M87.1,50.5
		c0.3-0.1,0,0.1,0.1,0.3c0,0.1,0,0.1-0.1,0.1c0,0,0,0,0-0.1c0-0.1-0.1-0.2-0.1-0.3C87,50.5,87.1,50.5,87.1,50.5z M86.7,51.5
		C86.7,51.5,86.7,51.5,86.7,51.5C86.7,51.5,86.7,51.5,86.7,51.5C86.7,51.5,86.7,51.5,86.7,51.5z M86.7,49.4
		C86.7,49.4,86.7,49.4,86.7,49.4C86.7,49.4,86.7,49.4,86.7,49.4C86.7,49.4,86.7,49.4,86.7,49.4z M86.6,54.9c0,0.1,0,0.1,0,0.2
		c0,0.1,0,0.1,0,0.1c0,0,0,0.1,0,0.1c0,0,0,0,0,0l0,0c0,0,0,0,0,0c0,0,0,0,0-0.1c0,0-0.1,0-0.1,0c0,0,0,0-0.1,0c0,0,0,0,0-0.1
		c0.1-0.1,0.2-0.1,0.1-0.2h-0.1c0,0,0,0,0,0c0,0,0,0,0-0.1C86.4,54.8,86.5,54.8,86.6,54.9C86.5,54.9,86.6,54.9,86.6,54.9z
		 M86.4,51.5c-0.1,0.2-0.1,0.2-0.2,0.3c-0.1,0.1-0.1,0-0.2,0.2c-0.1,0.1-0.1,0.1-0.2,0.1c0,0,0,0,0,0c0,0-0.1,0.1-0.1,0.1
		c0,0,0,0,0,0c0-0.1,0-0.2,0-0.2c0,0,0,0,0,0c0,0,0-0.1,0-0.1c0,0,0,0,0,0c0,0,0-0.1,0-0.1c0,0,0.1,0,0.1-0.1c0.1-0.1,0,0,0.1-0.1
		c0.1-0.1,0,0,0-0.2c0-0.1,0-0.1-0.1-0.1c0,0,0,0,0-0.1c0,0,0-0.1,0-0.1c0,0,0-0.1,0-0.1c0,0.1,0,0.2,0.1,0.2c0.1,0,0,0.1,0.1,0.2
		c0,0.1,0.1,0.1,0.2,0c0,0,0.1-0.1,0.1-0.1C86.5,51.3,86.5,51.4,86.4,51.5z M86.4,50.7c0,0.1,0,0.1,0,0.1c0-0.1,0-0.1-0.1,0
		c0,0-0.1,0-0.1,0.1c0,0,0,0,0,0c0,0,0,0,0-0.1c0,0,0.1-0.1,0.1-0.1C86.3,50.7,86.4,50.7,86.4,50.7C86.4,50.7,86.4,50.6,86.4,50.7z
		 M86.3,49.3C86.3,49.3,86.3,49.3,86.3,49.3c0.1,0,0.1,0.1,0.1,0.1c0.1,0.1,0.1,0.1,0.1,0.2c0,0-0.1-0.1-0.1,0c0,0-0.1,0-0.1,0
		c-0.1,0.1-0.1,0.1-0.1,0.3c0,0,0,0,0,0c0,0.1,0,0.1,0,0.1c0,0-0.1,0-0.1,0c0,0,0,0,0,0c0-0.1,0-0.1-0.1-0.1c0,0,0-0.1,0-0.1
		c0,0,0,0,0,0c0,0,0-0.1,0-0.2c0,0,0,0,0-0.1c0,0,0,0,0-0.1c0-0.1,0.1,0,0.1-0.1c0,0,0-0.1,0-0.1C86.2,49.3,86.2,49.3,86.3,49.3z
		 M85.5,41.2c0-0.1,0.1-0.1,0.1-0.2c0-0.1,0-0.1,0.1,0c0.1,0,0.1,0.1,0.2,0.1s0.1,0,0.1-0.1c0-0.1,0.1-0.2,0.1-0.2
		c0,0.1,0.1,0.1,0.1,0.1s0.1-0.1,0,0.1c-0.1,0.2-0.1,0.2-0.1,0.3s-0.1-0.1-0.1,0c0,0.2,0.1,0.5-0.1,0.3c-0.1-0.2,0-0.3-0.2-0.3
		c-0.1,0.1-0.2,0.3-0.2,0.2C85.5,41.3,85.5,41.3,85.5,41.2z M85.5,50C85.5,50,85.5,50,85.5,50c0-0.1,0-0.1,0-0.1
		C85.5,49.8,85.5,49.9,85.5,50C85.5,49.9,85.5,49.9,85.5,50C85.6,50,85.6,50,85.5,50C85.5,50,85.4,50,85.5,50
		C85.4,50,85.5,50,85.5,50z M85.4,54.7c0.1,0,0.1,0,0.1,0.1c0,0,0,0.1-0.1,0.1C85.4,55,85.4,55,85.4,55c0,0,0,0,0,0
		C85.4,54.9,85.4,54.7,85.4,54.7z M85.3,51.1C85.3,51.1,85.3,51.1,85.3,51.1C85.2,51.1,85.2,51.1,85.3,51.1
		C85.2,51.1,85.2,51.1,85.3,51.1z M85.2,51.4c0,0,0,0.1,0.1,0.1c0,0,0,0-0.1,0c0,0,0,0,0,0C85.2,51.5,85.2,51.4,85.2,51.4
		C85.2,51.4,85.2,51.4,85.2,51.4z M85.2,49.5C85.2,49.6,85.2,49.6,85.2,49.5c0,0.2,0.1,0.3-0.1,0.4c0,0-0.1,0.1-0.1,0.1
		c0,0-0.1,0-0.1,0c0,0,0,0,0,0C85,50,85,49.9,85,49.8c0,0,0,0,0,0c0-0.1,0-0.1,0-0.2c0,0,0,0,0,0C85.1,49.5,85.1,49.5,85.2,49.5z
		 M85,48.8C85,48.8,85,48.8,85,48.8C85,48.8,85,48.8,85,48.8c0,0.1,0,0.1,0,0.1C84.9,48.9,84.9,48.8,85,48.8z M84.9,54.8
		C84.9,54.7,84.9,54.7,84.9,54.8C84.9,54.7,84.9,54.7,84.9,54.8C84.9,54.8,85,54.9,84.9,54.8C84.9,54.8,84.9,54.8,84.9,54.8
		C84.8,54.8,84.8,54.8,84.9,54.8z M84.4,42.4c0,0,0.1,0,0.1,0.1c0,0.1,0,0.1,0.1,0.2c0,0.1,0,0.1,0,0.2c0,0-0.1-0.1-0.1-0.1
		C84.4,42.8,84.4,42.6,84.4,42.4C84.4,42.4,84.4,42.4,84.4,42.4z M84.3,49.5C84.3,49.5,84.3,49.5,84.3,49.5
		C84.3,49.5,84.4,49.5,84.3,49.5c0.2-0.1,0.1-0.1,0.1-0.1c0-0.1,0.1-0.1,0.1,0c0,0.1,0.1,0.1,0.1,0.2c0,0,0,0,0,0c0,0,0,0,0,0
		c0,0,0,0,0,0c0,0-0.1,0-0.1,0.1c0,0,0,0,0,0C84.4,49.7,84.4,49.6,84.3,49.5C84.3,49.6,84.2,49.6,84.3,49.5
		C84.2,49.6,84.3,49.6,84.3,49.5z M84.2,51.2c0-0.2,0-0.2,0-0.3c0,0,0,0,0.1-0.1c0,0,0,0,0,0.1C84.3,51.1,84.2,51.1,84.2,51.2
		C84.2,51.3,84.2,51.3,84.2,51.2C84.2,51.3,84.2,51.3,84.2,51.2z M83.6,50.8c-0.1,0,0,0.1,0.1,0.2c0,0,0,0.1,0,0.1
		c0,0.2,0.1,0.2,0.1,0.3c0,0,0,0,0,0.1c-0.1,0-0.2,0-0.3-0.1c-0.1-0.1-0.1-0.1-0.1-0.2c0-0.1,0-0.2,0.1-0.3c0,0,0,0,0,0
		C83.5,50.9,83.5,50.8,83.6,50.8C83.5,50.8,83.5,50.8,83.6,50.8z M83.3,42.3c0.2,0.1-0.1,0.1-0.2,0.1c-0.1,0-0.1-0.1-0.1-0.1
		C83,42.2,83.1,42.2,83.3,42.3z M82.9,43c0,0,0.1,0,0.1-0.1c0.1-0.1,0.1-0.2,0.1-0.4c0.1-0.2,0.1,0,0.1,0.1c0,0.1-0.1,0.3,0,0.3
		c-0.1,0-0.1,0.1-0.1,0.1c0,0,0,0,0,0c0,0,0,0-0.1,0.1c-0.1,0.1,0,0.1,0.1,0.2c0.1,0.1,0,0.1,0.1,0.2c0.1,0.1,0.1,0.1,0,0.2
		s-0.1-0.1-0.2-0.1s-0.1-0.1-0.1-0.2c0-0.1-0.1-0.1-0.1-0.2c-0.1,0-0.1,0-0.2,0.1c-0.1,0,0-0.2,0-0.3L82.9,43z M82.7,42.4
		c0.1,0,0.2,0.1,0.1,0.2s-0.1,0.2-0.1,0.1C82.7,42.6,82.7,42.4,82.7,42.4z M82.3,50.9C82.3,50.9,82.3,50.9,82.3,50.9
		c0.1,0.1,0.3-0.1,0.3-0.1s0-0.1,0-0.3c0-0.2-0.1-0.1-0.1-0.1s0,0,0-0.1c0,0,0-0.1,0-0.1c0,0,0,0,0,0c0,0,0,0.1,0.1,0.1
		c0.1,0,0,0.1,0.1,0.2c0.1,0.1,0.1,0.1,0.1,0.2c0.1,0.1,0,0.1-0.1,0.1c0,0.1,0,0-0.1,0s-0.1,0-0.1,0s0,0-0.1,0.2
		c-0.1,0.2-0.1,0-0.1-0.1C82.3,51,82.2,50.8,82.3,50.9z M81.2,52.4c-0.1-0.1,0-0.1-0.1-0.2c0,0,0,0,0,0c0.1,0,0.1,0,0.1,0s0,0,0,0
		c0.1,0,0.1,0.1,0.1,0.1c0,0,0,0.1,0.1,0.1C81.3,52.4,81.2,52.4,81.2,52.4z M80.9,51c0,0,0-0.1,0-0.1C80.9,50.9,80.9,50.9,80.9,51
		c0.1-0.1,0.1-0.1,0.1,0c0.1,0.2,0.2,0.4,0.3,0.5c0,0.1,0,0.1,0,0.2c0,0,0,0.1,0,0.1c0,0,0,0,0,0s0,0,0,0c0,0,0,0-0.1-0.1
		c-0.1-0.1,0,0-0.1,0c0,0,0,0,0,0c0,0,0,0,0,0c0,0,0,0,0,0c0,0,0-0.1-0.1-0.1c0,0-0.1-0.1-0.1-0.1c0,0,0-0.1,0-0.1
		S80.8,51.1,80.9,51C80.8,51.1,80.8,51.1,80.9,51C80.8,51.1,80.8,51.1,80.9,51C80.8,51.1,80.8,51.1,80.9,51C80.8,51,80.9,51,80.9,51
		z M80.5,51.6c0,0,0.1,0.1,0.1,0.1c0,0,0,0,0,0C80.5,51.7,80.5,51.6,80.5,51.6C80.5,51.6,80.5,51.6,80.5,51.6z M80.4,51.8
		c0.1,0,0.1,0,0.1,0.1c0,0.1,0.1,0.1,0.1,0.1c0.1,0,0.1,0,0,0c0,0,0,0,0,0c0.1,0,0.1-0.1,0.1-0.1c0,0,0,0,0,0.1c0,0,0,0,0,0
		c0,0,0,0,0,0.1c0,0.1,0,0.1-0.1,0.1c-0.1,0.1,0,0,0,0.1c0,0,0,0,0,0c0,0,0,0,0,0c0,0.1,0.1,0.1,0.2,0.2s0.2,0.1,0.2,0.2
		c0,0.1,0,0.1,0,0.1L80.4,51.8C80.4,51.8,80.4,51.8,80.4,51.8C80.4,51.8,80.4,51.8,80.4,51.8z M80.1,46.1
		C80.1,46.1,80.1,46.2,80.1,46.1c0,0.1,0,0.1,0,0.2c-0.1,0.2-0.2,0.1-0.1,0.2c0,0,0,0.1,0.1,0.1c0,0.1,0,0.1,0,0.2
		c-0.1,0-0.1,0.1-0.2,0c0-0.1,0.1-0.1,0-0.2c0-0.1-0.1-0.1-0.1-0.2c0,0,0.1-0.1,0.1-0.2c-0.1-0.1-0.1-0.1-0.1-0.2
		c0-0.1,0.1-0.1,0.1-0.1S80,46,80.1,46.1C80.1,46.1,80.1,46.1,80.1,46.1z M79.5,45.1c0-0.2,0.1,0,0.1-0.2c0-0.2,0-0.2,0-0.2
		c0-0.1,0-0.1,0-0.2c0,0,0.1,0,0.1,0c0.1,0.1,0,0.3,0,0.3c0.1,0,0.1,0,0.1,0.1c0,0.1-0.2,0.1-0.2,0.1c0,0-0.1,0-0.1,0.1
		s-0.1,0.1,0,0.2c0.1,0.1,0.1,0.1,0.1,0.2c0,0.1,0.2,0,0.1,0.1c0,0-0.1,0-0.1,0c-0.1,0-0.1,0-0.1,0s0.1-0.1,0-0.2c0,0-0.1,0-0.1,0
		C79.5,45.2,79.5,45.3,79.5,45.1z M79.3,48.9C79.3,48.9,79.3,48.9,79.3,48.9C79.4,48.9,79.4,48.9,79.3,48.9c0.1,0.1,0.1,0.1,0.2,0.2
		c0,0.1,0,0.1,0,0.1c0,0,0,0-0.1,0c-0.1,0-0.1-0.1-0.1-0.1C79.3,48.9,79.3,48.9,79.3,48.9z M79.1,47.8
		C79.1,47.8,79.1,47.8,79.1,47.8c0.1,0.1,0.1,0.1,0.1,0.1c0,0.1,0,0.2-0.1,0.2c-0.1,0-0.1,0-0.2-0.1c-0.1-0.1-0.1-0.1-0.1-0.2
		c0,0,0,0-0.1-0.1C78.9,47.7,79.1,47.8,79.1,47.8z M78.5,49.4c0.1,0,0.2,0.1,0.1,0.2c-0.1,0-0.1,0-0.2,0c0-0.1,0-0.1-0.1-0.1
		C78.4,49.5,78.4,49.4,78.5,49.4z M78,48.8c0.1,0,0.1,0,0.1,0c0,0,0,0.1,0,0.1c0,0,0,0,0,0c0,0.1-0.1,0.1-0.1,0.2c0,0.1,0,0-0.1-0.1
		C77.9,49,78,48.9,78,48.8z M75.9,48.3C75.9,48.3,75.9,48.3,75.9,48.3L75.9,48.3C75.9,48.3,75.9,48.3,75.9,48.3
		C75.9,48.3,75.9,48.3,75.9,48.3z M75.3,48.9c-0.1,0,0,0,0-0.1c0.1-0.1,0.1,0,0.1-0.2c0-0.1,0.1-0.1,0-0.1c-0.1-0.1,0-0.1,0.1-0.1
		c0.1,0,0.1,0,0.2-0.1c0,0,0,0.1,0,0.1c0,0,0-0.1-0.1,0c-0.1,0.1-0.1,0-0.1,0.1c0,0.1,0,0.1,0,0.1c0,0,0,0.1,0,0.2L75.3,48.9
		C75.3,48.9,75.3,48.9,75.3,48.9z M92.2,65.8C92.1,65.9,92,66,92,65.9c0-0.1,0-0.2,0-0.2C92.1,65.7,92.1,65.7,92.2,65.8
		c0.1-0.1,0.1-0.1,0.1-0.3c0,0,0,0,0,0c0,0,0,0,0,0C92.3,65.6,92.2,65.7,92.2,65.8z M92.3,62.5C92.3,62.5,92.2,62.5,92.3,62.5
		c-0.1,0.2-0.2,0.2-0.2,0.4c0,0.1,0,0.2-0.1,0.1c0-0.1-0.1-0.1-0.1,0c0,0.1-0.1,0-0.2,0c-0.1,0-0.1,0-0.2,0c0,0-0.1,0-0.1,0
		c0,0,0,0,0-0.1l0-0.4c0,0.1,0.1,0.1,0.1,0.1c0.1,0.1,0.1,0,0.1,0.2s0.1,0,0.1-0.1c0-0.1,0.1,0,0.2-0.1c0.1-0.1,0.1-0.2,0.1-0.4
		c0-0.1,0-0.1,0-0.1c0,0,0,0,0,0c0.1,0,0,0.1,0.1,0.1c0,0,0,0,0,0C92.3,62.4,92.3,62.4,92.3,62.5C92.3,62.5,92.3,62.5,92.3,62.5z
		 M92.4,56.3C92.4,56.3,92.4,56.3,92.4,56.3c-0.1,0-0.2,0-0.2,0c0,0,0,0,0,0c0,0.1-0.1,0.1-0.2,0c-0.1-0.1,0-0.2-0.1-0.3
		c-0.1-0.1-0.1-0.2-0.2-0.3c-0.1,0-0.1-0.1-0.2,0c0,0,0,0,0,0l0-0.2v0c0,0,0,0,0,0c0,0,0.1,0,0.1,0c0,0,0,0,0.1,0
		c0.1,0,0.1-0.1,0.1-0.1c0,0,0-0.1,0-0.1c0-0.1,0.1-0.1,0-0.2c-0.1-0.1-0.1-0.2-0.1-0.2c0,0,0-0.1,0-0.1c0,0,0,0,0,0c0,0,0,0,0.1,0
		c0.1,0,0.1,0.1,0.2,0.1c0.1,0,0.1,0,0.1-0.1c0,0,0.1-0.1,0.1-0.1c0,0,0,0,0,0c0.1,0,0,0,0.1-0.1c0,0,0,0,0.1,0
		c0.1,0,0.1-0.1,0.1-0.2c0-0.1-0.1-0.1-0.1-0.1c0,0,0,0,0-0.1c0,0,0,0,0.1,0.1c0.1,0.1,0.1,0,0.1-0.1c0,0,0,0,0,0c0,0,0.1,0.1,0,0.1
		c0,0.1,0,0.3-0.2,0.4c-0.2,0.1-0.2,0.3-0.2,0.3c0,0,0.1,0.2,0.2,0c0-0.1,0-0.1,0.1-0.2c0.1-0.1,0.2-0.1,0.2-0.2
		c0-0.1,0-0.2,0.1-0.2c0,0,0,0.1,0.1,0.1c0.1,0,0.1,0,0.2,0c0,0,0,0,0,0c0,0,0,0,0,0c0,0,0,0,0,0c0,0,0,0-0.1,0.1c0,0,0,0,0,0
		c-0.1,0-0.1,0-0.1,0.1c0,0.1,0,0.1,0,0.2c0,0.1-0.1,0.1-0.1,0.2c0,0,0,0-0.1,0c0,0,0,0,0,0.1c0,0,0,0.1,0,0.1c0,0.1,0,0,0.1,0.1
		c0,0,0,0.1,0.1,0.1c0,0,0.1,0.1,0.2,0.2c0,0.1,0.1,0.2,0.1,0.2c0,0,0,0-0.1,0c-0.1,0-0.1-0.2-0.2-0.2c-0.1,0-0.2-0.1-0.1,0.1
		c0,0.1,0,0.3,0.1,0.3c0.1,0,0.1,0,0.2,0c0,0.1,0.1,0.2-0.1,0.2c-0.2,0-0.3-0.2-0.3-0.1C92.5,56.3,92.5,56.3,92.4,56.3
		C92.4,56.3,92.4,56.3,92.4,56.3z M92.8,65.6C92.8,65.6,92.8,65.6,92.8,65.6c0,0,0,0.1,0,0.2C92.8,65.7,92.8,65.6,92.8,65.6z
		 M93.2,65.7c0,0-0.1-0.1-0.1-0.1c0-0.1-0.1-0.1-0.1-0.1c0,0-0.1,0-0.1,0c0,0-0.1,0-0.1,0c0,0,0,0,0,0c0,0,0,0,0,0c0,0-0.1,0-0.1,0
		c0,0,0,0,0,0c0,0,0-0.1,0-0.2c0-0.1,0,0,0.1-0.1c0,0,0.1-0.1,0.1-0.1c0,0,0,0,0,0c0,0.1,0,0.1,0,0.2c0,0,0,0,0.1,0c0,0,0,0,0.1,0
		c0,0,0,0,0.1,0c0,0,0,0.1,0.1,0c0,0,0,0,0,0c0,0.1-0.1,0.1-0.1,0.2C93.3,65.6,93.3,65.6,93.2,65.7z M93.2,61.6c0-0.1-0.2,0-0.2,0.1
		c0,0.1,0,0.1,0.1,0.1c0,0,0,0,0,0c0.1,0.1,0.1,0.1,0,0.2c0,0,0,0-0.1,0c0,0,0,0-0.1,0c-0.1,0-0.1-0.1-0.1,0c0,0.1,0,0.1-0.1,0.2
		c0,0,0,0-0.1,0c0,0-0.1,0-0.1,0c0,0,0,0,0-0.1c0-0.1-0.2,0-0.1-0.3c0-0.1,0-0.1,0.1-0.2c0,0,0,0,0,0c0.1,0,0.1-0.1,0.1-0.1
		c0,0,0,0,0.1,0.1c0.1,0.2,0,0.4,0.1,0.3c0.1-0.1,0-0.2,0.1-0.2c0.1-0.1,0.2,0,0.2-0.1c0-0.1,0-0.3-0.1-0.3c-0.1,0-0.3,0.1-0.2,0
		c0.2-0.2,0.2-0.2,0.3-0.2c0.1,0,0.2,0,0.2-0.1c0-0.1-0.1-0.2-0.1-0.2c0,0,0.1-0.1,0.1,0c0.1,0.1,0.2,0.2,0.2,0.2
		c-0.1,0.1-0.1,0.1-0.1,0.2c0,0.1-0.2,0-0.1,0.2c0.1,0.1,0.1,0,0.2,0.2c0,0.1,0,0.1,0,0.1c0-0.1-0.1-0.1-0.2-0.1
		c-0.1,0-0.1,0.1-0.1,0.2C93.3,61.8,93.3,61.7,93.2,61.6z M93.7,65.3C93.8,65.3,93.8,65.3,93.7,65.3c0.1,0.1,0,0.1,0,0.2
		c-0.1,0-0.1,0-0.2,0c-0.1,0,0,0-0.1-0.1c0-0.1,0-0.1,0.1-0.3c0.1-0.2,0.1-0.2,0.1-0.3c0-0.1-0.1,0.1-0.2,0.2c0,0-0.1,0.1-0.2,0.1
		c0,0,0,0,0,0c-0.1,0,0,0,0-0.1c0-0.1,0-0.2,0.1-0.2c0,0,0-0.1,0-0.1c0,0,0.1,0,0.1,0c0.1,0,0.1-0.1,0.1-0.1c0,0,0,0,0,0
		c0,0,0-0.1,0-0.1c0,0,0,0,0,0c0,0,0,0.1,0,0.1s0.1,0.1,0.1,0.1c-0.1,0.2,0,0.1,0.1,0.1c0,0,0,0,0,0c0,0,0,0,0,0
		c0,0.1-0.1,0.2-0.2,0.3C93.6,65.3,93.7,65.3,93.7,65.3z M94,65.7c0,0.1,0,0.1,0,0.2c0,0,0,0,0,0C93.9,65.9,93.9,65.7,94,65.7
		C94,65.7,94,65.7,94,65.7C94,65.7,94,65.7,94,65.7z M94,64.1c0,0-0.1,0.1-0.1,0.1C93.9,64.1,93.9,64.1,94,64.1
		C94,64.1,94,64.1,94,64.1C94,64,94,64,94,64.1C94,64.1,94,64.1,94,64.1z M94.3,61.8c-0.1,0.1-0.2,0.1-0.2,0.2
		c-0.1,0-0.1,0.2-0.2,0.2c-0.1,0-0.2,0-0.1-0.1c0.1-0.1,0.2-0.2,0.2-0.2c0-0.1,0.1-0.1,0.2-0.1c0,0,0.1,0,0.1,0
		C94.3,61.7,94.3,61.7,94.3,61.8C94.3,61.7,94.3,61.8,94.3,61.8z M94.7,58.6C94.7,58.6,94.8,58.6,94.7,58.6
		C94.7,58.6,94.7,58.7,94.7,58.6c-0.1,0.1-0.1,0.1-0.2,0c0,0,0-0.1-0.1-0.1c0,0,0,0,0,0c-0.1-0.1-0.2-0.2-0.2-0.1c0,0,0,0-0.1-0.1
		c0,0,0,0,0,0c-0.1,0,0-0.1,0-0.2c0.1,0,0.1,0,0.2,0c0.1,0,0.2,0,0.2,0c0,0,0,0,0,0c0,0,0,0,0,0c0,0,0,0,0,0c0.1,0,0,0.2,0.1,0.2
		C94.9,58.4,94.7,58.6,94.7,58.6z M94.8,56.8c-0.1,0-0.2,0.1-0.2,0c0-0.1-0.1-0.1,0-0.2c0,0,0,0,0,0c0.1,0,0.1,0,0.2,0c0,0,0,0,0,0
		c0.1,0.1,0.1,0.1,0.1,0.2C94.9,56.8,94.8,56.8,94.8,56.8z M95.1,57.7c-0.1,0.1-0.1,0.3-0.2,0.1c0-0.2,0-0.2,0-0.2c0,0,0.1,0,0.2,0
		C95.1,57.6,95.2,57.6,95.1,57.7z M96.4,61.1C96.4,61.1,96.4,61.1,96.4,61.1C96.4,61.1,96.4,61.1,96.4,61.1
		C96.4,61.1,96.4,61.1,96.4,61.1z M95.4,62.5C95.4,62.5,95.4,62.5,95.4,62.5C95.4,62.5,95.4,62.5,95.4,62.5
		C95.4,62.5,95.4,62.5,95.4,62.5C95.3,62.5,95.4,62.5,95.4,62.5z M95.3,58.2C95.3,58.2,95.3,58.2,95.3,58.2c0,0,0-0.1,0-0.1
		c0,0,0.1-0.1,0.1-0.1c0,0,0,0,0,0C95.4,58,95.3,58.1,95.3,58.2z M97.1,58.4c-0.1-0.1-0.1-0.2-0.2-0.1c-0.1,0-0.1,0.1-0.1,0
		c0-0.1-0.1-0.2,0-0.2c0.1,0,0-0.1,0.1,0c0.1,0.1,0.1,0.1,0.2,0.2C97.2,58.2,97.2,58.4,97.1,58.4C97.2,58.4,97.2,58.5,97.1,58.4z"/>
	<path d="M20.8,52.2C20.8,52.2,20.8,52.2,20.8,52.2C20.8,52.1,20.8,52.1,20.8,52.2z"/>
	<path d="M20.7,52.2c-0.1,0-0.1,0.1-0.1,0.2C20.6,52.3,20.7,52.2,20.7,52.2C20.7,52.2,20.7,52.2,20.7,52.2z"/>
	<path d="M20.2,52.8C20.3,52.8,20.3,52.8,20.2,52.8c0.2-0.1,0.2-0.2,0.3-0.2c0-0.1,0-0.1,0-0.2C20.4,52.5,20.2,52.7,20.2,52.8z"/>
</g>
</svg>
