<?xml version="1.0" standalone="no"?>
<svg width="105" height="108" viewBox="0 0 105 108" xmlns="http://www.w3.org/2000/svg" xmlns:xlink="http://www.w3.org/1999/xlink" version="1.1"><!--?xml version="1.0" encoding="utf-8"?-->
<!-- Generator: Adobe Illustrator 15.0.2, SVG Export Plug-In . SVG Version: 6.00 Build 0)  -->

<svg version="1.1" id="Ebene_1" xmlns="http://www.w3.org/2000/svg" xmlns:xlink="http://www.w3.org/1999/xlink" x="0px" y="0px" width="100px" height="100px" viewBox="0 0 100 100" enable-background="new 0 0 100 100" xml:space="preserve">
<circle fill="#B2B2B2" cx="50" cy="50" r="50"></circle></svg><g><path d="M 52.75 20.97222222222222 C 36.6625 20.956944444444442 23.15 21.294444444444444 22.72222222222222 21.72222222222222 C 22.294444444444444 22.15 21.956944444444442 35.6625 21.97222222222222 51.75 C 21.990090042559178 70.56481481481482 22.35675846786958 81 23 81 C 23.55 81 24 81.9 24 83 C 24 84.70370370370371 24.666666666666668 85 28.5 85 C 32.5 85 32.94444444444444 84.77777777777777 32.5 83 L 32 81 L 51.5 81 L 71 81 L 71 83 C 71 84.70370370370371 71.66666666666667 85 75.5 85 C 79.5 85 79.94444444444444 84.77777777777777 79.5 83 C 79.16666666666667 81.66666666666667 79.5 81 80.5 81 C 81.8 81 82 77 82 51 L 82 21 L 52.75 20.97222222222222 Z " class="odd" fill="#000000"></path><path d="M 52 26 L 77 26 L 77 51 L 77 76 L 52 76 L 27 76 L 27 51 L 27 26 L 52 26 Z " class="even" fill="#ffffff"></path><path d="M 52 28 L 29 28 L 29 51 L 29 74 L 52 74 L 75 74 L 75 51 L 75 28 L 52 28 Z " class="odd" fill="#000000"></path><path d="M 64.75 46.9654145981621 C 65.7125 46.94639262715125 67.7375 47.846392627151246 69.25 48.9654145981621 C 71.18675879959157 50.39832411835487 72 51.88717221862737 72 54 C 72 55.666666666666664 71.11111111111111 57.888888888888886 70 59 C 68.88888888888889 60.111111111111114 66.66666666666667 61 65 61 C 62.88717221862737 61 61.39832411835487 60.18675879959158 59.9654145981621 58.25 C 58.84639262715125 56.7375 57.946392627151255 54.7125 57.9654145981621 53.75 C 57.98443656917294 52.7875 59.125 50.875 60.5 49.5 C 61.875 48.125 63.787499999999994 46.98443656917294 64.75 46.9654145981621 Z " class="even" fill="#ffffff" transform="matrix(1 0 0 1 -0.81 -2.7)"></path><path d="M 65.39212061181743 62.5 C 67.43934729361237 62.5 68.06714642419874 63.099769196514316 68.53232421464475 65.5 C 68.9039441383152 67.41748962719733 68.55196446704288 69.311882779602 67.556870269494 70.75 C 66.30475505933116 72.55956581808324 65.60850294940732 72.80425147470366 64 72 C 62.54275092936803 71.27137546468401 61.99246179264767 69.98234200743494 61.97222222222222 67.25 C 61.956944444444446 65.1875 62.144444444444446 63.275 62.388888888888886 63 C 62.63333333333333 62.725 63.984787608651175 62.5 65.39212061181743 62.5 Z " class="even" fill="#ffffff" transform="matrix(1 0 0 1 -0.54 -7.83)"></path></g></svg>
