<?xml version="1.0" standalone="no"?>
<svg width="105" height="108" viewBox="0 0 105 108" xmlns="http://www.w3.org/2000/svg" xmlns:xlink="http://www.w3.org/1999/xlink" version="1.1"><!--?xml version="1.0" encoding="utf-8"?-->
<!-- Generator: Adobe Illustrator 15.0.2, SVG Export Plug-In . SVG Version: 6.00 Build 0)  -->

<svg version="1.1" id="Ebene_1" xmlns="http://www.w3.org/2000/svg" xmlns:xlink="http://www.w3.org/1999/xlink" x="0px" y="0px" width="100px" height="100px" viewBox="0 0 100 100" enable-background="new 0 0 100 100" xml:space="preserve">
<circle fill="#B2B2B2" cx="50" cy="50" r="50"></circle></svg><path d="M 41.25 25.046032051752572 L 39.5 24.092064103505145 L 38 25.5128554544514 L 36.5 26.933646805397657 L 34 27.316472508224873 L 31.5 27.69929821105209 L 31.375 28.599649105526044 C 31.30625 29.09484209748672 31.213786407981445 30.4 31.16952535106988 31.5 L 31.089050702139765 33.5 L 29.794525351069883 32.245962512968546 L 28.5 30.991925025937093 L 26.75 31.495962512968546 L 25 32 L 25.25 34.9865298310266 L 25.5 37.9730596620532 L 24.75 37.9865298310266 C 24.3375 37.99393842396197 23.679266251401632 37.8875 23.28725833644807 37.75 C 22.895250421494506 37.6125 22.522223029687044 36.825 22.45830857687593 36 C 22.39439412406481 35.175 22.26512787266318 33.4875 22.17105024042786 32.25 L 22 30 L 19.75 30.25 L 17.5 30.5 L 17.851509985309875 33.5 L 18.203019970619746 36.5 L 15.601509985309875 33.75 L 13 31 L 11.5 31.5 C 10.675 31.775 9.55 32 9 32 L 8 32 L 8.610018148271603 33.75 L 9.220036296543206 35.5 L 8.110018148271603 36.25 L 7 37 L 9 40 L 11 43 L 12.5 42.5 L 14 42 L 13.47227567962962 45.75 L 12.94455135925924 49.5 L 15.722275679629618 51.592704946616564 L 18.5 53.68540989323313 L 18.758476326973756 56.592704946616564 L 19.016952653947516 59.5 L 20.810440614509574 61 C 21.79685899281871 61.825 23.818044645680516 64.4125 25.301964287535817 66.75 L 28 71 L 28 75 L 28 79 L 60.25 79.02777777777779 L 92.5 79.05555555555557 L 92 78.48568885265323 C 91.725 78.17226216605695 89.13708069096643 77.82226216605694 86.24906820214763 77.70791107487545 L 80.99813640429525 77.5 L 80.9680532521084 75 L 80.93797009992157 72.5 L 83.21898504996079 71.383196442992 L 85.5 70.266392885984 L 81.5 68.611800722774 L 77.5 66.95720855956401 L 80 65.30146273187205 L 82.5 63.6457169041801 L 80.25 62.822858452090045 L 78 62 L 78.98834132198454 60.75 L 79.97668264396906 59.5 L 73.73834132198454 57.08712122108484 C 70.30725359489304 55.76003789268151 67.05 54.30413870568616 66.5 53.85178969442852 L 65.5 53.02933694668735 L 59.5 56.18681104614289 C 56.2 57.92342180084344 52.15 60.44744037181831 50.5 61.79574120386482 C 48.85 63.14404203591133 45.7 65.14447060010659 43.5 66.24113801318761 L 39.5 68.23507876424401 L 41.21104525484108 69.367539382122 L 42.92209050968217 70.5 L 42.96104525484108 74.25 L 43 78 L 36.75 77.6922007252557 L 30.5 77.3844014505114 L 30.185157003262596 75.9422007252557 C 30.011993355057022 75.14899032636507 30.40322127858434 72.475 31.05455238887886 70 L 32.23879077123253 65.5 L 36.369395385616265 61.8043024951985 L 40.5 58.108604990397 L 41.25 58.5543024951985 C 41.6625 58.799436122839325 42.45 58.775 43 58.5 L 44 58 L 42.75 56.45547464893012 L 41.5 54.910949297860235 L 42.75 54.95547464893012 L 44 55 L 43.75 52.79098793293774 L 43.5 50.58197586587548 L 45.5 50.232438572122035 C 46.6 50.04019306055765 48.175 49.61733984351984 49 49.292764756482455 C 49.825 48.96818966944507 51.625 48.75820158841676 53 48.82612457641953 L 55.5 48.949620918242765 L 54.25 48.474810459121386 C 53.5625 48.213664706604625 53 47.55 53 47 L 53 46 L 54 46.5 L 55 47 L 55.5 46 C 55.775 45.45 56.675 45 57.5 45 L 59 45 L 60.75 43.31464987334539 L 62.5 41.62929974669078 L 62.75 39.31464987334539 L 63 37 L 62 37.5 L 61 38 L 60.5 36.5 L 60 35 L 57.25 35.45030944730175 L 54.5 35.900618894603504 L 53 33.73394799433054 C 52.175 32.54227899918042 51.22958876651818 30.877139747894628 50.89908614781818 30.033638547028794 L 50.298172295636355 28.5 L 46.39908614781818 28.44462408816008 L 42.5 28.38924817632016 L 42.75 27.19462408816008 L 43 26 L 41.25 25.046032051752572 Z M 18.72222222222222 36.25 L 19.5 37 L 18.72222222222222 37.75 L 17.944444444444443 38.5 L 17.944444444444443 37 L 17.944444444444443 35.5 L 18.72222222222222 36.25 Z M 25.5 54.36526851401784 L 26.5 54.65544103025421 L 26.75 58.827720515127105 L 27 63 L 28 62.5 L 29 62 L 29 63.5 L 29 65 L 30 64.5 L 31 64 L 30.984687225482936 64.75 C 30.976265199498553 65.1625 30.533155948031233 66.175 30 67 L 29.030625549034124 68.5 L 29 66.5 L 28.969374450965876 64.5 L 28.234687225482936 65.69721359549996 L 27.5 66.89442719099992 L 26.23063714062505 66.19721359549996 L 24.9612742812501 65.5 L 24.55714841340439 63.5 C 24.334879186089253 62.4 24.111701724275303 60.6 24.06119849826228 59.5 L 23.969374450965876 57.5 L 23.09967695921739 59 L 22.2299794674689 60.5 L 21.18429006387514 58.5 L 20.138600660281377 56.5 L 22.31930033014069 55.28754799889074 C 23.51868514856331 54.62069939828064 24.95 54.20567363008784 25.5 54.36526851401784 Z M 25.75 55.015312774517064 C 25.6125 55.02373480050145 24.825 55.41748480050145 24 55.890312774517064 L 22.5 56.75 L 23.75 57.375 L 25 58 L 25.5 56.5 C 25.775 55.675 25.8875 55.006890748532676 25.75 55.015312774517064 Z M 35 60.45369615826465 C 35.275 60.72869615826465 34.825 61.64953288704556 34 62.5 C 33.175 63.35046711295444 32.275 63.82130384173535 32 63.54630384173535 C 31.725 63.27130384173535 32.175 62.35046711295444 33 61.5 C 33.825 60.64953288704556 34.725 60.17869615826465 35 60.45369615826465 Z M 26 63 L 25 63 L 25.5 64 C 25.775 64.55 26.225 65 26.5 65 C 26.775 65 27 64.55 27 64 C 27 63.45 26.55 63 26 63 Z M 54.5 66 L 58 66 L 57.5 68 L 57 70 L 54.5 70 L 52 70 L 51.5 68 L 51 66 L 54.5 66 Z M 69 66 L 72 66 L 71.88399864952478 68.25 L 71.76799729904955 70.5 L 71.38399864952478 68.75 L 71 67 L 69 67 L 67 67 L 67 68 L 67 69 L 68.5 68.5 L 70 68 L 70 69 L 70 70 L 68 70 L 66 70 L 66 68 L 66 66 L 69 66 Z M 54.5 67.05116959064327 L 52.5 67.15789473684211 L 54 67.656328320802 L 55.5 68.1547619047619 L 56 67.54960317460316 L 56.5 66.94444444444444 L 54.5 67.05116959064327 Z M 46.5 71.5 L 49 71.5 L 49 74.75 L 49 78 L 48 78 L 47 78 L 46.85016790882032 75.25 L 46.700335817640635 72.5 L 46.35016790882032 75.25 L 46 78 L 45 78 L 44 78 L 44 74.75 L 44 71.5 L 46.5 71.5 Z M 54.25604044448282 71.57715987365518 L 56.5 71.65431974731035 L 56.75 74.82715987365518 L 57 78 L 56 78 L 55 78 L 54.85016790882032 75.25 L 54.700335817640635 72.5 L 54.35016790882032 75.25 L 54 78 L 53 78 L 52 78 L 52.00604044448282 74.75 L 52.012080888965635 71.5 L 54.25604044448282 71.57715987365518 Z M 62.25604044448282 71.57715987365518 L 64.5 71.65431974731035 L 64.75 74.82715987365518 L 65 78 L 64 78 L 63 78 L 62.85016790882032 75.25 L 62.700335817640635 72.5 L 62.35016790882032 75.25 L 62 78 L 61 78 L 60 78 L 60.00604044448282 74.75 L 60.012080888965635 71.5 L 62.25604044448282 71.57715987365518 Z M 69 71.99913681753665 L 70.5 71.99913681753665 L 70.75 74.99956840876833 L 71 78 L 69 78 L 67 78 L 67.25 74.99956840876833 L 67.5 71.99913681753665 L 69 71.99913681753665 Z " fill="#000000" transform="matrix(1 0 0 1 -2.7 -1.62)"></path></svg>
