<?xml version="1.0" encoding="utf-8"?>
<!-- Generator: Adobe Illustrator 16.2.0, SVG Export Plug-In . SVG Version: 6.00 Build 0)  -->
<!DOCTYPE svg PUBLIC "-//W3C//DTD SVG 1.1//EN" "http://www.w3.org/Graphics/SVG/1.1/DTD/svg11.dtd">
<svg version="1.1" id="Ebene_1" xmlns="http://www.w3.org/2000/svg" xmlns:xlink="http://www.w3.org/1999/xlink" x="0px" y="0px"
	 width="100px" height="100px" viewBox="0 0 100 100" enable-background="new 0 0 100 100" xml:space="preserve">
<circle fill="#B2B2B2" cx="50" cy="50" r="50"/>
<path d="M82.466,43.098c-0.196-0.724-0.459-5.19-0.459-5.584s-1.051-3.351-1.707-4.139c-0.657-0.788-0.92-1.445-1.841-1.379
	c-0.919,0.065-3.546-1.052-3.811-1.314c-0.262-0.263-0.459-1.379-0.787-2.3c-0.329-0.919-0.656-6.371-0.592-9.393
	c0.065-3.022,0-7.029-2.102-8.211c-2.104-1.183-3.284-0.723-3.284-0.723c-2.627-0.132-7.227,1.051-7.227,8.014
	c0,0-0.394,2.102,0,3.284c0,0-0.132,2.891,0.264,4.073c0.396,1.183,0.263,1.708-0.131,2.299c0,0-0.492,0.789,0,1.117
	c0.317,0.212,0.381,0.333,0.235,0.58c0.731-0.357,1.752-0.986,1.847-0.612c0.112,0.451,0.451,2.596,0.451,2.596
	c0.563,1.918,1.918,5.754,1.918,5.754c1.129-2.257,5.19-5.981,5.19-5.981c0.338-2.143,0-2.933,0-2.933l1.918-0.677
	c0,0-0.564,0.226,0.112,1.579c0.677,1.354,2.256,4.513,2.256,4.513h-3.157c-3.61,2.031-6.656,6.431-6.656,6.431
	C63.775,36.031,61.068,34,61.068,34l-3.273-0.451c0.863-0.617,1.18-1.396,1.297-1.98c-0.652,0.511-1.347,0.884-2.046,1.214
	c-1.116,0.526-3.088,0.264-3.416,0.854c-0.329,0.591-1.577,5.846-1.774,7.357c-0.113,0.874-0.558,3.329-0.961,5.423
	c-0.497-4.446-1.027-8.838-1.207-9.52c-0.367-1.397-1.249-2.791-2.351-3.085c-1.101-0.294-5.729-2.351-6.316-2.646
	c-0.587-0.292-1.763-2.202-1.763-2.202s-0.006-0.025-0.012-0.048c-0.097,0.795-0.355,2.967-0.355,3.524
	c0,0.685-0.294,6.071-0.294,7.638s-0.293,4.407-0.392,3.329c-0.098-1.077-1.86-11.652-1.958-11.947s-0.098-2.252-0.098-2.252
	l1.896-2.133c-0.143-0.107-0.301-0.204-0.478-0.285c0.033-0.511,0.046-1.116,0.046-1.116s0.979-2.389,1.051-2.819
	c0.072-0.431,0.751-0.417,1.013-1.091c0.262-0.674,0.308-2.774,0.308-2.774s0.111-2.222,0.073-3.335
	c-0.036-1.114-1.055-2.619-1.47-3.37c-0.417-0.751-1.385-1.699-2.733-2.161c-1.35-0.462-3.871-1.075-5.575,0.557
	c0,0-1.989,0.512-2.976,3.209c-0.987,2.699-0.233,5.002-0.12,5.437c0.114,0.435,0.17,0.684,0.17,0.684s0.318,2.417,0.74,2.921
	c0.42,0.504,0.922,0.206,0.922,0.206s0.57,2.176,0.873,2.491c0.301,0.315,0.056,0.249,0.056,0.249s0.133,0.63,0.169,1.263
	c-0.031,0.016-0.058,0.035-0.088,0.051c1.172,1.027,3.185,2.508,3.185,2.508s1.175,1.665,1.175,1.958c0,0.294-0.98,13.22-0.98,13.22
	s-1.566-6.659-1.762-7.345c-0.196-0.685-2.057-7.344-2.154-8.127c-0.071-0.563-0.244-1.07-0.444-1.386
	c-0.049,0.069-0.102,0.136-0.143,0.21l-1.469,1.91c0,0-2.351,0.882-3.085,1.027c-0.734,0.148-3.819,0.442-4.26,1.177
	c-0.44,0.735-2.351,4.994-2.644,6.757c-0.294,1.763-1.322,8.372-1.322,8.372s-0.441,2.643-0.588,3.085
	c-0.147,0.44-0.441,8.227-0.587,8.813c-0.148,0.588-0.881,9.694-0.881,10.429s-0.294,3.23-0.294,3.23
	c0.587-0.293,0.587,1.176,0.587,1.176l0.515-0.074c0,0,0,2.572-0.147,2.864c-0.147,0.294-0.147,0.881,0,1.103
	c0.147,0.221,1.175,2.277,1.469,2.569c0.294,0.295,0.587,0.956,1.028,1.03c0.441,0.072,2.645,0.734,2.645,0.734
	s0.148,5.215,0.201,7.619c2.953,2.211,6.166,4.09,9.574,5.611c0.136-1.295,0.258-2.416,0.287-2.678
	c0.073-0.661,0.881-6.074,1.101-6.44c0.221-0.366,1.47-4.553,1.616-5.067c0.146-0.514,0.294-1.689,0.514-1.322
	c0.22,0.367,0.074,1.615,0.147,2.203c0.073,0.588,0.514,2.719,0.733,3.525c0.221,0.809,0.588,5.119,0.588,6.293
	c0,1.176,0.808,3.086,0.881,3.82c0.022,0.221,0.078,0.963,0.147,1.902c3.071,0.918,6.263,1.552,9.551,1.865
	c0.284-6.148,0.858-17.216,0.805-17.699c-0.075-0.662-0.075-0.662-0.075-0.662s1.03,0.146,1.249,0.146
	c0.22,0,2.277-0.22,2.497-0.367c0.221-0.147,0.734-1.102,0.88-1.543c0.147-0.44,0.809-1.615,0.955-1.91
	c0.147-0.293,0-1.396-0.072-1.615c-0.073-0.221-0.073-1.616-0.073-1.616c0.44,0.073,0.587-0.515,0.587-0.515l0.441-0.367
	c0,0-0.131-4.049-0.26-8.232c0.203,0.736,0.35,1.317,0.367,1.553c0.059,0.756,0.373,2.691,0.946,3.629
	c-0.155,0.973-0.377,2.152-0.377,2.152l0.683,0.262c0.137,3.847,0.455,11.875,0.85,14.584c0.525,3.613,0.854,9.394,0.854,9.394
	s4.402,1.116,5.849,0.854c0,0,0.043,0.388,0.091,0.86c6.403-1.495,12.331-4.218,17.526-7.911c0.112-4.459,0.25-10.125,0.25-11.211
	c0-1.84-0.789-7.619-0.789-7.619l1.248-0.593c0,0-0.525-1.772-1.184-3.351c-0.656-1.576-1.182-5.387-1.182-5.387
	s2.89-1.576,3.547-2.166c0.656-0.592,2.563-2.301,2.496-3.416c-0.065-1.117-0.461-9.591-0.592-10.708
	C82.6,45.2,82.663,43.82,82.466,43.098z M19.207,80.036c0,0.489-0.587-0.882-0.587-0.882V77.98l0.587-0.59
	C19.207,77.391,19.207,79.547,19.207,80.036z M22.536,55.652c-0.097,0.783-0.88,4.309-0.979,4.798
	c-0.099,0.489-0.979,3.917-0.979,3.622c0-0.293-0.098-2.055-0.098-2.74s0.098-1.176,0.098-1.861c0-0.685,0.293-1.763,0.391-2.351
	c0.099-0.589,0.49-2.448,0.49-2.742c0-0.295,0.293-1.665,0.197-2.252c-0.098-0.587,0.587-1.862,0.587-1.862
	S22.635,54.868,22.536,55.652z M46.627,62.507c-0.099,0.392,0,3.917,0,4.603s-0.196,2.742-0.196,3.035s-0.392-2.938-0.392-3.722
	c0-0.784-0.294-2.155-0.294-2.155l0.392,0.196c0,0-0.49-3.623-0.685-4.407c-0.196-0.783-0.294-2.644-0.294-3.23
	c0-0.588,0-1.077,0-1.762c0-0.687,0.196-2.938,0.294-3.43c0.098-0.49,0.196,1.078,0.196,1.078s0.196,2.84,0.293,3.329
	c0.099,0.487,0.099,1.86,0.197,2.153c0.098,0.295,0.294,1.959,0.294,2.254C46.431,60.743,46.725,62.115,46.627,62.507z
	 M48.879,78.174c-0.195,0.295-0.587,1.273-0.587,1.273l-0.588-0.293c0,0,0.49-1.371,0.392-1.666c-0.098-0.293,0-0.781,0.294-0.588
	C48.684,77.098,49.075,77.88,48.879,78.174z M56.061,57.943c-0.131,0.656-0.525,1.838-0.593,1.576
	c-0.065-0.264-0.395-1.773-0.395-2.232c0-0.46,0-1.053-0.132-1.248c-0.131-0.197,0.395-1.314,0.593-2.168
	c0.196-0.854,0.459,0.329,0.459,0.723C55.994,54.592,56.191,57.286,56.061,57.943z M74.848,57.482c0,0-1.512-2.562-1.643-3.086
	c-0.132-0.525,0.064-0.592-0.066-1.117c-0.132-0.525,1.84-3.679,1.905-4.204c0.065-0.525,0.524-0.854,0.524-0.854
	s0.724,1.971,0.724,2.496c0,0.525,0.459,2.432,0.459,2.432s-0.459,0.92,0.198,1.313L74.848,57.482z"/>
</svg>
