<?xml version="1.0" standalone="no"?>
<svg width="400" height="400" viewBox="0 0 400 400" xmlns="http://www.w3.org/2000/svg" xmlns:xlink="http://www.w3.org/1999/xlink" version="1.1"><!-- Generator: Adobe Illustrator 15.0.2, SVG Export Plug-In . SVG Version: 6.00 Build 0)  -->

<svg version="1.1" id="Ebene_1" xmlns="http://www.w3.org/2000/svg" xmlns:xlink="http://www.w3.org/1999/xlink" x="0px" y="0px" width="100px" height="100px" viewBox="0 0 100 100" enable-background="new 0 0 100 100" xml:space="preserve">
<circle fill="#B2B2B2" cx="50" cy="50" r="50"></circle></svg>
<path d="M 71.5 20.55462348957858 L 69.5 19.848989338024303 L 71.5 21.112932140012 C 72.6 21.808100681105234 74.9625 22.292078080049766 76.75 22.18843747099985 C 78.87640315042796 22.06514699961746 80.17286105378031 22.518583161340942 80.5 23.5 C 80.775 24.325 81.5625 25.01466763099575 82.25 25.032594735546112 C 82.99641206031761 25.052058018517695 82.69425929650816 24.229125571626955 81.5 22.9899215943621 C 80.23383814321534 21.67610908029902 78.39924278517698 20.978058053009434 76.5 21.087455679382423 C 74.85 21.182496758345163 72.6 20.942722272933437 71.5 20.55462348957858 Z M 69 21.11611489643476 C 68.725 21.143381876297546 67.0375 22.028410698179957 65.25 23.082845611729006 C 63.462500000000006 24.13728052527805 62 25.45 62 26 C 62 26.666479312071356 62.416900859910804 26.666362149633514 63.25 25.99964871013379 C 63.9375 25.449455500707376 65.625 24.11442667882497 67 23.032917994839547 C 68.375 21.951409310854125 69.275 21.08884791657197 69 21.11611489643476 Z M 24.5 23.537114767176043 C 23.4 23.185801898460124 22.05 23.336605935606833 21.5 23.872234849724286 C 20.95 24.40786376384174 19.19538785429146 24.99323184206546 17.60086189842547 25.173052801332553 C 16.00633594255948 25.35287376059965 14.206335942559482 26.2875 13.600861898425473 27.250000000000004 C 12.798803526213923 28.525002934861988 12.801008760420295 29.474997065138023 13.608986495700677 30.750000000000004 C 14.218929068336047 31.712500000000002 15.793929068336048 32.5 17.108986495700677 32.5 C 18.424043923065305 32.5 20.175 33.10551343668694 21 33.84558541485987 C 21.89804516239615 34.65118306313035 23.302606450138466 34.90678181479866 24.5 34.48250716305719 C 25.6 34.092742146392794 27.625 33.782473840964265 29 33.79302203988268 C 30.375 33.80357023880109 32.2875 33.4044554521123 33.25 32.906100291685355 C 34.2125 32.40774513125841 35 31.55 35 31 C 35 30.45 34.2125 30.71630433900177 33.25 31.591787420003932 C 32.18007239045803 32.564985882394666 30.625621212268246 32.953598676942114 29.25 32.59178742000393 C 28.0125 32.26630433900177 26.13819826946837 32.5625 25.08488504326304 33.25 C 23.519101127936967 34.27199081432291 22.853376230149003 34.22638897718749 21.435224527333364 33 C 20.48122446977737 32.175 18.530526200309005 31.5 17.100339484070325 31.5 C 14.993310701061977 31.5 14.5 31.02572471394216 14.5 29 C 14.5 26.97427528605784 14.99331070106198 26.5 17.100339484070325 26.5 C 18.530526200309005 26.5 20.443026200309006 25.9375 21.350339484070325 25.25 C 22.305674604645336 24.526112333909026 23.94700220103625 24.288948799793296 25.25 24.6865187840361 C 26.4875 25.064104115255954 28.5125 25.289104115255956 29.75 25.1865187840361 C 31.115966161541394 25.073283962931583 32.59239383656245 25.884033838458603 33.507732028210064 27.25 C 34.3369846437256 28.4875 35.02665227472135 29.05 35.04032676375617 28.5 C 35.054001252791 27.95 34.26302184009647 26.721176681899752 33.28259473554611 25.769281515332782 C 32.30216763099575 24.81738634876581 30.375 24.069456072218752 29 24.107214234117095 C 27.625 24.144972396015437 25.6 23.888427635891965 24.5 23.537114767176043 Z M 63.39914076564679 29.25 C 62.629613344541056 28.5625 62 28.45 62 29 C 62 29.55 62.45 30.225 63 30.5 C 63.55 30.775 64.17961334454105 30.8875 64.39914076564679 30.75 C 64.61866818675253 30.6125 64.16866818675253 29.9375 63.39914076564679 29.25 Z M 70.25 30.646633284549395 C 69.8375 29.902281591051565 68.825 29.495208151207198 68 29.7420256404508 C 66.96704484633352 30.051057637455894 67.43408969266703 30.63778761878822 69.5 31.626416355619966 C 71.15 32.4160137597194 73.4 33.033775682222064 74.5 32.9992206278481 C 75.6 32.964665573474136 77.4 32.268062317248244 78.5 31.451213391790553 C 79.6 30.634364466332862 79.9375 29.973675983674568 79.25 29.983016763661013 C 78.5625 29.992357543647454 77.775 30.45 77.5 31 C 77.225 31.55 75.65 32 74 32 C 72.35 32 70.6625 31.39098497804723 70.25 30.646633284549395 Z M 46.25 30.961676252352273 C 44.728348531971506 30.940470657127356 41.26663903277908 32.43154418986574 38.5 34.2998592747631 C 35.75 36.156937998295305 32.9375 37.524183684736784 32.25 37.33818302241083 C 31.5625 37.15218236008487 30.775 38.125 30.5 39.5 C 30.225 40.875 29.325 42 28.5 42 C 27.675 42 26.775 42.675 26.5 43.5 C 26.225 44.325 25.325 45 24.5 45 C 23.675 45 23.225 45.45 23.5 46 C 23.775 46.55 24.7875 46.72549183327778 25.75 46.38998185172839 C 26.7125 46.05447187017901 27.8375 46.27947187017901 28.25 46.88998185172839 C 28.761388913885817 47.64684981871261 29.477222172228366 47.68185188518109 30.5 47 C 31.55263157894737 46.29824561403509 32.74561403508772 46.44736842105263 34.5 47.5 C 35.875 48.325 37.45 48.775 38 48.5 L 39 48 L 41 48.5 C 42.1 48.775 43.010416666666664 49.3375 43.02314814814815 49.75 C 43.03587962962963 50.1625 41.79837962962963 50.791532458751206 40.27314814814815 51.14784990833601 C 38.5392090989572 51.55292464436435 37.24363491339383 52.67714417044827 36.81588516123931 54.14784990833601 C 36.40046959253495 55.57614777975291 36.679441286485286 57.28553849392624 37.52615383962322 58.5 L 38.920537356767824 60.5 L 39.58156349801157 58 C 39.945127875695626 56.625 39.92330163883394 54.6 39.533060749430035 53.5 L 38.823531859604756 51.5 L 42.16176592980238 52.44428850335592 C 43.99779466841107 52.963647180201676 48.65 53.22620772558528 52.5 53.02775638198615 C 56.35 52.82930503838702 61.474207237378366 52.629375211876855 63.88712719417414 52.58346787863023 C 67.10713146178549 52.52220525425164 68.57031586743018 52.98187590354594 69.38712719417414 54.31133523517489 C 70.33749303192215 55.85817070388957 69.69686390057407 56.82781165358337 65 60.951586155445845 L 59.5 65.78050184054192 L 55 64.40107521116413 C 52.525 63.642390565006345 49.4875 63.016777650884414 48.25 63.01082429089317 C 46.66305856970228 63.003189839483404 46 63.58938539529091 46 65 C 46 66.77777777777777 46.166666666666664 66.83333333333333 47.5 65.5 C 48.325 64.675 49.45 64 50 64 C 50.55 64 50.762805808955534 65.0125 50.47290179767897 66.25 L 49.945803595357944 68.5 L 52.005496533225084 66.5 C 53.13832764905201 65.4 54.07055824807792 64.95 54.07712008661599 65.5 C 54.08368192515406 66.05 53.39401429415831 67.0625 52.54452535106988 67.75 C 51.69503640798145 68.4375 50.1 68.775 49 68.5 C 47.442162073283384 68.11054051832085 47.00291513049125 68.49743233244381 47.01318580071603 70.25 C 47.02051204581879 71.50013655493704 48.24256736756241 73.45564603230336 49.76318580071603 74.65049723369694 L 52.5 76.80099446739388 L 48.5 78.52753046411242 C 46.3 79.47712526230761 43.15 80.93559314740494 41.5 81.76857020877316 C 39.85 82.60154727014137 37.252935829094724 84.4568823164544 35.72874628687716 85.89153697835768 C 34.2045567446596 87.32619164026096 32.9670567446596 89.2875 32.97874628687716 90.25 C 32.99775403861488 91.81507078780778 34.241667567576286 92.00201903015095 44.75 92.01910624461257 L 56.5 92.03821248922515 L 63.26182047057394 85.76910624461257 C 68.7767805073442 80.65600533402737 70.01492709032141 78.94680854546652 69.97638505484454 76.5 C 69.9503943173777 74.85 69.28602104269766 72.375 68.5 71 C 67.71397895730233 69.625 67.05492489438056 67.7125 67.0354354157294 66.75 C 67.01594593707823 65.7875 68.125 63.65 69.5 62 C 70.875 60.35 72 57.875 72 56.5 C 72 55.125 70.7625 52.599583984535016 69.25 50.88796441007781 L 66.5 47.77592882015561 L 73 48.441031981014774 C 76.575 48.80683871948732 79.8375 49.3072547349523 80.25 49.553067570936975 C 80.6625 49.79888040692164 81.1125 49.52785652585029 81.25 48.95079227966731 C 81.3875 48.37372803348434 83.81489906809806 47.81122803348434 86.64422015132902 47.70079227966731 C 89.47354123455999 47.59035652585029 91.61104123455999 47.1625 91.39422015132902 46.75 C 91.17739906809805 46.3375 89.875 46 88.5 46 C 86.99414121083223 46 84.39762557585149 44.50878818375167 81.97045568906876 42.25 C 79.75420631805657 40.1875 77.95779118377034 38.05 77.97842205732158 37.5 C 77.99905293087282 36.95 76.09984787079188 35.89042360747529 73.75796636825282 35.14538579438953 C 71.27372189123356 34.35505713330138 68.25030349854921 34.08155281626837 66.5 34.48881601913092 C 64.85 34.87274045582444 62.2625 36.04481684834916 60.75 37.09343022474139 L 58 39 L 57.5 37 C 57.225 35.9 56.4375 35.01556343082706 55.75 35.0345854018379 C 55.0625 35.05360737284875 53.2625 34.153607372848754 51.75 33.0345854018379 C 50.2375 31.915563430827056 47.7625 30.982754313558523 46.25 30.961676252352273 Z M 69.25 35.006160741574845 C 70.95943421755406 35.002331147955374 73.79734089695206 36.458664766580824 76.75 38.854949082285145 C 79.3625 40.97517107754197 82.2766786757578 43.56267107754198 83.22595261279508 44.604949082285145 L 84.95190522559017 46.5 L 81.72595261279508 47.18080793652352 C 79.95167867575779 47.55525230161145 75.575 47.704569132695795 72 47.51262311671094 L 65.5 47.16363036037485 L 62.20811457512923 43.33181518018743 C 60.39757759145031 41.224316831084344 59.27257759145031 39.19061568576943 59.70811457512923 38.81247930170984 C 60.14365155880815 38.43434291765026 61.85 37.424615251358944 63.5 36.568640043284695 C 65.15 35.71266483521045 67.7375 35.009549149441014 69.25 35.006160741574845 Z M 68 39 C 67.45 39 67 39.675 67 40.5 C 67 41.325 67.45 42 68 42 C 68.55 42 69 41.325 69 40.5 C 69 39.675 68.55 39 68 39 Z M 74 43 C 73.45 43 73 43.675 73 44.5 C 73 45.325 73.45 46 74 46 C 74.55 46 75 45.325 75 44.5 C 75 43.675 74.55 43 74 43 Z M 26.5 50.354955460386826 C 21.549999999999997 50.358003019740586 19.75 50.529200166929876 22.5 50.73539356525191 C 25.25 50.94158696357395 29.3 50.939093505920866 31.5 50.72985254824507 C 33.7 50.520611590569274 31.450000000000003 50.351907901033066 26.5 50.354955460386826 Z M 81.5 52.354955460386826 C 76.55 52.358003019740586 74.75 52.529200166929876 77.5 52.73539356525191 C 80.25 52.94158696357395 84.3 52.939093505920866 86.5 52.72985254824507 C 88.7 52.520611590569274 86.45 52.351907901033066 81.5 52.354955460386826 Z M 29.75 54.983333333333334 C 29.3375 54.9925 28.514943833091277 56.2375 27.9220974068695 57.75 C 27.14461705866371 59.73354746634056 27.15270869629565 60.91806501835969 27.951129868125253 62 C 28.55994414803769 62.825 29.317344742791228 64.4 29.63424230091089 65.5 C 30.15071475605693 67.29275505949502 30.358166064697027 67.18913258924253 31.636233839373702 64.5 C 32.42043162740858 62.85 33.05558719956377 60.6 33.04769066638522 59.5 C 33.039794133206684 58.4 32.46333333333333 56.93 31.766666666666666 56.233333333333334 C 31.07 55.53666666666667 30.1625 54.97416666666667 29.75 54.983333333333334 Z M 89.75 56.258316651323895 C 88.55547850297098 56.08199391243993 87.80649215499675 56.87289479038297 87.39036573522739 58.75 C 87.05506688960247 60.2625 87.24716233621709 62.4 87.81724450548211 63.5 C 88.38732667474711 64.6 89.07613577810531 66.175 89.34793140183365 67 C 89.65252853606576 67.924564686857 89.87239133227068 67.6368470302855 89.92105263157895 66.25 C 89.96447368421053 65.0125 90.45 64 91 64 C 91.55 64 91.8875 62.31624249309575 91.75 60.258316651323895 C 91.57090751816877 57.57788722275997 91.00364737281859 56.44336693205961 89.75 56.258316651323895 Z M 76.5 62 C 75.675 62 74.55 63.125 74 64.5 C 73.45 65.875 73 67.9 73 69 C 73 70.1 73.6248391471723 71.3375 74.38853143816064 71.75 C 75.152223729149 72.1625 76.00002312143515 73.4 76.27253008768542 74.5 C 76.65112224121351 76.02822283632347 76.79536069310448 75.85130639994478 76.88399864952478 73.75 C 76.95242040613391 72.12795137811521 77.51270517187055 71.10254103437411 78.25 71.25 C 78.96428571428571 71.39285714285714 79.60714285714286 70.32142857142857 79.75 68.75 C 79.8875 67.2375 79.55 65.1 79 64 C 78.45 62.9 77.325 62 76.5 62 Z M 39.25 62.983333333333334 C 38.5625 62.9925 37.775 63.675 37.5 64.5 C 37.225 65.325 37 67.575 37 69.5 C 37 71.43873468679267 37.5575947547169 73.16276077687913 38.25 73.36487246226375 C 38.9375 73.56555231650881 40.2875 73.3405523165088 41.25 72.86487246226375 C 42.373798292824006 72.30947692134804 43.00596382578263 70.83705397238744 43.016666666666666 68.75 C 43.02583333333333 66.9625 42.46333333333333 64.93 41.766666666666666 64.23333333333333 C 41.07 63.53666666666667 39.9375 62.97416666666667 39.25 62.983333333333334 Z M 57.86698599671648 68.2157758909061 L 60.5 70.9315517818122 L 58 72.97169820856155 C 56.625 74.0937787432737 55.8375 75.23417959236595 56.25 75.50592231765546 C 56.6625 75.77766504294496 57.717542679998836 75.2125 58.59453928888631 74.25 C 59.9833514280102 72.72578466055589 60.30123508886867 72.6935297090479 61.058375428740604 74 C 61.62538998585633 74.97840206682736 61.406074346535945 76.02159793317264 60.42767227970859 77 C 59.48332984880969 77.9443424308989 58.66323997690329 78.12956162059926 58.213836139854294 77.5 C 57.82122626293443 76.95 56.825 76.33026315789473 56 76.12280701754386 C 55.175 75.91535087719298 53.98047117626564 75.69035087719298 53.34549150281252 75.62280701754386 C 52.71051182935941 75.55526315789473 52.37301182935941 75.1625 52.59549150281252 74.75 C 52.81797117626564 74.3375 52.325 74 51.5 74 C 50.675 74 50.225 73.55 50.5 73 C 50.775 72.45 50.4375 71.83660714285715 49.75 71.63690476190476 C 49.022930648769574 71.42570842654735 48.87103174603175 70.90277777777777 49.38690476190476 70.38690476190476 C 49.90277777777778 69.87103174603175 50.42570842654735 70.02293064876957 50.63690476190476 70.75 C 50.83660714285714 71.4375 51.9 72 53 72 C 54.5 72 54.875 71.5 54.5 70 C 54.225 68.9 54.27764369852241 67.4375 54.61698599671648 66.75 C 55.04910344730283 65.87453959067543 56.02290638305892 66.31373247243691 57.86698599671648 68.2157758909061 Z M 58.25 69.96740526445389 C 57.5625 69.98533236900425 57.01395672751766 70.3375 57.031014950039236 70.75 C 57.04807317256081 71.1625 56.03557317256082 72.03204387345674 54.781014950039236 72.68231971879274 C 53.30697258067922 73.44636090124986 53.030666785414105 73.90011451811739 54 73.96491445433887 C 54.825 74.02006571355321 56.4 73.13585420910073 57.5 72 C 58.69222792918749 70.76891171674995 58.99514245574218 69.9479750874226 58.25 69.96740526445389 Z M 58.25 79.07028526261038 L 60.5 79.14057052522075 L 58.5 80 C 57.4 80.47268621112859 56.1625 80.89105784295391 55.75 80.92971473738962 C 55.3375 80.96837163182533 55.225 80.55 55.5 80 C 55.775 79.45 57.0125 79.03162836817467 58.25 79.07028526261038 Z " fill="#0000ff"></path></svg>
