<?xml version="1.0" encoding="UTF-8" standalone="no"?>
<svg
   xmlns:dc="http://purl.org/dc/elements/1.1/"
   xmlns:cc="http://creativecommons.org/ns#"
   xmlns:rdf="http://www.w3.org/1999/02/22-rdf-syntax-ns#"
   xmlns:svg="http://www.w3.org/2000/svg"
   xmlns="http://www.w3.org/2000/svg"
   xmlns:sodipodi="http://sodipodi.sourceforge.net/DTD/sodipodi-0.dtd"
   xmlns:inkscape="http://www.inkscape.org/namespaces/inkscape"
   width="110"
   height="108"
   viewBox="0 0 110 108"
   version="1.1"
   id="svg2"
   inkscape:version="0.91 r13725"
   sodipodi:docname="shefu1.svg">
  <metadata
     id="metadata13">
    <rdf:RDF>
      <cc:Work
         rdf:about="">
        <dc:format>image/svg+xml</dc:format>
        <dc:type
           rdf:resource="http://purl.org/dc/dcmitype/StillImage" />
        <dc:title></dc:title>
      </cc:Work>
    </rdf:RDF>
  </metadata>
  <defs
     id="defs11" />
  <sodipodi:namedview
     pagecolor="#ffffff"
     bordercolor="#666666"
     borderopacity="1"
     objecttolerance="10"
     gridtolerance="10"
     guidetolerance="10"
     inkscape:pageopacity="0"
     inkscape:pageshadow="2"
     inkscape:window-width="1920"
     inkscape:window-height="1027"
     id="namedview9"
     showgrid="false"
     inkscape:zoom="6.180637"
     inkscape:cx="55"
     inkscape:cy="43.27713"
     inkscape:window-x="-8"
     inkscape:window-y="22"
     inkscape:window-maximized="1"
     inkscape:current-layer="svg2" />
  <!--?xml version="1.0" encoding="utf-8"?-->
  <!-- Generator: Adobe Illustrator 15.0.2, SVG Export Plug-In . SVG Version: 6.00 Build 0)  -->
  <svg
     version="1.1"
     id="Ebene_1"
     x="0px"
     y="0px"
     width="100px"
     height="100px"
     viewBox="0 0 100 100"
     enable-background="new 0 0 100 100"
     xml:space="preserve">
<circle
   fill="#B2B2B2"
   cx="50"
   cy="50"
   r="50"
   id="circle5" /></svg>  <path
     d="m 48.387628,11.559468 c -3.884085,-0.286203 -8.362018,-0.07917 -9.950963,0.460082 -1.588944,0.539247 -3.384414,1.99295 -3.989933,3.23045 -0.605519,1.2375 -2.050014,6.6375 -3.209987,12 -1.159975,5.3625 -1.820146,10.2 -1.467047,10.75 0.353099,0.55 0.08545,1.1125 -0.594764,1.25 -0.680219,0.1375 -1.469484,1.825 -1.753922,3.75 -0.284438,1.925 -1.17239,4.5125 -1.973226,5.75 -0.800837,1.2375 -1.167168,3.6 -0.814069,5.25 0.372173,1.73913 -0.167478,4.050725 -1.283996,5.5 l -1.925992,2.5 2.246991,0.917813 c 1.530836,0.62529 2.144684,1.900161 1.925993,4 C 25.420164,68.613016 25.853513,70 26.55971,70 c 0.706197,0 1.283994,1.35 1.283994,3 0,1.65 0.433349,3.025927 0.962997,3.057616 0.529648,0.03169 3.274188,0.263842 6.098978,0.515896 2.824789,0.252054 5.885236,1.013626 6.800992,1.692384 0.915757,0.678757 1.926903,2.696604 2.246992,4.484104 0.320089,1.7875 0.04824,3.8125 -0.604107,4.5 -0.652348,0.6875 -1.807944,2.4875 -2.567991,4 L 39.399662,94 46.140637,89.882837 c 3.707536,-2.26444 9.629964,-5.246924 13.16095,-6.627743 3.530988,-1.380819 8.556715,-2.565596 11.168285,-2.632837 L 75.21818,80.5 l -1.895476,-2 c -1.042512,-1.1 -2.838557,-3.575 -3.99121,-5.5 -1.152654,-1.925 -2.11649,-5.975 -2.141859,-9 -0.02537,-3.025 0.40161,-8.65 0.948843,-12.5 l 0.994968,-7 -11.335905,-0.585561 C 51.562793,43.59238 42.850399,42.57988 38.436665,41.664439 32.409091,40.414275 30.571487,39.626654 31.053693,38.5 l 0.641997,-1.5 1.925994,1.5 c 1.059296,0.825 2.50379,1.5 3.209987,1.5 0.706198,0 1.593792,-1.4625 1.972433,-3.25 0.378641,-1.7875 1.389788,-6.728856 2.246992,-10.98079 1.026539,-5.091869 1.12026,-7.911373 0.274558,-8.259814 -0.706197,-0.290963 0.738298,-0.294093 3.209989,-0.007 2.47169,0.287138 8.249669,0.577836 12.839952,0.645996 4.590282,0.06816 7.045924,0.287645 5.45698,0.487745 L 59.943586,19 l -0.01116,6.75 c -0.0061,3.7125 -0.439485,9.118239 -0.962995,12.012754 l -0.951837,5.262754 3.530987,-0.01275 L 65.079566,43 l 0.36437,-12.25 0.36437,-12.25 0.277628,12.25 c 0.152694,6.7375 0.710976,12.252918 1.240624,12.256485 0.529648,0.0036 1.415593,-5.733933 1.968767,-12.75 C 70.095824,20.103527 69.942311,17.091811 68.543157,15.5 67.46625,14.274808 64.589484,13.224912 61.117409,12.789919 58.000116,12.399374 52.271714,11.845671 48.387628,11.559468 Z m -8.987966,4.172669 c 1.444372,0.391997 1.523257,0.678391 0.315458,1.145285 C 38.829326,17.21984 37.13542,22 35.950886,27.5 34.766351,33 33.548959,36.825 33.24557,36 c -0.303389,-0.825 0.523819,-5.840378 1.838241,-11.145285 1.89835,-7.661596 2.785965,-9.537783 4.315851,-9.122578 z M 47.745631,19 c -1.765494,0 -3.458463,0.5625 -3.762154,1.25 -0.30369,0.6875 -1.436423,5.525 -2.517183,10.75 -1.080759,5.225 -1.843431,9.549196 -1.694826,9.609324 0.148605,0.06013 1.859135,0.397628 3.801178,0.75 2.725469,0.49452 3.654232,0.241452 4.071232,-1.109324 0.297134,-0.9625 0.911022,-5.35 1.364196,-9.75 0.453174,-4.4 1.076761,-8.7875 1.385748,-9.75 C 50.81651,19.433323 50.160783,19 47.745631,19 Z m 8.02497,-0.007 c -1.942043,0.0038 -3.559238,0.119471 -3.593769,0.256971 -0.03453,0.1375 -0.756776,5.299622 -1.604994,11.471383 l -1.542212,11.221383 3.851986,0.588119 c 2.118591,0.323465 3.94663,0.448843 4.062306,0.278617 0.115676,-0.170226 0.693474,-5.600139 1.283995,-12.066473 l 1.073674,-11.756972 -3.530986,0.007 z M 29.769698,46.468486 c 1.412395,0.419564 4.879182,1.212491 7.703971,1.76206 2.824789,0.54957 10.913959,1.603528 17.975933,2.34213 L 68.289554,51.915589 56.0916,51.466204 C 49.382725,51.219042 40.715756,50.297179 36.831671,49.41762 32.947585,48.538061 29.1919,47.343046 28.485703,46.762032 27.593949,46.028354 27.986191,45.93868 29.769698,46.468486 Z"
     id="path7"
     inkscape:connector-curvature="0"
     style="fill:#000000" />
  <path
     style="fill:#ffffff"
     id="path3343"
     d="m 28.835143,45.41598 c 0.540612,0.15472 1.072718,0.332456 1.602205,0.521223 0.352079,0.130736 0.721784,0.176596 1.094167,0.19512 0.270472,0.09349 0.564302,0.09063 0.83286,0.181635 0.28714,0.102713 0.587274,0.166831 0.871328,0.277175 0.335639,0.110601 0.671105,0.222909 1.018814,0.291112 0.28791,0.106635 0.584436,0.179651 0.877645,0.268704 0.312337,0.14102 0.633663,0.259563 0.947542,0.396298 0.392506,0.118525 0.787683,0.208429 1.177992,0.340431 0.366239,0.143659 0.761307,0.138204 1.141202,0.21191 0.381254,0.05592 0.754875,0.145177 1.133256,0.216245 0.346415,0.06205 0.698327,0.07578 1.049347,0.08311 0.335816,-0.02715 0.65704,0.03634 0.985577,0.0915 0.355893,0.03467 0.705689,0.07973 1.048173,0.185802 0.392192,0.100556 0.77375,0.231566 1.155681,0.364461 0.351058,0.09067 0.690726,0.21628 1.049492,0.274492 0.356323,0.107188 0.722043,0.167367 1.092016,0.198613 0.342034,0.0035 0.674353,0.02577 1.011043,0.08169 0.356489,0.116184 0.721138,0.193765 1.09342,0.234254 0.441051,0.03183 0.883719,0.03094 1.325679,0.03188 0.456887,8.1e-5 0.913768,-0.002 1.370651,-0.0039 0.348614,0.01148 0.701397,-0.03293 1.045752,0.02894 0.370449,0.07504 0.729095,0.190098 1.104166,0.247495 0.324652,0.0583 0.659274,0.0099 0.980522,0.07924 0.435623,0.126783 0.879949,0.195773 1.331005,0.243068 0.4888,0.08938 0.978609,0.187806 1.456446,0.325265 0.374538,0.08807 0.742994,0.197828 1.117469,0.285678 0.353999,0.07043 0.716856,0.07668 1.076572,0.0833 0.337269,0.0037 0.674568,0.0016 1.011847,7.02e-4 0.323918,-8.97e-4 0.647837,-0.0011 0.971756,-0.0013 0.323399,-1.08e-4 0.646798,-9.2e-5 0.970198,-8.8e-5 0.329307,-0.01425 0.650838,-0.09947 0.981221,-0.126958 0.609418,-0.02856 1.2197,-0.0251 1.829609,-0.02658 0.924101,-0.0093 1.846235,0.0018 2.76874,0.05537 0.499278,0.04926 0.995819,0.12145 1.493442,0.184484 0,0 -1.949994,1.37707 -1.949994,1.37707 l 0,0 c -0.4859,-0.07001 -0.971398,-0.146435 -1.461214,-0.184299 -0.923958,-0.04825 -1.847822,-0.04717 -2.772858,-0.03484 -0.612053,0.0046 -1.226015,0.0034 -1.8358,0.06193 -0.331993,0.04509 -0.661774,0.123084 -0.998932,0.107518 -0.323375,1e-5 -0.646751,1.4e-5 -0.970127,2.2e-4 -0.323782,2.55e-4 -0.647564,7.21e-4 -0.971346,0.0014 -0.338073,4.6e-4 -0.676229,0.0017 -1.014201,-0.008 -0.371411,-0.01411 -0.745937,-0.03216 -1.107531,-0.125366 -0.371058,-0.09881 -0.743282,-0.192268 -1.113528,-0.294071 -0.472606,-0.120308 -0.948593,-0.232638 -1.432265,-0.29842 -0.454712,-0.05753 -0.901004,-0.147144 -1.349081,-0.240402 -0.326938,-0.0249 -0.656909,-0.02222 -0.980019,-0.08656 -0.367788,-0.07229 -0.724932,-0.193191 -1.09811,-0.235427 -0.341407,-0.01721 -0.683589,-0.0035 -1.025315,-0.0083 -0.455064,-5.04e-4 -0.91013,-2.78e-4 -1.36519,-0.0017 -0.450951,-0.0026 -0.903699,0.0031 -1.352289,-0.05021 -0.370536,-0.0569 -0.729627,-0.157329 -1.094976,-0.238628 -0.334113,-0.04502 -0.670736,-0.03628 -1.005892,-0.07209 -0.372698,-0.0464 -0.73744,-0.128199 -1.102254,-0.216428 -0.361669,-0.07943 -0.714237,-0.196298 -1.067939,-0.304893 -0.377225,-0.133415 -0.760729,-0.245116 -1.146848,-0.349895 -0.342502,-0.08016 -0.69056,-0.110938 -1.037834,-0.163342 -0.321083,-0.05314 -0.641061,-0.06928 -0.966656,-0.0656 -0.358404,-0.01527 -0.71668,-0.04343 -1.068511,-0.117266 -0.375267,-0.07687 -0.751221,-0.14787 -1.12922,-0.210305 -0.393213,-0.05331 -0.787804,-0.09824 -1.160647,-0.24495 -0.394861,-0.131126 -0.807023,-0.193661 -1.192447,-0.351518 -0.312461,-0.12449 -0.618192,-0.2655 -0.936358,-0.375076 -0.287167,-0.08803 -0.578076,-0.163406 -0.864153,-0.254983 -0.350748,-0.08582 -0.695303,-0.196948 -1.036661,-0.31414 -0.287358,-0.08971 -0.57606,-0.175285 -0.865128,-0.259456 -0.267293,-0.05042 -0.533979,-0.106321 -0.802666,-0.146942 -0.384575,-0.03683 -0.762209,-0.112284 -1.12282,-0.255448 -0.527745,-0.194341 -1.063685,-0.361656 -1.605845,-0.511267 0,0 1.98782,-1.348716 1.98782,-1.348716 z"
     inkscape:connector-curvature="0" />
</svg>
