<?xml version="1.0" standalone="no"?>
<svg width="110" height="108" viewBox="0 0 110 108" xmlns="http://www.w3.org/2000/svg" xmlns:xlink="http://www.w3.org/1999/xlink" version="1.1"><!--?xml version="1.0" encoding="utf-8"?-->
<!-- Generator: Adobe Illustrator 15.0.2, SVG Export Plug-In . SVG Version: 6.00 Build 0)  -->

<svg version="1.1" id="Ebene_1" xmlns="http://www.w3.org/2000/svg" xmlns:xlink="http://www.w3.org/1999/xlink" x="0px" y="0px" width="100px" height="100px" viewBox="0 0 100 100" enable-background="new 0 0 100 100" xml:space="preserve">
<circle fill="#B2B2B2" cx="50" cy="50" r="50"></circle></svg><path d="M 47 11.559468303818308 C 43.975 11.273265444920257 40.4875 11.480302088830117 39.25 12.019549734729107 C 38.0125 12.558797380628098 36.61415381166044 14.0125 36.14256402591208 15.25 C 35.67097424016372 16.4875 34.54597424016372 21.8875 33.64256402591208 27.25 C 32.73915381166044 32.6125 32.225 37.45 32.5 38 C 32.775 38.55 32.56655392357736 39.1125 32.03678649683857 39.25 C 31.507019070099787 39.3875 30.89232475214048 41.075 30.67079912359566 43 C 30.449273495050843 44.925 29.757719571473487 47.5125 29.134012626757087 48.75 C 28.510305682040688 49.9875 28.225 52.35 28.5 54 C 28.78985507246377 55.73913043478261 28.369565217391305 58.05072463768116 27.5 59.5 L 26 62 L 27.75 62.91781316963743 C 28.942243722558285 63.54310287819831 29.42032053179404 64.81797436949367 29.25 66.91781316963743 C 29.1125 68.61301592633684 29.45 70 30 70 C 30.55 70 31 71.35 31 73 C 31 74.65 31.3375 76.02592722077667 31.75 76.05761604617038 C 32.1625 76.0893048715641 34.3 76.32145796677072 36.5 76.57351181329622 C 38.7 76.82556565982173 41.08353444341637 77.58713843904506 41.79674320759193 78.26589576712584 C 42.509951971767485 78.94465309520663 43.29745197176749 80.9625 43.54674320759193 82.75 C 43.79603444341637 84.5375 43.584313622293756 86.5625 43.07625249398613 87.25 C 42.5681913656785 87.9375 41.6681913656785 89.7375 41.07625249398613 91.25 L 40 94 L 45.25 89.88283675325138 C 48.1375 87.61839696753964 52.75 84.63591256846331 55.5 83.2550936441929 C 58.25 81.87427471992247 62.16413293044918 80.68949818095935 64.19807317877596 80.62225689094151 L 67.89614635755191 80.5 L 66.4199130401734 78.5 C 65.60798471561522 77.4 64.20919100626769 74.925 63.31148257495667 73 C 62.413774143645654 71.075 61.66311982286976 67.025 61.64336186212135 64 C 61.62360390137295 60.975 61.95614349913135 55.35 62.38233874602891 51.5 L 63.15723919493357 44.5 L 54.32861959746678 43.91443865447516 C 49.47287881886005 43.5923799144365 42.6875 42.579879914436496 39.25 41.66443865447516 C 34.55561016370023 40.41427483004114 33.124448813096016 39.626653560711944 33.5 38.5 L 34 37 L 35.5 38.5 C 36.325 39.325 37.45 40 38 40 C 38.55 40 39.241275809606414 38.5375 39.53616846579203 36.75 C 39.831061121977655 34.9625 40.618561121977656 30.021144492739335 41.28616846579203 25.76920998386519 C 42.08565619374854 20.67734050187699 42.15864801286298 17.857836562668314 41.5 17.509395934278416 C 40.95 17.218432715879832 42.075 17.21530292902285 44 17.502440852374008 C 45.925 17.789578775725165 50.425 18.080277022264184 54 18.148436955794054 C 57.575 18.21659688932392 59.4875 18.436082183441567 58.25 18.636182053833267 L 56 19 L 55.991307904774814 25.75 C 55.986527252400954 29.4625 55.649027252400955 34.86823932227273 55.241307904774814 37.762754049494944 L 54.5 43.02550809898989 L 57.25 43.012754049494944 L 60 43 L 60.28377824084143 30.75 L 60.56755648168286 18.5 L 60.78377824084143 30.75 C 60.90270020837864 37.4875 61.3375 43.002918369734374 61.75 43.006485266076396 C 62.1625 43.01005216241841 62.85249124852082 37.27255216241841 63.28331388560183 30.256485266076393 C 63.90675778404896 20.103527363822618 63.787198559148564 17.091811175332715 62.69751036686094 15.5 C 61.85879470546392 14.274808268835546 59.61831499554606 13.224911517891869 56.91419648125911 12.7899185690892 C 54.4863884165666 12.399373782088261 50.025 11.845671162716359 47 11.559468303818308 Z M 40 15.73213714823413 C 41.124904820116626 16.12413396258514 41.18634152900534 16.410527821399846 40.24568447763505 16.877421895309855 C 39.55581094033434 17.219839852889436 38.236565122978426 22 37.31402710573303 27.5 C 36.39148908848763 33 35.443360952168746 36.825 35.207075691691045 36 C 34.97079043121335 35.175 35.61503624856927 30.159621863815925 36.63873306359308 24.854715252924276 C 38.117204329799776 17.19311869522582 38.80849605398825 15.316932463561484 40 15.73213714823413 Z M 46.5 19 C 45.125 19 43.80648346607893 19.5625 43.56996325795318 20.25 C 43.333443049827416 20.9375 42.451249499826844 25.775 41.609533146840775 31 C 40.76781679385471 36.225 40.17383332777579 40.54919562087365 40.289569888887605 40.609323601941426 C 40.40530644999942 40.66945158300921 41.7375 41.00695158300922 43.25 41.359323601941426 C 45.37264778178895 41.85384372382636 46.095985458138706 41.60077586113842 46.42075249312761 40.25 C 46.6521663643478 39.2875 47.130274476659984 34.9 47.48321496493247 30.5 C 47.83615545320495 26.1 48.321816831297525 21.7125 48.56246247180486 20.75 C 48.89165987606501 19.433323325814627 48.38096667740767 19 46.5 19 Z M 52.75 18.99302873372784 C 51.2375 18.996862930177528 49.97799708667991 19.1125 49.95110463706648 19.25 C 49.92421218745304 19.3875 49.36171218745304 24.549622265230976 48.70110463706648 30.721382811624395 L 47.5 41.94276562324879 L 50.5 42.53088454745395 C 52.15 42.85434995576679 53.57371078271153 42.97972769053581 53.663801739358945 42.809501735829556 C 53.75389269600637 42.6392757811233 54.20389269600637 37.209362930177534 54.663801739358945 30.74302873372784 L 55.5 18.98605746745568 L 52.75 18.99302873372784 Z M 32.5 46.46848610325023 C 33.6 46.88804989883466 36.3 47.68097707720625 38.5 48.23054649963154 C 40.7 48.78011592205682 47 49.834074320242664 52.5 50.57267627337785 L 62.5 51.915588915441816 L 53 51.46620365433556 C 47.775 51.21904176072712 41.025 50.29717907792646 38 49.41761991477853 C 34.975 48.538060751630596 32.05 47.343046251828035 31.5 46.762032137439505 C 30.805485432026984 46.028354379910816 31.110970864053968 45.9386803428367 32.5 46.46848610325023 Z " fill="#000000"></path></svg>
