<?xml version="1.0" standalone="no"?>
<svg width="105" height="108" viewBox="0 0 105 108" xmlns="http://www.w3.org/2000/svg" xmlns:xlink="http://www.w3.org/1999/xlink" version="1.1"><!--?xml version="1.0" encoding="utf-8"?-->
<!-- Generator: Adobe Illustrator 15.0.2, SVG Export Plug-In . SVG Version: 6.00 Build 0)  -->

<svg version="1.1" id="Ebene_1" xmlns="http://www.w3.org/2000/svg" xmlns:xlink="http://www.w3.org/1999/xlink" x="0px" y="0px" width="100px" height="100px" viewBox="0 0 100 100" enable-background="new 0 0 100 100" xml:space="preserve">
<circle fill="#B2B2B2" cx="50" cy="50" r="50"></circle></svg><path d="M 52.12392695424067 12.546107701708127 C 49.71708677907304 12.520748465768659 47.574424923109945 12.95 47.36245616321156 13.5 C 47.150487403313186 14.05 47.09472027390488 32.267592032514784 47.23852920897089 53.98353785003286 L 47.5 93.46707570006572 L 52 93.4668711833662 L 56.5 93.46666666666667 L 56.5 53.02944103504146 L 56.5 12.592215403416256 L 52.12392695424067 12.546107701708127 Z M 42.75 13.120320035596478 C 42.6125 13.186496055174542 40.58363671118199 13.973996055174542 38.24141491373775 14.870320035596478 L 33.9828298274755 16.5 L 33.98916298008647 53 L 33.99549613269744 89.5 L 38.4617281820726 91 L 42.927960231447756 92.5 L 42.96398011572388 52.75 C 42.983791052075745 30.887499999999996 42.8875 13.054144016018416 42.75 13.120320035596478 Z M 65.5382718179274 15 L 61.07203976855226 13.5 L 61.07203976855225 53 L 61.072039768552244 92.5 L 65.53827181792741 91 L 70.00450386730256 89.5 L 70.00450386730255 53 L 70.00450386730253 16.5 L 65.5382718179274 15 Z M 29.75 18.96389517339764 C 29.6125 18.94403751876634 27.422273827224977 20.856537518766338 24.882830727166617 23.21389517339764 C 22.343387627108257 25.57125282802894 19.150808487308037 29.3 17.788210416499464 31.5 C 16.42561234569089 33.7 14.510103975738975 37.975 13.53152514993965 41 C 12.552946324140326 44.025 11.752290921213607 49.425 11.752290921213609 53 C 11.75229092121361 56.575 12.546583837030482 61.975 13.51738628969555 65 C 14.488188742360617 68.025 16.906423285087552 72.93116031035133 18.891240829088744 75.90257846744741 C 20.876058373089936 78.8739966245435 24.1875 82.58649662454349 26.25 84.15257846744741 L 30 87 L 29.843871672330824 81.25 C 29.727904412386266 76.9790790554413 29.102035823591162 74.72830657976975 27.410773608821223 72.5 C 26.158440254108992 70.85 24.213580901781036 67.475 23.08886393698132 65 C 21.610716461070854 61.74725720570075 21.043924000981832 58.42123799049875 21.04392400098183 53 C 21.043924000981825 47.57876200950116 21.610716461070826 44.2527427942993 23.08886393698134 41 C 24.21358090178107 38.525 26.158440254109028 35.15 27.410773608821238 33.5 C 29.10203582359112 31.271693420230278 29.727904412386245 29.020920944558632 29.84387167233081 24.75 C 29.929742252548863 21.5875 29.8875 18.983752828028937 29.75 18.96389517339764 Z M 77.75 21.84742153255257 L 74 19 L 74.1561283276692 24.75 C 74.27209558761375 29.020920944558643 74.89796417640888 31.27169342023027 76.58922639117876 33.5 C 77.84155974589098 35.15 79.78641909821893 38.525 80.91113606301866 41 C 82.38928353892918 44.2527427942993 82.95607599901818 47.57876200950116 82.95607599901817 53 C 82.95607599901817 58.42123799049876 82.38928353892915 61.74725720570074 80.91113606301869 65 C 79.78641909821896 67.475 77.841559745891 70.85 76.58922639117877 72.5 C 74.89796417640883 74.72830657976976 74.27209558761373 76.9790790554413 74.15612832766917 81.25 L 74 87 L 77.75 84.15257846744743 C 79.8125 82.58649662454351 83.12394162691007 78.87399662454351 85.10875917091126 75.90257846744743 C 87.09357671491244 72.93116031035134 89.51181125763938 68.025 90.48261371030445 65 C 91.45341616296952 61.975 92.24770907878639 56.575 92.24770907878639 53 C 92.24770907878639 49.425 91.45341616296952 44.025 90.48261371030443 41 C 89.51181125763937 37.975 87.09357671491243 33.068839689648655 85.10875917091124 30.09742153255257 C 83.12394162691007 27.126003375456484 79.8125 23.413503375456482 77.75 21.84742153255257 Z " fill="#000000" transform="matrix(1 0 0 1 -2.43 -2.7)"></path></svg>
