<?xml version="1.0" encoding="UTF-8" standalone="no"?>
<svg
   xmlns:dc="http://purl.org/dc/elements/1.1/"
   xmlns:cc="http://creativecommons.org/ns#"
   xmlns:rdf="http://www.w3.org/1999/02/22-rdf-syntax-ns#"
   xmlns:svg="http://www.w3.org/2000/svg"
   xmlns="http://www.w3.org/2000/svg"
   xmlns:sodipodi="http://sodipodi.sourceforge.net/DTD/sodipodi-0.dtd"
   xmlns:inkscape="http://www.inkscape.org/namespaces/inkscape"
   width="100"
   height="100"
   viewBox="0 0 100 100"
   version="1.1"
   id="svg2"
   inkscape:version="0.91 r13725"
   sodipodi:docname="syoukyaku.svg">
  <metadata
     id="metadata13">
    <rdf:RDF>
      <cc:Work
         rdf:about="">
        <dc:format>image/svg+xml</dc:format>
        <dc:type
           rdf:resource="http://purl.org/dc/dcmitype/StillImage" />
      </cc:Work>
    </rdf:RDF>
  </metadata>
  <defs
     id="defs11" />
  <sodipodi:namedview
     pagecolor="#ffffff"
     bordercolor="#666666"
     borderopacity="1"
     objecttolerance="10"
     gridtolerance="10"
     guidetolerance="10"
     inkscape:pageopacity="0"
     inkscape:pageshadow="2"
     inkscape:window-width="688"
     inkscape:window-height="480"
     id="namedview9"
     showgrid="false"
     inkscape:zoom="2.9776562"
     inkscape:cx="50"
     inkscape:cy="50"
     inkscape:window-x="0"
     inkscape:window-y="0"
     inkscape:window-maximized="0"
     inkscape:current-layer="svg2" />
  <!--?xml version="1.0" encoding="utf-8"?-->
  <!-- Generator: Adobe Illustrator 15.0.2, SVG Export Plug-In . SVG Version: 6.00 Build 0)  -->
  <svg
     version="1.1"
     id="Ebene_1"
     x="0px"
     y="0px"
     width="100px"
     height="100px"
     viewBox="0 0 100 100"
     enable-background="new 0 0 100 100"
     xml:space="preserve">
<circle
   fill="#B2B2B2"
   cx="50"
   cy="50"
   r="50"
   id="circle5" /></svg>  <path
     d="m 48.846661,0.9514569 c -0.275,0 -1.227777,0.8021676 -2.117283,1.7825947 -0.889505,0.9804271 -9.260022,15.0575954 -18.601149,31.2825954 -9.341126,16.225 -17.500849,30.5125 -18.1327166,31.75 -0.9156963,1.793372 -0.844432,2.554419 0.3511486,3.75 1.279279,1.279279 6.944445,1.5 38.5,1.5 31.555556,0 37.220721,-0.220721 38.5,-1.5 1.195581,-1.195581 1.266846,-1.956628 0.351149,-3.75 -0.631868,-1.2375 -8.79159,-15.525 -18.132717,-31.75 C 60.223967,17.791647 51.85345,3.7144787 50.963944,2.7340516 50.074438,1.7536245 49.121661,0.9514569 48.846661,0.9514569 Z m 0,11.0222861 c 0.275,-0.0014 7.1375,11.482618 15.25,25.520139 8.1125,14.03752 14.75,25.747765 14.75,26.022765 0,0.275 -13.5,0.5 -30,0.5 -16.5,0 -30,-0.225 -30,-0.5 0,-0.275 6.6375,-11.984063 14.75,-26.020139 8.1125,-14.036076 14.975,-25.521321 15.25,-25.522765 z m -0.795175,10.136081 -2.295175,-1.593177 0.02104,6.5 0.02104,6.5 -7.951729,7.5 c -6.147033,5.797827 -7.957207,8.12413 -7.975864,10.25 -0.01328,1.5125 0.45425,3.9875 1.038943,5.5 l 1.06308,2.75 -1.06308,0.25 c -0.584693,0.1375 -1.063079,0.925 -1.063079,1.75 0,1.280702 2.777778,1.5 19,1.5 16.222222,0 19,-0.219298 19,-1.5 0,-0.825 -0.675,-1.5 -1.5,-1.5 -1.32553,0 -1.330635,-0.436175 -0.04389,-3.75 0.800859,-2.0625 1.475859,-4.9875 1.5,-6.5 0.02414,-1.5125 -0.631107,-4.325 -1.456107,-6.25 -0.825,-1.925 -1.8375,-3.517858 -2.25,-3.539684 -0.4125,-0.02183 -1.416764,1.440674 -2.231699,3.25 l -1.481699,3.289684 -0.770949,-5 c -0.424021,-2.75 -1.332256,-5.626781 -2.0183,-6.392846 -1.043388,-1.16509 -1.345789,-1.001572 -1.849342,1 -0.515332,2.048394 -0.69994,1.817043 -1.282434,-1.607154 -0.374244,-2.2 -1.453349,-5.53307 -2.398011,-7.406823 -0.944661,-1.873752 -2.750395,-4.123752 -4.012741,-5 z m -1.204825,21.852189 c 0.275,0.01602 0.1625,2.284865 -0.25,5.04188 l -0.75,5.012754 3.164181,-2.25 c 1.7403,-1.2375 3.796073,-3.15 4.568384,-4.25 1.258573,-1.792581 1.371183,-1.351627 1.085819,4.251822 -0.175111,3.438502 0.01912,6.251002 0.431616,6.25 0.4125,-0.001 1.665564,-1.239322 2.784586,-2.751822 1.119022,-1.5125 2.019022,-2.1875 2,-1.5 -0.01902,0.6875 -0.484586,2.375 -1.034586,3.75 -0.981387,2.453468 -1.181472,2.495347 -10.75,2.25 l -9.75,-0.25 -0.25,-3.25 c -0.201856,-2.624133 0.568441,-4.12465 4,-7.79188 2.3375,-2.498033 4.475,-4.528773 4.75,-4.512754 z"
     id="path7"
     inkscape:connector-curvature="0"
     style="fill:#000000" />
</svg>
