<?xml version="1.0" encoding="UTF-8" standalone="no"?>
<svg
   xmlns:dc="http://purl.org/dc/elements/1.1/"
   xmlns:cc="http://creativecommons.org/ns#"
   xmlns:rdf="http://www.w3.org/1999/02/22-rdf-syntax-ns#"
   xmlns:svg="http://www.w3.org/2000/svg"
   xmlns="http://www.w3.org/2000/svg"
   xmlns:sodipodi="http://sodipodi.sourceforge.net/DTD/sodipodi-0.dtd"
   xmlns:inkscape="http://www.inkscape.org/namespaces/inkscape"
   width="100"
   height="100"
   viewBox="0 0 100 100"
   version="1.1"
   id="svg2"
   inkscape:version="0.91 r13725"
   sodipodi:docname="syoukyaku.svg">
  <metadata
     id="metadata13">
    <rdf:RDF>
      <cc:Work
         rdf:about="">
        <dc:format>image/svg+xml</dc:format>
        <dc:type
           rdf:resource="http://purl.org/dc/dcmitype/StillImage" />
      </cc:Work>
    </rdf:RDF>
  </metadata>
  <defs
     id="defs11" />
  <sodipodi:namedview
     pagecolor="#ffffff"
     bordercolor="#666666"
     borderopacity="1"
     objecttolerance="10"
     gridtolerance="10"
     guidetolerance="10"
     inkscape:pageopacity="0"
     inkscape:pageshadow="2"
     inkscape:window-width="1920"
     inkscape:window-height="1027"
     id="namedview9"
     showgrid="false"
     inkscape:zoom="7.1554812"
     inkscape:cx="45.465718"
     inkscape:cy="57.581799"
     inkscape:window-x="-8"
     inkscape:window-y="22"
     inkscape:window-maximized="1"
     inkscape:current-layer="svg2" />
  <!--?xml version="1.0" encoding="utf-8"?-->
  <!-- Generator: Adobe Illustrator 15.0.2, SVG Export Plug-In . SVG Version: 6.00 Build 0)  -->
  <svg
     version="1.1"
     id="Ebene_1"
     x="0px"
     y="0px"
     width="100px"
     height="100px"
     viewBox="0 0 100 100"
     enable-background="new 0 0 100 100"
     xml:space="preserve">
<circle
   fill="#B2B2B2"
   cx="50"
   cy="50"
   r="50"
   id="circle5" /></svg>  <path
     d="m 49.894809,13.66898 c -0.244333,0 -1.090857,0.678967 -1.881167,1.508815 -0.790309,0.829848 -8.227358,12.74497 -16.526777,26.478049 -8.299418,13.733079 -15.549181,25.826229 -16.110583,26.873668 -0.81358,1.517936 -0.750263,2.162098 0.311989,3.174055 1.136615,1.0828 6.170011,1.269622 34.206538,1.269622 28.036528,0 33.069922,-0.186822 34.206538,-1.269622 1.062251,-1.011957 1.125569,-1.656119 0.311989,-3.174055 C 83.851933,67.482073 76.602171,55.388923 68.302752,41.655844 60.003335,27.922765 52.566285,16.007643 51.775976,15.177795 50.985666,14.347947 50.139141,13.66898 49.894809,13.66898 Z m 0,9.329426 c 0.244332,-0.0012 6.341536,9.719057 13.549343,21.600621 7.207806,11.881564 13.105102,21.793288 13.105102,22.026052 0,0.232764 -11.9945,0.423207 -26.654445,0.423207 -14.659945,0 -26.654446,-0.190443 -26.654446,-0.423207 0,-0.232764 5.897296,-10.143488 13.105103,-22.023829 7.207806,-11.880342 13.30501,-21.601622 13.549343,-21.602844 z m -0.706499,8.579328 -2.03922,-1.348489 0.01869,5.501696 0.01869,5.501696 -7.064964,6.34811 c -5.461525,4.907366 -7.069831,6.876383 -7.086408,8.675751 -0.0118,1.280202 0.403593,3.375079 0.923082,4.655281 l 0.944527,2.327641 -0.944527,0.211603 c -0.519489,0.116382 -0.944526,0.782934 -0.944526,1.481226 0,1.084005 2.468004,1.269622 16.881149,1.269622 14.413144,0 16.881148,-0.185617 16.881148,-1.269622 0,-0.698292 -0.599725,-1.269622 -1.332722,-1.269622 -1.177709,0 -1.182245,-0.369185 -0.03899,-3.174055 0.711548,-1.745731 1.311273,-4.221494 1.332722,-5.501696 0.02145,-1.280202 -0.560727,-3.660744 -1.293724,-5.290092 -0.732998,-1.629348 -1.632585,-2.977567 -1.999084,-2.996041 -0.366498,-0.01848 -1.258768,1.219408 -1.982823,2.750848 l -1.316462,2.784437 -0.684974,-4.232073 c -0.376735,-2.327641 -1.183685,-4.762591 -1.793222,-5.410999 -0.927031,-0.98615 -1.195709,-0.847746 -1.643107,0.846414 -0.457862,1.733791 -0.621883,1.537972 -1.139418,-1.360318 -0.332509,-1.862113 -1.291274,-4.683272 -2.130589,-6.269245 -0.839314,-1.585971 -2.443675,-3.490404 -3.565246,-4.232073 z m -1.070464,18.496014 c 0.244332,0.01356 0.144378,1.933944 -0.222121,4.267522 l -0.666361,4.242869 2.811317,-1.904433 c 1.546224,-1.047439 3.37274,-2.666207 4.058924,-3.597263 1.118219,-1.517267 1.218271,-1.144037 0.96473,3.598805 -0.155583,2.910398 0.01699,5.29094 0.383483,5.290092 0.366499,-8.47e-4 1.479823,-1.048981 2.474053,-2.329183 0.994231,-1.280202 1.793864,-1.851532 1.776963,-1.269622 -0.0169,0.58191 -0.430545,2.010235 -0.91921,3.174055 -0.871944,2.076652 -1.049716,2.112099 -9.551176,1.904433 l -8.662695,-0.211603 -0.22212,-2.750848 c -0.179346,-2.221105 0.505049,-3.491165 3.553926,-6.595162 2.076825,-2.114372 3.975954,-3.83322 4.220287,-3.819662 z"
     id="path7"
     inkscape:connector-curvature="0"
     style="fill:#000000" />
</svg>

