<?xml version="1.0" standalone="no"?>
<svg width="100" height="10" viewBox="0 0 100 100" xmlns="http://www.w3.org/2000/svg" xmlns:xlink="http://www.w3.org/1999/xlink" version="1.1"><!--?xml version="1.0" encoding="utf-8"?-->
<!-- Generator: Adobe Illustrator 15.0.2, SVG Export Plug-In . SVG Version: 6.00 Build 0)  -->

<svg version="1.1" id="Ebene_1" xmlns="http://www.w3.org/2000/svg" xmlns:xlink="http://www.w3.org/1999/xlink" x="0px" y="0px" width="100px" height="100px" viewBox="0 0 100 100" enable-background="new 0 0 100 100" xml:space="preserve">
<circle fill="#B2B2B2" cx="50" cy="50" r="50"></circle></svg><path d="M 51 17.93481052890778 C 50.725 17.93481052890778 49.77222272132692 18.73697815990353 48.88271715850426 19.717405264453888 C 47.993211595681615 20.69783236900425 39.62269448742291 34.775 30.281568029040486 51 C 20.94044157065806 67.225 12.780718849331139 81.5125 12.148850870536219 82.75 C 11.233154508773174 84.54337185252356 11.30441876498429 85.30441876498429 12.5 86.5 C 13.77927927927928 87.77927927927928 19.444444444444443 88 51 88 C 82.55555555555556 88 88.22072072072072 87.77927927927928 89.5 86.5 C 90.69558123501571 85.30441876498429 90.76684549122683 84.54337185252356 89.85114912946378 82.75 C 89.21928115066885 81.5125 81.05955842934193 67.225 71.71843197095951 51 C 62.37730551257708 34.775 54.006788404318385 20.69783236900425 53.11728284149574 19.717405264453888 C 52.22777727867308 18.73697815990353 51.275 17.93481052890778 51 17.93481052890778 Z M 51 28.95709613797585 C 51.275 28.955651635871526 58.1375 40.439714072147915 66.25 54.47723488525672 C 74.3625 68.51475569836552 81 80.225 81 80.5 C 81 80.775 67.5 81 51 81 C 34.5 81 21 80.775 21 80.5 C 21 80.225 27.6375 68.51593756372361 35.75 54.47986125271913 C 43.8625 40.44378494171465 50.725 28.958540640080173 51 28.95709613797585 Z M 50.20482478816964 39.09317731410445 L 47.90964957633928 37.5 L 47.93068935398158 44 L 47.95172913162387 50.5 L 40 58 C 33.852966360143256 63.797827307217474 32.042793178109015 66.1241299873536 32.02413543418807 68.25 C 32.01086094538463 69.7625 32.4783856577947 72.2375 33.06307923954379 73.75 L 34.12615847908758 76.5 L 33.06307923954379 76.75 C 32.4783856577947 76.8875 32 77.675 32 78.5 C 32 79.78070175438596 34.77777777777778 80 51 80 C 67.22222222222223 80 70 79.78070175438596 70 78.5 C 70 77.675 69.325 77 68.5 77 C 67.17446983538805 77 67.16936451952934 76.56382541152986 68.45610717594218 73.25 C 69.25696612271038 71.1875 69.93196612271038 68.2625 69.95610717594218 66.75 C 69.98024822917398 65.2375 69.325 62.425 68.5 60.5 C 67.675 58.575 66.6625 56.98214237993491 66.25 56.960316399855365 C 65.8375 56.93849041977582 64.833235349174 58.400990419775816 64.01830077594221 60.210316399855365 L 62.53660155188443 63.5 L 61.76565323675781 58.5 C 61.341631663438164 55.75 60.433396314264165 52.873219613600284 59.74735246081559 52.10715469688952 C 58.70396439494038 50.94206446575664 58.401564017715764 51.10558231764512 57.89801079119256 53.10715469688952 C 57.38267831561473 55.15554838183533 57.198071147058464 54.92419743103842 56.615576995253136 51.5 C 56.24133247233054 49.3 55.16222761629389 45.966929791347006 54.217566204060574 44.09317731410445 C 53.27290479182726 42.219424836861904 51.467171154676336 39.969424836861904 50.20482478816964 39.09317731410445 Z M 49 60.9453665395456 C 49.275 60.961385488351084 49.1625 63.230231223282836 48.75 65.98724595050506 L 48 71 L 51.16418112834157 68.75 C 52.90448074892942 67.5125 54.9602533948352 65.6 55.73256478590996 64.5 C 56.99113823840523 62.70741890674665 57.10374792004737 63.14837306370227 56.81838365756839 68.75182220726106 C 56.643272645905775 72.19032442125463 56.8375 75.00282442125463 57.25 75.00182220726106 C 57.6625 75.00081999326747 58.915563430827056 73.7625 60.0345854018379 72.25 C 61.153607372848754 70.7375 62.05360737284875 70.0625 62.0345854018379 70.75 C 62.01556343082706 71.4375 61.55 73.125 61 74.5 C 60.018612521150594 76.95346869712353 59.818527918781726 76.99534686971235 50.25 76.75 L 40.5 76.5 L 40.25 73.25 C 40.048143599957356 70.62586679944562 40.81844119927505 69.12535029833687 44.25 65.45812058904055 C 46.5875 62.960086913012844 48.725 60.929347590740115 49 60.9453665395456 Z " fill="#000000" transform="matrix(1 0 0 1 -0.81 -11.61)"></path></svg>
