<?xml version="1.0" encoding="UTF-8" standalone="no"?>
<svg
   xmlns:dc="http://purl.org/dc/elements/1.1/"
   xmlns:cc="http://creativecommons.org/ns#"
   xmlns:rdf="http://www.w3.org/1999/02/22-rdf-syntax-ns#"
   xmlns:svg="http://www.w3.org/2000/svg"
   xmlns="http://www.w3.org/2000/svg"
   xmlns:sodipodi="http://sodipodi.sourceforge.net/DTD/sodipodi-0.dtd"
   xmlns:inkscape="http://www.inkscape.org/namespaces/inkscape"
   width="105"
   height="108"
   viewBox="0 0 105 108"
   version="1.1"
   id="svg2"
   inkscape:version="0.91 r13725"
   sodipodi:docname="toukei.svg">
  <metadata
     id="metadata15">
    <rdf:RDF>
      <cc:Work
         rdf:about="">
        <dc:format>image/svg+xml</dc:format>
        <dc:type
           rdf:resource="http://purl.org/dc/dcmitype/StillImage" />
      </cc:Work>
    </rdf:RDF>
  </metadata>
  <defs
     id="defs13" />
  <sodipodi:namedview
     pagecolor="#ffffff"
     bordercolor="#666666"
     borderopacity="1"
     objecttolerance="10"
     gridtolerance="10"
     guidetolerance="10"
     inkscape:pageopacity="0"
     inkscape:pageshadow="2"
     inkscape:window-width="688"
     inkscape:window-height="480"
     id="namedview11"
     showgrid="false"
     inkscape:zoom="2.7570891"
     inkscape:cx="52.5"
     inkscape:cy="54"
     inkscape:window-x="0"
     inkscape:window-y="0"
     inkscape:window-maximized="0"
     inkscape:current-layer="svg2" />
  <!--?xml version="1.0" encoding="utf-8"?-->
  <!-- Generator: Adobe Illustrator 15.0.2, SVG Export Plug-In . SVG Version: 6.00 Build 0)  -->
  <svg
     version="1.1"
     id="Ebene_1"
     x="0px"
     y="0px"
     width="100px"
     height="100px"
     viewBox="0 0 100 100"
     enable-background="new 0 0 100 100"
     xml:space="preserve">
<circle
   fill="#B2B2B2"
   cx="50"
   cy="50"
   r="50"
   id="circle5" /></svg>  <g
     id="g7"
     transform="matrix(0.95618914,0,0,0.94403888,3.0484648,-1.2624637)">
    <path
       d="m 16.954236,35 c -0.592556,-1.24504 -0.8884,-1.160053 -1.740531,0.5 -0.564647,1.1 -2.43033,5.6 -4.145963,10 -1.7156328,4.4 -2.9952246,8.1099 -2.8435373,8.244223 0.1516874,0.134322 1.135624,-1.890678 2.1865253,-4.5 C 11.461632,46.6349 13.178177,42.475 14.225276,40 l 1.903815,-4.5 3.499213,8 c 1.924567,4.4 4.177344,9.575 5.006171,11.5 l 1.506958,3.5 2.384589,-3 c 1.311523,-1.65 2.563335,-2.775 2.781804,-2.5 0.218468,0.275 0.801081,1.289728 1.294695,2.25495 0.782854,1.530811 1.919227,0.890657 8.897479,-5.01223 4.4,-3.721949 8.5625,-7.099177 9.25,-7.50495 C 51.579257,42.248329 52,42.673189 52,44 c 0,1.1 -0.3375,1.793129 -0.75,1.540287 -0.4125,-0.252842 -1.827943,0.309658 -3.145429,1.25 -2.072935,1.479536 -2.311027,2.24823 -1.768502,5.709713 0.405689,2.588428 0.19234,4.4636 -0.604571,5.313712 -0.677324,0.722541 -1.550564,4.097541 -1.940534,7.5 -0.38997,3.402458 -0.50247,7.648788 -0.25,9.436288 0.358211,2.536154 1.063059,3.40181 3.209036,3.941163 1.5125,0.38014 4.472108,0.71764 6.576907,0.75 L 57.153813,79.5 56.826907,82.744409 56.5,85.988817 73.75,85.994409 91,86 90.547863,80.75 c -0.248675,-2.8875 -0.473675,-6.2625 -0.5,-7.5 C 90.011037,71.518814 88.616497,70.308248 84,68 l -6,-3 -0.973142,3.75 C 76.49163,70.8125 75.713246,74.075 75.297115,76 l -0.7566,3.5 L 73.926432,74 C 73.54489,70.582739 73.726559,68.009789 74.406175,67.205475 75.226541,66.234584 75.124996,65.920433 74,65.948885 c -0.90812,0.02297 -0.495967,-0.64999 1.044519,-1.705474 1.430937,-0.980426 2.415626,-2.50928 2.25,-3.493411 -0.161985,-0.9625 0.34238,-2.7625 1.120811,-4 C 79.193762,55.5125 79.658272,53.375 79.447575,52 79.236877,50.625 78.937478,48.7369 78.782244,47.804221 78.62701,46.871543 77.6,45.423355 76.5,44.586025 75.4,43.748695 73.4875,43.049295 72.25,43.031803 71.0125,43.014312 68.875,44.125 67.5,45.5 c -2.070666,2.070666 -2.428761,3.229868 -2.085179,6.75 0.228152,2.3375 0.92626,5.6 1.551352,7.25 0.625092,1.65 2.125922,3.777494 3.335179,4.727764 1.209256,0.95027 1.636148,1.73777 0.948648,1.75 C 70.503321,65.991047 70.201328,66.805313 70.5,68 70.775,69.1 70.55,70.225 70,70.5 69.45,70.775 69.020036,69.9875 69.044525,68.75 69.069014,67.5125 68.373978,65.825 67.5,65 c -1.128353,-1.06512 -1.576142,-1.1376 -1.544525,-0.25 0.03044,0.854461 -1.356129,1.170892 -4.38188,1 -3.436295,-0.194079 -4.946152,0.248587 -6.75,1.978995 -1.277977,1.225947 -2.661095,2.238447 -3.073595,2.25 C 51.3375,69.990548 51.292714,69.4375 51.650476,68.75 52.008238,68.0625 52.276462,65.025 52.24653,62 52.21165,58.475027 52.930578,54.884069 54.24858,52 l 2.056473,-4.5 -1.606349,-1 C 53.815211,45.95 52.959075,44.292055 52.796177,42.815678 52.546977,40.557121 52.262082,40.327811 51,41.369943 c -0.825,0.681223 -4.2,3.475109 -7.5,6.208637 -3.3,2.733527 -6.802211,5.634108 -7.782692,6.445735 C 34.123151,55.343934 33.778982,55.288483 32.463015,53.5 l -1.4716,-2 -2.245708,2.733463 L 26.5,56.966925 22.084068,46.733463 C 19.655305,41.105058 17.34688,35.825 16.954236,35 Z"
       class="odd"
       transform="translate(-4.86,-11.34)"
       id="path9"
       inkscape:connector-curvature="0"
       style="fill:#000000" />
  </g>
</svg>
