<?xml version="1.0" standalone="no"?>
<svg width="105" height="108" viewBox="0 0 105 108" xmlns="http://www.w3.org/2000/svg" xmlns:xlink="http://www.w3.org/1999/xlink" version="1.1"><!--?xml version="1.0" encoding="utf-8"?-->
<!-- Generator: Adobe Illustrator 15.0.2, SVG Export Plug-In . SVG Version: 6.00 Build 0)  -->

<svg version="1.1" id="Ebene_1" xmlns="http://www.w3.org/2000/svg" xmlns:xlink="http://www.w3.org/1999/xlink" x="0px" y="0px" width="100px" height="100px" viewBox="0 0 100 100" enable-background="new 0 0 100 100" xml:space="preserve">
<circle fill="#B2B2B2" cx="50" cy="50" r="50"></circle></svg><g><path d="M 16.954235640600956 35 C 16.361680136551545 33.75496045157955 16.065835876111763 33.83994726877274 15.213705343017871 35.5 C 14.649058468390997 36.6 12.783374998878386 41.1 11.06774207743429 45.5 C 9.352109155990195 49.9 8.072517357067623 53.60990026690469 8.22420474649524 53.74422281534375 C 8.375892135922857 53.878545363782806 9.359828654397845 51.85354536378281 10.410730343106323 49.24422281534375 C 11.4616320318148 46.63490026690469 13.17817743000478 42.475 14.22527567241739 40 L 16.129090658622136 35.5 L 19.628303521272173 43.5 C 21.55287059572969 47.9 23.80564767345673 53.075 24.634474805110038 55 L 26.14143322629787 58.5 L 28.526021750492433 55.5 C 29.837545438799438 53.85 31.089357242489378 52.725 31.30782575869229 53 C 31.526294274895207 53.275 32.10890696309063 54.28972772257624 32.602520621348795 55.254950494613865 C 33.38537528129637 56.78576134705988 34.52174798824588 56.14560685060368 41.5 50.242720443207816 C 45.9 46.520771142896855 50.0625 43.14354342032061 50.75 42.73776994859394 C 51.57925664953132 42.24832944003722 52 42.673189360749895 52 44 C 52 45.1 51.6625 45.793129061674385 51.25 45.540286803720846 C 50.8375 45.287444545767315 49.42205688877176 45.849944545767315 48.10457086393725 46.790286803720846 C 46.03163637217279 48.26982272579667 45.79354439099184 49.038516693219094 46.33606872330569 52.5 C 46.74175760252077 55.088428204059426 46.52840880747546 56.963599535712746 45.73149785936844 57.81371152936315 C 45.0541740367158 58.536252870512875 44.18093370653006 61.911252870512875 43.790963792289034 65.31371152936315 C 43.400993878048 68.71617018821341 43.288493878047994 72.9625 43.540963792289034 74.75 C 43.8991750691009 77.28615429476444 44.604023289045465 78.1518104151016 46.75 78.69116315397228 C 48.2625 79.07130288865704 51.222108009429896 79.40880288865704 53.326906687621985 79.44116315397228 L 57.15381337524397 79.5 L 56.826906687621985 82.74440867544413 L 56.5 85.98881735088825 L 73.75 85.99440867544413 L 91 86 L 90.54786335495987 80.75 C 90.29918820018781 77.8625 90.07418820018782 74.4875 90.04786335495987 73.25 C 90.011036516063 71.51881363440924 88.61649697490869 70.30824848745434 84 68 L 78 65 L 77.02685793120862 68.75 C 76.49162979337336 70.8125 75.71324567472834 74.075 75.29711544533077 76 L 74.5405150282443 79.5 L 73.92643209273366 74 C 73.5448900135923 70.58273937618452 73.72655884373165 68.00978928688322 74.40617457861151 67.20547464893012 C 75.22654063567497 66.23458419670621 75.12499587368626 65.92043343855967 74 65.94888544322745 C 73.09187958713461 65.97185250188971 73.50403258105155 65.29889541450484 75.04451902771027 64.24341079429733 C 76.47545622966008 63.26298528492873 77.46014491961485 61.734131018924074 77.29451902771027 60.75 C 77.13253356246962 59.7875 77.63689866483051 57.9875 78.41533036629002 56.75 C 79.19376206774953 55.5125 79.65827194747814 53.375 79.4475745434647 52 C 79.23687713945125 50.625 78.93747847462075 48.73689966112258 78.78224417717468 47.80422146916129 C 78.6270098797286 46.871543277200004 77.6 45.42335479454171 76.5 44.58602484103176 C 75.4 43.74869488752181 73.4875 43.049295226399224 72.25 43.03180337187047 C 71.0125 43.01431151734171 68.875 44.125 67.5 45.5 C 65.4293344095808 47.5706655904192 65.07123880103529 48.72986849628736 65.4148211711289 52.25 C 65.6429728152498 54.5875 66.34108112904234 57.85 66.96617297955675 59.5 C 67.59126483007117 61.15 69.09209530306316 63.277493869485035 70.30135180842785 64.22776415441119 C 71.51060831379253 65.17803443933734 71.9375 65.96553443933735 71.25 65.97776415441119 C 70.50332060952618 65.99104659251593 70.20132824381048 66.80531297524189 70.5 68 C 70.775 69.1 70.55 70.225 70 70.5 C 69.45 70.775 69.02003640798145 69.9875 69.04452535106988 68.75 C 69.06901429415831 67.5125 68.37397788617687 65.825 67.5 65 C 66.37164659643616 63.93487973475821 65.9238580797691 63.86239977896518 65.95547464893012 64.75 C 65.98591077891432 65.60446069634668 64.5993463895717 65.92089213926934 61.573595349781144 65.75 C 58.137300191469336 65.55592063820114 56.627442960038366 65.99858725879031 54.823595349781144 67.72899485247689 C 53.545617907401514 68.95494202133916 52.1625 69.96744202133917 51.75 69.97899485247689 C 51.3375 69.9905476836146 51.292714300943224 69.4375 51.65047622431828 68.75 C 52.00823814769333 68.0625 52.27646226615166 65.025 52.24652982089235 62 C 52.211650132396045 58.475027122333856 52.93057801284104 54.88406871809048 54.24857996882902 52 L 56.30505274450991 47.5 L 54.69870354042405 46.5 C 53.815211478176835 45.95 52.9590746106621 44.292055113646434 52.796177168169095 42.815678030325415 C 52.5469772179918 40.557121419638925 52.262082177288306 40.32781066906269 51 41.3699430200435 C 50.175 42.05116584770947 46.8 44.84505236695404 43.5 47.57857972947588 C 40.2 50.3121070919977 36.69778862550063 53.21268784662457 35.71730805666806 54.024314739757784 C 34.12315102336623 55.34393367075383 33.77898175990416 55.28848290560203 32.46301540063796 53.5 L 30.9914146879398 51.5 L 28.745707343969897 54.23346257243868 L 26.5 56.966925144877365 L 22.084067628522135 46.73346257243868 C 19.655304824209306 41.105058157597405 17.346880429644777 35.825 16.954235640600956 35 Z " class="odd" fill="#000000" transform="matrix(1 0 0 1 -4.86 -11.34)"></path></g></svg>
