<?xml version="1.0" encoding="utf-8"?>
<!-- Generator: Adobe Illustrator 16.0.0, SVG Export Plug-In . SVG Version: 6.00 Build 0)  -->
<!DOCTYPE svg PUBLIC "-//W3C//DTD SVG 1.1//EN" "http://www.w3.org/Graphics/SVG/1.1/DTD/svg11.dtd">
<svg version="1.1" id="layer1" xmlns="http://www.w3.org/2000/svg" xmlns:xlink="http://www.w3.org/1999/xlink" x="0px" y="0px" width="100px" height="100px" viewBox="0 0 100 100" enable-background="new 0 0 100 100" xml:space="preserve">
<circle fill="#B2B2B2" cx="50" cy="50" r="50"/>
<path d="M68.8,86H57.6c0,0-10.1-21.5-11.1-22.3s-11.1-2.1-11.1-2.1l2,3.8l-2,1L45.7,86H33l-2.4,2h40.6L68.8,86z"/>
<path d="M61.7,15.9c-6.4,3.1-7.7,4-7.7,4c-4.3,3-4,2.7-9.7,6.6c-6.4,4.3-7.8,3.5-9.2,4.9c-1.4,1.4-0.1,0-1.8,2.2
	c-1.2,1.6-1.4,11.2-2,13.7c-0.6,2.4-2.5,6.1-1.7,11c0.6,3.9-0.9,4.6,0.5,6.2c1.5,1.6,3.3-1.1,3.3-1.1s1.8-3.1,1.6-3.6
	c-0.2-0.5,1.5,1.5,4.2-1.3c2.6-2.8,2-0.8,3.7-3.7l2.6-2.6c0,0,5.1-0.8,4.7-3.2c1.4-1.2,0.9,0.1,3.9-4.5c3-4.7,0.7-0.3,7.7-6.8
	c7-6.4,3.8-7.3,8.5-9c0.9-0.3,1.6-0.6,2.3-0.9V11C71.6,11.3,67.4,13.2,61.7,15.9z M35.5,52c0.3-0.7,1.3-4.9,1.3-4.9l1.1,1.5L35.5,52
	z"/>
<path d="M75,90h-1v-1h1V90z M73,90h-1v-1h1V90z M71,90h-1v-1h1V90z M69,90h-1v-1h1V90z M67,90h-1v-1h1V90z M65,90h-1v-1h1V90z
	 M63,90h-1v-1h1V90z M61,90h-1v-1h1V90z M59,90h-1v-1h1V90z M57,90h-1v-1h1V90z M55,90h-1v-1h1V90z M53,90h-1v-1h1V90z M51,90h-1v-1
	h1V90z M49,90h-1v-1h1V90z M47,90h-1v-1h1V90z M45,90h-1v-1h1V90z M43,90h-1v-1h1V90z M41,90h-1v-1h1V90z M39,90h-1v-1h1V90z M37,90
	h-1v-1h1V90z M35,90h-1v-1h1V90z M33,90h-1v-1h1V90z M31,90h-1v-1h1V90z M29,90h-1v-1h1V90z M27,90h-1v-1h1V90z"/>
<path d="M25.9,89.1l-0.6-0.8l0.8-0.6l0.6,0.8L25.9,89.1z M75,89l-0.8-0.7l0.7-0.7l0.8,0.7L75,89z M27.5,87.9l-0.6-0.8l0.8-0.6
	l0.6,0.8L27.5,87.9z M73.5,87.6l-0.8-0.7l0.7-0.7l0.8,0.7L73.5,87.6z M29.2,86.7l-0.6-0.8l0.8-0.6l0.6,0.8L29.2,86.7z M72,86.2
	l-0.8-0.7l0.7-0.7l0.8,0.7L72,86.2z M30.9,85.4l-0.6-0.8l0.7-0.5c0.1-0.1,0.2-0.1,0.3-0.1h0.1v0.7l0.2,0.2L30.9,85.4z M70.7,85h-1
	v-1h1V85z M68.7,85h-1v-1h1V85z M66.6,85h-1v-1h1V85z M64.5,85h-1v-1h1V85z M62.5,85h-1v-1h1V85z M60.4,85h-1v-1h1V85z M58.3,85h-1
	v-1h1V85z M56.3,85h-1v-1h1V85z M54.2,85h-1v-1h1V85z M52.1,85h-1v-1h1V85z M50,85h-1v-1h1V85z M48,85h-1v-1h1V85z M45.9,85h-1v-1h1
	V85z M43.8,85h-1v-1h1V85z M41.8,85h-1v-1h1V85z M39.7,85h-1v-1h1V85z M37.6,85h-1v-1h1V85z M35.6,85h-1v-1h1V85z M33.5,85h-1v-1h1
	V85z"/>
</svg>
