<?xml version="1.0" standalone="no"?>
<svg width="105" height="108" viewBox="0 0 105 108" xmlns="http://www.w3.org/2000/svg" xmlns:xlink="http://www.w3.org/1999/xlink" version="1.1"><!--?xml version="1.0" encoding="utf-8"?-->
<!-- Generator: Adobe Illustrator 15.0.2, SVG Export Plug-In . SVG Version: 6.00 Build 0)  -->

<svg version="1.1" id="Ebene_1" xmlns="http://www.w3.org/2000/svg" xmlns:xlink="http://www.w3.org/1999/xlink" x="0px" y="0px" width="100px" height="100px" viewBox="0 0 100 100" enable-background="new 0 0 100 100" xml:space="preserve">
<circle fill="#B2B2B2" cx="50" cy="50" r="50"></circle></svg><path d="M 22.5 17.565149465726467 C 21.4 17.23026155657389 20.15 17.303603327586654 19.72222222222222 17.728131179088166 C 19.294444444444444 18.152659030589675 18.941381013617388 19.175 18.93763682038432 20 C 18.93389262715125 20.825 19.815023647895547 22.625 20.895705755371647 24 C 21.976387862847748 25.375 23.73637248079538 28.975 24.80678268414417 32 C 25.87719288749296 35.025 27.094913664305036 40.875 27.51282885483768 45 L 28.272674655806117 52.5 L 26.21746883328018 54.5 C 25.087105630890917 55.6 23.90075383333454 57.7375 23.581131505377122 59.25 C 23.261509177419704 60.7625 22.6625 61.98862480684977 22.25 61.974721792999496 C 21.8375 61.96081877914922 20.825 61.24903466409459 20 60.39297931510031 C 19.013940007401978 59.36980121680602 17.557776653096376 59.03583553313334 15.75 59.41825752210082 C 14.23077443462186 59.73963862933386 13 60.671331509793745 13 61.5 C 13 62.325 13.45 63 14 63 C 14.55 63 16.2375 65.97948676458788 17.75 69.62108169908417 C 19.2625 73.26267663358047 21.2875 76.63767663358047 22.25 77.12108169908417 C 23.284952881661688 77.64087542952876 25.430094236676624 77.59140164666383 27.5 77 C 30.512870095277634 76.13917997277782 31.243564952361183 76.28289647996165 32.75 78.03259473554611 L 34.5 80.06518947109222 L 29.75 80.03259473554611 C 26.46640374636833 80.01006253522456 24.509756879056663 80.54025401181991 23.411996129818977 81.75 C 22.538594001219415 82.7125 21.976094001219415 84.625 22.161996129818977 86 L 22.5 88.5 L 32 88.5 L 41.5 88.5 L 41.25 85.75 C 41.053030303030305 83.58333333333333 41.42424242424242 83 43 83 C 44.1 83 45 83.45 45 84 C 45 84.55 44.55 85 44 85 C 43.45 85 43 85.675 43 86.5 C 43 87.325 44.0125 88.24442854378871 45.25 88.54317454175268 C 46.4875 88.84192053971665 51.775 88.95442053971666 57 88.79317454175268 L 66.5 88.5 L 66.82176300991212 85.5 C 67.04014236864361 83.46391115195804 66.55818679266459 82.09291357638298 65.32176300991212 81.23301676366103 C 64.31979335446046 80.5361759836746 62.0375 79.9736759836746 60.25 79.98301676366103 C 58.4625 79.99235754364746 57 79.55 57 79 C 57 78.45 57.7875 77.60950236933526 58.75 77.1322274874117 C 59.7125 76.65495260548813 61.175 74.83538848459399 62 73.08875166320252 C 62.825 71.34211484181102 63.95 70.08238484595114 64.5 70.28935167240276 C 65.05 70.49631849885438 65.53424902982152 71.52838261974851 65.57610895515893 72.58282749661194 C 65.61796888049635 73.63727237347538 65.95546888049635 75.2875 66.32610895515893 76.25 C 66.71900504071594 77.27029572137572 68.04243468374898 78 69.5 78 C 70.95635867243061 78 72.2826424863966 77.26945107070142 72.67705848486965 76.25 C 73.04944065154795 75.2875 73.83694065154795 74.19654390434395 74.42705848486965 73.82565312076434 C 75.07833083810863 73.41632654261828 73.92798826983542 71.61024688939611 71.5 69.23006488547023 C 69.3 67.07338213963808 66.9358107620312 65.12683823529412 66.2462461378471 64.90441176470588 C 65.34711513887116 64.61438741066462 65.73478496229848 63.08575564996463 67.61683610491193 59.5 C 69.06022521098166 56.75 72.99941444895046 51.8971474848801 76.37058996706482 48.715883299733555 C 80.08022815029318 45.215223358195566 84.07912219068697 42.451759524493376 86.5 41.715883299733555 C 89.32648237659659 40.8567151200598 90.5 39.94562337162983 90.5 38.61037647048748 C 90.5 37.23454961979276 89.27643085060622 36.35907759395282 86 35.390595947064156 C 82.96231259266426 34.49268458035695 80.36264576126113 34.34299003371431 78 34.929938312526126 C 76.075 35.40816296018115 73.375 36.04250503192395 72 36.33958736084347 C 70.625 36.636669689762975 67.25 38.92187724068663 64.5 41.41782636289602 C 61.75 43.91377548510542 59.1625 45.96583464890311 58.75 45.977957838002006 C 58.3375 45.9900810271009 58.00750000000001 42.2875 58.01666666666668 37.75 C 58.027464157706106 32.405241935483815 57.587275985663105 29.053942652329763 56.76666666666668 28.233333333333345 C 56.07000000000001 27.536666666666683 54.4875 26.974166666666683 53.25 26.983333333333345 C 51.657407521909455 26.995130314652528 50.133756143513416 28.387860324031077 48.03525041600717 31.75 C 46.40463814481112 34.3625 44.604638144811126 37.0625 44.03525041600717 37.75 C 43.46586268720323 38.4375 43 39.675 43 40.5 C 43 41.325 42.55 42 42 42 C 41.45 42 40.9748573258386 40.9875 40.94412739075244 39.75 C 40.91339745566629 38.5125 40.12589745566629 35.59877162484825 39.19412739075244 33.275048055218335 C 38.2623573258386 30.951324485588415 35.925 27.0668898923647 34 24.64297118138785 C 32.075 22.219052470411008 29.15 19.771939074549994 27.5 19.204941412807823 C 25.85 18.637943751065652 23.6 17.900037374879044 22.5 17.565149465726467 Z M 56 17.966350096994347 C 55.175 17.96652421031412 53.93 18.536666666666665 53.233333333333334 19.233333333333334 C 52.53666666666667 19.93 51.95413025868522 21.175 51.938807982263455 22 C 51.923485705841685 22.825 52.60598570584168 24.0625 53.45547464893012 24.75 C 54.30496359201855 25.4375 56.125 25.775 57.5 25.5 C 58.99693663434051 25.2006126731319 60.24520750088626 24.097242970906454 60.61114658674888 22.75 C 61.03458202383826 21.191078205935263 60.65064968720756 20.110851332480358 59.36114658674888 19.233016763661013 C 58.337515964036996 18.53617598367457 56.825 17.96617598367457 56 17.966350096994347 Z M 56 20 C 57.333333333333336 20 58 20.666666666666668 58 22 C 58 23.333333333333332 57.333333333333336 24 56 24 C 54.666666666666664 24 54 23.333333333333332 54 22 C 54 20.666666666666668 54.666666666666664 20 56 20 Z M 43 23 C 41.0471806908499 23 39.78223901497425 23.610855402995774 39.37615068651902 24.75 C 39.03303356410448 25.7125 39.37053356410448 27.52490577317713 40.12615068651902 28.77756838483807 C 40.88176780893356 30.030230996499007 42.175 31.05513676967614 43 31.05513676967614 C 43.825 31.05513676967614 45.11823219106644 30.030230996499007 45.87384931348098 28.77756838483807 C 46.62946643589552 27.52490577317713 46.96696643589552 25.7125 46.62384931348098 24.75 C 46.21776098502575 23.610855402995774 44.9528193091501 23 43 23 Z M 43.75 23.97222222222222 C 44.4375 23.9875 45.202261150914076 24.5625 45.44946922425349 25.25 C 45.69667729759291 25.9375 45.584177297592916 26.85 45.19946922425349 27.27777777777778 C 44.81476115091407 27.705555555555556 43.7125 28.043055555555558 42.75 28.02777777777778 C 41.7875 28.0125 40.9875 27.4375 40.97222222222222 26.75 C 40.956944444444446 26.0625 41.294444444444444 25.15 41.72222222222222 24.72222222222222 C 42.15 24.294444444444444 43.0625 23.956944444444442 43.75 23.97222222222222 Z M 65.5 28 C 64.125 28 62.74825848507566 28.5625 62.44057441127925 29.25 C 62.13289033748284 29.9375 62.02039033748284 31.625 62.19057441127925 33 C 62.387183426566864 34.588499969414706 63.22920002446824 35.617061531167316 64.5 35.82106836873102 C 65.6 35.997655971533085 67.0625 35.435155971533085 67.75 34.57106836873102 C 68.4375 33.70698076592896 68.775 31.875 68.5 30.5 C 68.12666666666667 28.633333333333333 67.36666666666666 28 65.5 28 Z M 65 29 C 65.55 29 66.225 29.675 66.5 30.5 C 66.775 31.325 67 32.45 67 33 C 67 33.55 66.325 34 65.5 34 C 64.675 34 63.775000000000006 33.55 63.5 33 L 63 32 L 63.5 30.5 C 63.775000000000006 29.675 64.45 29 65 29 Z M 42.25 53.98344069119792 C 44.5875 53.974333071356774 47.85 54.42334547654104 49.5 54.981246036051836 C 51.28372141102791 55.58436068649054 53.620334254244796 57.719561794773085 55.26334944412271 60.247805344853916 C 56.7831916383902 62.586512405184266 58.03174826544257 65.625 58.03791972646132 67 C 58.04409118748006 68.375 57.36308393762484 71.1875 56.52457028233861 73.25 C 55.60020211116797 75.523677167951 53.818941734360806 77.5905291328196 52 78.5 C 50.35 79.325 47.2 80 45 80 C 42.8 80 39.65 79.325 38 78.5 C 36.35 77.675 34.457797529158846 75.9875 33.795105620352984 74.75 C 33.13241371154713 73.5125 32.711361418980296 71.6 32.85943385909336 70.5 C 33.00750629920641 69.4 32.60928047800637 67.375 31.974487589759924 66 C 31.089114363970985 64.08222775018366 31.1095582472063 62.91777224981634 32.062270606066114 61 C 32.74534415328096 59.625 34.36077244532216 57.4875 35.652111255046556 56.25 C 37.32570903136557 54.646178266618655 39.220558948057466 53.99524432646305 42.25 53.98344069119792 Z M 27 56 C 27.55 56 28 58.025 28 60.5 C 28 62.975 28.45 65 29 65 C 29.55 65 30.267892560293983 66.0125 30.595316800653293 67.25 L 31.190633601306587 69.5 L 30.595316800653293 71.75 C 30.267892560293983 72.9875 29.325 74 28.5 74 C 27.675 74 27 74.45 27 75 C 27 75.55 25.9875 75.98247036467849 24.75 75.9610452548411 C 23.5125 75.9396201450037 21.951811517341707 75.15212014500369 21.28180337187046 74.2110452548411 C 20.611795226399213 73.2699703646785 20.049295226399213 71.7125 20.03180337187046 70.75 C 20.014311517341707 69.7875 19.1 67.425 18 65.5 C 16.9 63.575 16.1125 61.493961123716474 16.25 60.875469163814394 C 16.3875 60.256977203912314 18.004316014739153 61.04447720391231 19.84292447719812 62.625469163814394 C 22.65049393774396 65.03965621593598 23.32866093361213 65.25978143375482 24.07761170268106 64 C 24.568081214237708 63.175 24.976265199498553 61.7125 24.984687225482936 60.75 C 24.993109251467324 59.7875 25.225 58.325 25.5 57.5 C 25.775 56.675 26.45 56 27 56 Z M 38.75 62.258316651323895 C 37.7875 62.116242493095754 36.96344130649643 62.3375 36.91875845888095 62.75 C 36.874075611265475 63.1625 36.76157561126548 64.77784299337286 36.66875845888095 66.33965109638413 C 36.575941306496425 67.9014591993954 36.79829325647886 69.7014591993954 37.16287390328634 70.33965109638413 C 37.544027942348364 71.0068544198846 38.50027269925035 71.18125174769933 39.41287390328634 70.75 C 40.5222926127917 70.22574169824823 40.92475276725059 68.87379472875031 40.75 66.2583166513239 C 40.570907518168774 63.57788722275997 40.00364737281859 62.44336693205961 38.75 62.258316651323895 Z M 49.5 62 C 48.675 62 47.75099573358544 62.5625 47.44665718574542 63.25 C 47.142318637905404 63.9375 47.02981863790541 65.815296504732 47.19665718574542 67.42288112162666 C 47.36349573358544 69.03046573852131 48.0625 70.49296573852132 48.75 70.67288112162666 C 49.4375 70.852796504732 50.45 70.1 51 69 C 51.55 67.9 51.775 65.875 51.5 64.5 C 51.225 63.125 50.325 62 49.5 62 Z M 66.75 68.01531277451707 C 67.9875 68.00689074853268 69.69744392333897 69.0125 70.54987538519768 70.25 C 71.40230684705641 71.4875 71.95864407769194 73.4 71.78618034216552 74.5 C 71.5943547761525 75.72349270685955 70.70141977119239 76.5 69.48630495696784 76.5 C 67.90870676752293 76.5 67.5 75.82580294858072 67.5 73.22341871576148 C 67.5 71.40339354810253 66.83319701684827 69.52092549832484 66 68.98873149027854 C 64.7910280257292 68.21651600271399 64.9365420385938 68.0276545846767 66.75 68.01531277451707 Z M 41.75 73.0538951472081 L 39.5 71.6077902944162 L 40.25 73.3038951472081 C 40.6625 74.23675281624365 41 75.225 41 75.5 C 41 75.775 42.575 76 44.5 76 C 46.97213627242391 76 48.149963052114906 75.48606813621195 48.51064228488723 74.25 L 49.021284569774465 72.5 L 48.51064228488723 72.25 C 48.22978902819926 72.1125 47.1 72.5625 46 73.25 C 44.37249923478491 74.26718797825943 43.58093836086698 74.23066352445814 41.75 73.0538951472081 Z M 57.25 81.06338630041907 C 58.7625 81.02852383518858 61.125 81.45 62.5 82 C 64 82.6 65 83.8 65 85 L 65 87 L 55.25 87.01995801665844 L 45.5 87.03991603331687 L 47.75 85.01995801665844 C 48.9875 83.9089811074963 51.0125 82.57852383518859 52.25 82.06338630041907 C 53.4875 81.54824876564956 55.7375 81.09824876564957 57.25 81.06338630041907 Z M 30 82.0926020517135 C 31.924999999999997 82.05669107489277 34.4 82.26233898489933 35.5 82.54959740728366 C 36.6 82.83685582966798 38.0625 83.95571122218638 38.75 85.03594272399121 L 40 87 L 32 87 L 24 87 L 24 85 C 24 83.9 24.5625 82.81052631578947 25.25 82.57894736842105 C 25.9375 82.34736842105264 28.075 82.12851302853423 30 82.0926020517135 Z " fill="#000000"></path></svg>
