<?xml version="1.0" standalone="no"?>
<svg width="105" height="108" viewBox="0 0 105 108" xmlns="http://www.w3.org/2000/svg" xmlns:xlink="http://www.w3.org/1999/xlink" version="1.1"><!--?xml version="1.0" encoding="utf-8"?-->
<!-- Generator: Adobe Illustrator 15.0.2, SVG Export Plug-In . SVG Version: 6.00 Build 0)  -->

<svg version="1.1" id="Ebene_1" xmlns="http://www.w3.org/2000/svg" xmlns:xlink="http://www.w3.org/1999/xlink" x="0px" y="0px" width="100px" height="100px" viewBox="0 0 100 100" enable-background="new 0 0 100 100" xml:space="preserve">
<circle fill="#B2B2B2" cx="50" cy="50" r="50"></circle></svg><path d="M 28 16 L 22 16 L 25.703150577949472 22.75 C 27.739883395821682 26.4625 32.23988339582168 34.3375 35.70315057794947 40.25 C 39.166417760077266 46.1625 42 51.225 42 51.5 C 42 51.775 38.4 52 34 52 L 26 52 L 26 55.5 L 26 59 L 35.5 59 L 45 59 L 45 61.5 L 45 64 L 35.5 64 L 26 64 L 26 67.5 L 26 71 L 35.5 71 L 45 71 L 45 79.5 L 45 88 L 50 88 L 55 88 L 55 79.5 L 55 71 L 64.5 71 L 74 71 L 74 67.5 L 74 64 L 64.5 64 L 55 64 L 55 61.5 L 55 59 L 64.5 59 L 74 59 L 74 55.5 L 74 52 L 66 52 C 61.6 52 57.989543163296354 51.8875 57.97676258510302 51.75 C 57.963982006909674 51.6125 61.835811592868026 44.75 66.58082833167714 36.5 C 71.32584507048625 28.25 75.8363019071899 20.2625 76.60406574657412 18.75 L 78 16 L 72.25 15.961615873709738 L 66.5 15.923231747419475 L 58.5 30.955007963628248 C 54.1 39.22248488254307 50.275 45.991008187204436 50 45.99617086287573 C 49.725 46.00133353854703 46.0125 39.2543070980837 41.75 31.002778772957225 L 34 16 L 28 16 Z " fill="#000000"></path></svg>
