<?xml version="1.0" standalone="no"?>
<svg width="400" height="400" viewBox="0 0 400 400" xmlns="http://www.w3.org/2000/svg" xmlns:xlink="http://www.w3.org/1999/xlink" version="1.1"><!--?xml version="1.0" encoding="utf-8"?-->
<!-- Generator: Adobe Illustrator 15.0.2, SVG Export Plug-In . SVG Version: 6.00 Build 0)  -->

<svg version="1.1" id="Ebene_1" xmlns="http://www.w3.org/2000/svg" xmlns:xlink="http://www.w3.org/1999/xlink" x="0px" y="0px" width="100px" height="100px" viewBox="0 0 100 100" enable-background="new 0 0 100 100" xml:space="preserve">
<circle fill="#B2B2B2" cx="50" cy="50" r="50"></circle></svg><path d="M 51.75 16.119309955034122 C 50.5125 16.184930430302888 47.925 16.83453143283849 46 17.562867738446563 L 42.5 18.88711556682488 L 46 18.960404540275114 L 49.5 19.033693513725346 L 46.25 21.016846756862673 C 44.4625 22.107581040588205 43.006890748532676 23.5625 43.015312774517064 24.25 C 43.02533107635574 25.067805896925595 43.28464753820038 25.137586349968167 43.765312774517064 24.45182035266732 C 44.16939074853268 23.875321546634346 45.9625 22.412821546634348 47.75 21.20182035266732 C 49.5375 19.990819158700294 51.675 19.225 52.5 19.5 C 53.325 19.775 54.225 20.9 54.5 22 C 54.775 23.1 55.45 24 56 24 C 56.55 24 56.99901663337509 24.7875 56.99781474083353 25.75 L 56.99562948166707 27.5 L 42.74781474083353 27.131457371688825 C 34.911516633375086 26.92875892611768 28.275 26.557288224118498 28 26.30596692280175 C 27.725 26.054645621485008 28.373206486215004 25.320489804225037 29.44045885825556 24.674509551112926 C 30.507711230296117 24.028529298000816 33.657711230296115 22.508471286987618 36.44045885825556 21.29660285997248 C 39.223206486215005 20.084734432957347 40.825 19.082117333178257 40 19.068564860463393 C 39.175 19.05501238774853 36.5875 19.93404110076091 34.25 21.02196200049091 C 31.9125 22.10988290022091 29.208817579535317 23.7875 28.24181684341182 24.75 C 27.27481610728832 25.7125 24.46231610728832 27.37029566307563 21.99181684341182 28.433990362390286 C 19.521317579535317 29.497685061704942 17.05 30.74268506170494 16.5 31.20065702905694 C 15.92665276840026 31.678069682932502 16.88662149730084 32.02622245385998 18.75 32.01666666666665 C 21.554444444444442 32.0022849002849 22 32.34273504273504 22 34.5 C 22 35.875 22.5625 37.189473684210526 23.25 37.421052631578945 C 23.9375 37.65263157894737 23.6 37.89194309628907 22.5 37.9528560034494 C 21.4 38.01376891060972 19.73002963532151 38.61179522639919 18.788954745158915 39.281803371870446 C 17.847879854996318 39.9518115173417 17.060379854996317 40.8375 17.038954745158915 41.25 C 17.017529635321512 41.6625 17.675 41.775 18.5 41.5 C 19.38888888888889 41.2037037037037 20 41.611111111111114 20 42.5 C 20 43.388888888888886 19.38888888888889 43.7962962962963 18.5 43.5 C 17.675 43.225 16.987594226822868 43.3375 16.97243161516193 43.75 C 16.957269003500993 44.1625 17.969769003500993 45.11823219106645 19.22243161516193 45.873849313481 C 20.47509422682287 46.62946643589555 22.175 46.99666404162512 23 46.68984399288004 C 23.825 46.38302394413496 26.1875 47.22729175306851 28.25 48.56599467939904 C 30.3125 49.90469760572957 33.0125 51.404928239413735 34.25 51.899840532030524 L 36.5 52.799681064061055 L 34.5 53.51655248242523 C 33.4 53.91083176252553 31.261657281256284 54.743403523111795 29.748127291680635 55.3667119503947 C 28.234597302104984 55.99002037767762 26.997097302104986 56.8375 26.998127291680635 57.25 C 26.999157281256284 57.6625 28.35 58.45 30 59 C 31.65 59.55 33 60.675 33 61.5 C 33 62.325 32.55 63 32 63 C 31.450000000000003 63 30.77230806617219 62.4375 30.49401792482709 61.75 L 29.988035849654185 60.5 L 30.49401792482709 63.25 C 30.886048583912277 65.38067688636173 30.66218739256094 65.88739579752031 29.5 65.5 C 28.576923076923077 65.1923076923077 27.807692307692307 65.76923076923077 27.5 67 C 27.225 68.1 26.55 69 26 69 C 25.45 69 25 69.45 25 70 C 25 70.55 25.675 71.675 26.5 72.5 C 27.325 73.325 28.45 74 29 74 C 29.55 74 30 73.55 30 73 C 30 72.45 30.675 72 31.5 72 C 32.325 72 33 72.675 33 73.5 C 33 74.325 33.675 75 34.5 75 C 35.611111111111114 75 36 76.16666666666667 36 79.5 C 36 82.16666666666667 35.388888888888886 84.61111111111111 34.5 85.5 C 33.675 86.325 33 87.675 33 88.5 C 33 89.54761904761905 34.05555555555556 90 36.5 90 C 38.425 90 40.675 89.775 41.5 89.5 C 42.45238095238095 89.18253968253968 43 87.72222222222223 43 85.5 L 43 82 L 40.5 82.5 C 38.36666666666667 82.92666666666666 38 82.63333333333334 38 80.5 C 38 78.52428312941099 38.576711442352085 77.92656514917775 40.75 77.64983209117968 L 43.5 77.29966418235935 L 40.75 77.14983209117968 C 39.2375 77.06742444103085 38 76.55 38 76 C 38 75.45 39.125 75.225 40.5 75.5 C 41.875 75.775 44.202145720155485 75.4375 45.67143493367885 74.75 L 48.34286986735771 73.5 L 48.67143493367885 74.75 C 48.852145720155484 75.4375 49.45 76 50 76 C 50.55 76 51.61840733448953 76.5625 52.37423852108785 77.25 C 53.13006970768616 77.9375 54.0453144175329 80.525 54.40811565408059 83 C 54.865929706176374 86.1231695617115 55.745804358937214 87.90993850646979 57.28387713299274 88.83983330685743 C 58.61658798566201 89.64556949387129 60.79554596874664 89.94454164050514 62.75 89.58983330685743 C 64.5375 89.26542498808584 65.99502951799725 88.4375 65.98895448443835 87.75 C 65.98287945087944 87.0625 64.90841245508042 85.6 63.60125004932944 84.5 C 62.29408764357845 83.4 61.0615581255812 81.375 60.8622955648911 80 C 60.5739216667416 78.01009226930378 59.7858708229747 77.39092669201278 57 76.9654236372956 L 53.5 76.4308472745912 L 58 75.78185165368441 C 61.559679386837594 75.26847024615337 63.23136047690409 75.56509656534267 66 77.2013870947535 C 68.85887580155476 78.891008065567 69.91215127042908 79.06201823404803 71.75 78.13495907836469 C 72.9875 77.51073158526411 74 76.55 74 76 C 74 75.45 73.325 74.775 72.5 74.5 C 71.675 74.225 71.00538449176797 73.4375 71.01196553726214 72.75 C 71.01854658275631 72.0625 69.78104658275632 70.75213939497962 68.26196553726214 69.83808754439914 C 66.74288449176797 68.92403569381867 64.50577916670986 67.34903569381868 63.29062037046634 66.33808754439914 C 62.07546157422283 65.32713939497961 61.06296157422283 63.4875 61.04062037046634 62.25 C 61.01827916670985 61.0125 61.225 60 61.5 60 C 61.775 60 64.25 61.125 67 62.5 L 72 65 L 74.75 63.13853578103967 C 76.2625 62.11473046061149 79.075 61.00569993079453 81 60.674023492557524 C 82.925 60.34234705432053 85.7375 58.930005952852675 87.25 57.53548771151786 C 88.7625 56.14096947018304 90 54.775 90 54.5 C 90 54.225 89.4375 54.16272647148434 88.75 54.36161438107631 C 88.0625 54.56050229066828 86.6 54.36713065884295 85.5 53.931899643686684 L 83.5 53.140570525220745 L 85.5 53.03114345197517 C 86.92742301877732 52.95304409036108 86.49799028286031 52.5038966423961 84 51.46228035515321 C 81.61909071190853 50.46948470260799 80.10032474574695 50.32212981140081 79.25 51.00142216578842 C 78.5625 51.55063997460479 77.6625 51.80469235253127 77.25 51.56598300562505 C 76.8375 51.32727365871883 75.825 51.594723165652226 75 52.16031524325483 C 73.75322910843637 53.01505916913837 73.79543395984243 53.08832966015957 75.25 52.59433223762978 C 76.3686396573342 52.214421602975584 76.87874718130047 52.45097167333272 76.6639123201368 53.25 C 76.47906409621203 53.9375 75.69156409621203 54.560592613616365 74.9139123201368 54.63465025248081 C 74.13626054406156 54.70870789134525 72.825 54.83489180000058 72 54.915058938381534 C 70.79870039036248 55.031791971160686 70.84848378875623 55.25389557447714 72.25 56.030408685900724 C 73.2125 56.56368390865533 74 57.45 74 58 C 74 58.55 72.9875 59.195351677442325 71.75 59.43411483876072 C 70.5125 59.67287800007912 68.6 59.21939858738459 67.5 58.426382810550656 C 66.4 57.63336703371672 66.0625 56.988015356274396 66.75 56.99226797178993 C 67.4375 56.99652058730547 68 56.55 68 56 C 68 55.45 66.191635117271 54.6625 63.98141137171335 54.25 C 61.771187626155694 53.8375 59.964443522125244 53.275 59.9664244738679 53 C 59.96840542561057 52.725 62.114270308339556 51.71672691782152 64.73501310215455 50.75939315071449 C 67.35575589596955 49.802059383607464 70.4 49.282572820294405 71.5 49.60497856557436 C 72.66184177666388 49.94550989639501 74.23338844541911 49.52249431146976 75.25 48.59558541485987 C 76.2125 47.718013436686945 77 46.1 77 45 C 77 43.9 76.2125 42.581080469075935 75.25 42.06906770905764 C 74.15029425293955 41.48406680021566 73.59289917899136 40.18347829433657 73.75 38.56906770905764 C 73.9727376412817 36.280155381823725 74.43619773949281 36 78 36 L 82 36 L 80.25 34.25 C 79.2875 33.2875 76.79830815960891 31.6 74.71846257690869 30.5 C 72.63861699420848 29.4 70.95111699420848 28.1625 70.96846257690869 27.75 C 70.98580815960891 27.3375 69.7625 25.71534843224468 68.25 24.145218738321514 C 66.7375 22.575089044398347 62.90452695039747 20.437589044398347 59.73228211199438 19.395218738321514 C 56.56003727359129 18.35284843224468 53.972537273591286 17.1625 53.98228211199438 16.75 C 53.992026950397474 16.3375 52.9875 16.053689479765357 51.75 16.119309955034122 Z M 54.75 18.988428919759514 C 55.1625 18.982064825627244 57.525 19.64991510686402 60 20.472540655841243 C 62.475 21.29516620481846 65.5125 22.87537319092668 66.75 23.98411173608173 C 67.9875 25.092850281236778 69 26.45 69 27 C 69 27.55 66.525 28 63.5 28 C 58.91692786557409 28 58.005095510334165 27.708250224590063 58.03056435286801 26.25 C 58.04737474694542 25.2875 57.133620788154815 23.375 56 22 C 54.866379211845185 20.625 53.95262525305458 19.3875 53.96943564713199 19.25 C 53.9862460412094 19.1125 54.3375 18.99479301389178 54.75 18.988428919759514 Z M 48 28.53359866241464 C 67.79394086341655 29.06021092510284 70.89087520861762 29.364793368425964 73.75 31.066102435936294 C 75.5375 32.12974609617133 77 33.45 77 34 C 77 34.61333333333333 72.16666666666666 35 64.5 35 C 56.833333333333336 35 52 34.61333333333333 52 34 C 52 33.43827197052295 47.945984272662734 32.8001376421649 42.75 32.543976408994105 C 37.6625 32.29316343394086 32.375 32.064631941286905 31 32.036128647540856 C 29.625 32.007625353794815 26.475 31.702160368166837 24 31.357317568367577 L 19.5 30.73033065964165 L 22.5 29.332661556299172 C 24.917786153345236 28.206239887959207 29.86660384991073 28.051164727570004 48 28.53359866241464 Z M 36.91713370037172 29.251253116725625 C 36.13771016516727 29.114442330924717 34.825 29.48142032815694 34 30.066759777241675 C 32.83988845123976 30.889861661881863 33.06648075206627 30.98242818430548 35 30.475275521536492 C 36.61600207704115 30.051406063144775 37.79211923276064 30.293442339297965 38.32613099299736 31.159768861020442 C 38.967855434201674 32.200837512404426 39.06096680270649 32.16517437303014 38.743264693369085 31 C 38.518316182424975 30.175 37.696557235576165 29.388063902526532 36.91713370037172 29.251253116725625 Z M 63.5 31 C 62.125 31 61 31.45 61 32 C 61 32.55 62.12468221064389 32.8875 63.499293801430866 32.75 C 64.87390539221784 32.6125 65.99890539221784 32.1625 65.99929380143087 31.75 C 65.99968221064388 31.3375 64.875 31 63.5 31 Z M 30.75 33.08333333333333 C 31.987499999999997 33.0375 32.99461550823203 33.5625 32.98803446273784 34.25 C 32.98145341724365 34.9375 34.33145341724365 36.2875 35.98803446273784 37.25 L 39 39 L 39 37 C 39 35.77633477633478 39.67929292929293 34.985296689842144 40.75 34.96212121212121 C 41.7125 34.941287878787875 43.625 36.030994854785746 45 37.383692269894254 C 46.78691494566512 39.14162334481786 48.355702065201854 39.74747140097337 50.5 39.507730813657446 C 52.15 39.3232545976187 53.95 38.47607725694234 54.5 37.62511450104331 C 55.10037141049257 36.69621684643287 56.998607210652864 36.06234206045533 59.25 36.038954745158904 C 61.3125 36.0175296353215 63 36.45 63 37 C 63 37.55 62.55 38 62 38 C 61.45 38 61 40.25 61 43 C 61 45.75 61.225 48 61.5 48 C 61.775 48 62.675 47.775 63.5 47.5 C 64.45238095238095 47.182539682539684 65 45.72222222222222 65 43.5 C 65 41.05555555555556 65.45238095238095 40 66.5 40 C 67.325 40 68 39.55 68 39 C 68 38.45 68.675 38.225 69.5 38.5 C 70.325 38.775 71 40.125 71 41.5 C 71 42.875 70.55 44 70 44 C 69.45 44 69 44.45 69 45 C 69 45.55 69.7875 45.76329142514558 70.75 45.47398094476796 C 71.7125 45.18467046439034 72.87389758844051 45.522170464390335 73.3308835298678 46.22398094476796 C 73.8201205924056 46.97532068359189 73.92291672900262 46.369242497432836 73.5808835298678 44.75 C 73.12642424596196 42.59851357203138 73.32646194838075 42.10882064946025 74.5 42.5 C 75.325 42.775 76.00149246818728 43.7875 76.00331659597171 44.75 C 76.00514072375616 45.7125 75.10514072375616 47.0625 74.00331659597171 47.75 C 72.90149246818727 48.4375 71.6625 48.762500000000024 71.25 48.472222222222285 C 70.8375 48.18194444444454 71.175 47.91208843303676 72 47.87254219687166 C 72.825 47.83299596070657 72.375 47.48592684364431 71 47.10127749228886 C 69.24335110767761 46.609863778113535 67.90531911385791 46.94156734752075 66.5 48.21684578155775 C 65.4 49.215057692011094 62.475 50.70483379518155 60 51.527459344158764 C 57.525 52.35008489313598 52.8 53.024825922905436 49.5 53.02688385475755 C 45.260390564485206 53.02952774181752 43.9400976411213 53.315038488523015 45 54 C 45.825 54.53315594803123 46.1625 54.97626519949855 45.75 54.984687225482936 C 45.3375 54.993109251467324 44.2125 54.574008851079874 43.25 54.05335300239973 C 42.2875 53.53269715371958 39.25 52.41265163914333 36.5 51.56436297000806 C 33.75 50.71607430087279 30.105217803542153 48.77956544979291 28.400484007871455 47.26100996760833 C 26.695750212200753 45.74245448542375 25.120750212200754 43.620714348383316 24.900484007871455 42.54603188529625 C 24.680217803542153 41.47134942220919 23.375 40.27870543361697 22 39.89571191064687 L 19.5 39.19936005070124 L 22.25 39.09968002535062 C 23.7625 39.04485601140778 25 38.55 25 38 C 25 37.45 25.7875 36.1375 26.75 35.08333333333333 C 27.7125 34.02916666666666 29.5125 33.12916666666666 30.75 33.08333333333333 Z M 34 37 C 33.45 37 33 38.8 33 41 C 33 43.525166520257564 32.53911453758049 45.00564594813138 31.75 45.015312774517064 C 30.916666666666668 45.025521290861775 31 45.35375036602275 32 46 C 32.825 46.53315594803123 33.8375 46.97626519949855 34.25 46.984687225482936 C 34.6625 46.993109251467324 35 44.75 35 42 C 35 39.25 34.55 37 34 37 Z M 23.25 42.038037246499584 C 23.6625 42.017116760924814 24 42.45 24 43 C 24 43.55 23.4375 44.006890748532676 22.75 44.015312774517064 C 21.916666666666668 44.025521290861775 22 44.35375036602275 23 45 C 23.825 45.53315594803123 24.1625 45.97626519949855 23.75 45.984687225482936 C 23.3375 45.993109251467324 22.325 45.775 21.5 45.5 C 20.28495621320345 45.09498540440115 20.237463511002876 44.72226975327869 21.25 43.538037246499584 C 21.9375 42.73395773207436 22.8375 42.05895773207436 23.25 42.038037246499584 Z M 50.5 44 C 49.675 44 49.225 44.45 49.5 45 C 49.775 45.55 50.45 46 51 46 C 51.55 46 52 45.55 52 45 C 52 44.45 51.325 44 50.5 44 Z M 56 47 C 55.45 47 55 47.45 55 48 C 55 48.55 53.7625 49.265678579216846 52.25 49.59039684270411 C 50.7375 49.91511510619137 47.7 49.65715539797498 45.5 49.01715304666769 C 43.3 48.37715069536039 41.275 48.093552925821584 41 48.38693578102588 C 40.725 48.68031863623019 42.525 49.4308994817622 45 50.054893215541455 C 48.291119079787585 50.88464581469654 50.50740076684368 50.895343181257466 53.25 50.09471363847915 C 55.3125 49.492621137315616 57 48.55 57 48 C 57 47.45 56.55 47 56 47 Z M 81 51 C 81.55 51 82 51.9 82 53 C 82 54.496012759170654 82.69298245614036 55.019894233190634 84.75 55.078947368421055 C 86.2625 55.122368421052634 86.9375 55.347368421052636 86.25 55.578947368421055 C 85.5625 55.810526315789474 85 56.675 85 57.5 C 85 58.45314919448183 83.63287298620459 59.232789204142485 81.25 59.638535781039685 C 79.1875 59.98973046061151 76.2625 61.11473046061151 74.75 62.138535781039685 L 72 64 L 67.25 61.63379477063146 C 64.03022495683747 60.02986876125851 62.98322893373815 59.080949272309944 64 58.68823598049049 C 64.825 58.36959152206565 66.4 58.74507235793978 67.5 59.52263783798857 C 68.6 60.30020331803735 70.175 60.93639325625908 71 60.93639325625908 C 71.825 60.93639325625908 73.4 60.275704773600786 74.5 59.46819662812954 L 76.5 58 L 74.5 56.44483377901596 L 72.5 54.88966755803192 L 74.75 55.94483377901596 C 75.9875 56.52517520055718 77.5625 56.964473684210525 78.25 56.921052631578945 L 79.5 56.84210526315789 L 78.25 56.421052631578945 C 77.5625 56.189473684210526 77 55.55 77 55 C 77 54.45 77.675 54 78.5 54 C 79.325 54 80 53.325 80 52.5 C 80 51.675 80.45 51 81 51 Z M 45 58 C 46.1 58.55 47 59.225 47 59.5 C 47 59.775 46.1 59.55 45 59 C 43.9 58.45 43 57.775 43 57.5 C 43 57.225 43.9 57.45 45 58 Z M 57.75 57.078947368421055 C 57.8875 57.035526315789475 57.775 57.675 57.5 58.5 C 57.225 59.325 56.1 60.225 55 60.5 C 53.9 60.775 52.2125 60.58450268079738 51.25 60.07667262399417 C 49.75852482326794 59.28974698895998 49.94318541131647 59.05523232002538 52.5 58.48920158176392 C 54.15 58.12392256534048 55.95 57.67494620033258 56.5 57.49147632619079 C 57.05 57.308006452049014 57.6125 57.12236842105263 57.75 57.078947368421055 Z M 51.75 62.45259540090718 C 53.2625 63.251522871406124 55.85 64.82355772883993 57.5 65.94600619520452 C 59.15 67.06845466156909 60.1625 67.98978673116086 59.75 67.99341079429733 C 59.3375 67.9970348574338 56.73413848478376 66.5375 53.96475218840837 64.75 C 51.19536589203297 62.9625 48.94536589203297 61.3875 48.96475218840837 61.25 C 48.98413848478376 61.1125 50.2375 61.65366793040823 51.75 62.45259540090718 Z M 28.75 67.03180337187047 C 29.1625 67.04929522639921 30.269970364678493 67.61179522639921 31.211045254841096 68.28180337187047 C 32.1521201450037 68.95181151734171 32.9396201450037 69.8375 32.961045254841096 70.25 C 32.98247036467849 70.6625 31.887117645296165 70.8875 30.526928100658147 70.75 C 29.166738556020125 70.6125 28.041738556020125 70.1625 28.026928100658147 69.75 C 28.012117645296165 69.3375 28 68.55 28 68 C 28 67.45 28.3375 67.01431151734171 28.75 67.03180337187047 Z M 63.75 68.01531277451707 C 63.8875 68.00689074853268 65.125 68.675 66.5 69.5 C 67.875 70.325 69 71.675 69 72.5 C 69 73.325 69.9 74.225 71 74.5 C 72.1 74.775 73 75.45 73 76 C 73 76.55 72.1 77.225 71 77.5 C 69.82285945649163 77.79428513587709 68.07428311144692 77.16892922213827 66.75 75.98004198334156 C 65.5125 74.86906507417943 64.1625 73.96906507417943 63.75 73.98004198334156 C 63.337500000000006 73.9910188925037 63 73.325 63 72.5 C 63 71.675 62.4375 70.80925894684881 61.75 70.57613099299736 C 60.82018383838753 70.26083479050322 60.884220606065035 69.88053650677517 62 69.09144376751442 C 62.825 68.50799374735026 63.6125 68.02373480050144 63.75 68.01531277451707 Z M 35.616001350475216 70.25 C 35.82720060771385 71.2125 36.675 72 37.5 72 C 38.325 72 39 72.45 39 73 C 39 73.55 38.1 74 37 74 C 35.45672694533934 74 35.02649047122889 73.37200045015841 35.116001350475216 71.25 C 35.17980209323659 69.7375 35.40480209323659 69.2875 35.616001350475216 70.25 Z M 48.5 69 C 49.325 69 49.775 69.45 49.5 70 C 49.225 70.55 48.55 71 48 71 C 47.45 71 47 70.55 47 70 C 47 69.45 47.675 69 48.5 69 Z M 45.25 70.97222222222223 C 45.6625 70.9875 46 71.675 46 72.5 C 46 73.325 45.325 74 44.5 74 C 43.675 74 42.9875 73.6625 42.97222222222222 73.25 C 42.956944444444446 72.8375 43.294444444444444 72.15 43.72222222222222 71.72222222222223 C 44.15 71.29444444444444 44.8375 70.95694444444445 45.25 70.97222222222223 Z M 58.5 72 C 59.325 72 60 72.45 60 73 C 60 73.55 59.325 74 58.5 74 C 57.675 74 57 73.55 57 73 C 57 72.45 57.675 72 58.5 72 Z M 57.5 78 C 59.333333333333336 78 60 78.53333333333333 60 80 C 60 81.1 59.55 82 59 82 C 58.45 82 57.325 82.225 56.5 82.5 C 55.43333333333333 82.85555555555555 55 82.27777777777777 55 80.5 C 55 78.5 55.5 78 57.5 78 Z M 58.5 83 C 58.775 83 59.9 83.9 61 85 C 62.1 86.1 63 87.45 63 88 C 63 88.55 61.875 89 60.5 89 C 59.01694811587974 89 57.75308955168986 88.28813631888418 57.393011195815674 87.25 L 56.78602239163134 85.5 L 57.393011195815674 84.25 C 57.72685503811705 83.5625 58.225 83 58.5 83 Z M 39.75 84.03040868590074 C 40.4375 84.01368390865534 41 84.9 41 86 C 41 87.1 40.325 88.225 39.5 88.5 C 38.675 88.775 37.325 89 36.5 89 C 35.675 89 35 88.325 35 87.5 C 35 86.675 35.7875 85.56368390865534 36.75 85.03040868590074 C 37.7125 84.49713346314616 39.0625 84.04713346314615 39.75 84.03040868590074 Z M 38.75 85.03803724649958 C 38.6125 85.05895773207436 37.9375 85.73395773207437 37.25 86.53803724649958 C 36.23389054919545 87.7264485829444 36.28066865903454 88 37.5 88 C 38.325 88 39 87.325 39 86.5 C 39 85.675 38.8875 85.01711676092482 38.75 85.03803724649958 Z " fill="#0000ff"></path></svg>
