<?xml version="1.0" encoding="utf-8"?>
<!-- Generator: Adobe Illustrator 15.1.0, SVG Export Plug-In . SVG Version: 6.00 Build 0)  -->
<!DOCTYPE svg PUBLIC "-//W3C//DTD SVG 1.1//EN" "http://www.w3.org/Graphics/SVG/1.1/DTD/svg11.dtd">
<svg version="1.1" id="Ebene_1" xmlns="http://www.w3.org/2000/svg" xmlns:xlink="http://www.w3.org/1999/xlink" x="0px" y="0px"
	 width="100px" height="100px" viewBox="0 0 100 100" enable-background="new 0 0 100 100" xml:space="preserve">
<circle fill="#B2B2B2" cx="50" cy="50" r="50"/>
<path d="M47.029,31.731c-1.762-1.212-5.836-1.982-7.048-1.982c-1.211,0-2.312-1.872-2.312-3.082c0-0.782,0-1.974,0-2.722
	c0.369-0.131,0.651-0.446,0.883-1.133c0.326-0.99-0.113-2.312-0.663-2.754c-0.551-0.439-2.533-1.76-2.533-1.76v-3.303h8.919
	c0-0.771,0.329-2.422-1.432-3.194c-1.761-0.771-6.387-1.21-6.387-1.981c0-0.881-1.869-1.32-3.082-1.32
	c-1.211,0-3.082,0.439-3.082,1.32c0,0.771-4.625,1.211-6.386,1.981c-1.762,0.772-1.432,2.423-1.432,3.194h8.917v3.303
	c0,0-1.98,1.32-2.531,1.76c-0.551,0.441-0.991,1.764-0.66,2.754c0.25,0.752,0.563,1.061,0.99,1.165c0,0.649,0,1.712,0,2.689
	c0,1.542-1.541,2.53-3.193,2.53c-0.934,0-4.403,0-7.242,0c-0.513-1.941-2.117-5.98-5.309-5.98v9.654v9.656
	c3.366,0,4.968-4.494,5.385-6.281c2.25,0,4.727,0,5.404,0c1.321,0,4.074,1.982,8.369,1.982c4.294,0,6.273-1.322,8.037-1.543
	c1.762-0.221,2.752,1.982,2.752,3.412c0,1.432,0,2.864,0,2.864h6.275c0,0,0.33-3.522,0.33-5.836
	C50,34.814,48.79,32.942,47.029,31.731z"/>
<path d="M88.921,72.301c0-0.08,0.121-1.607,0.121-1.607c0.4-0.441,0.321-1.244,0-1.406c0.04-0.359-0.121-7.592-0.121-8.152
	c0.242-0.4,0.082-1.004-0.282-1.086c0.042-0.119,0.042-0.441-0.521-0.48c-0.121-0.725-1.084-5.424-1.084-5.424l0.24-0.32
	c0.363-0.162-0.279-0.402-0.279-0.402c-1.286-1.447-7.873-2.41-11.328-2.651c-3.455-0.239-25.266-0.843-26.632-0.763
	c-1.365,0.08-1.726,0.281-1.726,0.281c-0.08-0.24-1.044-0.482-7.713,0.161c-6.668,0.643-7.472,2.25-7.472,2.652
	c0,0.4,1.446,0.32,1.446,0.32c-1.472,1.605-2.675,3.764-3.315,5.023c0.065-0.281,0.101-0.658,0.101-0.967
	c0-0.561-0.079-1.164-0.279-1.125c-0.178,0.035-0.322,0.354-0.383,0.918c-0.177,0.014-0.382,0.066-0.382,0.248
	c0,0.125,0.091,0.193,0.2,0.232c0.015,0.389,0.07,1.18,0.133,1.861c-0.34,0.424-1.424,1.93-2.06,4.773
	c-0.104,0.467-0.188,0.953-0.261,1.447c-0.116,0.01-0.289,0.053-0.261,0.24c0,0.01,0,0.023,0,0.035
	c-0.185,0.123-0.345,0.34-0.361,0.729c-0.023,0.535,0.021,0.855,0.279,1.047c0.021,0.102,0.056,0.188,0.107,0.246
	c-0.151,2.285-0.065,4.211-0.065,4.211s-0.403,0.121-0.604,0.281s-0.2,1.445-0.118,1.969c0.079,0.52,2.248,1.123,4.778,1.123
	s2.248-0.682,2.248-0.682l1.165-2.209c0,0,0.474,0.01,0.946,0.016c-0.373,0.729-0.585,1.557-0.585,2.434
	c0,2.973,2.411,5.383,5.385,5.383c2.971,0,5.382-2.41,5.382-5.383c0-0.1-0.005-0.195-0.009-0.293
	c0.042,0.008,0.072,0.012,0.091,0.012c0.398,0,25.985-0.242,26.268-0.201c0.214,0.031,0.785-0.01,1.148-0.066
	c0.252,2.74,2.554,4.887,5.359,4.887c2.879,0,5.23-2.26,5.375-5.104l0.932-0.037v-0.965l0.319-0.039c0,0,0.321,1.043,0.604,1.084
	s2.73,0.4,3.613-0.242C90.207,73.668,88.921,72.381,88.921,72.301z M29.812,59.357c-0.021-0.354-0.047-0.715-0.072-1.023
	c0.072,0.309,0.191,0.51,0.294,0.51c0.009,0,0.019-0.002,0.025-0.006C29.947,59.068,29.864,59.244,29.812,59.357z M33.811,59.688
	c-0.16,0.16-2.209-0.039-2.569,0c-0.361,0.041-0.553-0.656-0.282-1.244c0.482-1.045,2.772-4.459,2.852-4.58
	c0.082-0.119,2.651-0.201,2.691-0.08C36.544,53.904,33.972,59.527,33.811,59.688z M41.122,59.287c0,0.16-0.081,0.441-0.361,0.441
	c-0.281,0-5.785,0-6.064,0c-0.284,0,0-0.281,0.118-0.604c0.122-0.32,2.13-4.82,2.251-4.98s0.079-0.4,0.44-0.4
	s3.413-0.039,3.535-0.039c0.121,0,0.121,0.32,0.121,0.682S41.122,59.287,41.122,59.287z M45.3,59.688c-0.562,0-3.015,0-3.413,0
	c-0.403,0-0.403-0.16-0.364-0.521c0.042-0.361-0.039-4.779-0.039-5.021c0-0.24,0.039-0.521,0.403-0.521
	c0.36,0,3.292,0.039,3.292,0.039c0.403,0,0.524,0.443,0.524,0.885s0.037,3.936,0.037,4.258C45.74,59.125,45.861,59.688,45.3,59.688z
	 M55.969,58.877c-0.04,0.27-0.077,0.814-0.815,0.855c-0.739,0.037-5.835,0.076-6.261,0.076c-0.429,0-0.701-0.156-0.701-0.662
	s0.039-4.51,0.039-4.51c-0.039-0.273-0.079-0.973,0.583-0.934c0.661,0.039,6.261-0.039,6.496,0c0.23,0.039,0.698,0.039,0.659,1.09
	C55.929,55.844,56.008,58.604,55.969,58.877z M66.176,58.877c-0.037,0.27-0.077,0.814-0.815,0.855
	c-0.741,0.037-5.834,0.076-6.261,0.076c-0.429,0-0.701-0.156-0.701-0.662s0.04-4.51,0.04-4.51c-0.04-0.273-0.079-0.973,0.582-0.934
	c0.662,0.039,6.261-0.039,6.494,0c0.235,0.039,0.701,0.039,0.661,1.09C66.139,55.844,66.216,58.604,66.176,58.877z M75.587,58.877
	c-0.04,0.27-0.077,0.814-0.818,0.855c-0.738,0.037-5.834,0.076-6.263,0.076c-0.427,0-0.699-0.156-0.699-0.662s0.04-4.51,0.04-4.51
	c-0.04-0.273-0.077-0.973,0.582-0.934c0.662,0.039,6.264-0.039,6.496,0c0.233,0.039,0.699,0.039,0.662,1.09
	C75.547,55.844,75.624,58.604,75.587,58.877z M85.012,58.877c-0.04,0.27-0.077,0.814-0.816,0.855
	c-0.738,0.037-5.831,0.076-6.26,0.076s-0.701-0.156-0.701-0.662s0.039-4.51,0.039-4.51c-0.039-0.273-0.077-0.973,0.585-0.934
	c0.659,0.039,6.258-0.039,6.493,0c0.233,0.039,0.699,0.039,0.66,1.09C84.972,55.844,85.051,58.604,85.012,58.877z M86.312,59.648
	c-0.242-0.041-0.121-0.322-0.163-0.602c-0.037-0.281-0.119-4.82-0.119-4.82c0.082-0.242,0-0.121,0.562-0.162l1.165,5.543
	C87.756,59.607,86.552,59.688,86.312,59.648z"/>
</svg>
